<svg width="32" height="32" viewBox="0 0 32 32" fill="none" xmlns="http://www.w3.org/2000/svg">
<path d="M10.2972 5.53521C10.77 7.36949 11.386 8.56715 11.7991 8.98161C12.7887 9.97483 14.9203 10.1951 16.1193 10.7011C16.5094 10.8663 17.5881 8.34965 17.1888 8.12934C16.8941 7.96599 13.4717 7.52539 13.1807 7.43484C13.0311 7.38816 11.8955 5.88433 11.2528 5.0386C10.2173 3.68319 10.0383 4.53359 10.2972 5.53521Z" fill="#F7A9A0"/>
<path d="M17.9936 11.0559C17.81 11.0512 17.8036 11.1492 18.0597 11.3649C18.3159 11.5805 19.5084 12.205 19.2577 12.6111C19.0071 13.0171 17.3372 12.106 16.9379 11.7158C16.5386 11.3257 16.0254 10.5527 16.0254 10.5527C16.3862 10.6638 17.2868 10.8477 17.9936 11.0559Z" fill="#F7A9A0"/>
<path d="M16.9003 8.05078C18.6776 8.33082 19.3844 8.68461 20.1629 9.60876C20.2518 9.70861 20.3054 9.83572 20.3153 9.97001C20.6715 10.377 20.5907 10.6711 20.5907 10.6711C20.8074 11.1537 20.6825 11.4421 20.6825 11.4421C20.6825 11.4421 21.0956 11.9247 20.8496 12.2272C20.5742 12.5669 20.0491 11.822 19.5139 11.5924C18.2865 11.065 16.3926 10.6655 16.0254 10.5497L16.9003 8.05078Z" fill="#F7A9A0"/>
<path d="M18.6083 10.1236C18.9695 10.273 19.3201 10.4477 19.6576 10.6463C20.0134 10.8866 20.351 11.1537 20.6674 11.4454C20.6696 11.4466 20.6721 11.4471 20.6745 11.4467C20.677 11.4464 20.6792 11.4452 20.6809 11.4433C20.6826 11.4415 20.6837 11.4391 20.6839 11.4366C20.6841 11.4341 20.6835 11.4316 20.6821 11.4295C20.1252 10.8047 19.4105 10.3472 18.6156 10.1068C18.5973 10.1012 18.5899 10.1152 18.6083 10.1236Z" fill="#263238"/>
<path d="M18.8098 9.323C19.1504 9.50037 19.7453 9.81681 20.5779 10.6812C20.5779 10.6812 20.5862 10.6812 20.5835 10.6812C20.1316 10.0664 19.5203 9.59157 18.8181 9.30993C18.7961 9.29687 18.7878 9.31087 18.8098 9.323Z" fill="#263238"/>
<path d="M18.9286 8.89589C19.4951 9.22074 19.8118 9.49799 20.3103 9.97219C20.3103 9.97219 20.3176 9.97219 20.3149 9.96753C19.8054 9.36823 19.5538 9.20954 18.9378 8.87442C18.9158 8.86322 18.9066 8.88282 18.9286 8.89589Z" fill="#263238"/>
<path d="M12.3147 6.36795L10.6779 7.92779C10.6779 7.92779 10.0169 5.50822 10.0215 4.74276C10.0215 3.8793 10.4585 4.06973 11.0313 4.64942C11.6042 5.22911 12.3147 6.36795 12.3147 6.36795Z" fill="#A8A8A8"/>
<path opacity="0.1" d="M12.3147 6.36795L10.6779 7.92779C10.6779 7.92779 10.0169 5.50822 10.0215 4.74276C10.0215 3.8793 10.4585 4.06973 11.0313 4.64942C11.6042 5.22911 12.3147 6.36795 12.3147 6.36795Z" fill="black"/>
<path d="M11.9796 6.12211C11.7446 6.292 11.1102 6.90249 11.0037 7.00237C10.9477 7.05558 10.7347 7.27495 10.6787 7.32722C10.6714 7.33376 10.6787 7.34403 10.6898 7.33749C10.7972 7.23854 10.9147 7.1508 11.0221 7.05092C11.1295 6.95103 11.7978 6.35454 11.9869 6.13051C11.9915 6.12584 11.9851 6.11837 11.9796 6.12211Z" fill="#263238"/>
<path d="M20.99 25.0855C20.7679 25.1593 14.3711 24.8988 14.1315 24.7411C14.1021 24.7234 13.9883 23.4725 13.9883 23.4725L14.7282 18.666L18.9282 18.723L18.1175 22.8303C18.1175 22.8303 19.0429 23.2634 19.8058 23.6415C20.2758 23.873 20.6843 24.0849 20.778 24.1623C21.024 24.3621 21.2131 25.0127 20.99 25.0855Z" fill="#F7A9A0"/>
<path d="M20.988 25.0857C20.7658 25.1595 14.3672 24.899 14.1285 24.7422C14.1 24.7235 13.9844 23.4727 13.9844 23.4727L14.213 21.9922L18.2422 22.1789L18.1118 22.8267C18.1118 22.8267 19.0363 23.2599 19.8 23.637C20.2701 23.8685 20.6786 24.0804 20.7722 24.1579C21.0201 24.3632 21.2092 25.0139 20.988 25.0857Z" fill="#EBEBEB"/>
<path d="M20.9837 25.0909C20.7569 25.1628 14.3179 25.0106 14.0765 24.8463C13.9847 24.7857 13.9507 23.8298 13.9434 22.6741V22.6387L18.0992 22.69V22.761C18.0992 22.761 20.5384 23.9409 20.7854 24.15C21.0323 24.3591 21.2104 25.0218 20.9837 25.0909Z" fill="#C7C7C7"/>
<path d="M20.6165 25.1087C19.2073 25.1236 14.2821 24.9892 14.0765 24.8464C13.9847 24.7857 13.9507 23.8298 13.9434 22.6741V22.6387L16.546 22.6704L20.6165 25.1087Z" fill="#A6A6A6"/>
<path d="M20.9179 24.8375C19.8328 24.7843 15.4519 24.6751 14.376 24.7069C14.3668 24.7069 14.3668 24.7134 14.376 24.7143C15.4501 24.7899 19.8309 24.8627 20.9169 24.8553C20.9399 24.8553 20.9408 24.8385 20.9179 24.8375Z" fill="#263238"/>
<path d="M18.4467 22.7834C18.0217 22.69 17.4975 22.746 17.1615 23.0485C17.1486 23.0597 17.1615 23.0783 17.1789 23.0737C17.5902 22.9496 18.0134 22.8707 18.4412 22.8384C18.4478 22.8381 18.454 22.8354 18.4588 22.8308C18.4635 22.8261 18.4665 22.82 18.4672 22.8133C18.4678 22.8066 18.4661 22.8 18.4624 22.7945C18.4586 22.789 18.4531 22.785 18.4467 22.7834Z" fill="#263238"/>
<path d="M18.7494 22.9805C18.3244 22.8871 17.8002 22.9441 17.4642 23.2456C17.4513 23.2568 17.4642 23.2754 17.4816 23.2717C17.8939 23.1481 18.318 23.0698 18.7467 23.0383C18.7542 23.0387 18.7616 23.036 18.7672 23.0308C18.7728 23.0257 18.7761 23.0185 18.7765 23.0108C18.7769 23.0031 18.7742 22.9956 18.7692 22.9899C18.7641 22.9842 18.757 22.9808 18.7494 22.9805Z" fill="#263238"/>
<path d="M19.0502 23.1777C18.6252 23.0844 18.101 23.1413 17.765 23.4428C17.7521 23.455 17.765 23.4727 17.7824 23.469C18.1937 23.3447 18.6169 23.2655 19.0447 23.2328C19.0513 23.2325 19.0575 23.2297 19.0623 23.2251C19.067 23.2205 19.07 23.2143 19.0707 23.2077C19.0714 23.201 19.0697 23.1943 19.0659 23.1888C19.0621 23.1833 19.0566 23.1794 19.0502 23.1777Z" fill="#263238"/>
<path d="M18.4679 22.2097L13.7796 21.9931C13.7796 21.9931 15.3999 15.3029 15.2273 15.0854C15.0437 14.852 8.25585 16.579 6.89901 14.867C5.50913 13.113 6.2059 10.5879 6.2059 10.5879H10.8355C10.8355 10.5879 10.7437 11.2199 10.8061 11.5214C10.8061 11.5214 17.3241 10.5076 18.7415 11.2712C19.0169 11.4215 20.0267 12.2654 20.0433 13.0653C20.1323 16.5986 18.4679 22.2097 18.4679 22.2097Z" fill="#455A64"/>
<path d="M18.5118 21.3447C17.9555 21.2737 17.3982 21.2308 16.8392 21.1878C16.2801 21.1449 15.721 21.1113 15.1619 21.0898C14.8461 21.0768 14.5303 21.0796 14.2145 21.0684C14.2129 21.0689 14.2115 21.07 14.2105 21.0714C14.2095 21.0728 14.209 21.0745 14.209 21.0763C14.209 21.078 14.2095 21.0797 14.2105 21.0812C14.2115 21.0826 14.2129 21.0837 14.2145 21.0842C14.4954 21.1048 14.7754 21.1412 15.0564 21.1636L15.8881 21.2252C16.4472 21.2625 17.0062 21.2943 17.5653 21.3288C17.8802 21.3484 18.1951 21.3587 18.5109 21.3661C18.5132 21.3656 18.5152 21.3642 18.5168 21.3624C18.5183 21.3605 18.5191 21.3582 18.5192 21.3558C18.5193 21.3533 18.5187 21.351 18.5173 21.349C18.516 21.347 18.514 21.3455 18.5118 21.3447Z" fill="#263238"/>
<path d="M15.9502 14.6091C15.0496 14.639 14.1536 14.7183 13.2576 14.808C12.3616 14.8976 11.4601 14.9947 10.5568 15.0544C10.1088 15.0833 9.65897 15.102 9.20914 15.1048C8.83551 15.1211 8.46155 15.0815 8.09925 14.9872C7.73954 14.8803 7.4321 14.6406 7.23723 14.3151C7.04131 13.9852 6.91297 13.6185 6.85992 13.2369C6.74149 12.4649 6.85992 11.6761 6.99854 10.9144C7.01598 10.8211 7.03343 10.7277 7.04995 10.6269C7.04995 10.6185 7.03801 10.6148 7.03526 10.6269C6.85166 11.3952 6.67999 12.1858 6.73507 12.9793C6.75759 13.3686 6.85097 13.7503 7.01047 14.105C7.15434 14.4497 7.40178 14.7392 7.71735 14.9321C8.03958 15.1188 8.42056 15.1739 8.79052 15.1925C9.22199 15.215 9.65897 15.1925 10.0904 15.1729C11.014 15.1272 11.9338 15.0301 12.8519 14.933C13.7699 14.836 14.6833 14.7407 15.6059 14.6941C15.7078 14.6885 15.8097 14.6847 15.9116 14.681C15.7721 15.5211 14.5906 20.5227 14.5245 20.9185C14.5181 20.9577 14.5548 20.9698 14.5649 20.9297C14.7668 20.1503 15.9135 15.1421 15.9897 14.653C15.9909 14.6473 15.9907 14.6414 15.9892 14.6358C15.9878 14.6301 15.985 14.625 15.9811 14.6207C15.9772 14.6164 15.9724 14.6131 15.967 14.6111C15.9616 14.6091 15.9559 14.6084 15.9502 14.6091Z" fill="#263238"/>
<path d="M19.5662 25.2793H9.54688V26.406H19.5662V25.2793Z" fill="#A8A8A8"/>
<path d="M0.740234 15.3965H1.30849L4.98058 19.6681H4.41233L0.740234 15.3965Z" fill="#A6A6A6"/>
<path d="M7.89683 15.0586H0V15.3965H7.89683V15.0586Z" fill="#A6A6A6"/>
<path d="M2.88086 15.3965H3.44912L7.12121 19.6681H6.55295L2.88086 15.3965Z" fill="#A6A6A6"/>
<path d="M6.53467 23.2715C9.38788 23.2715 11.0412 25.2869 11.0412 27.6588C11.0412 30.0308 9.50998 32.0004 6.72745 32.0004C3.64841 32.0004 2.17773 29.5099 2.17773 27.6374C2.17773 25.7648 3.64657 23.2715 6.53467 23.2715Z" fill="#37474F"/>
<path d="M6.09915 23.2715C8.81191 23.2715 10.3826 25.2869 10.3826 27.6588C10.3826 30.0308 8.92758 32.0004 6.28092 32.0004C3.35334 32.0004 1.95703 29.5062 1.95703 27.6336C1.95703 25.7611 3.35334 23.2715 6.09915 23.2715Z" fill="#263238"/>
<path d="M6.12509 24.9746C7.77753 24.9746 8.73503 26.2031 8.73503 27.6481C8.73503 29.0931 7.84822 30.2926 6.23617 30.2926C4.45153 30.2926 3.59961 28.7748 3.59961 27.6332C3.59961 26.4915 4.45153 24.9746 6.12509 24.9746Z" fill="#C7C7C7"/>
<path d="M14.6105 17.9541V17.5723L5.00887 17.8868V18.7456C5.00887 18.7456 2.22818 21.8681 1.94727 25.1138L11.5755 25.3211L13.1224 25.2819H15.0217V23.3197C15.0217 23.3197 13.586 22.2555 13.8375 20.0815C13.921 19.3599 14.6105 17.9541 14.6105 17.9541Z" fill="#A8A8A8"/>
<path d="M10.6804 24.8636C10.5804 25.0503 9.1198 25.3182 6.35105 25.3938C3.85861 25.462 1.99686 25.406 1.85274 25.2426C1.70861 25.0793 2.07581 22.1901 3.76314 20.6256C5.45047 19.0611 7.83916 18.8361 9.41449 19.7696C10.7998 20.5883 11.8335 22.669 10.6804 24.8636Z" fill="#A8A8A8"/>
<path opacity="0.1" d="M11.1489 22.1313C11.0008 21.4471 10.6594 20.8219 10.1666 20.3324C9.67253 19.8291 9.05561 19.4686 8.37919 19.2879C7.62466 19.0964 6.83441 19.1051 6.08413 19.3131C5.70864 19.4132 5.34554 19.5563 5.00178 19.7397C4.63884 19.938 4.29678 20.1735 3.98094 20.4426C3.89648 20.5135 3.81111 20.5845 3.72757 20.6573C3.72022 20.6629 3.72757 20.6732 3.73858 20.6676C4.05636 20.3834 4.40038 20.1311 4.76585 19.9142C5.09934 19.7206 5.45316 19.5656 5.82066 19.4522C6.54926 19.2205 7.32301 19.1762 8.07257 19.3234C8.75001 19.4618 9.37787 19.7844 9.88933 20.2568C10.3822 20.708 10.7446 21.2873 10.9377 21.9324C11.1672 22.7184 11.0919 23.5838 10.8634 24.3595C10.8331 24.464 10.8 24.5667 10.766 24.6694C10.766 24.6806 10.7789 24.6843 10.7826 24.6741C11.091 23.8685 11.3214 23.0003 11.1489 22.1313Z" fill="black"/>
<path d="M4.47826 25.694C2.80654 25.694 1.92157 25.6418 1.47266 25.4607L1.68105 24.9276C2.20616 25.1395 3.85033 25.1358 6.49608 25.105C8.45055 25.0817 9.89276 24.894 10.7924 24.5449L10.9935 25.0807C10.0204 25.4541 8.55153 25.652 6.5025 25.6763C5.72494 25.6875 5.05478 25.694 4.47826 25.694Z" fill="#DBDBDB"/>
<path d="M14.77 17.8238C14.77 17.8238 14.8343 15.688 14.77 15.604C14.7058 15.52 4.98576 15.3417 4.69475 15.3678C4.40374 15.394 4.37436 17.8882 4.39639 18.0049C4.41842 18.1216 14.5167 17.8462 14.77 17.8238Z" fill="#37474F"/>
<path d="M15.6819 15.6471C15.6534 15.6135 14.4214 15.578 14.3535 15.5762C14.2856 15.5743 14.2617 17.8511 14.2984 17.8492C14.3352 17.8473 15.6369 17.866 15.6801 17.8175C15.7232 17.7689 15.7434 15.7199 15.6819 15.6471Z" fill="#455A64"/>
<path d="M8.87096 15.3672C8.83613 15.4041 8.81337 15.451 8.80578 15.5016C8.79425 15.5549 8.78597 15.6088 8.78099 15.6631C8.76906 15.7714 8.76263 15.8815 8.75712 15.9908C8.74794 16.2111 8.74243 16.4323 8.73876 16.6545C8.73509 16.8766 8.72958 17.0969 8.73876 17.3163C8.73958 17.4249 8.74693 17.5334 8.76079 17.6411C8.76631 17.6932 8.77834 17.7443 8.7966 17.7933C8.80331 17.8153 8.81518 17.8352 8.83117 17.8515C8.84716 17.8678 8.8668 17.8798 8.8884 17.8866C8.86417 17.8859 8.84066 17.8782 8.82064 17.8643C8.80063 17.8504 8.78496 17.8309 8.77548 17.8082C8.7498 17.7594 8.72977 17.7077 8.71581 17.6542C8.68983 17.5448 8.67294 17.4333 8.66532 17.321C8.64837 17.0974 8.64285 16.873 8.6488 16.6489C8.6543 16.4258 8.66348 16.2017 8.68827 15.9786C8.70019 15.867 8.71765 15.7561 8.7406 15.6463C8.75341 15.592 8.76904 15.5384 8.78742 15.4857C8.8021 15.44 8.82781 15.3831 8.87096 15.3672Z" fill="#455A64"/>
<path d="M0.367566 15.0527L9.54688 15.0527V9.25023H0.367566V15.0527Z" fill="#37474F"/>
<path d="M0.364298 15.0527H6.99609L6.99609 9.25023H0.364298L0.364298 15.0527Z" fill="#263238"/>
<path d="M4.03557 9.24805H3.32227V15.0505H4.03557V9.24805Z" fill="#A8A8A8"/>
<path d="M6.99681 8.71484H0.177734V9.25159H6.99681V8.71484Z" fill="#37474F"/>
<path d="M9.74924 8.71484H6.99609V9.25159H9.74924V8.71484Z" fill="#263238"/>
<path d="M4.09528 8.71484H3.26172V9.25159H4.09528V8.71484Z" fill="#A8A8A8"/>
<path d="M1.33646 8.73828H8.03711V4.50216L1.33646 4.50216L1.33646 8.73828Z" fill="#37474F"/>
<path d="M1.337 8.73828H6.17773L6.17773 4.50216L1.337 4.50216L1.337 8.73828Z" fill="#263238"/>
<path d="M4.01661 4.50391H3.49609V8.74003H4.01661V4.50391Z" fill="#A8A8A8"/>
<path d="M6.17674 4.10742H1.19922V4.49948H6.17674V4.10742Z" fill="#37474F"/>
<path d="M8.18729 4.10742H6.17773V4.49948H8.18729V4.10742Z" fill="#263238"/>
<path d="M4.06568 4.10742H3.45703V4.49948H4.06568V4.10742Z" fill="#A8A8A8"/>
<path d="M27.4935 23.2344C30.3477 23.2344 32.0001 25.2498 32.0001 27.6217C32.0001 29.9937 30.4688 31.9605 27.6854 31.9605C24.6054 31.9605 23.1348 29.47 23.1348 27.5984C23.1348 25.7268 24.6054 23.2344 27.4935 23.2344Z" fill="#37474F"/>
<path d="M27.0532 23.2344C29.766 23.2344 31.3376 25.2498 31.3376 27.6217C31.3376 29.9937 29.8816 31.9605 27.2359 31.9605C24.3083 31.9605 22.9102 29.47 22.9102 27.5984C22.9102 25.7268 24.3083 23.2344 27.0532 23.2344Z" fill="#263238"/>
<path d="M27.0812 24.9375C28.7336 24.9375 29.6921 26.166 29.6921 27.611C29.6921 29.056 28.8052 30.2555 27.1923 30.2555C25.4086 30.2555 24.5566 28.7377 24.5566 27.597C24.5566 26.4563 25.4086 24.9375 27.0812 24.9375Z" fill="#C7C7C7"/>
<path d="M22.8764 13.3259H21.7537L20.9844 12.1777H22.2999L22.8764 13.3259Z" fill="#A8A8A8"/>
<path d="M20.9844 12.1777L21.4351 12.8498L21.7537 13.3259H22.8764L22.5726 12.721L22.299 12.1777H20.9844Z" fill="#A8A8A8"/>
<path opacity="0.1" d="M20.9844 12.1777L21.4351 12.8498L22.5726 12.721L22.299 12.1777H20.9844Z" fill="black"/>
<path d="M25.6017 21.8939L24.5083 22.1496L23.5059 21.205L24.7874 20.9062L25.6017 21.8939Z" fill="#A8A8A8"/>
<path d="M23.5059 21.205L24.0925 21.7585L24.5074 22.1496L25.6026 21.8939L25.173 21.3739L24.7874 20.9062L23.5059 21.205Z" fill="#A8A8A8"/>
<path opacity="0.1" d="M23.5059 21.205L24.0925 21.7585L25.173 21.3739L24.7874 20.9062L23.5059 21.205Z" fill="black"/>
<path d="M31.7522 23.7967L30.6901 24.3643C30.6901 24.3643 27.6138 23.7967 25.6409 24.2261C23.6681 24.6555 23.1356 25.7272 23.1356 25.7272H22.1387C22.1387 25.7272 22.9943 22.6364 24.4457 21.5144C25.8971 20.3923 28.2298 20.6434 29.5196 21.3501C30.8094 22.0567 31.7522 23.7967 31.7522 23.7967Z" fill="#A8A8A8"/>
<path opacity="0.1" d="M30.5762 24.1521C30.3704 23.9336 30.1475 23.7326 29.9097 23.5509C29.674 23.3647 29.4248 23.1968 29.1642 23.0487C28.6591 22.7633 28.1052 22.5783 27.532 22.5036C26.4102 22.3635 25.2369 22.6959 24.4107 23.5724C23.9462 24.069 23.6157 24.6786 23.3018 25.2937C23.2972 25.3031 23.31 25.3105 23.3146 25.3012C23.5806 24.7603 23.9165 24.258 24.3134 23.8076C24.6958 23.383 25.1719 23.0567 25.7024 22.8555C26.7609 22.4606 27.9056 22.6118 28.9228 23.0888C29.2141 23.2231 29.4951 23.3791 29.7637 23.5556C30.0384 23.7437 30.3034 23.9459 30.5578 24.1614C30.5594 24.1629 30.5615 24.1639 30.5637 24.1642C30.5659 24.1645 30.5681 24.1641 30.5701 24.1631C30.5721 24.1621 30.5737 24.1605 30.5748 24.1586C30.5759 24.1566 30.5764 24.1543 30.5762 24.1521Z" fill="black"/>
<path d="M18.9069 12.7093C18.8904 12.7485 16.6734 13.163 16.6734 13.163C16.6734 13.163 16.3062 12.911 16.5329 12.5917L18.7573 12.1035C18.8428 12.1748 18.9035 12.2722 18.9304 12.3813C18.9574 12.4904 18.9491 12.6054 18.9069 12.7093Z" fill="#263238"/>
<path d="M23.5562 9.7956V12.47C23.5562 12.47 22.1361 12.344 21.7578 12.3309C21.3796 12.3179 19.6987 12.5391 19.6987 12.5391L19.5684 11.9398C19.5684 11.9398 20.8646 11.4796 21.4154 11.1202C21.9662 10.7608 22.6006 10.0738 22.9412 9.92162C23.1339 9.83204 23.3444 9.78891 23.5562 9.7956Z" fill="#A8A8A8"/>
<path d="M19.7078 11.8652C19.7922 11.9535 19.8559 12.0601 19.894 12.177C19.9322 12.2939 19.9438 12.418 19.9281 12.5401C19.9281 12.5401 18.8696 12.7371 18.8568 12.7371C18.8655 12.6105 18.8354 12.4842 18.7704 12.3758C18.7054 12.2674 18.6089 12.1823 18.4941 12.1322L19.7078 11.8652Z" fill="#DBDBDB"/>
<path d="M23.5748 12.4684C23.9591 12.4684 24.2706 11.8699 24.2706 11.1317C24.2706 10.3934 23.9591 9.79492 23.5748 9.79492C23.1905 9.79492 22.8789 10.3934 22.8789 11.1317C22.8789 11.8699 23.1905 12.4684 23.5748 12.4684Z" fill="#DBDBDB"/>
<path d="M23.6153 12.3274C23.9444 12.3274 24.2111 11.7933 24.2111 11.1344C24.2111 10.4755 23.9444 9.94141 23.6153 9.94141C23.2863 9.94141 23.0195 10.4755 23.0195 11.1344C23.0195 11.7933 23.2863 12.3274 23.6153 12.3274Z" fill="white"/>
<path d="M23.7988 13.3301C24.0301 13.6745 24.9564 18.3587 25.1382 18.594C25.3199 18.8292 25.6679 18.846 25.6679 18.846L26.2802 20.3937C26.2802 20.3937 24.759 20.8819 23.9144 21.5876C22.8229 22.4996 21.814 25.5232 21.814 25.5232C21.6488 25.6408 19.5979 26.4987 19.0352 26.5323C19.0352 26.5323 21.6506 23.6123 21.8636 19.5713C21.9462 18.0059 20.9988 15.801 20.9373 14.7088C20.8694 13.5364 21.2182 13.3301 21.8305 13.3301H23.7988Z" fill="#A8A8A8"/>
<path d="M18.9036 26.8658L18.4941 26.4718C20.7892 24.0019 21.6356 20.1102 21.5686 19.0479C21.5337 18.5037 21.362 17.895 21.1794 17.25C20.9847 16.562 20.7644 15.7826 20.6708 14.9359C20.5836 14.1499 20.6708 13.6421 20.9342 13.3387C21.1977 13.0353 21.5594 13.0363 21.7999 13.0372H23.9848V13.6104H21.799C21.5888 13.6104 21.4456 13.6178 21.3547 13.7215C21.2638 13.8251 21.1454 14.0948 21.2317 14.8724C21.3235 15.6706 21.5245 16.3931 21.7219 17.0913C21.9129 17.7671 22.0891 18.4047 22.1313 19.0105C22.203 20.1447 21.3226 24.2735 18.9036 26.8658Z" fill="#DBDBDB"/>
<path d="M25.1473 19.8723C25.2758 20.354 25.6806 20.6602 26.0515 20.5575C26.4224 20.4548 26.6198 19.9815 26.4903 19.5008C26.3609 19.02 25.956 18.712 25.5852 18.8147C25.2143 18.9173 25.0178 19.3916 25.1473 19.8723Z" fill="#DBDBDB"/>
<path d="M25.2864 19.8344C25.4011 20.2638 25.7518 20.5401 26.0694 20.4523C26.3871 20.3646 26.5505 19.9455 26.4366 19.5189C26.3228 19.0923 25.9712 18.8132 25.6545 18.9009C25.3378 18.9887 25.1716 19.405 25.2864 19.8344Z" fill="white"/>
<path opacity="0.1" d="M23.5237 19.7976C23.4218 19.3131 23.3116 18.8305 23.2161 18.3451C23.1207 17.8597 23.0325 17.3734 22.9582 16.8852C22.8857 16.4306 22.8076 15.9713 22.7792 15.5111C22.7507 15.0303 22.7792 14.5449 23.0087 14.1109C23.0092 14.11 23.0095 14.1091 23.0096 14.1081C23.0097 14.1071 23.0096 14.1061 23.0094 14.1052C23.0091 14.1042 23.0087 14.1033 23.0081 14.1025C23.0075 14.1017 23.0068 14.1011 23.0059 14.1006C23.0051 14.1001 23.0041 14.0998 23.0032 14.0997C23.0022 14.0995 23.0012 14.0996 23.0003 14.0999C22.9994 14.1001 22.9985 14.1006 22.9977 14.1012C22.9969 14.1018 22.9963 14.1025 22.9958 14.1034C22.7599 14.4535 22.6828 14.8745 22.6699 15.2917C22.6711 15.7517 22.7111 16.2108 22.7893 16.6639C22.9232 17.6589 23.1071 18.6462 23.3401 19.6221C23.4732 20.1738 23.6449 20.7162 23.8285 21.252C23.8285 21.2537 23.8291 21.2554 23.8303 21.2566C23.8316 21.2578 23.8332 21.2585 23.8349 21.2585C23.8366 21.2585 23.8382 21.2578 23.8394 21.2566C23.8406 21.2554 23.8413 21.2537 23.8413 21.252C23.7318 20.7647 23.6259 20.2799 23.5237 19.7976Z" fill="black"/>
<path opacity="0.1" d="M15.0218 23.3197V25.28H13.3767V23.7958C13.3767 23.7958 12.4587 23.3244 12.2751 21.6096C12.1099 20.0563 13.329 17.983 13.5603 17.6068L14.6078 17.5723V17.9541C14.6078 17.9541 13.9184 19.3599 13.8348 20.0815C13.586 22.2555 15.0218 23.3197 15.0218 23.3197Z" fill="black"/>
<path d="M19.1619 25.7369C18.9398 25.8097 12.5421 25.5502 12.3025 25.3924C12.274 25.3747 12.1602 24.1229 12.1602 24.1229L12.9001 19.3164L17.1 19.3733L16.2894 23.4807C16.2894 23.4807 17.2139 23.9129 17.9777 24.2909C18.4477 24.5233 18.8562 24.7352 18.9499 24.8118C19.195 25.0134 19.3841 25.6641 19.1619 25.7369Z" fill="#F7A9A0"/>
<path d="M19.1638 25.7371C18.9407 25.8099 12.543 25.5504 12.3043 25.3926C12.2749 25.3749 12.1602 24.124 12.1602 24.124L12.3887 22.6426L16.4179 22.8293L16.2903 23.4752C16.2903 23.4752 17.2148 23.9084 17.9786 24.2855C18.4477 24.5179 18.8571 24.7298 18.9508 24.8064C19.1959 25.0145 19.385 25.6642 19.1638 25.7371Z" fill="#EBEBEB"/>
<path d="M19.1585 25.7461C18.9327 25.818 12.4928 25.6649 12.2513 25.5006C12.1595 25.44 12.1265 24.485 12.1191 23.3294V23.293L16.2741 23.3443V23.4162C16.2741 23.4162 18.7133 24.5952 18.9602 24.8043C19.2072 25.0134 19.3853 25.6743 19.1585 25.7461Z" fill="#C7C7C7"/>
<path d="M19.0888 25.489C18.0046 25.4367 13.6238 25.3275 12.5479 25.3592C12.5387 25.3592 12.5387 25.3657 12.5479 25.3657C13.622 25.4423 18.0028 25.5151 19.0888 25.5076C19.1118 25.5067 19.1118 25.4899 19.0888 25.489Z" fill="#263238"/>
<path d="M16.6229 23.4355C16.1978 23.3422 15.6736 23.3991 15.3376 23.7006C15.3239 23.7128 15.3376 23.7305 15.3551 23.7268C15.7663 23.6024 16.1895 23.5232 16.6174 23.4906C16.6239 23.4903 16.6302 23.4876 16.6349 23.4829C16.6397 23.4783 16.6427 23.4721 16.6434 23.4655C16.644 23.4588 16.6423 23.4521 16.6386 23.4467C16.6348 23.4412 16.6292 23.4372 16.6229 23.4355Z" fill="#263238"/>
<path d="M16.9252 23.633C16.5002 23.5396 15.976 23.5957 15.64 23.8972C15.6271 23.9093 15.64 23.928 15.6574 23.9233C16.069 23.7988 16.4925 23.7197 16.9206 23.6871C16.9241 23.6874 16.9276 23.687 16.931 23.686C16.9343 23.6849 16.9374 23.6832 16.9401 23.6809C16.9428 23.6786 16.945 23.6757 16.9466 23.6726C16.9483 23.6694 16.9492 23.6659 16.9495 23.6624C16.9498 23.6588 16.9494 23.6553 16.9484 23.6519C16.9473 23.6485 16.9456 23.6453 16.9434 23.6426C16.9411 23.6398 16.9383 23.6376 16.9352 23.6359C16.9321 23.6343 16.9287 23.6333 16.9252 23.633Z" fill="#263238"/>
<path d="M17.2279 23.8283C16.8029 23.7349 16.2787 23.7909 15.9427 24.0934C15.9299 24.1046 15.9427 24.1233 15.9602 24.1186C16.3715 23.995 16.7947 23.9161 17.2224 23.8834C17.229 23.883 17.2352 23.8803 17.24 23.8757C17.2448 23.8711 17.2478 23.8649 17.2484 23.8582C17.2491 23.8516 17.2474 23.8449 17.2436 23.8394C17.2399 23.8339 17.2343 23.83 17.2279 23.8283Z" fill="#263238"/>
<path d="M16.6433 22.8616L11.9549 22.6441C11.9549 22.6441 13.5761 15.9539 13.4036 15.7364C13.2199 15.5021 7.03798 17.2299 5.68023 15.5179C4.29034 13.7639 5.68023 10.8281 5.68023 10.8281H10.4328C10.4328 10.8281 10.4328 11.3658 10.1097 12.1705C10.1097 12.1705 15.4985 11.1558 16.9187 11.9194C17.1987 12.0706 18.2039 12.9145 18.2204 13.7144C18.303 17.2523 16.6433 22.8616 16.6433 22.8616Z" fill="#455A64"/>
<path d="M16.6903 21.994C16.134 21.9231 15.5758 21.8792 15.0167 21.8372C14.4577 21.7952 13.8995 21.7607 13.3395 21.7383C13.0246 21.7261 12.7088 21.7289 12.393 21.7168C12.3908 21.7168 12.3887 21.7177 12.3872 21.7193C12.3856 21.7208 12.3848 21.723 12.3848 21.7252C12.3848 21.7274 12.3856 21.7296 12.3872 21.7311C12.3887 21.7327 12.3908 21.7336 12.393 21.7336C12.6739 21.7541 12.9539 21.7896 13.2349 21.812C13.5158 21.8344 13.7857 21.855 14.0666 21.8736C14.6247 21.9119 15.1838 21.9427 15.7429 21.9782C16.0587 21.9978 16.3736 22.008 16.6894 22.0155C16.6917 22.0149 16.6937 22.0136 16.6953 22.0117C16.6968 22.0099 16.6976 22.0075 16.6977 22.0051C16.6978 22.0027 16.6972 22.0003 16.6958 21.9983C16.6945 21.9963 16.6925 21.9948 16.6903 21.994Z" fill="#263238"/>
<path d="M7.66777 11.2305C7.66154 11.2502 7.65356 11.2692 7.6439 11.2874C7.64286 11.2888 7.64229 11.2904 7.64229 11.2921C7.64229 11.2938 7.64286 11.2955 7.6439 11.2968C7.58882 11.4713 7.56587 11.6562 7.51262 11.8317C7.46205 12.0179 7.34987 12.1808 7.19499 12.2928C6.87001 12.5224 6.47985 12.6261 6.10162 12.7213C6.09935 12.722 6.09735 12.7234 6.09593 12.7253C6.09452 12.7272 6.09375 12.7296 6.09375 12.732C6.09375 12.7344 6.09452 12.7368 6.09593 12.7387C6.09735 12.7406 6.09935 12.7421 6.10162 12.7427C6.31965 12.744 6.53652 12.7103 6.74424 12.6429C6.93941 12.5879 7.12342 12.4982 7.2877 12.3777C7.44201 12.259 7.55206 12.0905 7.59983 11.8998C7.62293 11.7984 7.641 11.6959 7.654 11.5927C7.67525 11.474 7.68783 11.3539 7.69164 11.2333C7.69029 11.2315 7.68859 11.2299 7.68664 11.2288C7.68469 11.2277 7.68253 11.2269 7.68029 11.2267C7.67806 11.2264 7.6758 11.2266 7.67364 11.2273C7.67149 11.2279 7.66949 11.229 7.66777 11.2305Z" fill="#263238"/>
<path d="M10.8748 11.934C10.6163 12.0098 10.3645 12.1076 10.122 12.2262L10.1101 12.2318C10.1151 12.2166 10.1187 12.201 10.1211 12.1851C10.1211 12.1664 10.1266 12.1487 10.1303 12.13C10.1339 12.1114 10.1303 12.0918 10.1358 12.0722V12.0423C10.167 12.0402 10.1975 12.0316 10.2253 12.017C10.2531 12.0024 10.2777 11.9821 10.2974 11.9573C10.3481 11.8857 10.3823 11.8034 10.3974 11.7165C10.4259 11.6082 10.4525 11.4981 10.4755 11.3879C10.4984 11.2778 10.5232 11.1424 10.5425 11.0145C10.5658 10.8935 10.5796 10.7709 10.5838 10.6477C10.5838 10.6432 10.582 10.6389 10.5789 10.6358C10.5758 10.6326 10.5716 10.6309 10.5673 10.6309C10.5629 10.6309 10.5587 10.6326 10.5556 10.6358C10.5525 10.6389 10.5507 10.6432 10.5507 10.6477C10.5223 10.7606 10.5094 10.8773 10.4883 10.9912C10.4672 11.1051 10.4433 11.2199 10.4176 11.3338C10.3919 11.4477 10.3644 11.5615 10.3332 11.6736C10.3019 11.7856 10.2781 11.9191 10.1642 11.9536C9.92923 12.0217 10.0348 11.4869 10.0449 11.3804C10.0688 11.1377 10.0835 10.8894 10.1257 10.6486C10.1257 10.6393 10.1119 10.6346 10.1101 10.6486C10.0587 10.8698 10.0008 11.0873 9.96228 11.3114C9.943 11.4215 9.92923 11.5326 9.9173 11.6428C9.89823 11.7382 9.90587 11.8371 9.93933 11.9284C9.95389 11.9592 9.97564 11.986 10.0027 12.0063C10.0297 12.0266 10.0612 12.0399 10.0945 12.0451L10.0871 12.0703C10.0816 12.088 10.0761 12.1058 10.0715 12.1235C10.0669 12.1412 10.0633 12.1599 10.0596 12.1776C10.0515 12.1987 10.0487 12.2215 10.0513 12.2439C10.0534 12.2502 10.0576 12.2555 10.0633 12.2588C9.9632 12.3027 9.86221 12.3466 9.76307 12.3942C9.63842 12.444 9.51779 12.5036 9.40228 12.5725C9.38851 12.579 9.40228 12.5977 9.41238 12.5949C9.54164 12.558 9.66805 12.5115 9.79061 12.4558C9.91638 12.4073 10.0403 12.355 10.1652 12.3018C10.4125 12.2095 10.6517 12.0961 10.8803 11.9629C10.8841 11.9622 10.8874 11.96 10.8896 11.9567C10.8917 11.9535 10.8925 11.9495 10.8918 11.9457C10.891 11.9418 10.8888 11.9384 10.8857 11.9363C10.8825 11.9341 10.8786 11.9333 10.8748 11.934Z" fill="#263238"/>
<path d="M18.0808 13.1033C17.9182 12.6172 17.5891 12.2067 17.1536 11.9468C16.7065 11.6957 16.1851 11.6284 15.6848 11.6126C15.1027 11.5948 14.517 11.6256 13.9359 11.663C13.3172 11.7022 12.6984 11.7619 12.0834 11.8497C11.4683 11.9374 10.8642 12.0448 10.2593 12.1773C10.1142 12.2091 9.97008 12.2483 9.82595 12.2893C9.81493 12.2893 9.81677 12.3136 9.82595 12.3118C10.4273 12.2259 11.0258 12.1251 11.6271 12.041C12.2284 11.957 12.8361 11.8908 13.4439 11.8441C14.0516 11.7974 14.6529 11.7713 15.2579 11.7619C15.7536 11.7545 16.2677 11.7619 16.7387 11.9244C16.9715 12 17.1872 12.1222 17.373 12.2837C17.5555 12.4497 17.7051 12.6496 17.8137 12.8728C18.0615 13.3684 18.0845 13.9369 18.1093 14.4858C18.1809 16.1147 17.0288 21.2909 16.824 22.1226C16.8235 22.1298 16.8255 22.137 16.8297 22.1429C16.8338 22.1488 16.8399 22.153 16.8468 22.1548C16.8537 22.1565 16.861 22.1558 16.8674 22.1526C16.8738 22.1495 16.8789 22.1441 16.8819 22.1375C17.1123 21.1985 18.2589 16.3089 18.2589 14.8396C18.2598 14.2534 18.2809 13.656 18.0808 13.1033Z" fill="#263238"/>
<path d="M14.0902 15.1693C13.2502 15.1992 12.4148 15.2786 11.5794 15.3682C10.744 15.4578 9.90218 15.5549 9.06127 15.6146C8.64266 15.6436 8.22312 15.6622 7.80358 15.665C7.45477 15.6816 7.10557 15.6419 6.76897 15.5474C6.42711 15.4351 6.13978 15.1953 5.96478 14.8762C5.78111 14.5419 5.66179 14.175 5.61318 13.7953C5.50302 13.0233 5.61318 12.2345 5.74262 11.4728C5.75915 11.3794 5.77475 11.2861 5.79128 11.1862C5.79128 11.1769 5.77934 11.1731 5.77751 11.1862C5.60217 11.9544 5.44518 12.7451 5.5021 13.5386C5.52296 13.9263 5.60961 14.3075 5.75823 14.6653C5.88779 15.0038 6.11827 15.2927 6.41737 15.4914C6.72539 15.659 7.0687 15.7483 7.41801 15.7518C7.82231 15.7672 8.22712 15.7607 8.63072 15.7322C9.49183 15.6865 10.3493 15.5894 11.2058 15.4923C12.0623 15.3952 12.9133 15.3 13.7707 15.2534C13.8625 15.2487 13.9608 15.244 14.0553 15.2412C13.9259 16.0767 12.8243 21.082 12.7627 21.4778C12.7563 21.517 12.7912 21.5291 12.8004 21.4899C12.984 20.7095 14.0581 15.7024 14.1288 15.2123C14.13 15.2067 14.1299 15.2009 14.1284 15.1954C14.127 15.1899 14.1243 15.1848 14.1205 15.1806C14.1167 15.1764 14.112 15.1732 14.1067 15.1712C14.1014 15.1692 14.0958 15.1686 14.0902 15.1693Z" fill="#263238"/>
<path d="M5.40594 11.424C5.41879 11.4427 11.699 11.9337 11.7651 11.874C11.8569 11.789 11.2354 5.24627 10.6745 4.28666C10.5542 4.08223 10.0943 3.97488 9.69126 3.97861C9.58633 3.97809 9.48156 3.98715 9.37822 4.00568H9.36812C9.28471 4.02011 9.20431 4.04883 9.13035 4.09063C7.92407 4.85608 6.637 7.87868 6.31294 8.79349C5.7759 10.302 5.35912 11.3568 5.40594 11.424Z" fill="#A8A8A8"/>
<path d="M10.3874 5.1217C10.0753 5.1217 9.54831 4.60923 9.44366 4.12848C9.43631 4.09488 9.56575 3.8083 9.70529 3.45171C9.78975 3.23421 9.8788 2.99151 9.94398 2.76374C9.95683 2.71613 11.2503 3.52639 11.2503 3.52639C11.0887 3.78782 10.9592 4.0684 10.8648 4.36185C10.8562 4.39239 10.8504 4.42362 10.8473 4.4552C10.8477 4.46048 10.8477 4.46579 10.8473 4.47107C10.8225 4.66057 10.7206 5.12637 10.3874 5.1217Z" fill="#F7A9A0"/>
<path d="M10.8503 4.45667C10.8506 4.46196 10.8506 4.46726 10.8503 4.47254C10.8007 4.46521 10.7519 4.45365 10.7043 4.438C9.87808 4.17476 9.96437 3.05645 9.99926 2.77734C10.2389 2.88749 11.256 3.52413 11.256 3.52413C11.0946 3.78577 10.9648 4.06629 10.8695 4.35959C10.8606 4.39139 10.8542 4.42385 10.8503 4.45667Z" fill="#263238"/>
<path d="M10.0585 1.01376C9.83177 1.51597 9.90153 3.06741 10.2219 3.452C10.6874 4.01209 11.5503 4.18105 12.0451 3.58923C12.5243 3.01514 12.3986 0.99789 12.0313 0.634767C11.4888 0.100817 10.3945 0.273511 10.0585 1.01376Z" fill="#F7A9A0"/>
<path d="M11.3863 2.11914C11.3863 2.11914 11.3789 2.12474 11.3789 2.12941C11.3863 2.23303 11.3789 2.35438 11.2871 2.39265C11.2871 2.39265 11.2871 2.39918 11.2871 2.39825C11.4 2.37771 11.4092 2.21716 11.3863 2.11914Z" fill="#263238"/>
<path d="M11.291 2.01181C11.1258 2.00528 11.1267 2.3432 11.28 2.3488C11.4333 2.3544 11.4306 2.01648 11.291 2.01181Z" fill="#263238"/>
<path d="M11.9822 2.13477C11.9822 2.13477 11.9905 2.13943 11.9896 2.1441C11.9896 2.24772 12.0006 2.36813 12.0933 2.40267C12.0933 2.40267 12.0933 2.40921 12.0933 2.40827C11.9795 2.39241 11.9611 2.23278 11.9822 2.13477Z" fill="#263238"/>
<path d="M12.0721 2.02771C12.2364 2.01465 12.2502 2.35163 12.0969 2.36283C11.9436 2.37404 11.9335 2.03705 12.0721 2.02771Z" fill="#263238"/>
<path d="M11.1605 1.86051C11.2039 1.84733 11.2464 1.83175 11.2881 1.81384C11.3356 1.80454 11.3786 1.77921 11.4102 1.74196C11.418 1.72828 11.4212 1.71235 11.4192 1.69665C11.4172 1.68095 11.4102 1.66637 11.3992 1.65515C11.3742 1.63654 11.3447 1.62508 11.3139 1.62196C11.2831 1.61884 11.252 1.62418 11.2239 1.63741C11.1627 1.65491 11.1102 1.69525 11.077 1.75036C11.0703 1.76333 11.0674 1.77797 11.0686 1.79256C11.0699 1.80715 11.0752 1.82106 11.084 1.83266C11.0928 1.84425 11.1047 1.85304 11.1183 1.85798C11.1318 1.86292 11.1465 1.86379 11.1605 1.86051Z" fill="#263238"/>
<path d="M12.2058 1.85498C12.1611 1.84622 12.1169 1.83469 12.0736 1.82044C12.0255 1.81552 11.9805 1.79413 11.946 1.75977C11.9367 1.74728 11.9316 1.73203 11.9316 1.71636C11.9316 1.70069 11.9367 1.68545 11.946 1.67295C11.9693 1.65207 11.9977 1.63793 12.0282 1.63202C12.0587 1.62611 12.0903 1.62864 12.1195 1.63935C12.1819 1.65129 12.2376 1.6866 12.2756 1.7383C12.2833 1.75025 12.2875 1.76418 12.2877 1.77847C12.288 1.79277 12.2842 1.80683 12.2769 1.81905C12.2696 1.83126 12.2591 1.84112 12.2465 1.84748C12.2339 1.85384 12.2198 1.85644 12.2058 1.85498Z" fill="#263238"/>
<path d="M11.2942 3.08962C11.319 3.11389 11.3438 3.1475 11.386 3.15123C11.4242 3.15007 11.4617 3.14085 11.4962 3.12416C11.4962 3.12416 11.5026 3.12416 11.5008 3.12976C11.4861 3.15031 11.4663 3.16645 11.4433 3.17647C11.4204 3.1865 11.3952 3.19003 11.3704 3.1867C11.3493 3.18123 11.3303 3.16939 11.3159 3.15273C11.3014 3.13607 11.2923 3.11538 11.2897 3.09336C11.2832 3.08869 11.2906 3.08589 11.2942 3.08962Z" fill="#263238"/>
<path d="M11.4022 2.77413C11.4283 2.81544 11.4627 2.85079 11.503 2.87794C11.5432 2.9051 11.5886 2.92346 11.6363 2.93188C11.6777 2.93984 11.7201 2.94172 11.762 2.93748C11.77 2.93845 11.778 2.93845 11.7859 2.93748H11.8088C11.8142 2.9363 11.8191 2.9334 11.8227 2.9292C11.8264 2.925 11.8286 2.91972 11.829 2.91415C11.8295 2.91074 11.8295 2.90729 11.829 2.90388V2.89454C11.829 2.81427 11.8226 2.69198 11.8226 2.69198C11.852 2.70692 11.9998 2.77413 11.997 2.73212C11.9873 2.36952 11.9412 2.00887 11.8593 1.65582C11.8593 1.65334 11.8584 1.65097 11.8567 1.64922C11.8549 1.64747 11.8526 1.64648 11.8502 1.64648C11.8477 1.64648 11.8454 1.64747 11.8437 1.64922C11.8419 1.65097 11.841 1.65334 11.841 1.65582C11.8483 1.99094 11.9126 2.32232 11.9254 2.65837C11.8729 2.63384 11.8173 2.61688 11.7602 2.60797C11.7492 2.60797 11.7795 2.84414 11.7758 2.88054C11.7111 2.88705 11.6457 2.88033 11.5836 2.86077C11.5215 2.84121 11.4639 2.80921 11.4141 2.76666C11.4049 2.75919 11.3967 2.76572 11.4022 2.77413Z" fill="#263238"/>
<path d="M11.7151 2.89657C11.672 2.95443 11.6147 2.9998 11.5489 3.02819C11.513 3.0424 11.4735 3.04501 11.436 3.03566C11.3543 3.01419 11.3516 2.94231 11.3663 2.87137C11.375 2.83686 11.3873 2.80338 11.403 2.77148C11.4912 2.84606 11.6006 2.8899 11.7151 2.89657Z" fill="#263238"/>
<path d="M11.5489 3.02792C11.513 3.04213 11.4735 3.04473 11.436 3.03539C11.3543 3.01392 11.3516 2.94204 11.3663 2.87109C11.4096 2.87252 11.4512 2.88877 11.4844 2.91723C11.5176 2.94569 11.5403 2.98469 11.5489 3.02792Z" fill="#FF9BBC"/>
<path d="M12.2489 1.14656C12.1929 1.014 12.1277 0.880516 12.0487 0.853445C11.9698 0.826374 11.9193 1.02241 11.7403 1.03454C11.4998 1.05134 11.3832 0.826375 11.0463 0.802104C10.5615 0.768499 10.3486 1.1755 10.3375 1.87747C10.3274 2.50103 9.95656 2.55984 9.95656 2.55984C9.95656 2.55984 9.73164 1.18483 10.1126 0.729293C10.4936 0.273756 11.3685 0.0758578 11.956 0.507125C12.1699 0.664883 12.2489 1.14656 12.2489 1.14656Z" fill="#263238"/>
<path d="M10.2683 2.3159C10.2683 2.3159 9.98648 1.78662 9.75422 1.88277C9.52196 1.97892 9.69455 2.7229 9.93782 2.84705C9.96831 2.86568 10.0022 2.87783 10.0374 2.88279C10.0726 2.88775 10.1085 2.8854 10.1428 2.87589C10.1771 2.86638 10.2092 2.84991 10.237 2.82747C10.2649 2.80503 10.2881 2.77708 10.305 2.7453L10.2683 2.3159Z" fill="#F7A9A0"/>
<path d="M9.80664 2.0918V2.09833C9.97831 2.19168 10.0536 2.37837 10.1004 2.55854C10.092 2.53898 10.0796 2.5215 10.0639 2.5073C10.0482 2.49311 10.0297 2.48255 10.0097 2.47633C9.98959 2.47012 9.96843 2.46841 9.94764 2.47132C9.92686 2.47423 9.90694 2.4817 9.88926 2.49319C9.88375 2.49319 9.88926 2.50439 9.88926 2.50346C9.9221 2.49706 9.95608 2.50106 9.98661 2.51491C10.0171 2.52877 10.0428 2.55181 10.06 2.58094C10.0878 2.63041 10.1106 2.68264 10.1279 2.73683C10.1344 2.75363 10.1647 2.74897 10.1601 2.72936V2.7247C10.1913 2.49133 10.0499 2.14407 9.80664 2.0918Z" fill="#263238"/>
<path d="M12.1928 0.736711C12.0505 0.702172 11.262 0.726443 10.9076 0.881401C10.5532 1.03636 9.92348 1.55444 9.89135 1.58151C9.85922 1.60858 9.69673 0.286775 10.7515 0.0459376C11.9 -0.217303 12.1928 0.736711 12.1928 0.736711Z" fill="#A8A8A8"/>
<path d="M9.95312 1.52696C9.95312 1.52696 10.6499 0.593482 11.0373 0.378782C11.4247 0.164082 12.2922 0.0445969 12.8293 0.285434C13.247 0.47213 12.2261 1.01915 12.2261 1.01915C12.2165 0.974358 12.1967 0.932475 12.1683 0.896826C12.14 0.861177 12.1038 0.832743 12.0627 0.813783C11.802 0.7083 11.3063 0.789513 11.0235 0.885661C10.6673 1.00795 9.95312 1.52696 9.95312 1.52696Z" fill="#A8A8A8"/>
<path opacity="0.2" d="M9.95312 1.53137C9.95312 1.53137 10.6499 0.592289 11.0373 0.378522C11.4247 0.164756 12.2922 0.0443371 12.8293 0.285175C13.247 0.47187 12.2261 1.01889 12.2261 1.01889C12.2165 0.974098 12.1967 0.932215 12.1683 0.896566C12.14 0.860917 12.1038 0.832483 12.0627 0.813523C11.802 0.70804 11.3063 0.789253 11.0235 0.885401C10.6673 1.00769 9.95312 1.53137 9.95312 1.53137Z" fill="black"/>
<path d="M8.73409 5.83687C8.67534 7.67769 9.34366 11.125 9.83572 11.3593C11.4239 12.1136 14.0963 12.1612 15.0115 12.1696C15.4063 12.1696 16.0122 9.31501 15.6211 9.15445C15.3613 9.04804 11.4432 9.0471 11.3743 8.90522C11.3055 8.76333 10.3718 6.71341 9.96883 5.5783C9.43362 4.06887 8.76806 4.75591 8.73409 5.83687Z" fill="#F7A9A0"/>
<path d="M15.2031 9.11523C15.2031 9.11523 16.403 9.18991 17.1842 9.27579C17.6212 9.3234 18.362 9.47369 18.6659 9.65759C19.1249 9.93763 20.8545 11.3827 20.5185 11.8177C20.2137 12.2106 18.8807 10.774 18.8807 10.774C18.8807 10.774 20.3496 12.1024 19.8997 12.5084C19.4499 12.9145 18.1555 11.0858 18.1555 11.0858C18.1555 11.0858 19.6372 12.486 19.1056 12.8295C18.7045 13.0881 17.4403 11.5003 17.4403 11.5003C17.4403 11.5003 18.7063 12.7138 18.3042 12.9938C17.8599 13.3084 16.6031 11.9166 16.6031 11.9166C15.462 12.4655 14.6982 12.2517 14.1722 12.0342C14.0427 11.9857 15.2031 9.11523 15.2031 9.11523Z" fill="#F7A9A0"/>
<path d="M18.3986 10.2805C18.5767 10.4299 18.7585 10.5802 18.9228 10.7472C19.0871 10.9143 19.2469 11.0842 19.3956 11.2644C19.5946 11.4961 19.7671 11.7501 19.9097 12.0214C19.6224 11.5547 19.0422 10.9573 18.8769 10.7921C18.7117 10.6268 18.5565 10.4532 18.3922 10.288C18.3876 10.2824 18.394 10.2768 18.3986 10.2805Z" fill="#263238"/>
<path d="M17.7977 10.8739C18.0171 11.0746 18.2421 11.2669 18.4532 11.4779C18.6643 11.6889 18.8443 11.9064 19.0398 12.1313C19.0545 12.1481 19.0398 12.1509 19.0242 12.1313C18.8204 11.9157 18.6157 11.7318 18.4101 11.518C18.2044 11.3043 18.0052 11.0821 17.7922 10.8767C17.7886 10.8758 17.7941 10.8711 17.7977 10.8739Z" fill="#263238"/>
<path d="M17.1921 11.2886C17.5364 11.5888 17.8493 11.9245 18.1258 12.2902C18.1395 12.3079 18.1212 12.3098 18.1056 12.2902C17.8017 11.9513 17.5658 11.6834 17.182 11.2998C17.1793 11.2951 17.1921 11.283 17.1921 11.2886Z" fill="#263238"/>
<path d="M18.5119 9.51205C18.2266 9.38815 17.9239 9.31095 17.6149 9.28334C16.9485 9.20026 16.2783 9.14612 15.6082 9.09665C14.938 9.04717 14.2577 9.0033 13.5821 8.9781C13.202 8.96316 12.822 8.95165 12.4419 8.94356C12.0618 8.93609 11.9829 8.95009 11.601 8.95476C11.5909 8.95476 11.5918 8.96876 11.601 8.96969C12.2665 9.00517 12.6338 9.03317 13.2993 9.06864C13.9649 9.10412 14.6286 9.14426 15.2924 9.19093C15.9561 9.2376 16.6088 9.28428 17.2643 9.35896C17.5813 9.38083 17.8957 9.43239 18.2034 9.51298C18.5049 9.62557 18.7845 9.79114 19.0296 10.0021C19.3105 10.2271 20.3635 11.2567 20.4599 11.3902C20.4718 11.4061 20.4764 11.4014 20.47 11.3809C20.3938 11.1018 19.1278 9.80423 18.5119 9.51205Z" fill="#263238"/>
<path d="M10.6316 7.02298L8.67899 8.14875C8.67899 8.14875 8.59637 5.63956 8.77722 4.89465C8.98102 4.05452 9.35741 4.34576 9.78154 5.044C10.2057 5.74225 10.6316 7.02298 10.6316 7.02298Z" fill="#A8A8A8"/>
<path opacity="0.1" d="M10.6316 7.02298L8.67899 8.14875C8.67899 8.14875 8.59637 5.63956 8.77722 4.89465C8.98102 4.05452 9.35741 4.34576 9.78154 5.044C10.2057 5.74225 10.6316 7.02298 10.6316 7.02298Z" fill="black"/>
<path d="M10.3641 6.70143C10.0969 6.81064 9.33863 7.25311 9.21286 7.32499C9.14676 7.36233 8.88788 7.52569 8.82178 7.56303C8.81352 7.56769 8.82178 7.57983 8.83004 7.57516C8.95765 7.50422 9.09168 7.44634 9.2202 7.37633C9.34873 7.30632 10.1382 6.88439 10.3696 6.71076C10.3704 6.70988 10.371 6.70872 10.3712 6.70748C10.3713 6.70623 10.3711 6.70497 10.3704 6.70389C10.3698 6.70281 10.3688 6.70199 10.3677 6.70154C10.3665 6.70109 10.3652 6.70105 10.3641 6.70143Z" fill="#263238"/>
<path d="M10.3223 6.09677C10.292 5.98008 10.2608 5.86433 10.2259 5.74858C10.2452 5.83446 10.2672 5.92034 10.2893 6.00622C10.2186 5.84379 10.146 5.68323 10.0671 5.52734H10.0625C10.1479 5.78032 10.2461 6.02862 10.3379 6.27973C10.4297 6.53083 10.5215 6.77074 10.6133 7.01624C10.572 7.04891 10.5316 7.08065 10.4894 7.10959C10.4877 7.1107 10.4865 7.11246 10.486 7.11447C10.4856 7.11649 10.486 7.11859 10.4871 7.12032C10.4882 7.12206 10.4899 7.12328 10.4919 7.12371C10.4939 7.12415 10.4959 7.12377 10.4976 7.12266C10.5481 7.09652 10.5986 7.07038 10.651 7.04705C10.657 7.04472 10.662 7.04017 10.6649 7.03428C10.6678 7.0284 10.6684 7.02163 10.6666 7.01531C10.5637 6.71006 10.4499 6.40015 10.3223 6.09677Z" fill="#263238"/>
</svg>
