<svg width="40" height="40" viewBox="0 0 40 40" fill="none" xmlns="http://www.w3.org/2000/svg">
<path d="M12.8695 6.91898C13.4605 9.21179 14.2304 10.7088 14.7468 11.2269C15.9838 12.4684 18.6484 12.7438 20.147 13.3762C20.6347 13.5827 21.9831 10.4369 21.4839 10.1616C21.1155 9.95739 16.8376 9.40665 16.4738 9.29346C16.2868 9.23512 14.8673 7.35537 14.0641 6.29823C12.7697 4.604 12.5459 5.66698 12.8695 6.91898Z" fill="#F7A9A0"/>
<path d="M22.4923 13.8174C22.2628 13.8116 22.2547 13.9341 22.5749 14.2036C22.895 14.4731 24.3857 15.2538 24.0724 15.7613C23.7591 16.2689 21.6718 15.1301 21.1726 14.6423C20.6735 14.1546 20.032 13.1885 20.032 13.1885C20.483 13.3273 21.6087 13.5572 22.4923 13.8174Z" fill="#F7A9A0"/>
<path d="M21.1256 10.0635C23.3472 10.4135 24.2307 10.8557 25.2038 12.0109C25.3149 12.1357 25.382 12.2946 25.3943 12.4625C25.8396 12.9712 25.7386 13.3387 25.7386 13.3387C26.0094 13.942 25.8533 14.3025 25.8533 14.3025C25.8533 14.3025 26.3697 14.9058 26.0622 15.2838C25.7179 15.7086 25.0615 14.7774 24.3925 14.4904C22.8583 13.8311 20.491 13.3317 20.032 13.1871L21.1256 10.0635Z" fill="#F7A9A0"/>
<path d="M23.2581 12.653C23.7096 12.8398 24.1478 13.0582 24.5697 13.3064C25.0145 13.6067 25.4364 13.9406 25.832 14.3052C25.8346 14.3068 25.8378 14.3074 25.8408 14.3069C25.8439 14.3064 25.8467 14.3049 25.8488 14.3027C25.851 14.3004 25.8523 14.2974 25.8525 14.2943C25.8528 14.2911 25.852 14.288 25.8503 14.2854C25.1542 13.5044 24.2608 12.9325 23.2673 12.632C23.2443 12.625 23.2351 12.6425 23.2581 12.653Z" fill="#263238"/>
<path d="M23.5116 11.6538C23.9374 11.8755 24.6809 12.271 25.7217 13.3515C25.7217 13.3515 25.7321 13.3515 25.7286 13.3515C25.1638 12.583 24.3997 11.9895 23.522 11.6374C23.4944 11.6211 23.4841 11.6386 23.5116 11.6538Z" fill="#263238"/>
<path d="M23.661 11.1184C24.369 11.5245 24.7649 11.871 25.388 12.4637C25.388 12.4637 25.3972 12.4637 25.3937 12.4579C24.7568 11.7088 24.4424 11.5105 23.6724 11.0916C23.6449 11.0776 23.6334 11.1021 23.661 11.1184Z" fill="#263238"/>
<path d="M15.3922 7.96085L13.3462 9.91061C13.3462 9.91061 12.52 6.88621 12.5257 5.92942C12.5257 4.8501 13.0719 5.08814 13.788 5.81273C14.504 6.53733 15.3922 7.96085 15.3922 7.96085Z" fill="#EC2024"/>
<path opacity="0.1" d="M15.3922 7.96085L13.3462 9.91061C13.3462 9.91061 12.52 6.88621 12.5257 5.92942C12.5257 4.8501 13.0719 5.08814 13.788 5.81273C14.504 6.53733 15.3922 7.96085 15.3922 7.96085Z" fill="black"/>
<path d="M14.9725 7.65117C14.6787 7.86353 13.8858 8.62663 13.7526 8.75148C13.6826 8.81799 13.4164 9.09219 13.3464 9.15753C13.3372 9.1657 13.3464 9.17854 13.3602 9.17037C13.4945 9.04669 13.6413 8.93701 13.7756 8.81216C13.9099 8.6873 14.7452 7.9417 14.9816 7.66167C14.9874 7.65583 14.9793 7.6465 14.9725 7.65117Z" fill="#263238"/>
<path d="M26.2353 31.3563C25.9576 31.4485 17.9617 31.1229 17.6622 30.9257C17.6255 30.9035 17.4832 29.34 17.4832 29.34L18.4081 23.332L23.658 23.4032L22.6448 28.5372C22.6448 28.5372 23.8014 29.0786 24.755 29.5512C25.3426 29.8406 25.8532 30.1054 25.9702 30.2023C26.2778 30.452 26.5142 31.2653 26.2353 31.3563Z" fill="#F7A9A0"/>
<path d="M26.2344 31.3571C25.9567 31.4493 17.9585 31.1237 17.6601 30.9277C17.6246 30.9044 17.48 29.3408 17.48 29.3408L17.7657 27.4902L22.8022 27.7236L22.6392 28.5334C22.6392 28.5334 23.7948 29.0748 24.7495 29.5462C25.337 29.8355 25.8477 30.1004 25.9647 30.1973C26.2745 30.454 26.5109 31.2672 26.2344 31.3571Z" fill="#EBEBEB"/>
<path d="M26.2314 31.3631C25.948 31.4529 17.8993 31.2627 17.5975 31.0574C17.4828 30.9815 17.4403 29.7867 17.4312 28.3422V28.2979L22.6259 28.362V28.4507C22.6259 28.4507 25.6749 29.9256 25.9836 30.1869C26.2923 30.4483 26.5149 31.2767 26.2314 31.3631Z" fill="#EDEDED"/>
<path d="M25.7724 31.3867C24.011 31.4054 17.8546 31.2374 17.5975 31.0589C17.4828 30.983 17.4403 29.7882 17.4312 28.3437V28.2993L20.6844 28.339L25.7724 31.3867Z" fill="#A6A6A6"/>
<path d="M26.1475 31.0464C24.7912 30.9799 19.3152 30.8434 17.9703 30.8831C17.9589 30.8831 17.9589 30.8912 17.9703 30.8924C19.3129 30.9869 24.7889 31.0779 26.1464 31.0686C26.1751 31.0686 26.1762 31.0476 26.1475 31.0464Z" fill="#263238"/>
<path d="M23.0577 28.4792C22.5264 28.3625 21.8712 28.4325 21.4512 28.8106C21.4352 28.8246 21.4512 28.8479 21.473 28.8421C21.9871 28.687 22.5161 28.5884 23.0509 28.548C23.0591 28.5476 23.0669 28.5442 23.0728 28.5384C23.0788 28.5327 23.0825 28.5249 23.0834 28.5166C23.0842 28.5083 23.0821 28.5 23.0774 28.4931C23.0727 28.4862 23.0657 28.4813 23.0577 28.4792Z" fill="#263238"/>
<path d="M23.4386 28.7251C22.9073 28.6084 22.2521 28.6796 21.8321 29.0565C21.816 29.0705 21.8321 29.0938 21.8539 29.0891C22.3692 28.9346 22.8993 28.8368 23.4352 28.7974C23.4446 28.7979 23.4538 28.7945 23.4608 28.7881C23.4678 28.7816 23.472 28.7726 23.4724 28.763C23.4729 28.7534 23.4696 28.744 23.4632 28.7369C23.4569 28.7298 23.448 28.7256 23.4386 28.7251Z" fill="#263238"/>
<path d="M23.8129 28.9707C23.2816 28.854 22.6264 28.9252 22.2064 29.3021C22.1904 29.3172 22.2064 29.3394 22.2282 29.3347C22.7423 29.1793 23.2713 29.0804 23.8061 29.0395C23.8143 29.0391 23.8221 29.0357 23.828 29.0299C23.834 29.0242 23.8377 29.0164 23.8385 29.0081C23.8394 28.9998 23.8373 28.9914 23.8326 28.9846C23.8279 28.9777 23.8209 28.9728 23.8129 28.9707Z" fill="#263238"/>
<path d="M23.0845 27.7613L17.2242 27.4906C17.2242 27.4906 19.2495 19.128 19.0338 18.8561C18.8043 18.5644 10.3196 20.723 8.62354 18.5831C6.8862 16.3906 7.75716 13.2344 7.75716 13.2344H13.5441C13.5441 13.2344 13.4293 14.0243 13.5074 14.4012C13.5074 14.4012 21.6547 13.134 23.4265 14.0885C23.7707 14.2763 25.033 15.3312 25.0536 16.3311C25.165 20.7475 23.0845 27.7613 23.0845 27.7613Z" fill="#455A64"/>
<path d="M23.1416 26.6803C22.4462 26.5917 21.7497 26.538 21.0508 26.4843C20.352 26.4306 19.6532 26.3886 18.9543 26.3618C18.5596 26.3455 18.1648 26.349 17.7701 26.335C17.7681 26.3357 17.7663 26.337 17.7651 26.3388C17.7638 26.3406 17.7632 26.3427 17.7632 26.3449C17.7632 26.3471 17.7638 26.3492 17.7651 26.351C17.7663 26.3527 17.7681 26.3541 17.7701 26.3548C18.1212 26.3805 18.4712 26.426 18.8224 26.454L19.862 26.531C20.5609 26.5777 21.2597 26.6173 21.9585 26.6605C22.3521 26.685 22.7457 26.6978 23.1405 26.7072C23.1434 26.7065 23.1459 26.7048 23.1478 26.7025C23.1497 26.7001 23.1508 26.6972 23.1509 26.6942C23.151 26.6912 23.1502 26.6882 23.1485 26.6857C23.1469 26.6832 23.1444 26.6813 23.1416 26.6803Z" fill="#263238"/>
<path d="M19.9398 18.2608C18.8141 18.2981 17.6941 18.3973 16.5741 18.5093C15.4542 18.6214 14.3273 18.7427 13.1981 18.8174C12.6382 18.8536 12.0759 18.8769 11.5136 18.8804C11.0466 18.9008 10.5791 18.8512 10.1262 18.7334C9.67662 18.5997 9.29232 18.3001 9.04873 17.8933C8.80384 17.4809 8.64342 17.0225 8.5771 16.5456C8.42907 15.5806 8.5771 14.5947 8.75037 13.6425C8.77218 13.5258 8.79398 13.4092 8.81464 13.2831C8.81464 13.2726 8.79972 13.268 8.79628 13.2831C8.56677 14.2434 8.35219 15.2317 8.42104 16.2235C8.44919 16.7102 8.56592 17.1874 8.76529 17.6307C8.94513 18.0615 9.25442 18.4234 9.64888 18.6645C10.0517 18.8979 10.5279 18.9667 10.9903 18.9901C11.5297 19.0181 12.0759 18.9901 12.6152 18.9656C13.7696 18.9084 14.9194 18.787 16.0669 18.6657C17.2144 18.5443 18.3562 18.4253 19.5095 18.367C19.6368 18.36 19.7642 18.3553 19.8916 18.3507C19.7172 19.4008 18.2403 25.6526 18.1577 26.1474C18.1497 26.1964 18.1956 26.2115 18.2082 26.1614C18.4606 25.1871 19.8939 18.9271 19.9891 18.3157C19.9907 18.3085 19.9905 18.3012 19.9886 18.2941C19.9868 18.2871 19.9833 18.2806 19.9784 18.2752C19.9736 18.2699 19.9676 18.2657 19.9608 18.2632C19.9541 18.2607 19.9469 18.2599 19.9398 18.2608Z" fill="#263238"/>
<path d="M24.4572 31.6001H11.9333V33.0085H24.4572V31.6001Z" fill="#EC2024"/>
<path d="M0.927711 19.2432H1.63802L6.22808 24.5825H5.51777L0.927711 19.2432Z" fill="#A6A6A6"/>
<path d="M9.87092 18.8218H0V19.2442H9.87092V18.8218Z" fill="#A6A6A6"/>
<path d="M3.60342 19.2432H4.31373L8.90378 24.5825H8.19347L3.60342 19.2432Z" fill="#A6A6A6"/>
<path d="M8.17064 29.0889C11.7371 29.0889 13.8038 31.608 13.8038 34.5729C13.8038 37.5378 11.8897 39.9998 8.41161 39.9998C4.56285 39.9998 2.72453 36.8867 2.72453 34.5461C2.72453 32.2055 4.56056 29.0889 8.17064 29.0889Z" fill="#37474F"/>
<path d="M7.62218 29.0889C11.0131 29.0889 12.9765 31.608 12.9765 34.5729C12.9765 37.5378 11.1577 39.9998 7.84939 39.9998C4.18997 39.9998 2.4446 36.8821 2.4446 34.5414C2.4446 32.2008 4.18996 29.0889 7.62218 29.0889Z" fill="#263238"/>
<path d="M7.65538 31.2178C9.72091 31.2178 10.9178 32.7533 10.9178 34.5596C10.9178 36.3658 9.80927 37.8652 7.79423 37.8652C5.56347 37.8652 4.49857 35.9679 4.49857 34.5409C4.49857 33.1139 5.56347 31.2178 7.65538 31.2178Z" fill="#EDEDED"/>
<path d="M18.2636 22.4421V21.9648L6.26179 22.3581V23.4315C6.26179 23.4315 2.78597 27.3346 2.43483 31.3916L14.47 31.6506L16.4035 31.6016H18.7777V29.149C18.7777 29.149 16.983 27.8188 17.2974 25.1013C17.4019 24.1993 18.2636 22.4421 18.2636 22.4421Z" fill="#EC2024"/>
<path d="M13.352 31.0804C13.2269 31.3137 11.4012 31.6486 7.9403 31.7431C4.8248 31.8283 2.49764 31.7583 2.31748 31.5541C2.13732 31.3499 2.59633 27.7386 4.70546 25.783C6.81459 23.8274 9.80042 23.5462 11.7696 24.713C13.5012 25.7363 14.7933 28.3371 13.352 31.0804Z" fill="#EC2024"/>
<path opacity="0.1" d="M13.9383 27.6635C13.7532 26.8084 13.3265 26.0268 12.7104 25.415C12.0929 24.7859 11.3217 24.3352 10.4762 24.1094C9.53308 23.87 8.54528 23.8808 7.60744 24.1409C7.13809 24.266 6.68421 24.4449 6.25452 24.6741C5.80084 24.922 5.37327 25.2164 4.97848 25.5527C4.87291 25.6414 4.76619 25.7301 4.66177 25.8211C4.65259 25.8281 4.66177 25.8409 4.67554 25.8339C5.07275 25.4788 5.50277 25.1634 5.95961 24.8923C6.37647 24.6502 6.81873 24.4565 7.2781 24.3147C8.18884 24.0251 9.15602 23.9698 10.093 24.1537C10.9398 24.3267 11.7246 24.73 12.3639 25.3205C12.9799 25.8845 13.433 26.6086 13.6743 27.415C13.9612 28.3974 13.8671 29.4791 13.5814 30.4487C13.5435 30.5794 13.5022 30.7077 13.4598 30.8361C13.4598 30.8501 13.4758 30.8548 13.4804 30.8419C13.866 29.835 14.154 28.7498 13.9383 27.6635Z" fill="black"/>
<path d="M5.5961 32.1151C3.50648 32.1151 2.40028 32.0497 1.83914 31.8234L2.09963 31.1571C2.75601 31.422 4.8112 31.4173 8.11834 31.3788C10.5614 31.3496 12.3641 31.1151 13.4887 30.6787L13.74 31.3485C12.5236 31.8152 10.6876 32.0626 8.12637 32.0929C7.15443 32.1069 6.31674 32.1151 5.5961 32.1151Z" fill="#DBDBDB"/>
<path d="M18.4623 22.2772C18.4623 22.2772 18.5426 19.6076 18.4623 19.5025C18.3819 19.3975 6.23204 19.1747 5.86828 19.2073C5.50452 19.24 5.4678 22.3578 5.49534 22.5036C5.52288 22.6495 18.1455 22.3053 18.4623 22.2772Z" fill="#37474F"/>
<path d="M19.6018 19.5565C19.5663 19.5144 18.0263 19.4701 17.9414 19.4678C17.8565 19.4654 17.8266 22.3113 17.8725 22.309C17.9184 22.3067 19.5456 22.33 19.5995 22.2693C19.6535 22.2086 19.6787 19.6475 19.6018 19.5565Z" fill="#455A64"/>
<path d="M11.0908 19.209C11.0473 19.2551 11.0188 19.3138 11.0094 19.377C10.9949 19.4436 10.9846 19.511 10.9784 19.5789C10.9635 19.7142 10.9554 19.8519 10.9485 19.9884C10.9371 20.2638 10.9302 20.5403 10.9256 20.818C10.921 21.0957 10.9141 21.3711 10.9256 21.6453C10.9266 21.7811 10.9358 21.9167 10.9531 22.0514C10.96 22.1164 10.9751 22.1804 10.9979 22.2416C11.0063 22.269 11.0211 22.294 11.0411 22.3143C11.0611 22.3346 11.0856 22.3497 11.1126 22.3582C11.0823 22.3573 11.053 22.3476 11.0279 22.3303C11.0029 22.3129 10.9833 22.2886 10.9715 22.2602C10.9394 22.1992 10.9143 22.1346 10.8969 22.0677C10.8644 21.9309 10.8433 21.7916 10.8338 21.6511C10.8126 21.3717 10.8057 21.0912 10.8131 20.811C10.82 20.5322 10.8315 20.2521 10.8625 19.9733C10.8774 19.8338 10.8992 19.6951 10.9279 19.5579C10.9439 19.49 10.9634 19.423 10.9864 19.3572C11.0048 19.3 11.0369 19.2288 11.0908 19.209Z" fill="#455A64"/>
<path d="M0.459262 18.8154H11.9333V11.5625L0.459262 11.5625V18.8154Z" fill="#37474F"/>
<path d="M0.456856 18.8154H8.7465V11.5625H0.456856V18.8154Z" fill="#263238"/>
<path d="M5.04515 11.561H4.15353V18.814H5.04515V11.561Z" fill="#EC2024"/>
<path d="M8.74834 10.8921H0.224602V11.563H8.74834V10.8921Z" fill="#37474F"/>
<path d="M12.1879 10.8921H8.7465V11.563H12.1879V10.8921Z" fill="#263238"/>
<path d="M5.1206 10.8921H4.07866V11.563H5.1206V10.8921Z" fill="#EC2024"/>
<path d="M1.67284 10.9229L10.0485 10.9229V5.62781L1.67284 5.62781V10.9229Z" fill="#37474F"/>
<path d="M1.67355 10.9229H7.7244L7.7244 5.62781L1.67355 5.62781L1.67355 10.9229Z" fill="#263238"/>
<path d="M5.02226 5.62988H4.37162V10.9249H5.02226V5.62988Z" fill="#EC2024"/>
<path d="M7.72243 5.13525H1.50061V5.62532H7.72243V5.13525Z" fill="#37474F"/>
<path d="M10.2363 5.13525H7.7244V5.62532H10.2363V5.13525Z" fill="#263238"/>
<path d="M5.08034 5.13525H4.31954V5.62532H5.08034V5.13525Z" fill="#EC2024"/>
<path d="M34.3669 29.043C37.9345 29.043 40 31.5621 40 34.527C40 37.4919 38.0859 39.9504 34.6067 39.9504C30.7568 39.9504 28.9185 36.8373 28.9185 34.4979C28.9185 32.1584 30.7568 29.043 34.3669 29.043Z" fill="#37474F"/>
<path d="M33.8173 29.043C37.2082 29.043 39.1727 31.5621 39.1727 34.527C39.1727 37.4919 37.3527 39.9504 34.0456 39.9504C30.3862 39.9504 28.6385 36.8373 28.6385 34.4979C28.6385 32.1584 30.3862 29.043 33.8173 29.043Z" fill="#263238"/>
<path d="M33.8514 31.1719C35.9169 31.1719 37.115 32.7074 37.115 34.5137C37.115 36.3199 36.0065 37.8193 33.9903 37.8193C31.7606 37.8193 30.6958 35.922 30.6958 34.4962C30.6958 33.0703 31.7606 31.1719 33.8514 31.1719Z" fill="#EDEDED"/>
<path d="M28.5948 16.6583H27.1913L26.2297 15.2231H27.8741L28.5948 16.6583Z" fill="#EC2024"/>
<path d="M26.2297 15.2231L26.7932 16.0633L27.1913 16.6583H28.5948L28.2149 15.9022L27.873 15.2231H26.2297Z" fill="#EC2024"/>
<path opacity="0.1" d="M26.2297 15.2231L26.7932 16.0633L28.2149 15.9022L27.873 15.2231H26.2297Z" fill="black"/>
<path d="M32.0037 27.3673L30.637 27.687L29.3839 26.5062L30.9859 26.1328L32.0037 27.3673Z" fill="#EC2024"/>
<path d="M29.3839 26.5062L30.1172 27.1981L30.6359 27.687L32.0049 27.3673L31.4678 26.7174L30.9859 26.1328L29.3839 26.5062Z" fill="#EC2024"/>
<path opacity="0.1" d="M29.3839 26.5062L30.1172 27.1981L31.4678 26.7174L30.9859 26.1328L29.3839 26.5062Z" fill="black"/>
<path d="M39.6885 29.7444L38.3608 30.4538C38.3608 30.4538 34.5155 29.7444 32.0495 30.2811C29.5835 30.8178 28.9179 32.1574 28.9179 32.1574H27.6717C27.6717 32.1574 28.7412 28.294 30.5554 26.8915C32.3697 25.489 35.2855 25.8028 36.8978 26.6861C38.51 27.5694 39.6885 29.7444 39.6885 29.7444Z" fill="#EC2024"/>
<path opacity="0.1" d="M38.2209 30.1886C37.9637 29.9155 37.6851 29.6642 37.3878 29.4372C37.0932 29.2043 36.7817 28.9945 36.456 28.8094C35.8246 28.4527 35.1322 28.2214 34.4157 28.128C33.0135 27.953 31.547 28.3683 30.5142 29.464C29.9336 30.0847 29.5205 30.8467 29.128 31.6156C29.1223 31.6273 29.1383 31.6366 29.1441 31.6249C29.4766 30.9489 29.8965 30.321 30.3926 29.758C30.8706 29.2273 31.4656 28.8194 32.1288 28.5679C33.4518 28.0743 34.8828 28.2633 36.1542 28.8596C36.5183 29.0274 36.8696 29.2224 37.2054 29.443C37.5487 29.6781 37.88 29.9308 38.198 30.2003C38.2 30.2022 38.2026 30.2034 38.2053 30.2037C38.2081 30.2041 38.2109 30.2037 38.2134 30.2024C38.2158 30.2011 38.2179 30.1991 38.2192 30.1967C38.2206 30.1942 38.2212 30.1914 38.2209 30.1886Z" fill="black"/>
<path d="M23.6322 15.8862C23.6116 15.9352 20.8403 16.4532 20.8403 16.4532C20.8403 16.4532 20.3813 16.1382 20.6648 15.7392L23.4452 15.1289C23.5521 15.2181 23.6279 15.3398 23.6616 15.4761C23.6953 15.6125 23.685 15.7562 23.6322 15.8862Z" fill="#263238"/>
<path d="M29.447 12.2421V15.585C29.447 15.585 27.6718 15.4275 27.199 15.4111C26.7263 15.3948 24.6251 15.6713 24.6251 15.6713L24.4622 14.9222C24.4622 14.9222 26.0825 14.347 26.771 13.8978C27.4595 13.4485 28.2524 12.5898 28.6782 12.3996C28.9191 12.2876 29.1822 12.2337 29.447 12.2421Z" fill="#EC2024"/>
<path d="M24.6349 14.8291C24.7404 14.9395 24.82 15.0727 24.8677 15.2188C24.9154 15.3649 24.93 15.5201 24.9103 15.6727C24.9103 15.6727 23.5872 15.9189 23.5711 15.9189C23.5821 15.7606 23.5444 15.6028 23.4631 15.4673C23.3819 15.3318 23.2612 15.2254 23.1178 15.1628L24.6349 14.8291Z" fill="#DBDBDB"/>
<path d="M29.466 15.5864C29.9464 15.5864 30.3358 14.8383 30.3358 13.9155C30.3358 12.9927 29.9464 12.2446 29.466 12.2446C28.9856 12.2446 28.5962 12.9927 28.5962 13.9155C28.5962 14.8383 28.9856 15.5864 29.466 15.5864Z" fill="#DBDBDB"/>
<path d="M29.52 15.4077C29.9313 15.4077 30.2647 14.7401 30.2647 13.9165C30.2647 13.0929 29.9313 12.4253 29.52 12.4253C29.1087 12.4253 28.7752 13.0929 28.7752 13.9165C28.7752 14.7401 29.1087 15.4077 29.52 15.4077Z" fill="white"/>
<path d="M29.7461 16.6621C30.0353 17.0927 31.1931 22.9478 31.4203 23.2418C31.6475 23.5359 32.0824 23.5569 32.0824 23.5569L32.8478 25.4915C32.8478 25.4915 30.9464 26.1017 29.8907 26.9838C28.5263 28.1238 27.2652 31.9031 27.2652 31.9031C27.0586 32.0502 24.4951 33.1225 23.7916 33.1645C23.7916 33.1645 27.0609 29.5147 27.3271 24.4635C27.4304 22.5067 26.2462 19.7507 26.1693 18.3855C26.0844 16.92 26.5204 16.6621 27.2858 16.6621H29.7461Z" fill="#EC2024"/>
<path d="M23.6296 33.5813L23.1178 33.0889C25.9866 30.0015 27.0446 25.137 26.9609 23.8092C26.9173 23.1289 26.7027 22.3682 26.4743 21.5619C26.2311 20.702 25.9556 19.7277 25.8386 18.6693C25.7296 17.6869 25.8386 17.0521 26.1679 16.6729C26.4973 16.2937 26.9494 16.2949 27.25 16.296H29.9811V17.0125H27.2489C26.9861 17.0125 26.8071 17.0218 26.6935 17.1513C26.5799 17.2808 26.4319 17.618 26.5397 18.59C26.6545 19.5876 26.9058 20.4908 27.1525 21.3635C27.3912 22.2083 27.6115 23.0053 27.6643 23.7625C27.7538 25.1802 26.6533 30.3411 23.6296 33.5813Z" fill="#DBDBDB"/>
<path d="M31.4324 24.8379C31.593 25.44 32.0991 25.8227 32.5627 25.6944C33.0263 25.566 33.273 24.9744 33.1112 24.3735C32.9494 23.7726 32.4433 23.3875 31.9797 23.5159C31.5161 23.6442 31.2706 24.237 31.4324 24.8379Z" fill="#DBDBDB"/>
<path d="M31.6071 24.7925C31.7505 25.3292 32.1888 25.6746 32.5859 25.5649C32.9829 25.4552 33.1872 24.9313 33.0449 24.3981C32.9026 23.8648 32.4631 23.516 32.0672 23.6256C31.6713 23.7353 31.4636 24.2557 31.6071 24.7925Z" fill="white"/>
<path opacity="0.1" d="M29.403 24.7444C29.2756 24.1388 29.1379 23.5356 29.0186 22.9289C28.8992 22.3221 28.7891 21.7142 28.6961 21.1039C28.6055 20.5357 28.5079 19.9616 28.4723 19.3864C28.4368 18.7855 28.4723 18.1787 28.7592 17.6361C28.7598 17.6351 28.7602 17.6339 28.7604 17.6327C28.7605 17.6314 28.7604 17.6302 28.7601 17.629C28.7598 17.6278 28.7593 17.6267 28.7585 17.6257C28.7578 17.6247 28.7568 17.6239 28.7558 17.6233C28.7547 17.6227 28.7536 17.6223 28.7524 17.6221C28.7512 17.622 28.7499 17.6221 28.7488 17.6224C28.7476 17.6227 28.7465 17.6233 28.7455 17.624C28.7446 17.6248 28.7438 17.6257 28.7432 17.6268C28.4482 18.0644 28.3519 18.5906 28.3358 19.1122C28.3373 19.6872 28.3872 20.261 28.485 20.8274C28.6524 22.0711 28.8822 23.3052 29.1735 24.5251C29.3399 25.2147 29.5545 25.8926 29.784 26.5623C29.784 26.5645 29.7848 26.5666 29.7863 26.5681C29.7878 26.5696 29.7899 26.5705 29.792 26.5705C29.7941 26.5705 29.7962 26.5696 29.7977 26.5681C29.7992 26.5666 29.8 26.5645 29.8 26.5623C29.6631 25.9533 29.5307 25.3473 29.403 24.7444Z" fill="black"/>
<path opacity="0.1" d="M18.7776 29.149V31.5993H16.7213V29.7441C16.7213 29.7441 15.5738 29.1548 15.3443 27.0114C15.1377 25.0698 16.6616 22.4782 16.9508 22.008L18.2601 21.9648V22.4421C18.2601 22.4421 17.3983 24.1993 17.2939 25.1013C16.9829 27.8188 18.7776 29.149 18.7776 29.149Z" fill="black"/>
<path d="M23.9502 32.1695C23.6725 32.2605 15.6755 31.9361 15.376 31.7389C15.3404 31.7167 15.1981 30.152 15.1981 30.152L16.123 24.144L21.3729 24.2152L20.3597 29.3492C20.3597 29.3492 21.5152 29.8895 22.4699 30.362C23.0575 30.6526 23.5681 30.9174 23.6852 31.0131C23.9915 31.2652 24.2279 32.0784 23.9502 32.1695Z" fill="#F7A9A0"/>
<path d="M23.9525 32.1708C23.6737 32.2618 15.6767 31.9374 15.3783 31.7402C15.3416 31.718 15.1981 30.1545 15.1981 30.1545L15.4839 28.3027L20.5203 28.5361L20.3608 29.3435C20.3608 29.3435 21.5164 29.8849 22.4711 30.3563C23.0575 30.6469 23.5693 30.9117 23.6863 31.0074C23.9927 31.2676 24.2291 32.0797 23.9525 32.1708Z" fill="#EBEBEB"/>
<path d="M23.9485 32.1812C23.6662 32.271 15.6164 32.0796 15.3146 31.8743C15.1998 31.7984 15.1585 30.6048 15.1493 29.1603V29.1147L20.343 29.1789V29.2688C20.343 29.2688 23.3919 30.7425 23.7006 31.0038C24.0093 31.2652 24.2319 32.0913 23.9485 32.1812Z" fill="#EDEDED"/>
<path d="M23.8613 31.8607C22.5061 31.7954 17.0301 31.6588 15.6852 31.6985C15.6738 31.6985 15.6738 31.7067 15.6852 31.7067C17.0278 31.8024 22.5038 31.8934 23.8613 31.884C23.89 31.8829 23.89 31.8619 23.8613 31.8607Z" fill="#263238"/>
<path d="M20.7764 29.293C20.2451 29.1763 19.5899 29.2475 19.1699 29.6243C19.1527 29.6395 19.1699 29.6617 19.1917 29.657C19.7057 29.5015 20.2347 29.4025 20.7695 29.3618C20.7777 29.3614 20.7855 29.358 20.7915 29.3522C20.7975 29.3464 20.8012 29.3387 20.802 29.3304C20.8028 29.3221 20.8007 29.3137 20.796 29.3068C20.7913 29.3 20.7844 29.2951 20.7764 29.293Z" fill="#263238"/>
<path d="M21.1568 29.5388C20.6255 29.4221 19.9702 29.4921 19.5502 29.869C19.5342 29.8842 19.5502 29.9075 19.572 29.9017C20.0865 29.7461 20.6158 29.6471 21.151 29.6065C21.1554 29.6069 21.1598 29.6064 21.164 29.605C21.1682 29.6037 21.172 29.6015 21.1754 29.5986C21.1787 29.5958 21.1815 29.5922 21.1835 29.5883C21.1856 29.5843 21.1868 29.58 21.1872 29.5755C21.1875 29.5711 21.1871 29.5666 21.1857 29.5624C21.1844 29.5581 21.1823 29.5542 21.1794 29.5508C21.1766 29.5474 21.1732 29.5445 21.1693 29.5425C21.1654 29.5404 21.1611 29.5392 21.1568 29.5388Z" fill="#263238"/>
<path d="M21.5343 29.7849C21.003 29.6682 20.3478 29.7382 19.9278 30.1162C19.9118 30.1302 19.9278 30.1536 19.9496 30.1477C20.4639 29.9932 20.9928 29.8946 21.5275 29.8537C21.5357 29.8533 21.5435 29.8499 21.5494 29.8441C21.5554 29.8383 21.5591 29.8306 21.56 29.8223C21.5608 29.814 21.5587 29.8056 21.554 29.7988C21.5493 29.7919 21.5423 29.787 21.5343 29.7849Z" fill="#263238"/>
<path d="M20.8037 28.5767L14.9434 28.3048C14.9434 28.3048 16.9699 19.9422 16.7541 19.6703C16.5246 19.3774 8.79727 21.5372 7.1001 19.3973C5.36276 17.2048 7.1001 13.5352 7.1001 13.5352H13.0408C13.0408 13.5352 13.0408 14.2072 12.6369 15.213C12.6369 15.213 19.3728 13.9447 21.148 14.8992C21.498 15.0882 22.7545 16.143 22.7751 17.143C22.8784 21.5652 20.8037 28.5767 20.8037 28.5767Z" fill="#455A64"/>
<path d="M20.8632 27.4935C20.1678 27.4048 19.4701 27.35 18.7713 27.2975C18.0724 27.245 17.3747 27.2018 16.6748 27.1738C16.2812 27.1586 15.8864 27.1621 15.4917 27.147C15.4889 27.147 15.4863 27.1481 15.4844 27.15C15.4824 27.152 15.4813 27.1547 15.4813 27.1575C15.4813 27.1603 15.4824 27.1629 15.4844 27.1649C15.4863 27.1669 15.4889 27.168 15.4917 27.168C15.8428 27.1936 16.1928 27.238 16.5439 27.266C16.8951 27.294 17.2324 27.3197 17.5836 27.343C18.2813 27.3908 18.9801 27.4293 19.6789 27.4737C20.0737 27.4982 20.4673 27.511 20.862 27.5204C20.8649 27.5196 20.8675 27.518 20.8694 27.5156C20.8713 27.5133 20.8723 27.5104 20.8725 27.5074C20.8726 27.5044 20.8718 27.5014 20.8701 27.4989C20.8684 27.4964 20.866 27.4945 20.8632 27.4935Z" fill="#263238"/>
<path d="M9.58447 14.0381C9.57669 14.0627 9.56671 14.0866 9.55464 14.1093C9.55333 14.111 9.55262 14.113 9.55262 14.1151C9.55262 14.1173 9.55333 14.1193 9.55464 14.121C9.48578 14.3392 9.4571 14.5702 9.39054 14.7896C9.32733 15.0224 9.18711 15.226 8.9935 15.366C8.58728 15.653 8.09959 15.7825 7.62681 15.9015C7.62397 15.9024 7.62148 15.9042 7.6197 15.9066C7.61793 15.909 7.61697 15.9119 7.61697 15.915C7.61697 15.918 7.61793 15.9209 7.6197 15.9233C7.62148 15.9258 7.62397 15.9275 7.62681 15.9284C7.89935 15.9299 8.17043 15.8878 8.43007 15.8035C8.67403 15.7349 8.90405 15.6227 9.1094 15.4722C9.30228 15.3237 9.43984 15.1131 9.49956 14.8747C9.52842 14.748 9.55102 14.6199 9.56726 14.4909C9.59382 14.3425 9.60955 14.1923 9.61431 14.0416C9.61262 14.0393 9.6105 14.0374 9.60806 14.036C9.60562 14.0346 9.60292 14.0337 9.60013 14.0333C9.59734 14.033 9.59451 14.0333 9.59182 14.0341C9.58912 14.0349 9.58662 14.0363 9.58447 14.0381Z" fill="#263238"/>
<path d="M13.5923 14.915C13.2692 15.0098 12.9544 15.132 12.6514 15.2802L12.6364 15.2872C12.6427 15.2682 12.6473 15.2487 12.6502 15.2289C12.6502 15.2056 12.6571 15.1834 12.6617 15.1601C12.6663 15.1367 12.6617 15.1122 12.6686 15.0877V15.0504C12.7076 15.0478 12.7457 15.037 12.7805 15.0188C12.8152 15.0005 12.8459 14.9751 12.8705 14.9442C12.9339 14.8547 12.9767 14.7518 12.9956 14.6431C13.0312 14.5078 13.0645 14.3701 13.0932 14.2324C13.1218 14.0947 13.1528 13.9256 13.1769 13.7657C13.2061 13.6145 13.2233 13.4611 13.2286 13.3071C13.2286 13.3016 13.2264 13.2962 13.2225 13.2923C13.2186 13.2883 13.2134 13.2861 13.2079 13.2861C13.2024 13.2861 13.1972 13.2883 13.1933 13.2923C13.1894 13.2962 13.1873 13.3016 13.1873 13.3071C13.1517 13.4483 13.1356 13.5942 13.1092 13.7365C13.0828 13.8789 13.053 14.0224 13.0209 14.1648C12.9887 14.3071 12.9543 14.4495 12.9153 14.5895C12.8763 14.7295 12.8464 14.8964 12.7041 14.9395C12.4104 15.0247 12.5423 14.3561 12.555 14.2231C12.5848 13.9197 12.6032 13.6093 12.656 13.3083C12.656 13.2966 12.6387 13.2908 12.6364 13.3083C12.5722 13.5848 12.4999 13.8567 12.4517 14.1367C12.4276 14.2744 12.4104 14.4133 12.3955 14.551C12.3716 14.6703 12.3812 14.794 12.423 14.908C12.4412 14.9465 12.4684 14.98 12.5022 15.0054C12.536 15.0308 12.5754 15.0474 12.6169 15.0539L12.6078 15.0854C12.6009 15.1075 12.594 15.1297 12.5883 15.1519C12.5825 15.1741 12.5779 15.1974 12.5733 15.2196C12.5632 15.2459 12.5597 15.2743 12.563 15.3024C12.5656 15.3103 12.5709 15.3169 12.5779 15.3211C12.4528 15.3759 12.3266 15.4308 12.2027 15.4903C12.0469 15.5525 11.8961 15.627 11.7517 15.7131C11.7345 15.7213 11.7517 15.7446 11.7643 15.7411C11.9259 15.695 12.0839 15.6369 12.2371 15.5673C12.3943 15.5066 12.5492 15.4413 12.7053 15.3747C13.0144 15.2593 13.3135 15.1176 13.5992 14.9512C13.6039 14.9503 13.6081 14.9475 13.6108 14.9434C13.6135 14.9394 13.6145 14.9344 13.6136 14.9296C13.6126 14.9248 13.6099 14.9206 13.6059 14.9178C13.6019 14.9151 13.597 14.9141 13.5923 14.915Z" fill="#263238"/>
<path d="M22.5997 16.3801C22.3964 15.7725 21.9851 15.2594 21.4407 14.9344C20.8819 14.6205 20.2301 14.5365 19.6047 14.5167C18.8772 14.4945 18.1451 14.533 17.4187 14.5797C16.6453 14.6287 15.8718 14.7034 15.103 14.8131C14.3342 14.9228 13.5791 15.0569 12.8229 15.2226C12.6416 15.2623 12.4614 15.3113 12.2813 15.3626C12.2675 15.3626 12.2698 15.393 12.2813 15.3906C13.0329 15.2833 13.7811 15.1573 14.5327 15.0523C15.2843 14.9473 16.044 14.8644 16.8036 14.8061C17.5633 14.7477 18.3149 14.7151 19.0711 14.7034C19.6908 14.6941 20.3334 14.7034 20.9221 14.9064C21.2131 15.001 21.4827 15.1537 21.715 15.3556C21.9431 15.5631 22.1301 15.813 22.2658 16.0919C22.5756 16.7115 22.6043 17.4221 22.6353 18.1082C22.7248 20.1443 21.2847 26.6143 21.0288 27.654C21.0281 27.663 21.0306 27.672 21.0358 27.6793C21.041 27.6867 21.0486 27.6919 21.0572 27.6941C21.0659 27.6964 21.075 27.6954 21.083 27.6915C21.091 27.6876 21.0974 27.6809 21.1011 27.6726C21.3891 26.4988 22.8223 20.387 22.8223 18.5504C22.8235 17.8176 22.8499 17.0709 22.5997 16.3801Z" fill="#263238"/>
<path d="M17.6149 18.9626C16.5649 18.9999 15.5207 19.0991 14.4764 19.2111C13.4322 19.3231 12.3799 19.4444 11.3288 19.5191C10.8055 19.5553 10.2811 19.5786 9.7567 19.5821C9.32068 19.6029 8.88419 19.5533 8.46345 19.4351C8.03613 19.2947 7.67696 18.995 7.45822 18.5962C7.22864 18.1783 7.07948 17.7197 7.01873 17.245C6.88102 16.28 7.01873 15.2941 7.18053 14.3419C7.20118 14.2252 7.22069 14.1086 7.24134 13.9837C7.24134 13.972 7.22643 13.9674 7.22413 13.9837C7.00496 14.944 6.80873 15.9323 6.87988 16.9241C6.90595 17.4088 7.01426 17.8853 7.20003 18.3325C7.36198 18.7557 7.65008 19.1167 8.02395 19.3651C8.40897 19.5746 8.8381 19.6863 9.27474 19.6906C9.7801 19.7099 10.2861 19.7017 10.7906 19.6661C11.867 19.609 12.9388 19.4876 14.0094 19.3663C15.08 19.2449 16.1438 19.1259 17.2155 19.0676C17.3303 19.0617 17.4531 19.0559 17.5713 19.0524C17.4095 20.0967 16.0325 26.3532 15.9556 26.8479C15.9475 26.8969 15.9911 26.9121 16.0026 26.8631C16.2321 25.8876 17.5747 19.6288 17.6631 19.0162C17.6646 19.0093 17.6645 19.002 17.6627 18.9951C17.6609 18.9882 17.6575 18.9819 17.6527 18.9766C17.648 18.9714 17.6421 18.9673 17.6355 18.9649C17.6289 18.9624 17.6218 18.9616 17.6149 18.9626Z" fill="#263238"/>
<path d="M6.75885 14.2789C6.77492 14.3022 14.6251 14.9159 14.7077 14.8413C14.8224 14.7351 14.0456 6.55683 13.3444 5.35734C13.1941 5.1018 12.6192 4.96762 12.1155 4.97229C11.9843 4.97164 11.8533 4.98296 11.7241 5.00612H11.7115C11.6073 5.02415 11.5068 5.06006 11.4143 5.1123C9.90648 6.0691 8.29767 9.84727 7.8926 10.9908C7.2213 12.8763 6.70033 14.1949 6.75885 14.2789Z" fill="#EC2024"/>
<path d="M12.9831 6.4006C12.5929 6.4006 11.9342 5.76002 11.8034 5.1591C11.7942 5.1171 11.956 4.75888 12.1305 4.31316C12.236 4.04129 12.3473 3.73791 12.4288 3.45321C12.4449 3.3937 14.0617 4.4065 14.0617 4.4065C13.8597 4.73329 13.6979 5.084 13.5798 5.45081C13.5691 5.48897 13.5618 5.52802 13.558 5.56749C13.5584 5.5741 13.5584 5.58072 13.558 5.58733C13.527 5.82419 13.3996 6.40644 12.9831 6.4006Z" fill="#F7A9A0"/>
<path d="M13.5633 5.57079C13.5637 5.5774 13.5637 5.58403 13.5633 5.59063C13.5014 5.58146 13.4404 5.56702 13.3808 5.54746C12.3481 5.21841 12.4559 3.82056 12.4995 3.47168C12.799 3.60936 14.0705 4.40514 14.0705 4.40514C13.8687 4.73219 13.7065 5.08283 13.5874 5.44944C13.5762 5.48919 13.5682 5.52977 13.5633 5.57079Z" fill="#263238"/>
<path d="M12.5712 1.26718C12.2877 1.89493 12.3749 3.83419 12.7754 4.31492C13.3572 5.01502 14.4359 5.22621 15.0544 4.48644C15.6534 3.76885 15.4962 1.24734 15.0372 0.79345C14.359 0.126027 12.9912 0.34189 12.5712 1.26718Z" fill="#F7A9A0"/>
<path d="M14.2349 2.64795C14.2349 2.64795 14.2257 2.65495 14.2257 2.66078C14.2349 2.7903 14.2257 2.94199 14.1109 2.98983C14.1109 2.98983 14.1109 2.998 14.1109 2.99683C14.2521 2.97116 14.2636 2.77047 14.2349 2.64795Z" fill="#263238"/>
<path d="M14.1142 2.51623C13.9076 2.50806 13.9088 2.93045 14.1004 2.93745C14.292 2.94445 14.2886 2.52206 14.1142 2.51623Z" fill="#263238"/>
<path d="M14.9798 2.66748C14.9798 2.66748 14.9901 2.67331 14.989 2.67915C14.989 2.80866 15.0028 2.95919 15.1187 3.00236C15.1187 3.00236 15.1187 3.01053 15.1187 3.00936C14.9764 2.98952 14.9534 2.79 14.9798 2.66748Z" fill="#263238"/>
<path d="M15.0921 2.53464C15.2975 2.51831 15.3147 2.93953 15.1231 2.95353C14.9315 2.96754 14.9188 2.54631 15.0921 2.53464Z" fill="#263238"/>
<path d="M13.9494 2.32417C14.0036 2.30769 14.0569 2.28821 14.1089 2.26583C14.1683 2.2542 14.2221 2.22255 14.2616 2.17598C14.2713 2.15888 14.2753 2.13897 14.2728 2.11935C14.2703 2.09973 14.2615 2.08149 14.2478 2.06747C14.2165 2.04421 14.1797 2.02988 14.1412 2.02599C14.1026 2.02209 14.0638 2.02876 14.0286 2.0453C13.9521 2.06717 13.8865 2.11759 13.845 2.18648C13.8366 2.20269 13.833 2.221 13.8346 2.23923C13.8362 2.25747 13.8428 2.27486 13.8538 2.28935C13.8648 2.30385 13.8797 2.31483 13.8966 2.321C13.9136 2.32717 13.9319 2.32827 13.9494 2.32417Z" fill="#263238"/>
<path d="M15.2576 2.31872C15.2017 2.30777 15.1465 2.29335 15.0924 2.27555C15.0323 2.2694 14.976 2.24265 14.9329 2.19971C14.9212 2.18409 14.9149 2.16504 14.9149 2.14545C14.9149 2.12586 14.9212 2.10681 14.9329 2.09119C14.962 2.06509 14.9975 2.04742 15.0357 2.04003C15.0738 2.03264 15.1132 2.0358 15.1498 2.04919C15.2277 2.06411 15.2973 2.10825 15.3448 2.17287C15.3545 2.18781 15.3597 2.20522 15.36 2.22309C15.3603 2.24095 15.3557 2.25854 15.3465 2.27381C15.3374 2.28907 15.3242 2.30139 15.3085 2.30934C15.2927 2.31729 15.2751 2.32055 15.2576 2.31872Z" fill="#263238"/>
<path d="M14.1166 3.86105C14.1476 3.89139 14.1786 3.93339 14.2313 3.93806C14.2791 3.93661 14.3259 3.92509 14.369 3.90422C14.369 3.90422 14.3771 3.90422 14.3748 3.91122C14.3564 3.93691 14.3316 3.95709 14.3029 3.96961C14.2743 3.98214 14.2428 3.98656 14.2118 3.9824C14.1854 3.97555 14.1616 3.96075 14.1436 3.93993C14.1256 3.91911 14.1142 3.89325 14.1109 3.86572C14.1028 3.85988 14.112 3.85638 14.1166 3.86105Z" fill="#263238"/>
<path d="M14.2531 3.4686C14.2858 3.52025 14.3287 3.56443 14.3791 3.59837C14.4295 3.63231 14.4862 3.65527 14.5457 3.6658C14.5975 3.67574 14.6505 3.67809 14.7029 3.6728C14.7129 3.67401 14.7229 3.67401 14.7328 3.6728H14.7615C14.7682 3.67132 14.7743 3.66769 14.7788 3.66244C14.7834 3.65719 14.7861 3.6506 14.7867 3.64363C14.7873 3.63937 14.7873 3.63505 14.7867 3.63079V3.61912C14.7867 3.51878 14.7787 3.36592 14.7787 3.36592C14.8154 3.38459 15.0001 3.4686 14.9967 3.4161C14.9846 2.96285 14.9269 2.51206 14.8246 2.07075C14.8246 2.06765 14.8234 2.06469 14.8212 2.0625C14.8191 2.06031 14.8161 2.05908 14.8131 2.05908C14.8101 2.05908 14.8071 2.06031 14.805 2.0625C14.8028 2.06469 14.8016 2.06765 14.8016 2.07075C14.8108 2.48964 14.8911 2.90386 14.9072 3.32392C14.8416 3.29325 14.772 3.27204 14.7006 3.26091C14.6869 3.26091 14.7247 3.55612 14.7202 3.60162C14.6393 3.60976 14.5576 3.60135 14.4799 3.57691C14.4023 3.55246 14.3302 3.51246 14.268 3.45927C14.2566 3.44993 14.2462 3.4581 14.2531 3.4686Z" fill="#263238"/>
<path d="M14.6435 3.62169C14.5895 3.69401 14.5179 3.75072 14.4358 3.78621C14.3908 3.80397 14.3415 3.80723 14.2946 3.79554C14.1925 3.76871 14.1891 3.67886 14.2074 3.59018C14.2184 3.54704 14.2338 3.5052 14.2533 3.46533C14.3636 3.55855 14.5003 3.61335 14.6435 3.62169Z" fill="#263238"/>
<path d="M14.4358 3.78489C14.3908 3.80265 14.3415 3.80591 14.2946 3.79423C14.1925 3.76739 14.1891 3.67755 14.2074 3.58887C14.2616 3.59065 14.3137 3.61097 14.3551 3.64654C14.3965 3.68211 14.425 3.73086 14.4358 3.78489Z" fill="#FF9BBC"/>
<path d="M15.3107 1.4322C15.2407 1.26651 15.1592 1.09965 15.0605 1.06581C14.9618 1.03198 14.8987 1.27701 14.675 1.29218C14.3743 1.31318 14.2286 1.03198 13.8074 1.00164C13.2016 0.959634 12.9353 1.46837 12.9216 2.34582C12.9089 3.12526 12.4453 3.19877 12.4453 3.19877C12.4453 3.19877 12.1642 1.48004 12.6404 0.910627C13.1166 0.341218 14.2102 0.0938508 14.9446 0.632923C15.212 0.830116 15.3107 1.4322 15.3107 1.4322Z" fill="#263238"/>
<path d="M12.8334 2.8934C12.8334 2.8934 12.4811 2.23181 12.1908 2.352C11.9005 2.47218 12.1162 3.40214 12.4203 3.55732C12.4584 3.5806 12.5008 3.5958 12.5448 3.60199C12.5888 3.60819 12.6336 3.60526 12.6765 3.59337C12.7194 3.58149 12.7595 3.5609 12.7943 3.53285C12.8292 3.50479 12.8581 3.46986 12.8793 3.43014L12.8334 2.8934Z" fill="#F7A9A0"/>
<path d="M12.2588 2.61572V2.62389C12.4734 2.74057 12.5675 2.97394 12.626 3.19913C12.6155 3.17468 12.5999 3.15283 12.5804 3.1351C12.5608 3.11736 12.5376 3.10415 12.5125 3.09638C12.4875 3.08862 12.461 3.08648 12.435 3.09012C12.409 3.09376 12.3841 3.10309 12.362 3.11746C12.3552 3.11746 12.362 3.13146 12.362 3.13029C12.4031 3.12229 12.4456 3.12729 12.4837 3.1446C12.5219 3.16192 12.5539 3.19073 12.5755 3.22714C12.6103 3.28897 12.6387 3.35426 12.6604 3.422C12.6684 3.443 12.7063 3.43717 12.7006 3.41266V3.40683C12.7396 3.11512 12.5629 2.68106 12.2588 2.61572Z" fill="#263238"/>
<path d="M15.239 0.920869C15.0612 0.877697 14.0754 0.908034 13.6325 1.10173C13.1896 1.29542 12.4024 1.94301 12.3622 1.97684C12.322 2.01068 12.1189 0.358461 13.4374 0.0574208C14.873 -0.271623 15.239 0.920869 15.239 0.920869Z" fill="#EC2024"/>
<path d="M12.4411 1.90866C12.4411 1.90866 13.312 0.741841 13.7963 0.473472C14.2805 0.205102 15.3649 0.055749 16.0362 0.356789C16.5583 0.590154 15.2823 1.27391 15.2823 1.27391C15.2702 1.21792 15.2455 1.16557 15.21 1.12101C15.1746 1.07645 15.1294 1.04091 15.078 1.01721C14.7521 0.88536 14.1325 0.986874 13.7791 1.10706C13.3338 1.25991 12.4411 1.90866 12.4411 1.90866Z" fill="#EC2024"/>
<path opacity="0.2" d="M12.4411 1.91417C12.4411 1.91417 13.312 0.740349 13.7963 0.473147C14.2805 0.205944 15.3649 0.0554243 16.0362 0.356465C16.5583 0.589829 15.2823 1.27359 15.2823 1.27359C15.2702 1.2176 15.2455 1.16525 15.21 1.12069C15.1746 1.07613 15.1294 1.04059 15.078 1.01689C14.7521 0.885035 14.1325 0.986549 13.7791 1.10673C13.3338 1.25959 12.4411 1.91417 12.4411 1.91417Z" fill="black"/>
<path d="M10.9189 7.29508C10.8455 9.59606 11.6809 13.9051 12.296 14.198C14.2812 15.1408 17.6216 15.2003 18.7656 15.2108C19.2591 15.2108 20.0164 11.6427 19.5276 11.442C19.2028 11.309 14.3052 11.3078 14.2192 11.1304C14.1331 10.9531 12.9661 8.39073 12.4623 6.97187C11.7933 5.08512 10.9614 5.9439 10.9189 7.29508Z" fill="#F7A9A0"/>
<path d="M19.0026 11.3931C19.0026 11.3931 20.5024 11.4864 21.4789 11.5938C22.0251 11.6533 22.9512 11.8411 23.331 12.071C23.9048 12.421 26.0667 14.2273 25.6467 14.771C25.2657 15.2623 23.5995 13.4665 23.5995 13.4665C23.5995 13.4665 25.4355 15.1269 24.8733 15.6345C24.311 16.142 22.693 13.8562 22.693 13.8562C22.693 13.8562 24.5451 15.6065 23.8807 16.0359C23.3792 16.3591 21.7991 14.3743 21.7991 14.3743C21.7991 14.3743 23.3815 15.8912 22.8789 16.2412C22.3235 16.6344 20.7525 14.8947 20.7525 14.8947C19.3262 15.5808 18.3714 15.3136 17.7139 15.0417C17.5521 14.981 19.0026 11.3931 19.0026 11.3931Z" fill="#F7A9A0"/>
<path d="M22.9976 12.8501C23.2203 13.0368 23.4475 13.2247 23.6529 13.4336C23.8583 13.6424 24.0579 13.8548 24.2438 14.08C24.4926 14.3696 24.7082 14.6871 24.8864 15.0263C24.5273 14.4429 23.802 13.6961 23.5955 13.4896C23.3889 13.283 23.195 13.066 22.9896 12.8595C22.9839 12.8525 22.9919 12.8455 22.9976 12.8501Z" fill="#263238"/>
<path d="M22.2474 13.5919C22.5216 13.8428 22.8028 14.0832 23.0667 14.3469C23.3306 14.6106 23.5555 14.8824 23.7999 15.1636C23.8183 15.1846 23.7999 15.1881 23.7804 15.1636C23.5257 14.8941 23.2698 14.6642 23.0128 14.397C22.7557 14.1298 22.5067 13.8521 22.2405 13.5954C22.2359 13.5943 22.2428 13.5884 22.2474 13.5919Z" fill="#263238"/>
<path d="M21.4904 14.1117C21.9208 14.487 22.3118 14.9066 22.6574 15.3637C22.6746 15.3858 22.6517 15.3882 22.6321 15.3637C22.2523 14.9401 21.9574 14.6052 21.4777 14.1257C21.4743 14.1198 21.4904 14.1047 21.4904 14.1117Z" fill="#263238"/>
<path d="M23.1393 11.8886C22.7828 11.7337 22.4044 11.6372 22.0182 11.6027C21.1851 11.4989 20.3474 11.4312 19.5097 11.3693C18.672 11.3075 17.8217 11.2527 16.9772 11.2212C16.5021 11.2025 16.027 11.1881 15.5519 11.178C15.0769 11.1686 14.9782 11.1862 14.5008 11.192C14.4882 11.192 14.4893 11.2095 14.5008 11.2107C15.3328 11.255 15.7918 11.29 16.6237 11.3343C17.4557 11.3787 18.2853 11.4288 19.115 11.4872C19.9446 11.5455 20.7605 11.6039 21.5798 11.6972C21.9761 11.7246 22.3691 11.789 22.7537 11.8897C23.1305 12.0305 23.4801 12.2374 23.7865 12.5012C24.1376 12.7824 25.4538 14.0694 25.5743 14.2362C25.5892 14.2561 25.595 14.2502 25.587 14.2246C25.4917 13.8757 23.9093 12.2538 23.1393 11.8886Z" fill="#263238"/>
<path d="M13.2876 8.77963L10.8468 10.1868C10.8468 10.1868 10.7435 7.0504 10.9696 6.11927C11.2243 5.06913 11.6948 5.43318 12.225 6.30596C12.7551 7.17875 13.2876 8.77963 13.2876 8.77963Z" fill="#EC2024"/>
<path opacity="0.1" d="M13.2876 8.77963L10.8468 10.1868C10.8468 10.1868 10.7435 7.0504 10.9696 6.11927C11.2243 5.06913 11.6948 5.43318 12.225 6.30596C12.7551 7.17875 13.2876 8.77963 13.2876 8.77963Z" fill="black"/>
<path d="M12.9539 8.37776C12.62 8.51428 11.6722 9.06735 11.5149 9.1572C11.4323 9.20387 11.1087 9.40806 11.0261 9.45474C11.0158 9.46057 11.0261 9.47574 11.0364 9.46991C11.1959 9.38123 11.3635 9.30888 11.5241 9.22137C11.6848 9.13386 12.6716 8.60646 12.9608 8.38943C12.9619 8.38833 12.9626 8.38688 12.9628 8.38532C12.963 8.38377 12.9627 8.38219 12.9619 8.38084C12.9611 8.3795 12.9599 8.37846 12.9584 8.3779C12.957 8.37734 12.9554 8.37729 12.9539 8.37776Z" fill="#263238"/>
<path d="M12.9025 7.61948C12.8647 7.47362 12.8256 7.32894 12.782 7.18425C12.8061 7.2916 12.8337 7.39895 12.8612 7.5063C12.7728 7.30327 12.6822 7.10257 12.5835 6.90771H12.5778C12.6845 7.22392 12.8073 7.5343 12.922 7.84817C13.0368 8.16205 13.1515 8.46192 13.2663 8.7688C13.2146 8.80964 13.1642 8.84931 13.1114 8.88548C13.1092 8.88687 13.1077 8.88907 13.1072 8.89158C13.1067 8.8941 13.1071 8.89673 13.1085 8.8989C13.1099 8.90106 13.112 8.90259 13.1145 8.90314C13.117 8.90368 13.1196 8.90321 13.1217 8.90181C13.1848 8.86914 13.2479 8.83647 13.3133 8.8073C13.3209 8.8044 13.3271 8.7987 13.3307 8.79135C13.3343 8.78399 13.3351 8.77553 13.3328 8.76763C13.2043 8.38608 13.062 7.9987 12.9025 7.61948Z" fill="#263238"/>
</svg>
