<svg width="32" height="32" viewBox="0 0 32 32" fill="none" xmlns="http://www.w3.org/2000/svg">
<path d="M12.8772 21.7523C12.5008 21.5343 12.0858 21.4094 11.6612 21.3864L8.93307 21.2644L8.21787 16.6294C7.84977 14.2424 5.97721 12.3066 4.03501 12.3066H2.91301C0.970811 12.3066 -0.304831 14.2424 0.0632699 16.6294L0.556282 19.8312C0.73978 21.0156 1.66832 21.9755 2.63224 21.9755H3.32312C2.75384 21.9755 2.27077 22.5939 2.19892 23.4136L1.45719 31.7969H1.63406L2.37247 23.4599C2.43437 22.7659 2.84227 22.2402 3.32312 22.2402H4.78005C5.2598 22.2402 5.66438 22.7622 5.7296 23.4599L6.46801 31.8091H6.64598L5.90425 23.4258C5.83129 22.6061 5.35155 21.9877 4.78005 21.9877H8.83138C8.2632 21.9877 7.77903 22.6061 7.70717 23.4258L6.96544 31.8091H7.14673L7.88183 23.4599C7.94263 22.7659 8.35052 22.2402 8.83138 22.2402H10.2883C10.7681 22.2402 11.1726 22.7622 11.239 23.4599L11.9774 31.8091H12.1542L11.4125 23.4258C11.3407 22.6061 10.8598 21.9877 10.2883 21.9877H12.8363C12.862 21.9878 12.887 21.9779 12.9069 21.9599C12.9267 21.9418 12.9403 21.9166 12.9451 21.8887C12.95 21.8608 12.9458 21.8319 12.9334 21.807C12.921 21.7821 12.9011 21.7627 12.8772 21.7523Z" fill="#A8A8A8"/>
<path opacity="0.7" d="M12.8772 21.7523C12.5008 21.5343 12.0858 21.4094 11.6612 21.3864L8.93307 21.2644L8.21787 16.6294C7.84977 14.2424 5.97721 12.3066 4.03501 12.3066H2.91301C0.970811 12.3066 -0.304831 14.2424 0.0632699 16.6294L0.556282 19.8312C0.73978 21.0156 1.66832 21.9755 2.63224 21.9755H3.32312C2.75384 21.9755 2.27077 22.5939 2.19892 23.4136L1.45719 31.7969H1.63406L2.37247 23.4599C2.43437 22.7659 2.84227 22.2402 3.32312 22.2402H4.78005C5.2598 22.2402 5.66438 22.7622 5.7296 23.4599L6.46801 31.8091H6.64598L5.90425 23.4258C5.83129 22.6061 5.35155 21.9877 4.78005 21.9877H8.83138C8.2632 21.9877 7.77903 22.6061 7.70717 23.4258L6.96544 31.8091H7.14673L7.88183 23.4599C7.94263 22.7659 8.35052 22.2402 8.83138 22.2402H10.2883C10.7681 22.2402 11.1726 22.7622 11.239 23.4599L11.9774 31.8091H12.1542L11.4125 23.4258C11.3407 22.6061 10.8598 21.9877 10.2883 21.9877H12.8363C12.862 21.9878 12.887 21.9779 12.9069 21.9599C12.9267 21.9418 12.9403 21.9166 12.9451 21.8887C12.95 21.8608 12.9458 21.8319 12.9334 21.807C12.921 21.7821 12.9011 21.7627 12.8772 21.7523Z" fill="white"/>
<path d="M8.22168 31.8008H8.40186C8.45674 31.7993 8.51027 31.7818 8.55705 31.7501C8.60383 31.7184 8.6422 31.6736 8.66826 31.6203L8.76554 31.7166C8.81892 31.7718 8.88918 31.8027 8.9623 31.8032H11.4119C11.4254 31.5949 11.3943 31.386 11.3212 31.1934C11.3212 31.1934 10.2457 31.1202 10.0014 30.7213C9.99397 30.7065 9.9825 30.6946 9.96861 30.6874C9.95471 30.6801 9.93911 30.6779 9.92401 30.6811C9.71619 30.736 8.9015 30.9311 8.43613 30.7372C8.37422 30.7116 8.31232 30.7701 8.31011 30.8531C8.29923 31.1707 8.26969 31.4873 8.22168 31.8008Z" fill="#263238"/>
<path d="M2.10303 16.0762L2.11187 17.6289C2.12735 19.9196 3.65944 21.3625 5.49442 21.5321C6.56446 21.6321 8.00923 21.6638 8.84381 21.6431C8.21926 23.6751 8.21926 28.9847 8.44808 30.9363L9.81879 30.8143C10.4456 24.9132 11.6792 22.2468 11.7367 20.4197C11.7472 20.0695 11.6726 19.7227 11.5206 19.4151C11.3685 19.1075 11.1447 18.8504 10.8722 18.6706C8.17062 16.9934 2.10303 16.0762 2.10303 16.0762Z" fill="#263238"/>
<path d="M11.8501 31.8007H12.0292C12.0841 31.7993 12.1377 31.7819 12.1845 31.7501C12.2313 31.7184 12.2696 31.6736 12.2956 31.6202L12.3929 31.7166C12.4463 31.7716 12.5165 31.8025 12.5896 31.8032H15.0392C15.0528 31.595 15.0221 31.3861 14.9497 31.1933C14.9497 31.1933 13.873 31.1201 13.6298 30.7213C13.6221 30.7064 13.6104 30.6946 13.5963 30.6874C13.5823 30.6802 13.5666 30.678 13.5513 30.681C13.3435 30.7359 12.5288 30.9311 12.0634 30.7371C12.048 30.7325 12.0317 30.7321 12.0161 30.736C12.0004 30.7398 11.9859 30.7477 11.9736 30.7591C11.9613 30.7705 11.9517 30.785 11.9456 30.8013C11.9395 30.8176 11.9371 30.8354 11.9385 30.853C11.927 31.1706 11.8975 31.4872 11.8501 31.8007Z" fill="#263238"/>
<path d="M8.64886 14.7148L7.44397 15.4674C6.77409 17.5959 7.34006 18.9656 8.98601 20.0012C9.94662 20.6037 11.2985 21.1185 12.4747 21.6442C11.8512 23.6763 11.8512 28.9858 12.0789 30.9374L13.4497 30.8154C14.0764 24.9143 15.3101 22.248 15.3686 20.4208C15.3908 19.7072 14.9751 19.1413 14.5042 18.6717C12.1375 16.3151 8.64886 14.7148 8.64886 14.7148Z" fill="#263238"/>
<path d="M13.9678 6.15574C13.9146 6.10649 13.853 6.06932 13.7868 6.04634C13.7205 6.02336 13.6507 6.01503 13.5815 6.02183C13.5123 6.02863 13.445 6.05042 13.3835 6.08595C13.3219 6.12149 13.2673 6.17007 13.2228 6.22892L13.1996 6.2582C13.0349 6.47653 12.8624 6.71804 12.6922 6.93881C12.5219 7.15958 12.3506 7.38158 12.1748 7.58527C12.0123 7.78049 11.8383 7.96383 11.6542 8.13416C11.5639 8.21873 11.467 8.29425 11.3646 8.35981C11.1927 8.35642 11.0215 8.33643 10.8528 8.30004C10.6031 8.24396 10.3563 8.17352 10.1133 8.08903C9.85901 7.99876 9.59813 7.90241 9.33947 7.79385L8.95036 7.62796L8.57784 7.4633L8.52478 7.44012C8.27202 7.33365 7.99177 7.33892 7.74245 7.45485C7.49313 7.57078 7.29397 7.78841 7.1865 8.06239C7.07903 8.33636 7.07154 8.64553 7.16558 8.92545C7.25963 9.20537 7.44795 9.43444 7.6913 9.56491L7.92786 9.68688C8.00303 9.7247 8.0793 9.76007 8.14894 9.79544C8.30038 9.86497 8.45404 9.92717 8.60769 9.98938C8.92074 10.1133 9.23955 10.2188 9.56276 10.3053C9.72857 10.348 9.89438 10.387 10.0679 10.4212C10.2415 10.4553 10.4183 10.4773 10.603 10.4956C11.0184 10.5416 11.438 10.5082 11.8432 10.3968L11.9118 10.3773C11.9652 10.3612 12.0165 10.3374 12.0643 10.3065C12.3909 10.0893 12.6796 9.80922 12.9166 9.47953C13.1189 9.20422 13.299 8.90996 13.4549 8.6001C13.6022 8.30745 13.7332 8.00521 13.8473 7.69505C13.9621 7.38736 14.0581 7.07156 14.1347 6.74975C14.1602 6.64343 14.158 6.53136 14.1285 6.42633C14.099 6.3213 14.0433 6.22754 13.9678 6.15574Z" fill="#FFBE9D"/>
<path d="M13.1094 6.41833L13.4244 6.99527C13.8544 7.62221 14.3242 6.75742 14.3242 6.75742L14.6768 6.47322C14.7962 6.37686 14.8371 6.15243 14.773 5.94385L14.6127 5.42059C14.5398 5.17664 14.3563 5.05466 14.2082 5.12541L13.8765 5.29983C13.7747 5.3546 13.6884 5.43893 13.6267 5.54378L13.1094 6.41833Z" fill="#FFBE9D"/>
<path opacity="0.2" d="M15.356 2.80118L14.3445 2.69141C14.3445 2.69141 13.5232 4.73813 14.6065 4.91987L14.4639 6.19206C14.4615 6.25603 14.4419 6.31776 14.4077 6.36945C14.3734 6.42113 14.3261 6.46043 14.2716 6.48236L14.0405 6.5409L14.9757 6.64214L14.7546 6.53602C14.7051 6.50257 14.6656 6.45367 14.6412 6.39549C14.6168 6.33732 14.6086 6.27247 14.6176 6.20913L14.7016 4.93085C15.8014 4.98574 15.356 2.80118 15.356 2.80118Z" fill="#A8A8A8"/>
<path d="M15.1325 4.65158C15.0697 4.71562 14.9953 4.76426 14.9143 4.7943C14.8332 4.82435 14.7473 4.83511 14.6622 4.8259C14.5771 4.81668 14.4947 4.78769 14.4205 4.74082C14.3463 4.69396 14.2819 4.63029 14.2316 4.554C14.121 4.35153 14.121 4.0661 14.152 3.78069C14.6107 3.72092 14.9976 3.97462 15.3469 3.90266C15.3315 4.19662 15.274 4.47594 15.1325 4.65158Z" fill="#A8A8A8"/>
<path d="M13.6187 6.00122C13.78 5.44746 14.2487 5.37062 14.5936 5.18644C14.6522 5.15472 14.7793 5.28646 14.7219 5.39989C14.6919 5.47317 14.6488 5.53902 14.5953 5.59351C14.5417 5.648 14.4787 5.69001 14.4101 5.71702C14.4256 5.89754 14.3073 6.4074 13.8442 6.46106C13.7209 6.34307 13.6407 6.17963 13.6187 6.00122Z" fill="#FFBE9D"/>
<path d="M6.44256 6.40363C6.71781 5.99745 7.60877 6.09381 8.12389 6.7354C8.33613 6.72564 9.17292 7.55872 9.80964 7.7368C10.4464 7.91489 10.4629 8.62355 10.3789 9.13462C10.2242 10.0775 10.1777 10.5593 9.58413 10.63C8.99053 10.7008 8.2079 10.2763 7.57892 9.75547C6.94994 9.23464 5.95507 7.12449 6.44256 6.40363Z" fill="#A8A8A8"/>
<path d="M10.5031 7.96058C10.4456 7.77762 9.65081 7.38364 9.63755 7.66418C9.62428 7.97399 9.57564 9.03517 9.5049 9.50965C9.43415 9.98412 9.35124 10.5708 9.46621 10.6416C9.6287 10.7428 10.1538 10.7904 10.3715 10.616C10.6667 10.3793 10.7507 8.75341 10.5031 7.96058Z" fill="white"/>
<path d="M10.45 15.166C10.5669 15.355 10.6264 15.58 10.6198 15.8087C10.6133 16.0373 10.541 16.2578 10.4136 16.4382C10.1317 16.8212 9.66521 16.598 9.66521 16.598C9.66521 16.598 9.55467 17.4579 8.81404 17.5652C7.59035 17.7421 2.97306 17.1664 2.19043 16.4309C4.65107 16.6712 10.45 15.166 10.45 15.166Z" fill="white"/>
<path d="M6.02552 5.69926C4.88287 5.70606 3.74317 5.83312 2.62076 6.07885C2.43494 6.12267 2.25889 6.2096 2.10343 6.33431C1.94797 6.45902 1.81637 6.61888 1.71673 6.80406C1.61708 6.98923 1.55149 7.19583 1.52399 7.41114C1.49648 7.62646 1.50764 7.84596 1.55677 8.05615C2.39732 11.7264 1.91959 15.7542 1.98662 16.4865C1.98662 16.4865 7.82334 18.0625 8.85328 15.7739C8.05933 12.8172 8.76104 11.0245 7.95453 7.38607C7.74174 6.43037 6.88948 5.69315 6.02552 5.69926Z" fill="#263238"/>
<path opacity="0.4" d="M3.90792 5.89391H3.92008L3.95877 5.87806L3.96872 5.88781C4.55459 5.80975 5.16477 5.76584 5.74622 5.74023C5.88882 5.73413 6.0292 5.73169 6.16738 5.73047C6.34959 5.84313 6.48978 6.02331 6.56312 6.2391C6.74109 6.727 6.61396 7.26856 6.22044 7.69181L6.18728 7.72596H6.14195C5.28637 7.63448 3.68795 6.87824 3.62052 6.29643C3.61057 6.18909 3.63157 6.00613 3.90792 5.89391Z" fill="#FAFAFA"/>
<path d="M6.77904 14.1955L6.76025 14.1894C6.42863 14.0808 6.08374 13.9735 5.75101 13.86C5.41828 13.7466 5.08777 13.6319 4.7672 13.5039C4.46466 13.3882 4.16926 13.2509 3.88287 13.0928C3.79078 13.0415 3.70179 12.9836 3.61647 12.9196C3.61647 12.7269 3.62531 12.5342 3.63084 12.339L3.67284 11.4096L3.72369 10.4716C3.74027 10.1618 3.75796 9.83978 3.76901 9.54216V9.52021C3.77957 9.22075 3.68458 8.92843 3.50397 8.70461C3.32337 8.48079 3.07121 8.34288 2.80042 8.31984C2.52963 8.29679 2.26129 8.39041 2.05172 8.58102C1.84215 8.77163 1.70765 9.04442 1.67647 9.34212C1.63889 9.69097 1.6212 10.0154 1.60683 10.3521C1.59246 10.6887 1.58804 11.0217 1.59246 11.3571C1.59688 11.6926 1.60573 12.0317 1.62562 12.372C1.64552 12.7123 1.67647 13.0562 1.71848 13.4039L1.73064 13.5051C1.7481 13.646 1.79586 13.7802 1.86992 13.8966C1.97188 14.0578 2.09394 14.2024 2.23249 14.326C2.34069 14.4231 2.4569 14.5089 2.57959 14.5821C2.78215 14.7045 2.99411 14.807 3.21299 14.8883C3.59409 15.0265 3.98489 15.1297 4.38141 15.1969C4.76499 15.2615 5.14193 15.303 5.51887 15.3262C5.89666 15.3481 6.27524 15.3481 6.65303 15.3262C6.77657 15.3186 6.89374 15.2632 6.98396 15.1698C7.07417 15.0763 7.13165 14.9508 7.1463 14.8152C7.16095 14.6796 7.13183 14.5427 7.06406 14.4285C6.99628 14.3142 6.89419 14.23 6.77573 14.1906L6.77904 14.1955Z" fill="#FFBE9D"/>
<path d="M6.4947 14.3928L6.33773 14.8136C6.31784 15.5686 7.20216 15.4235 7.20216 15.4235L7.65317 15.5455C7.73324 15.5618 7.81597 15.5463 7.88662 15.5016C7.95727 15.4569 8.01125 15.386 8.03896 15.3015L8.21582 14.838C8.25753 14.7451 8.26469 14.6379 8.23578 14.5392C8.20687 14.4406 8.14418 14.3583 8.06107 14.3099L7.68965 14.1342C7.58134 14.083 7.46326 14.0621 7.34587 14.0732L6.82522 14.1233C6.753 14.1303 6.68395 14.1593 6.62565 14.2068C6.56734 14.2544 6.52204 14.3187 6.4947 14.3928Z" fill="#FFBE9D"/>
<path d="M2.09906 6.56833C1.64142 6.60859 1.24016 7.49168 1.46014 8.315C1.33854 8.50894 1.33523 10.3422 1.23242 11.0594C1.12962 11.7766 1.3297 11.7132 1.79286 11.8022C2.64956 11.9657 3.43108 12.4865 3.8025 11.9693C4.17392 11.4522 4.17171 10.5691 4.04237 9.71404C3.85335 8.45527 2.91264 6.49637 2.09906 6.56833Z" fill="#A8A8A8"/>
<path d="M1.08438 11.6491C0.931834 11.7454 1.03574 12.4651 1.27341 12.5663C1.51107 12.6675 2.8663 12.3589 3.30073 12.415C3.73515 12.4712 3.83796 12.4333 3.95181 12.165C4.06567 11.8967 4.12978 11.6466 4.02256 11.3746C3.87775 11.0062 1.74542 11.2343 1.08438 11.6491Z" fill="white"/>
<path d="M6.35626 6.19122C6.25073 5.99731 6.08915 5.84823 5.89751 5.76797C5.81695 5.57295 5.79978 5.35326 5.84887 5.1459L3.71875 4.4043C3.93209 5.16419 4.07801 5.90702 3.83813 6.29855C4.26924 6.55104 5.05961 7.00234 5.88977 6.92062C6.71994 6.8389 6.50991 6.50347 6.35626 6.19122Z" fill="#FFBE9D"/>
<path opacity="0.2" d="M5.8381 5.21859L4.29053 5.01367C4.76806 5.6394 5.54185 5.94433 5.87237 5.68331C5.8252 5.53417 5.81341 5.37419 5.8381 5.21859Z" fill="black"/>
<path d="M3.48819 2.94219C3.62969 4.05215 3.74797 4.80351 4.37252 5.2231C5.60505 6.05862 6.26167 5.38899 6.42416 4.24731C6.57008 3.22273 6.31362 1.57852 5.29112 1.23089C5.06401 1.15235 4.82251 1.13896 4.58942 1.19199C4.35632 1.24502 4.13932 1.36272 3.95889 1.53398C3.77846 1.70524 3.64056 1.92441 3.55821 2.1708C3.47585 2.41719 3.45175 2.68267 3.48819 2.94219Z" fill="#FFBE9D"/>
<path d="M3.39986 3.88243C2.88916 3.46284 2.77861 2.27116 3.15335 1.8845C2.63823 1.79546 3.1843 1.08435 3.86634 0.981891C4.54838 0.879433 4.05647 0.297617 4.05647 0.297617C4.30187 0.304935 4.60917 0.501313 4.66997 0.60987C4.60817 0.409906 4.5565 0.206301 4.51521 0C4.51521 0 5.50013 0.135392 5.60404 0.764777C5.64262 0.565408 5.72077 0.377952 5.83286 0.215894C5.83286 0.215894 6.67518 1.17949 6.04289 1.90401C5.82181 1.55395 5.60073 1.41612 5.56093 1.63933C5.47139 2.12723 3.99457 0.972133 3.7149 2.19553C3.6331 2.55048 4.2676 2.96519 4.32398 3.49577C4.01667 3.82876 3.39986 3.88243 3.39986 3.88243Z" fill="black"/>
<path d="M3.24306 1.83432C3.13035 1.87134 3.01044 1.87243 2.89719 1.83747C2.78394 1.8025 2.68196 1.73291 2.60303 1.63672C2.60303 1.63672 2.78321 2.26122 3.24306 1.83432Z" fill="black"/>
<path d="M6.00648 4.22851L4.79053 3.91016C4.79053 3.91016 4.88891 4.28218 5.38855 4.47368C5.8882 4.66518 6.00648 4.22851 6.00648 4.22851Z" fill="white"/>
<path d="M3.18901 4.02413C3.25094 4.14561 3.33398 4.25242 3.43338 4.33844C3.53277 4.42446 3.64656 4.48801 3.76824 4.52544C4.09986 4.6218 4.25904 4.29857 4.16729 3.95948C4.08549 3.65455 3.81577 3.23618 3.48747 3.28985C3.15916 3.34351 3.03867 3.72285 3.18901 4.02413Z" fill="#FFBE9D"/>
<path d="M5.10379 3.07701C5.11042 3.16727 5.15906 3.2368 5.21433 3.23192C5.2696 3.22704 5.30718 3.14898 5.30055 3.0575C5.29392 2.96602 5.24528 2.89771 5.19001 2.90259C5.13474 2.90747 5.09715 2.98553 5.10379 3.07701Z" fill="#263238"/>
<path d="M5.9788 3.01451C5.98544 3.10477 6.03407 3.1743 6.08935 3.16942C6.14462 3.16454 6.18109 3.08648 6.17446 2.995C6.16783 2.90352 6.11919 2.83521 6.06392 2.84009C6.00865 2.84497 5.97217 2.92303 5.9788 3.01451Z" fill="#263238"/>
<path d="M5.69678 3.10742L5.74652 3.8722C5.74652 3.8722 6.01514 3.91733 6.16216 3.77462C6.06402 3.51022 5.90328 3.27979 5.69678 3.10742Z" fill="#F4AF8C"/>
<path d="M4.80435 2.80246C4.79618 2.80129 4.7883 2.79839 4.78113 2.79393C4.77049 2.78597 4.76305 2.77379 4.76037 2.75992C4.75769 2.74605 4.75998 2.73157 4.76676 2.71952C4.80687 2.64662 4.86202 2.5852 4.92772 2.54026C4.99341 2.49533 5.06779 2.46815 5.14481 2.46094C5.15771 2.46094 5.17008 2.46659 5.1792 2.47666C5.18832 2.48672 5.19345 2.50037 5.19345 2.5146C5.1936 2.52159 5.19248 2.52855 5.19015 2.53505C5.18783 2.54156 5.18435 2.54748 5.17993 2.55248C5.1755 2.55748 5.17021 2.56146 5.16437 2.56417C5.15853 2.56688 5.15225 2.56828 5.14592 2.56827C5.08498 2.57477 5.02629 2.59705 4.97462 2.63329C4.92295 2.66954 4.87976 2.71872 4.84856 2.77685C4.84381 2.78496 4.83725 2.79157 4.8295 2.79606C4.82175 2.80055 4.81309 2.80275 4.80435 2.80246Z" fill="black"/>
<path d="M6.42901 2.69951C6.42101 2.70005 6.41301 2.69844 6.4057 2.69483C6.39839 2.69122 6.39197 2.68571 6.387 2.67878C6.35195 2.62389 6.30541 2.57915 6.25133 2.54836C6.19725 2.51756 6.13723 2.50163 6.07638 2.50192C6.06348 2.50272 6.05082 2.49784 6.04118 2.48835C6.03154 2.47886 6.02571 2.46553 6.02498 2.4513C6.02425 2.43706 6.02867 2.42309 6.03727 2.41245C6.04588 2.40182 6.05796 2.39539 6.07085 2.39458C6.14767 2.39345 6.22361 2.41269 6.29228 2.45068C6.36096 2.48868 6.42036 2.54431 6.46549 2.61291C6.47306 2.62447 6.47625 2.63883 6.4744 2.65295C6.47254 2.66706 6.46578 2.67983 6.45554 2.68854C6.44762 2.69449 6.43852 2.69826 6.42901 2.69951Z" fill="black"/>
<path d="M6.15244 7.6114C5.01387 7.48943 3.0573 6.35507 3.94162 6.00012C4.50096 6.48802 5.44056 6.68562 5.88272 6.68684C6.04743 6.51241 6.10381 6.02574 5.90041 5.77081C6.36247 5.72812 6.94502 6.76002 6.15244 7.6114Z" fill="#A8A8A8"/>
<path d="M5.87942 6.68524C5.46821 6.37177 4.16383 5.61187 3.79793 5.61919C3.75488 5.77456 3.74766 5.93933 3.77693 6.09855C3.77693 6.09855 4.25889 6.6828 5.87942 6.68524Z" fill="white"/>
<path d="M5.87963 6.68412C5.87963 6.68412 5.81662 5.70833 5.89621 5.49609C5.9644 5.52466 6.02471 5.57227 6.07121 5.63428C6.11772 5.69628 6.14883 5.77056 6.16151 5.84982C6.16151 5.84982 6.07307 6.53287 5.87963 6.68412Z" fill="white"/>
<path d="M19.1207 21.7523C19.4971 21.5343 19.912 21.4094 20.3366 21.3864L23.0637 21.2644L23.7789 16.6294C24.147 14.2424 26.0196 12.3066 27.9629 12.3066H29.0849C31.0271 12.3066 32.3027 14.2424 31.9346 16.6294L31.4416 19.8312C31.2592 21.0156 30.3295 21.9755 29.3667 21.9755H28.6747C29.244 21.9755 29.7271 22.5939 29.8001 23.4136L30.5418 31.7969H30.3594L29.6254 23.4599C29.5635 22.7659 29.1556 22.2402 28.6747 22.2402H27.2189C26.7381 22.2402 26.3346 22.7622 26.2683 23.4599L25.5299 31.8091H25.3519L26.0947 23.4258C26.1666 22.6061 26.6474 21.9877 27.2189 21.9877H23.1665C23.7347 21.9877 24.2188 22.6061 24.2907 23.4258L25.0324 31.8091H24.8556L24.1171 23.4599C24.0552 22.7659 23.6473 22.2402 23.1665 22.2402H21.7096C21.2298 22.2402 20.8252 22.7622 20.76 23.4599L20.0216 31.8091H19.8436L20.5854 23.4258C20.6572 22.6061 21.1381 21.9877 21.7096 21.9877H19.1616C19.1358 21.9878 19.1109 21.9779 19.091 21.9599C19.0711 21.9418 19.0576 21.9166 19.0528 21.8887C19.0479 21.8608 19.052 21.8319 19.0644 21.807C19.0769 21.7821 19.0967 21.7627 19.1207 21.7523Z" fill="#A8A8A8"/>
<path opacity="0.7" d="M19.1207 21.7523C19.4971 21.5343 19.912 21.4094 20.3366 21.3864L23.0637 21.2644L23.7789 16.6294C24.147 14.2424 26.0196 12.3066 27.9629 12.3066H29.0849C31.0271 12.3066 32.3027 14.2424 31.9346 16.6294L31.4416 19.8312C31.2592 21.0156 30.3295 21.9755 29.3667 21.9755H28.6747C29.244 21.9755 29.7271 22.5939 29.8001 23.4136L30.5418 31.7969H30.3594L29.6254 23.4599C29.5635 22.7659 29.1556 22.2402 28.6747 22.2402H27.2189C26.7381 22.2402 26.3346 22.7622 26.2683 23.4599L25.5299 31.8091H25.3519L26.0947 23.4258C26.1666 22.6061 26.6474 21.9877 27.2189 21.9877H23.1665C23.7347 21.9877 24.2188 22.6061 24.2907 23.4258L25.0324 31.8091H24.8556L24.1171 23.4599C24.0552 22.7659 23.6473 22.2402 23.1665 22.2402H21.7096C21.2298 22.2402 20.8252 22.7622 20.76 23.4599L20.0216 31.8091H19.8436L20.5854 23.4258C20.6572 22.6061 21.1381 21.9877 21.7096 21.9877H19.1616C19.1358 21.9878 19.1109 21.9779 19.091 21.9599C19.0711 21.9418 19.0576 21.9166 19.0528 21.8887C19.0479 21.8608 19.052 21.8319 19.0644 21.807C19.0769 21.7821 19.0967 21.7627 19.1207 21.7523Z" fill="white"/>
<path d="M25.8435 5.61254C24.9901 5.54058 24.192 7.02622 24.4872 8.12033C24.7823 9.21443 23.7311 9.86577 24.0881 10.9623C24.8254 13.2347 27.5989 13.6055 28.9519 11.56C30.3049 9.51449 28.2046 8.31549 28.5175 7.4946C28.9817 6.26876 27.3734 4.07201 25.8435 5.61254Z" fill="black"/>
<path d="M19.8717 10.4641L20.1414 10.3787C20.1916 10.3633 20.2443 10.3611 20.2954 10.3723C20.3465 10.3835 20.3945 10.4079 20.4354 10.4434L20.8223 10.7837C20.8983 10.8505 20.9587 10.9364 20.9985 11.0342C21.0383 11.132 21.0563 11.2389 21.0512 11.346L21.0445 11.4814C20.6024 11.657 20.0132 11.4887 20.0132 11.4887L19.8396 11.4619C19.8038 11.4575 19.7692 11.4453 19.7377 11.426C19.7061 11.4067 19.6784 11.3807 19.6561 11.3495C19.6338 11.3183 19.6173 11.2825 19.6076 11.2442C19.598 11.2059 19.5953 11.1659 19.5998 11.1264L19.644 10.7459C19.6533 10.6797 19.6797 10.6179 19.7201 10.5679C19.7605 10.5179 19.8132 10.4819 19.8717 10.4641Z" fill="#FFBE9D"/>
<path opacity="0.2" d="M19.2671 8.14812L20.2807 8.05664C20.2807 8.05664 21.0711 10.118 19.9856 10.2802L20.1094 11.5549C20.1108 11.6187 20.1294 11.6807 20.1626 11.7329C20.1958 11.7852 20.2423 11.8255 20.2962 11.8488L20.5272 11.911L19.5909 11.9952L19.812 11.8927C19.862 11.86 19.9022 11.8118 19.9275 11.7542C19.9529 11.6965 19.9623 11.6318 19.9546 11.5683L19.8861 10.2863C18.7895 10.3241 19.2671 8.14812 19.2671 8.14812Z" fill="#A8A8A8"/>
<path d="M19.4596 9.99942C19.5215 10.0646 19.5952 10.1146 19.6758 10.1462C19.7565 10.1777 19.8422 10.1901 19.9275 10.1825C20.0128 10.1749 20.0957 10.1475 20.1707 10.1021C20.2457 10.0566 20.3111 9.99422 20.3627 9.91891C20.4733 9.71888 20.4843 9.43102 20.4534 9.14682C19.9957 9.07851 19.6044 9.32612 19.2573 9.25294C19.2684 9.54079 19.3214 9.82255 19.4596 9.99942Z" fill="#A8A8A8"/>
<path d="M20.088 10.7339L20.1323 11.1132C20.1477 11.2425 20.0217 11.3205 19.8957 11.3571C19.8831 11.3618 19.8696 11.363 19.8565 11.3608C19.8434 11.3586 19.8309 11.353 19.8201 11.3444C19.8093 11.3358 19.8005 11.3246 19.7944 11.3115C19.7884 11.2984 19.7852 11.284 19.7852 11.2693V10.6253C19.7855 10.6108 19.7889 10.5967 19.7952 10.5839C19.8014 10.5712 19.8102 10.5602 19.821 10.5519C19.8317 10.5436 19.8441 10.5382 19.857 10.5361C19.87 10.534 19.8833 10.5353 19.8957 10.5399C19.993 10.5838 20.0781 10.6411 20.088 10.7339Z" fill="#FFBE9D"/>
<path d="M25.6579 11.1388C25.5473 11.0095 25.3947 10.9339 25.2337 10.9286C25.0727 10.9234 24.9163 10.9889 24.799 11.1107L24.7769 11.1339L24.6663 11.2485L24.5458 11.3705C24.4652 11.4522 24.3811 11.5315 24.296 11.6071C24.1269 11.7621 23.9522 11.9072 23.7765 12.0414C23.4825 12.2731 23.1561 12.4503 22.8104 12.5659C22.6911 12.5045 22.5765 12.4327 22.4677 12.3512C22.2844 12.2141 22.1077 12.0667 21.9382 11.9096C21.7624 11.7499 21.5878 11.5803 21.4153 11.4071C21.2429 11.2339 21.0682 11.0534 20.8991 10.8814L20.8925 10.8741C20.8391 10.8197 20.7698 10.7883 20.6972 10.7854C20.6247 10.7825 20.5535 10.8084 20.4968 10.8584C20.44 10.9083 20.4013 10.9791 20.3877 11.0578C20.3741 11.1366 20.3865 11.2181 20.4227 11.2876C20.5509 11.5315 20.6858 11.7547 20.8317 11.9792C20.9776 12.2036 21.1312 12.4183 21.2971 12.6293C21.4682 12.8465 21.6529 13.0503 21.8498 13.2392C22.0714 13.4636 22.3274 13.6428 22.6059 13.7685C22.6695 13.7956 22.738 13.806 22.8059 13.799H22.8479C23.14 13.7672 23.4266 13.69 23.6991 13.5697C23.9542 13.4595 24.1995 13.3235 24.432 13.1635C24.6576 13.0109 24.8736 12.8418 25.0787 12.6573C25.1792 12.5659 25.2776 12.4719 25.3749 12.3744C25.4235 12.3256 25.4711 12.278 25.5186 12.2256C25.5661 12.1731 25.6081 12.1268 25.6656 12.0597C25.7708 11.9339 25.8286 11.7686 25.8272 11.5975C25.8257 11.4264 25.7652 11.2623 25.6579 11.1388Z" fill="#FFBE9D"/>
<path d="M20.6505 19.947C22.1616 18.2942 25.6193 16.8439 25.6193 16.8439L27.713 16.4707C27.713 16.4707 28.7078 17.9344 28.3596 19.642C28.1153 20.8557 24.8853 21.2606 22.638 21.2277C23.9148 23.3012 24.8787 28.1961 24.8787 28.1961C24.6576 28.4778 24.4719 28.7242 24.2829 28.7303C23.4439 27.0227 21.1877 24.1807 20.3708 21.1533C20.315 20.943 20.3114 20.72 20.3607 20.5078C20.4099 20.2955 20.51 20.1018 20.6505 19.947Z" fill="#FFBE9D"/>
<path opacity="0.2" d="M23.9829 24.5966C23.9707 24.5551 23.9574 24.5149 23.9453 24.4746L22.9946 26.5482C23.2809 27.0104 23.5529 27.4435 23.7894 27.8387C23.8867 27.069 24.0193 25.5602 23.9829 24.5966Z" fill="black"/>
<path d="M24.8346 27.8262C24.8346 27.8262 25.122 27.6286 25.4139 28.1446C25.7057 28.6605 26.3656 30.2181 26.3656 30.2181L26.2407 30.334C26.2407 30.334 25.4669 28.9508 25.2989 28.7484C25.594 29.4997 26.0296 30.528 25.0214 31.4598C24.8004 31.6611 24.7661 30.1291 24.5328 29.3936C24.2996 28.6581 24.2134 28.402 24.2134 28.402L24.8346 27.8262Z" fill="#263238"/>
<path d="M24.3232 27.7961L24.7653 27.8913C25.0837 28.6585 25.2639 29.7733 25.0969 30.371C25.0516 30.5308 24.867 30.5613 24.8305 30.4161C24.6245 29.6459 24.3658 28.894 24.0567 28.1669C24.0384 28.1224 24.0316 28.0731 24.0369 28.0246C24.0423 27.976 24.0598 27.9301 24.0873 27.8917C24.1148 27.8534 24.1514 27.8242 24.193 27.8073C24.2347 27.7905 24.2797 27.7866 24.3232 27.7961Z" fill="#FFBE9D"/>
<path d="M24.4317 12.5352C24.4776 13.0988 24.5577 13.6583 24.6715 14.2099C24.8197 15.0198 24.9888 15.8139 25.2917 17.1312L29.0103 16.4665C28.766 15.3236 28.6952 13.9843 28.9804 11.263C28.9988 11.1202 28.9882 10.9747 28.9494 10.837C28.9107 10.6992 28.8448 10.5727 28.7564 10.4664C28.668 10.3602 28.5594 10.2768 28.4383 10.2224C28.3173 10.1681 28.1868 10.1439 28.0563 10.1519C27.906 10.1616 27.7479 10.1763 27.5865 10.197C27.0177 10.2532 26.4533 10.3539 25.8974 10.4983C25.7173 10.5495 25.5304 10.6093 25.3525 10.669C24.7113 10.8935 24.3465 11.8083 24.4317 12.5352Z" fill="#263238"/>
<path d="M27.1588 8.12109C27.1002 8.74682 27.0803 9.87752 27.4904 10.2142C27.4904 10.2142 26.7166 10.7082 25.9793 11.9864C25.4521 10.9667 25.787 10.5484 25.787 10.5484C26.3795 10.2776 26.3397 9.74701 26.1971 9.29448L27.1588 8.12109Z" fill="#FFBE9D"/>
<path d="M25.8468 10.6868C25.8322 10.6864 25.8184 10.6799 25.8081 10.6685C25.8027 10.6629 25.7984 10.656 25.7956 10.6485C25.7927 10.6409 25.7913 10.6328 25.7915 10.6246C25.7914 10.6166 25.7929 10.6086 25.7957 10.6013C25.7986 10.5939 25.8028 10.5873 25.8081 10.5819C25.8184 10.5707 25.8323 10.5645 25.8468 10.5645C25.8613 10.5645 25.8751 10.5707 25.8855 10.5819C25.8908 10.5873 25.895 10.5939 25.8979 10.6013C25.9007 10.6086 25.9021 10.6166 25.9021 10.6246C25.9022 10.6328 25.9008 10.6409 25.898 10.6485C25.8951 10.656 25.8909 10.6629 25.8855 10.6685C25.8752 10.6799 25.8613 10.6864 25.8468 10.6868Z" fill="white"/>
<path d="M26.1831 10.9096C26.1759 10.9101 26.1686 10.909 26.1618 10.9063C26.155 10.9037 26.1487 10.8996 26.1434 10.8943C26.138 10.8889 26.1337 10.8824 26.1306 10.8752C26.1276 10.868 26.1259 10.8602 26.1256 10.8522C26.125 10.8442 26.1259 10.8362 26.1282 10.8286C26.1305 10.821 26.1342 10.814 26.1391 10.8081C26.144 10.8021 26.1499 10.7974 26.1565 10.794C26.1631 10.7907 26.1703 10.7889 26.1775 10.7888C26.1848 10.7885 26.192 10.7897 26.1989 10.7925C26.2057 10.7953 26.2119 10.7995 26.2173 10.8049C26.2226 10.8104 26.2269 10.8169 26.23 10.8242C26.233 10.8315 26.2347 10.8393 26.235 10.8474C26.2355 10.8554 26.2345 10.8634 26.2321 10.871C26.2297 10.8786 26.226 10.8856 26.2212 10.8916C26.2164 10.8976 26.2105 10.9025 26.204 10.906C26.1974 10.9095 26.1903 10.9115 26.1831 10.912C26.1565 10.912 26.1831 10.9108 26.1831 10.9096ZM25.9354 10.8766C25.922 10.8704 25.9113 10.8587 25.9055 10.8439C25.8997 10.8291 25.8994 10.8124 25.9045 10.7973C25.9071 10.7898 25.911 10.7829 25.916 10.777C25.921 10.7711 25.927 10.7664 25.9337 10.7631C25.9404 10.7598 25.9476 10.758 25.9549 10.7578C25.9622 10.7576 25.9695 10.759 25.9763 10.762C25.9898 10.7682 26.0005 10.7799 26.0063 10.7947C26.0121 10.8095 26.0124 10.8262 26.0073 10.8413C26.0031 10.8527 25.996 10.8626 25.9867 10.8695C25.9775 10.8765 25.9665 10.8802 25.9553 10.8803C25.9486 10.8803 25.9419 10.879 25.9354 10.8766ZM26.3511 10.8266C26.3495 10.8188 26.3492 10.8106 26.3505 10.8027C26.3517 10.7948 26.3544 10.7872 26.3583 10.7804C26.3622 10.7736 26.3673 10.7677 26.3732 10.7631C26.3792 10.7584 26.386 10.7552 26.3931 10.7534C26.4074 10.7501 26.4224 10.7531 26.4348 10.7618C26.4471 10.7704 26.456 10.7841 26.4594 10.7998C26.461 10.8076 26.4612 10.8158 26.46 10.8237C26.4588 10.8316 26.4561 10.8392 26.4522 10.846C26.4483 10.8528 26.4432 10.8587 26.4373 10.8633C26.4313 10.868 26.4245 10.8712 26.4174 10.873H26.4052C26.3928 10.8731 26.3807 10.8686 26.3709 10.8602C26.361 10.8518 26.3541 10.8399 26.3511 10.8266ZM26.5722 10.7632C26.5697 10.7556 26.5687 10.7475 26.5691 10.7395C26.5695 10.7314 26.5713 10.7235 26.5745 10.7163C26.5777 10.709 26.5822 10.7025 26.5876 10.6972C26.5931 10.6918 26.5995 10.6877 26.6064 10.6851C26.6202 10.6801 26.6352 10.6812 26.6483 10.6883C26.6613 10.6954 26.6713 10.7078 26.6761 10.7229C26.681 10.7381 26.6803 10.7549 26.6741 10.7695C26.6679 10.7842 26.6567 10.7955 26.6429 10.801H26.6241C26.6128 10.8016 26.6016 10.7983 26.5921 10.7915C26.5826 10.7847 26.5752 10.7748 26.5711 10.7632H26.5722ZM26.7844 10.6742C26.7784 10.6594 26.778 10.6427 26.7831 10.6276C26.7883 10.6125 26.7987 10.6003 26.812 10.5937C26.8185 10.5902 26.8256 10.5882 26.8329 10.5878C26.8401 10.5874 26.8473 10.5886 26.8541 10.5913C26.8609 10.594 26.8671 10.5982 26.8725 10.6037C26.8778 10.6091 26.882 10.6156 26.885 10.6229C26.8881 10.6301 26.89 10.6379 26.8903 10.6459C26.8907 10.6539 26.8896 10.6618 26.8871 10.6694C26.8847 10.6769 26.8808 10.6837 26.8759 10.6896C26.871 10.6954 26.8651 10.7001 26.8585 10.7034C26.8508 10.7052 26.8429 10.7052 26.8353 10.7034C26.825 10.7041 26.8148 10.7018 26.8057 10.6966C26.7965 10.6915 26.7888 10.6837 26.7833 10.6742H26.7844ZM26.99 10.5656C26.9863 10.5587 26.9839 10.551 26.983 10.543C26.982 10.535 26.9826 10.5269 26.9845 10.5192C26.9865 10.5115 26.9898 10.5042 26.9944 10.4979C26.9989 10.4917 27.0046 10.4865 27.011 10.4827C27.0173 10.4786 27.0243 10.4759 27.0315 10.4749C27.0387 10.4739 27.046 10.4744 27.0531 10.4766C27.0601 10.4788 27.0666 10.4825 27.0723 10.4875C27.078 10.4925 27.0827 10.4987 27.0862 10.5058C27.0899 10.5128 27.0923 10.5204 27.0932 10.5284C27.0941 10.5364 27.0936 10.5445 27.0917 10.5522C27.0897 10.56 27.0863 10.5672 27.0818 10.5735C27.0772 10.5798 27.0716 10.585 27.0652 10.5888C27.057 10.5938 27.048 10.5967 27.0386 10.5973C27.0285 10.5974 27.0186 10.5945 27.0098 10.589C27.0011 10.5834 26.9939 10.5753 26.9889 10.5656H26.99ZM27.1868 10.4436C27.1789 10.43 27.1762 10.4135 27.1793 10.3978C27.1824 10.382 27.1911 10.3682 27.2033 10.3595C27.2096 10.355 27.2165 10.352 27.2238 10.3505C27.2311 10.3491 27.2386 10.3493 27.2458 10.3511C27.253 10.353 27.2598 10.3564 27.2658 10.3611C27.2718 10.3659 27.2769 10.372 27.2807 10.379C27.2846 10.3858 27.2872 10.3934 27.2884 10.4013C27.2896 10.4092 27.2894 10.4173 27.2877 10.4251C27.2861 10.4329 27.2831 10.4403 27.2788 10.4468C27.2746 10.4534 27.2692 10.4589 27.263 10.4631C27.2544 10.47 27.2439 10.4734 27.2332 10.4729C27.2234 10.4725 27.2138 10.4692 27.2055 10.4634C27.1971 10.4576 27.1903 10.4496 27.1857 10.44L27.1868 10.4436Z" fill="white"/>
<path d="M27.4221 10.3229C27.4151 10.3241 27.408 10.3241 27.4011 10.3229C27.3944 10.3187 27.3885 10.3131 27.3837 10.3064C27.379 10.2997 27.3755 10.292 27.3734 10.2838C27.3723 10.2758 27.3723 10.2675 27.3734 10.2595C27.3724 10.2518 27.3724 10.244 27.3734 10.2363C27.3768 10.2293 27.3809 10.2228 27.3856 10.2168C27.3961 10.2055 27.4102 10.1992 27.4248 10.1992C27.4395 10.1992 27.4536 10.2055 27.4641 10.2168C27.4741 10.2282 27.4796 10.2435 27.4795 10.2595C27.4807 10.2675 27.4807 10.2758 27.4795 10.2838C27.4765 10.2911 27.4724 10.2977 27.4674 10.3034C27.4619 10.3085 27.456 10.313 27.4497 10.3168C27.441 10.3208 27.4316 10.3229 27.4221 10.3229Z" fill="white"/>
<path opacity="0.2" d="M26.7648 8.59961L26.1978 9.29486C26.232 9.40033 26.2579 9.50889 26.2751 9.61931C26.504 9.54125 26.8002 9.20094 26.8035 8.92528C26.8088 8.81503 26.7956 8.70465 26.7648 8.59961Z" fill="black"/>
<path d="M27.8438 7.18833C27.6526 8.16412 27.5907 8.58005 27.07 9.03502C26.2896 9.72051 25.2516 9.31556 25.1754 8.31415C25.1068 7.41154 25.4296 5.96737 26.3526 5.67098C26.5492 5.59875 26.7596 5.58598 26.9621 5.63401C27.1647 5.68203 27.3518 5.78909 27.5041 5.94404C27.6563 6.09898 27.7682 6.29615 27.8279 6.51499C27.8877 6.73383 27.8932 6.96635 27.8438 7.18833Z" fill="#FFBE9D"/>
<path d="M25.8945 5.80944C26.2405 6.51567 27.1801 6.24733 27.2675 6.72913C27.3548 7.21093 27.6311 8.02327 27.9163 7.29509C28.2015 6.5669 27.672 5.70333 27.2531 5.58745C26.8341 5.47158 26.1853 5.47889 25.8945 5.80944Z" fill="black"/>
<path d="M26.5066 7.35037C26.4934 7.43331 26.4447 7.49552 26.3961 7.49064C26.3474 7.48576 26.3198 7.4138 26.332 7.33207C26.3441 7.25035 26.395 7.18571 26.4425 7.1918C26.49 7.1979 26.5188 7.26865 26.5066 7.35037Z" fill="#263238"/>
<path d="M25.5724 7.21547C25.5603 7.29841 25.5105 7.36184 25.4619 7.35574C25.4132 7.34964 25.3845 7.2789 25.3978 7.19717C25.411 7.11545 25.4597 7.05203 25.5083 7.0569C25.5569 7.06178 25.5857 7.13375 25.5724 7.21547Z" fill="#263238"/>
<path d="M25.5347 7.06513L25.3667 6.98828C25.3667 6.98828 25.4341 7.15295 25.5347 7.06513Z" fill="#263238"/>
<path d="M25.8321 7.42773C25.7376 7.6098 25.622 7.7775 25.4883 7.92661C25.5222 7.96086 25.5626 7.98622 25.6067 8.0008C25.6507 8.01537 25.6971 8.01878 25.7425 8.01077L25.8321 7.42773Z" fill="#FFBE9D"/>
<path d="M25.9576 8.252C25.9162 8.25284 25.8747 8.24957 25.8338 8.24225C25.831 8.24185 25.8282 8.24077 25.8257 8.23908C25.8233 8.23738 25.8212 8.23512 25.8196 8.23246C25.8181 8.22979 25.817 8.22677 25.8166 8.22362C25.8162 8.22046 25.8164 8.21725 25.8172 8.21419C25.8186 8.20773 25.822 8.20204 25.8269 8.19821C25.8318 8.19439 25.8378 8.19269 25.8438 8.19346C25.937 8.21088 26.0327 8.20491 26.1236 8.17598C26.2145 8.14706 26.2983 8.09591 26.3688 8.02635C26.3708 8.02419 26.3731 8.02247 26.3757 8.0213C26.3782 8.02013 26.381 8.01953 26.3838 8.01953C26.3865 8.01953 26.3893 8.02013 26.3918 8.0213C26.3944 8.02247 26.3967 8.02419 26.3987 8.02635C26.4006 8.02851 26.4022 8.03108 26.4033 8.03391C26.4043 8.03673 26.4049 8.03976 26.4049 8.04282C26.4049 8.04588 26.4043 8.0489 26.4033 8.05173C26.4022 8.05455 26.4006 8.05712 26.3987 8.05928C26.2782 8.18133 26.1211 8.24996 25.9576 8.252Z" fill="#263238"/>
<path d="M28.0233 8.03052C27.9089 8.20074 27.738 8.31391 27.548 8.34521C27.3037 8.37937 27.2319 8.10737 27.3413 7.85732C27.4408 7.63167 27.6862 7.34259 27.9106 7.42431C28.135 7.50603 28.1704 7.81463 28.0233 8.03052Z" fill="#FFBE9D"/>
<path d="M26.6823 7.03713C26.6767 7.03579 26.6714 7.03314 26.6668 7.02935C26.6623 7.02556 26.6585 7.02073 26.6557 7.01518C26.6308 6.96256 26.5945 6.91761 26.5499 6.88439C26.5053 6.85117 26.4539 6.83072 26.4004 6.8249C26.3947 6.82477 26.3891 6.82333 26.384 6.82069C26.3788 6.81805 26.3743 6.81426 26.3705 6.80955C26.3668 6.80485 26.364 6.79934 26.3623 6.79337C26.3605 6.78741 26.36 6.78111 26.3606 6.77489C26.362 6.76185 26.3677 6.74985 26.3767 6.74127C26.3857 6.73269 26.3973 6.72815 26.4092 6.72854C26.4771 6.73463 26.5424 6.75952 26.5992 6.80088C26.656 6.84224 26.7025 6.89875 26.7342 6.96517C26.7369 6.97085 26.7386 6.97707 26.7391 6.98346C26.7396 6.98985 26.7389 6.99628 26.7372 7.0024C26.7355 7.00852 26.7326 7.0142 26.7289 7.01911C26.7252 7.02402 26.7206 7.02807 26.7154 7.03103C26.7053 7.03716 26.6936 7.03931 26.6823 7.03713Z" fill="black"/>
<path d="M25.2849 6.88284C25.2795 6.88392 25.2739 6.88372 25.2686 6.88225C25.2632 6.88078 25.2582 6.87807 25.2539 6.8743C25.2461 6.86503 25.2417 6.85283 25.2417 6.84015C25.2417 6.82746 25.2461 6.81526 25.2539 6.80599C25.2971 6.74308 25.3529 6.69205 25.417 6.65692C25.481 6.62179 25.5516 6.60351 25.6231 6.60352C25.6287 6.60394 25.6341 6.60564 25.639 6.60851C25.6439 6.61139 25.6482 6.61536 25.6517 6.62019C25.6551 6.62502 25.6576 6.63059 25.659 6.63654C25.6603 6.64249 25.6605 6.64869 25.6596 6.65474C25.658 6.66768 25.6522 6.67951 25.6432 6.68805C25.6343 6.69658 25.6228 6.70122 25.611 6.7011C25.5544 6.70176 25.4987 6.71685 25.4482 6.74521C25.3978 6.77356 25.354 6.8144 25.3202 6.86454C25.316 6.87031 25.3105 6.87494 25.3044 6.87811C25.2983 6.88128 25.2916 6.88289 25.2849 6.88284Z" fill="black"/>
<path d="M26.4625 7.19672L26.2944 7.12109C26.2944 7.12109 26.3608 7.28576 26.4625 7.19672Z" fill="#263238"/>
<path d="M22.3108 18.9846C23.7246 17.7575 26.9192 16.8439 26.9192 16.8439L29.0129 16.4707C29.0129 16.4707 30.0078 17.9344 29.6596 19.642C29.4164 20.8557 26.3356 21.2191 24.0872 21.185C24.6952 24.6417 22.9343 29.3634 22.9343 29.3634C22.6126 29.4743 22.3395 29.4109 22.2003 29.2682C22.6933 27.391 22.1815 23.5354 21.8167 20.308C21.7895 20.0592 21.8206 19.8068 21.9071 19.5751C21.9937 19.3434 22.1326 19.14 22.3108 18.9846Z" fill="#FFBE9D"/>
<path d="M23.1752 28.8887C23.1752 28.8887 23.5069 28.9399 23.4339 29.5425C23.361 30.145 22.9586 31.8051 22.9586 31.8051H22.7961C22.7961 31.8051 23.0039 30.1926 22.9951 29.9218C22.7839 30.7073 22.5197 31.8051 21.2043 31.8051C20.9213 31.8051 21.7835 30.6036 22.0322 29.8742C22.281 29.1448 22.3639 28.8887 22.3639 28.8887H23.1752Z" fill="#263238"/>
<path d="M22.8314 28.5443L23.0823 28.887C22.8789 29.7006 22.3693 30.6825 21.8907 31.0204C21.7624 31.1106 21.6033 31.0033 21.6596 30.8655C21.9445 30.148 22.1803 29.408 22.3649 28.6516C22.3782 28.5994 22.4042 28.5523 22.4402 28.5153C22.4761 28.4783 22.5205 28.4529 22.5686 28.4418C22.6167 28.4307 22.6667 28.4344 22.713 28.4525C22.7593 28.4706 22.8003 28.5023 22.8314 28.5443Z" fill="#FFBE9D"/>
<path d="M28.961 16.2109C29.2539 16.7158 30.1294 18.1625 29.6839 19.8811C29.2572 21.5326 24.3779 21.1886 24.3779 21.1886C24.8698 20.2921 23.4803 19.0455 21.4917 19.1797C22.4125 18.2137 25.2335 16.872 25.2335 16.872C25.2335 16.872 27.9572 15.8413 28.961 16.2109Z" fill="#263238"/>
<path d="M24.581 14.2548L24.8109 14.0755C24.8536 14.0427 24.9026 14.0214 24.9541 14.0134C25.0055 14.0053 25.058 14.0107 25.1072 14.0292L25.5737 14.2097C25.6658 14.2446 25.7488 14.3035 25.8158 14.3814C25.8828 14.4594 25.9317 14.554 25.9584 14.6573L25.9926 14.7866C25.63 15.1123 25.021 15.1696 25.021 15.1696L24.8496 15.2074C24.8142 15.2172 24.7773 15.2189 24.7412 15.2125C24.7052 15.2062 24.6706 15.1919 24.6397 15.1705C24.6087 15.1491 24.582 15.121 24.5611 15.088C24.5402 15.0549 24.5255 15.0176 24.518 14.9781L24.4462 14.6037C24.4356 14.5374 24.4427 14.4691 24.4667 14.4072C24.4906 14.3452 24.5303 14.2923 24.581 14.2548Z" fill="#FFBE9D"/>
<path d="M29.3489 13.1687C29.3147 12.7918 29.266 12.421 29.2085 12.0526C29.151 11.6843 29.088 11.3208 29.0062 10.9549C28.971 10.7823 28.8753 10.632 28.7401 10.5369C28.6049 10.4417 28.4411 10.4094 28.2844 10.4469C28.1277 10.4843 27.9907 10.5886 27.9033 10.737C27.816 10.8854 27.7853 11.0658 27.8179 11.2391V11.2488C27.8787 11.5843 27.9451 11.9392 27.9992 12.2856C28.0534 12.632 28.1098 12.9821 28.1507 13.3273C28.1916 13.6725 28.228 14.0164 28.2446 14.347C28.2512 14.5116 28.2512 14.6726 28.2446 14.819C28.2446 14.8702 28.2391 14.9215 28.2336 14.9678C28.1386 14.9811 28.0426 14.9831 27.9473 14.9739C27.6963 14.9491 27.4477 14.9002 27.2044 14.8275C26.948 14.7556 26.6882 14.6665 26.4306 14.5702C26.1731 14.4738 25.9089 14.3677 25.6569 14.2628H25.648C25.5791 14.2341 25.5031 14.2342 25.4342 14.2629C25.3653 14.2916 25.3082 14.347 25.2737 14.4187C25.2391 14.4905 25.2295 14.5737 25.2465 14.6527C25.2635 14.7318 25.306 14.8013 25.3661 14.8483C25.6072 15.0328 25.8566 15.2038 26.1134 15.3606C26.3728 15.5192 26.64 15.6617 26.9137 15.7875C27.2027 15.9222 27.5035 16.024 27.8113 16.0912C27.988 16.1277 28.1678 16.1425 28.3474 16.1351C28.5824 16.1273 28.8113 16.0507 29.0107 15.9131C29.0911 15.8563 29.1548 15.7749 29.1942 15.6789L29.2008 15.6631C29.2916 15.4345 29.3498 15.1917 29.3732 14.9434C29.3951 14.7386 29.4058 14.5325 29.4053 14.3262C29.4059 13.9395 29.387 13.5531 29.3489 13.1687Z" fill="#FFBE9D"/>
<path d="M16.0359 29.4685C16.4076 28.8211 16.0359 27.0311 16.3238 24.5484C16.6117 22.0657 16.4913 17.1035 16.4913 17.1035H17.5088C17.5088 17.1035 17.3832 22.0689 17.6762 24.5484C17.9693 27.0279 17.5925 28.8114 17.9641 29.4685C18.3357 30.1256 18.5001 31.9997 18.5001 31.9997H15.5C15.5 31.9997 15.6654 30.1256 16.0359 29.4685Z" fill="#A8A8A8"/>
<path d="M16.0359 29.4685C16.4076 28.8211 16.0359 27.0311 16.3238 24.5484C16.6117 22.0657 16.4913 17.1035 16.4913 17.1035H17.5088C17.5088 17.1035 17.3832 22.0689 17.6762 24.5484C17.9693 27.0279 17.5925 28.8114 17.9641 29.4685C18.3357 30.1256 18.5001 31.9997 18.5001 31.9997H15.5C15.5 31.9997 15.6654 30.1256 16.0359 29.4685Z" fill="white" fill-opacity="0.5"/>
<path d="M7.09375 15.2129V16.5448C7.09375 17.1389 7.78463 17.5743 8.50204 17.4353C9.50542 17.2321 10.533 17.2214 11.5397 17.4035C13.8942 17.8585 13.9716 18.0049 16.8623 17.4353C19.7529 16.8656 21.4729 18.1573 23.1388 17.6938C23.8341 17.5011 24.6001 17.5097 25.2578 17.5853C26.1101 17.6841 26.8762 17.1596 26.8762 16.468V15.2129H7.09375Z" fill="#A8A8A8"/>
<path opacity="0.7" d="M7.09375 15.2129V16.5448C7.09375 17.1389 7.78463 17.5743 8.50204 17.4353C9.50542 17.2321 10.533 17.2214 11.5397 17.4035C13.8942 17.8585 13.9716 18.0049 16.8623 17.4353C19.7529 16.8656 21.4729 18.1573 23.1388 17.6938C23.8341 17.5011 24.6001 17.5097 25.2578 17.5853C26.1101 17.6841 26.8762 17.1596 26.8762 16.468V15.2129H7.09375Z" fill="white"/>
<path d="M7.09375 15.2128C7.09375 15.591 11.522 15.8971 16.985 15.8971C22.4479 15.8971 26.8762 15.591 26.8762 15.2128C26.8762 14.8347 22.4479 14.5273 16.985 14.5273C11.522 14.5273 7.09375 14.8335 7.09375 15.2128Z" fill="#A8A8A8"/>
<path opacity="0.8" d="M7.09375 15.2128C7.09375 15.591 11.522 15.8971 16.985 15.8971C22.4479 15.8971 26.8762 15.591 26.8762 15.2128C26.8762 14.8347 22.4479 14.5273 16.985 14.5273C11.522 14.5273 7.09375 14.8335 7.09375 15.2128Z" fill="white"/>
<path d="M17.3454 7.94863C17.3437 7.94486 17.3433 7.94053 17.3443 7.93648C17.3453 7.93243 17.3477 7.92894 17.3509 7.92667C17.6151 7.74859 18.0517 7.58148 18.1833 7.60832C18.3148 7.63515 18.1291 8.05596 17.9533 8.16086C17.7776 8.26576 17.4548 8.1511 17.3454 7.94863Z" fill="#A8A8A8"/>
<path d="M17.332 7.83691C17.4472 7.77007 17.5665 7.7122 17.6891 7.66371C17.6911 7.66281 17.693 7.66143 17.6945 7.65966C17.6961 7.6579 17.6973 7.65578 17.698 7.65347C17.6987 7.65115 17.699 7.64869 17.6988 7.64625C17.6986 7.64381 17.6979 7.64144 17.6968 7.63932C17.6348 7.52301 17.5525 7.42144 17.4547 7.34048C17.3519 7.28437 17.279 7.60394 17.3099 7.82838C17.3107 7.83066 17.312 7.83272 17.3136 7.83442C17.3152 7.83612 17.3171 7.83742 17.3192 7.83823C17.3213 7.83904 17.3235 7.83934 17.3257 7.83911C17.328 7.83889 17.3301 7.83814 17.332 7.83691Z" fill="#A8A8A8"/>
<path d="M17.8223 7.45482C17.8461 7.4642 17.871 7.46954 17.8963 7.47068C17.8995 7.471 17.9028 7.47011 17.9055 7.46815C17.9082 7.46619 17.9102 7.46329 17.9112 7.4599C17.9123 7.45651 17.9122 7.45285 17.9111 7.44949C17.91 7.44613 17.9079 7.44329 17.9052 7.44141C17.8845 7.42559 17.8617 7.41326 17.8377 7.40481C17.8137 7.39614 17.7889 7.39082 17.7637 7.38896C17.7603 7.38825 17.7569 7.38887 17.7539 7.3907C17.751 7.39253 17.7487 7.39545 17.7475 7.39896C17.7463 7.40247 17.7463 7.40632 17.7474 7.40985C17.7486 7.41338 17.7508 7.41635 17.7537 7.41823C17.7747 7.43427 17.7978 7.44662 17.8223 7.45482Z" fill="#A8A8A8"/>
<path opacity="0.5" d="M17.8114 7.50464C17.782 7.49449 17.754 7.4797 17.7285 7.46073C17.7266 7.45899 17.7243 7.45781 17.7219 7.45731C17.7195 7.4568 17.717 7.45699 17.7147 7.45785C17.7124 7.4587 17.7103 7.4602 17.7086 7.4622C17.707 7.4642 17.7058 7.46663 17.7053 7.46927C17.7053 7.48268 17.6997 7.4961 17.6975 7.50708C17.6965 7.51107 17.6965 7.51528 17.6975 7.51928C17.7185 7.54977 17.7395 7.5827 17.7616 7.61685C17.7632 7.61996 17.7658 7.62237 17.7688 7.6237C17.7718 7.62503 17.7751 7.6252 17.7782 7.62417C17.8173 7.60872 17.8541 7.59531 17.8888 7.58392C17.8924 7.58212 17.8955 7.57915 17.8976 7.57538C17.8976 7.56684 17.9053 7.55709 17.9087 7.54611C17.9099 7.54374 17.9106 7.54102 17.9105 7.53826C17.9104 7.5355 17.9097 7.53282 17.9083 7.53053C17.9069 7.52823 17.9049 7.52642 17.9027 7.52529C17.9004 7.52416 17.8979 7.52377 17.8954 7.52415C17.8667 7.52161 17.8385 7.51506 17.8114 7.50464Z" fill="#A8A8A8"/>
<path opacity="0.5" d="M17.6414 7.43973C17.6428 7.44199 17.6447 7.44384 17.6469 7.44512C17.6491 7.4464 17.6516 7.44707 17.6541 7.44707C17.6566 7.44707 17.659 7.4464 17.6613 7.44512C17.6635 7.44384 17.6654 7.44199 17.6668 7.43973C17.6715 7.4195 17.679 7.40017 17.6889 7.3824C17.7066 7.33361 17.7873 7.33849 17.8558 7.36411C17.9244 7.38972 17.9918 7.43851 17.9796 7.48608C17.9778 7.50437 17.9741 7.52238 17.9686 7.53975C17.9678 7.54257 17.9676 7.54558 17.9682 7.54848C17.9687 7.55138 17.97 7.55407 17.9717 7.55628C17.9735 7.5585 17.9758 7.56016 17.9784 7.56111C17.9809 7.56206 17.9836 7.56227 17.9863 7.5617C18.0308 7.54926 18.0763 7.54191 18.1222 7.53975C18.1244 7.53982 18.1266 7.53932 18.1286 7.53831C18.1306 7.53729 18.1324 7.53578 18.1338 7.5339C18.1352 7.53201 18.1361 7.5298 18.1366 7.52743C18.1371 7.52506 18.1371 7.5226 18.1366 7.52023C18.1332 7.50408 18.1263 7.48904 18.1167 7.47632L17.9918 7.31288C17.9655 7.27788 17.9309 7.25168 17.8918 7.23724C17.8527 7.2228 17.8108 7.2207 17.7707 7.23116L17.5828 7.27994C17.5729 7.28192 17.5636 7.28621 17.5554 7.29253C17.5472 7.29884 17.5403 7.30703 17.5353 7.31654C17.5327 7.31949 17.5312 7.32342 17.5312 7.32751C17.5313 7.33161 17.5327 7.33554 17.5353 7.33849C17.5747 7.36664 17.6104 7.40071 17.6414 7.43973Z" fill="#A8A8A8"/>
<path d="M17.3406 13.547C17.3336 13.547 17.3269 13.5441 17.3218 13.5389C17.3166 13.5337 17.3135 13.5266 17.3129 13.5189C17.1228 11.4771 17.377 8.98882 17.6258 8.04962C17.6266 8.04569 17.6282 8.042 17.6305 8.03878C17.6327 8.03557 17.6355 8.0329 17.6388 8.03095C17.642 8.029 17.6455 8.02781 17.6492 8.02746C17.6529 8.0271 17.6565 8.02759 17.66 8.02889C17.6669 8.03142 17.6727 8.03672 17.6761 8.04373C17.6796 8.05074 17.6806 8.05894 17.6788 8.0667C17.4312 9.00224 17.1781 11.482 17.3682 13.5128C17.3688 13.5211 17.3665 13.5292 17.3618 13.5356C17.357 13.542 17.3502 13.5461 17.3428 13.547H17.3406Z" fill="#A8A8A8"/>
<path d="M17.0492 14.831C17.021 14.8229 16.9963 14.8042 16.9791 14.7782C16.962 14.7522 16.9536 14.7204 16.9553 14.6883C16.7342 14.5114 16.4026 14.065 16.6358 13.0307C16.8801 11.961 16.8016 11.4157 16.6093 10.9242C16.5839 10.8597 16.5726 10.7895 16.5765 10.7194C16.5804 10.6492 16.5993 10.581 16.6317 10.5205C16.664 10.4599 16.7089 10.4086 16.7626 10.3709C16.8164 10.3332 16.8775 10.31 16.9409 10.3033C17.1746 10.2765 17.4102 10.2765 17.644 10.3033C17.7074 10.31 17.7685 10.3332 17.8222 10.3709C17.876 10.4086 17.9209 10.4599 17.9532 10.5205C17.9856 10.581 18.0045 10.6492 18.0083 10.7194C18.0122 10.7895 18.001 10.8597 17.9756 10.9242C17.7832 11.4121 17.7047 11.961 17.949 13.0307C18.1856 14.065 17.8562 14.5114 17.6285 14.6883C17.6285 14.7651 17.5865 14.8249 17.5378 14.831H17.0492ZM17.288 10.3436C17.1724 10.3436 17.0569 10.3505 16.942 10.3643C16.8876 10.3706 16.8353 10.391 16.7894 10.4239C16.7435 10.4567 16.7052 10.5011 16.6778 10.5534C16.65 10.6054 16.6339 10.6639 16.6308 10.7242C16.6278 10.7845 16.6378 10.8447 16.6601 10.8998C16.8569 11.4023 16.9376 11.9597 16.69 13.0453C16.4578 14.0626 16.7839 14.4858 16.9984 14.6468L17.0106 14.6566V14.6761C17.0106 14.731 17.0327 14.7712 17.0526 14.7737H17.5257C17.5434 14.7737 17.5655 14.731 17.5655 14.6773V14.6615L17.5776 14.6505C17.7921 14.4895 18.1182 14.0662 17.886 13.049C17.6384 11.9634 17.7191 11.406 17.9159 10.9034C17.9382 10.8483 17.9482 10.7881 17.9452 10.7279C17.9421 10.6676 17.926 10.609 17.8982 10.557C17.8707 10.5046 17.8323 10.4601 17.7862 10.4273C17.74 10.3944 17.6875 10.3741 17.6329 10.368C17.5184 10.3529 17.4033 10.3448 17.288 10.3436Z" fill="#A8A8A8"/>
<path d="M17.423 9.39666C17.4853 9.19185 17.6156 9.02071 17.7877 8.91772C17.9598 8.81473 18.1609 8.78756 18.3505 8.84168C18.3151 9.68086 17.3965 9.71623 17.3965 9.71623C17.4086 9.57596 17.423 9.39666 17.423 9.39666Z" fill="#A8A8A8"/>
<path d="M15.2107 9.2004V8.34658C15.2107 8.31423 15.199 8.28321 15.1783 8.26033C15.1576 8.23746 15.1295 8.22461 15.1002 8.22461H14.7564C14.728 8.22618 14.7013 8.23971 14.6818 8.26242C14.6622 8.28513 14.6513 8.31526 14.6514 8.34658V9.2004C14.6511 9.33241 14.6273 9.46308 14.5812 9.5849C14.5351 9.70672 14.4677 9.8173 14.3827 9.91029C14.2118 10.0989 14.1156 10.3546 14.1152 10.6214V14.5977C14.1152 14.6624 14.1385 14.7245 14.18 14.7702C14.2214 14.816 14.2777 14.8417 14.3363 14.8417H15.5224C15.5811 14.8417 15.6373 14.816 15.6788 14.7702C15.7202 14.7245 15.7435 14.6624 15.7435 14.5977V10.6214C15.7436 10.4893 15.72 10.3584 15.6741 10.2364C15.6282 10.1143 15.5608 10.0035 15.476 9.91029C15.3916 9.81704 15.3248 9.70633 15.2792 9.58452C15.2337 9.4627 15.2104 9.33217 15.2107 9.2004Z" fill="#263238"/>
<path d="M15.156 8.30066H14.705C14.6863 8.30066 14.6683 8.29243 14.655 8.27779C14.6417 8.26315 14.6343 8.2433 14.6343 8.22259C14.6343 8.20189 14.6417 8.18204 14.655 8.1674C14.6683 8.15276 14.6863 8.14453 14.705 8.14453H15.156C15.1746 8.14485 15.1923 8.15322 15.2053 8.16782C15.2184 8.18243 15.2257 8.2021 15.2257 8.22259C15.2257 8.24309 15.2184 8.26276 15.2053 8.27737C15.1923 8.29197 15.1746 8.30034 15.156 8.30066Z" fill="#263238"/>
<path d="M15.643 11.6992H14.584V13.5996H15.643V11.6992Z" fill="white"/>
<path d="M15.643 11.4434H14.584V11.7007H15.643V11.4434Z" fill="#A8A8A8"/>
<path d="M15.3907 12.6501C15.3907 12.7119 15.3741 12.7723 15.343 12.8236C15.3119 12.875 15.2677 12.915 15.216 12.9386C15.1643 12.9623 15.1074 12.9684 15.0525 12.9564C14.9976 12.9443 14.9472 12.9146 14.9076 12.8709C14.868 12.8273 14.8411 12.7716 14.8301 12.7111C14.8192 12.6505 14.8248 12.5877 14.8462 12.5306C14.8677 12.4736 14.9039 12.4248 14.9505 12.3905C14.997 12.3562 15.0517 12.3379 15.1077 12.3379C15.1827 12.3379 15.2547 12.3708 15.3078 12.4293C15.3609 12.4879 15.3907 12.5673 15.3907 12.6501Z" fill="#A8A8A8"/>
</svg>
