<svg width="40" height="40" viewBox="0 0 40 40" fill="none" xmlns="http://www.w3.org/2000/svg">
<path d="M16.0967 27.188C15.6262 26.9154 15.1075 26.7594 14.5768 26.7306L11.1665 26.5781L10.2725 20.7843C9.81238 17.8005 7.47164 15.3809 5.04384 15.3809H3.64133C1.21353 15.3809 -0.381046 17.8005 0.0790887 20.7843L0.695364 24.7866C0.924741 26.2671 2.08544 27.467 3.29036 27.467H4.15397C3.44235 27.467 2.83851 28.24 2.7487 29.2646L1.82152 39.7437H2.0426L2.96564 29.3225C3.04302 28.455 3.5529 27.7978 4.15397 27.7978H5.97516C6.57486 27.7978 7.08059 28.4504 7.16212 29.3225L8.08515 39.759H8.30762L7.38044 29.2798C7.28924 28.2553 6.68955 27.4822 5.97516 27.4822H11.0394C10.3292 27.4822 9.72395 28.2553 9.63413 29.2798L8.70695 39.759H8.93356L9.85245 29.3225C9.92845 28.455 10.4383 27.7978 11.0394 27.7978H12.8606C13.4603 27.7978 13.966 28.4504 14.0489 29.3225L14.972 39.759H15.193L14.2659 29.2798C14.1761 28.2553 13.575 27.4822 12.8606 27.4822H16.0456C16.0778 27.4823 16.109 27.47 16.1338 27.4474C16.1587 27.4248 16.1756 27.3934 16.1817 27.3585C16.1877 27.3236 16.1825 27.2875 16.167 27.2563C16.1515 27.2252 16.1267 27.201 16.0967 27.188Z" fill="#A8A8A8"/>
<path d="M10.2773 39.751H10.5026C10.5712 39.7491 10.6381 39.7272 10.6966 39.6876C10.755 39.6479 10.803 39.592 10.8356 39.5253L10.9572 39.6458C11.0239 39.7147 11.1117 39.7534 11.2031 39.7541H14.2652C14.282 39.4937 14.2432 39.2325 14.1519 38.9917C14.1519 38.9917 12.8074 38.9002 12.502 38.4017C12.4927 38.3831 12.4784 38.3683 12.461 38.3592C12.4437 38.3502 12.4242 38.3474 12.4053 38.3513C12.1455 38.42 11.1271 38.6639 10.5454 38.4215C10.468 38.3895 10.3906 38.4626 10.3879 38.5663C10.3743 38.9634 10.3374 39.3592 10.2773 39.751Z" fill="#263238"/>
<path d="M2.62695 20.0938L2.63801 22.0347C2.65735 24.898 4.57251 26.7017 6.86627 26.9136C8.20384 27.0387 10.0098 27.0783 11.0531 27.0524C10.2724 29.5925 10.2724 36.2294 10.5584 38.6689L12.2718 38.5165C13.0553 31.1401 14.5974 27.8071 14.6692 25.5231C14.6823 25.0854 14.5891 24.6519 14.3991 24.2674C14.209 23.8829 13.9292 23.5616 13.5887 23.3367C10.2116 21.2403 2.62695 20.0938 2.62695 20.0938Z" fill="#263238"/>
<path d="M14.8125 39.7509H15.0363C15.105 39.7491 15.172 39.7273 15.2305 39.6877C15.289 39.648 15.3369 39.592 15.3694 39.5253L15.491 39.6457C15.5578 39.7145 15.6455 39.7531 15.7369 39.754H18.7989C18.8159 39.4937 18.7776 39.2327 18.687 38.9916C18.687 38.9916 17.3412 38.9001 17.0372 38.4016C17.0275 38.3831 17.0129 38.3683 16.9953 38.3593C16.9778 38.3503 16.9581 38.3475 16.9391 38.3513C16.6793 38.4199 15.6609 38.6638 15.0792 38.4214C15.0598 38.4157 15.0395 38.4152 15.02 38.4199C15.0004 38.4247 14.9822 38.4347 14.9669 38.4489C14.9515 38.4631 14.9396 38.4812 14.9319 38.5016C14.9243 38.5221 14.9212 38.5442 14.923 38.5662C14.9087 38.9633 14.8717 39.359 14.8125 39.7509Z" fill="#263238"/>
<path d="M10.8115 18.3945L9.30533 19.3353C8.46797 21.9958 9.17544 23.708 11.2329 25.0025C12.4337 25.7557 14.1236 26.3991 15.5938 27.0562C14.8145 29.5964 14.8145 36.2333 15.0992 38.6728L16.8126 38.5203C17.596 31.1439 19.1381 27.811 19.2113 25.527C19.239 24.635 18.7194 23.9276 18.1308 23.3406C15.1724 20.3949 10.8115 18.3945 10.8115 18.3945Z" fill="#263238"/>
<path d="M17.4578 7.6937C17.3913 7.63214 17.3144 7.58567 17.2315 7.55695C17.1487 7.52822 17.0615 7.51781 16.975 7.52631C16.8885 7.53481 16.8043 7.56204 16.7274 7.60646C16.6504 7.65088 16.5822 7.71161 16.5265 7.78518L16.4975 7.82177C16.2916 8.09469 16.0761 8.39658 15.8633 8.67254C15.6505 8.94851 15.4363 9.226 15.2166 9.48062C15.0133 9.72464 14.7959 9.95382 14.5658 10.1667C14.4529 10.2724 14.3318 10.3668 14.2037 10.4488C13.9889 10.4446 13.7748 10.4196 13.564 10.3741C13.2519 10.304 12.9433 10.2159 12.6396 10.1103C12.3217 9.99749 11.9956 9.87704 11.6723 9.74134L11.1859 9.53399L10.7203 9.32815L10.6539 9.29919C10.338 9.16609 9.98766 9.17268 9.676 9.31759C9.36434 9.4625 9.11539 9.73455 8.98105 10.077C8.84671 10.4195 8.83734 10.806 8.9549 11.1559C9.07246 11.5058 9.30787 11.7921 9.61207 11.9552L9.90777 12.1076C10.0017 12.1549 10.0971 12.1991 10.1841 12.2433C10.3734 12.3302 10.5655 12.408 10.7576 12.4858C11.1489 12.6407 11.5474 12.7725 11.9514 12.8807C12.1587 12.934 12.366 12.9828 12.5829 13.0255C12.7998 13.0682 13.0209 13.0956 13.2517 13.1185C13.7711 13.1761 14.2956 13.1343 14.802 12.995L14.8877 12.9706C14.9545 12.9505 15.0186 12.9208 15.0784 12.8822C15.4867 12.6107 15.8475 12.2606 16.1438 11.8484C16.3966 11.5043 16.6218 11.1365 16.8167 10.7492C17.0008 10.3833 17.1646 10.0055 17.3072 9.61784C17.4507 9.23323 17.5707 8.83848 17.6665 8.43622C17.6983 8.30331 17.6956 8.16323 17.6587 8.03194C17.6218 7.90066 17.5522 7.78345 17.4578 7.6937Z" fill="#FFBE9D"/>
<path d="M16.3867 8.02194L16.7805 8.74312C17.318 9.5268 17.9053 8.4458 17.9053 8.4458L18.3461 8.09055C18.4953 7.9701 18.5464 7.68956 18.4663 7.42884L18.2659 6.77476C18.1747 6.46982 17.9454 6.31735 17.7602 6.40578L17.3457 6.62381C17.2184 6.69227 17.1105 6.79769 17.0334 6.92875L16.3867 8.02194Z" fill="#FFBE9D"/>
<path opacity="0.2" d="M19.1932 3.5005L17.9288 3.36328C17.9288 3.36328 16.9022 5.92169 18.2563 6.14887L18.0781 7.73911C18.0751 7.81907 18.0506 7.89624 18.0078 7.96085C17.965 8.02545 17.9058 8.07457 17.8376 8.10199L17.5488 8.17517L18.7178 8.30172L18.4415 8.16907C18.3795 8.12726 18.3302 8.06613 18.2997 7.99341C18.2692 7.92068 18.2589 7.83962 18.2701 7.76046L18.3751 6.16259C19.75 6.2312 19.1932 3.5005 19.1932 3.5005Z" fill="#EC2024"/>
<path d="M18.9177 5.81302C18.8392 5.89306 18.7462 5.95386 18.6449 5.99142C18.5436 6.02897 18.4362 6.04243 18.3298 6.03091C18.2234 6.01939 18.1205 5.98315 18.0277 5.92457C17.9349 5.86599 17.8545 5.7864 17.7916 5.69104C17.6534 5.43794 17.6534 5.08117 17.6921 4.72439C18.2655 4.64968 18.7491 4.96682 19.1858 4.87686C19.1664 5.24431 19.0946 5.59346 18.9177 5.81302Z" fill="#EC2024"/>
<path d="M17.0254 7.503C17.2271 6.81079 17.813 6.71474 18.2441 6.48451C18.3174 6.44487 18.4763 6.60953 18.4044 6.75133C18.367 6.84293 18.3131 6.92524 18.2462 6.99336C18.1792 7.06147 18.1005 7.11398 18.0147 7.14774C18.0341 7.3734 17.8862 8.01071 17.3073 8.0778C17.1532 7.93031 17.053 7.726 17.0254 7.503Z" fill="#FFBE9D"/>
<path d="M8.0532 8.00356C8.39727 7.49584 9.51099 7.61629 10.1549 8.41827C10.4202 8.40607 11.4662 9.44743 12.2621 9.67003C13.058 9.89264 13.0788 10.7785 12.9737 11.4173C12.7803 12.5959 12.7223 13.1981 11.9802 13.2866C11.2382 13.375 10.2599 12.8444 9.47368 12.1934C8.68744 11.5423 7.44384 8.90464 8.0532 8.00356Z" fill="#EC2024"/>
<path d="M13.1291 9.94975C13.0573 9.72104 12.0638 9.22857 12.0472 9.57925C12.0306 9.96652 11.9698 11.293 11.8814 11.8861C11.7929 12.4792 11.6893 13.2126 11.833 13.301C12.0361 13.4275 12.6925 13.487 12.9647 13.269C13.3336 12.9732 13.4386 10.9408 13.1291 9.94975Z" fill="white"/>
<path d="M13.063 18.9551C13.2091 19.1913 13.2834 19.4726 13.2752 19.7584C13.267 20.0442 13.1767 20.3198 13.0174 20.5453C12.665 21.0241 12.0819 20.7451 12.0819 20.7451C12.0819 20.7451 11.9437 21.82 11.0179 21.9541C9.4883 22.1752 3.71658 21.4556 2.73828 20.5362C5.81413 20.8365 13.063 18.9551 13.063 18.9551Z" fill="white"/>
<path d="M7.53017 7.12309C6.10182 7.1316 4.67718 7.29043 3.27414 7.59759C3.04186 7.65236 2.8218 7.76103 2.62747 7.91692C2.43314 8.0728 2.26864 8.27262 2.14408 8.5041C2.01953 8.73557 1.93754 8.99381 1.90315 9.26296C1.86877 9.53211 1.88271 9.80648 1.94413 10.0692C2.99484 14.657 2.39767 19.6918 2.48146 20.6072C2.48146 20.6072 9.77747 22.5772 11.0649 19.7165C10.0725 16.0206 10.9496 13.7797 9.94147 9.23161C9.67547 8.03699 8.61013 7.11547 7.53017 7.12309Z" fill="#263238"/>
<path opacity="0.4" d="M4.88308 7.36642H4.89828L4.94664 7.34659L4.95908 7.35879C5.69142 7.26121 6.45417 7.20633 7.18099 7.17431C7.35924 7.16668 7.53472 7.16363 7.70745 7.16211C7.93521 7.30293 8.11045 7.52816 8.20213 7.7979C8.42459 8.40777 8.26569 9.08473 7.77377 9.61379L7.73232 9.65649H7.67566C6.60616 9.54213 4.6081 8.59683 4.52381 7.86956C4.51138 7.73539 4.53763 7.50669 4.88308 7.36642Z" fill="#FAFAFA"/>
<path d="M8.47367 17.7434L8.45018 17.7358C8.03564 17.6001 7.60452 17.4659 7.18861 17.3241C6.77269 17.1823 6.35954 17.039 5.95882 16.8789C5.58064 16.7342 5.21138 16.5626 4.85339 16.3651C4.73827 16.3009 4.62704 16.2286 4.52038 16.1486C4.52038 15.9077 4.53144 15.6668 4.53835 15.4228L4.59085 14.261L4.65441 13.0885C4.67514 12.7013 4.69725 12.2988 4.71107 11.9267V11.8993C4.72427 11.525 4.60552 11.1596 4.37976 10.8798C4.15401 10.6 3.8388 10.4276 3.50031 10.3988C3.16182 10.37 2.82638 10.487 2.56441 10.7253C2.30245 10.9636 2.13433 11.3046 2.09535 11.6767C2.04837 12.1127 2.02626 12.5183 2.0083 12.9391C1.99033 13.3599 1.98481 13.7762 1.99033 14.1955C1.99586 14.6147 2.00691 15.0386 2.03179 15.464C2.05666 15.8894 2.09535 16.3193 2.14786 16.7539L2.16306 16.8804C2.18489 17.0565 2.24458 17.2244 2.33716 17.3698C2.46462 17.5714 2.61719 17.752 2.79039 17.9065C2.92563 18.028 3.07089 18.1352 3.22427 18.2267C3.47747 18.3797 3.74242 18.5078 4.01603 18.6094C4.49241 18.7822 4.98092 18.9112 5.47658 18.9951C5.95606 19.076 6.42724 19.1278 6.89843 19.1568C7.37067 19.1842 7.8439 19.1842 8.31614 19.1568C8.47058 19.1473 8.61705 19.0781 8.72981 18.9613C8.84258 18.8444 8.91444 18.6875 8.93275 18.5181C8.95106 18.3486 8.91466 18.1774 8.82994 18.0346C8.74522 17.8918 8.61761 17.7866 8.46952 17.7373L8.47367 17.7434Z" fill="#FFBE9D"/>
<path d="M8.11655 17.991L7.92034 18.517C7.89546 19.4608 9.00089 19.2794 9.00089 19.2794L9.56466 19.4318C9.66475 19.4523 9.76816 19.4328 9.85647 19.377C9.94479 19.3211 10.0123 19.2325 10.0469 19.1269L10.268 18.5475C10.3201 18.4314 10.3291 18.2974 10.2929 18.174C10.2568 18.0507 10.1784 17.9478 10.0745 17.8873L9.61026 17.6678C9.47488 17.6038 9.32727 17.5776 9.18052 17.5916L8.5297 17.6541C8.43943 17.6629 8.35312 17.6991 8.28023 17.7585C8.20735 17.8179 8.15072 17.8984 8.11655 17.991Z" fill="#FFBE9D"/>
<path d="M2.62409 8.20944C2.05203 8.25976 1.55045 9.36362 1.82542 10.3928C1.67342 10.6352 1.66928 12.9268 1.54077 13.8233C1.41227 14.7198 1.66237 14.6405 2.24134 14.7518C3.31222 14.9561 4.28914 15.6072 4.75342 14.9607C5.2177 14.3143 5.21494 13.2104 5.05327 12.1416C4.81698 10.5681 3.64109 8.11949 2.62409 8.20944Z" fill="#EC2024"/>
<path d="M1.35523 14.5628C1.16455 14.6832 1.29443 15.5828 1.59152 15.7093C1.8886 15.8359 3.58267 15.4501 4.12571 15.5203C4.66875 15.5904 4.79726 15.5431 4.93958 15.2077C5.08191 14.8723 5.16205 14.5597 5.02802 14.2197C4.847 13.7593 2.18154 14.0444 1.35523 14.5628Z" fill="white"/>
<path d="M7.94538 7.73756C7.81347 7.49518 7.61148 7.30883 7.37194 7.2085C7.27124 6.96473 7.24976 6.69011 7.31114 6.43091L4.64844 5.50391C4.91512 6.45378 5.09752 7.38231 4.79767 7.87174C5.33657 8.18734 6.32454 8.75147 7.36226 8.64932C8.39998 8.54717 8.13744 8.12788 7.94538 7.73756Z" fill="#FFBE9D"/>
<path opacity="0.2" d="M7.29583 6.52177L5.36133 6.26562C5.95826 7.04779 6.92551 7.42896 7.33866 7.10267C7.2797 6.91624 7.26496 6.71627 7.29583 6.52177Z" fill="black"/>
<path d="M4.36049 3.67677C4.53736 5.06423 4.68521 6.00343 5.46592 6.52792C7.00661 7.57232 7.82739 6.73527 8.03051 5.30817C8.2129 4.02744 7.89233 1.97218 6.61418 1.53764C6.33029 1.43946 6.02842 1.42273 5.73704 1.48901C5.44567 1.5553 5.17441 1.70243 4.94887 1.9165C4.72333 2.13057 4.55095 2.40454 4.448 2.71252C4.34506 3.02051 4.31494 3.35237 4.36049 3.67677Z" fill="#FFBE9D"/>
<path d="M4.248 4.85306C3.60961 4.32857 3.47143 2.83895 3.93986 2.35563C3.29595 2.24433 3.97855 1.35544 4.83111 1.22737C5.68367 1.09929 5.06878 0.372022 5.06878 0.372022C5.37553 0.38117 5.75967 0.626643 5.83567 0.76234C5.75841 0.512385 5.69383 0.257878 5.64222 0C5.64222 0 6.87339 0.16924 7.00328 0.955975C7.0515 0.706762 7.14919 0.472442 7.28931 0.269869C7.28931 0.269869 8.34223 1.47437 7.55185 2.38003C7.27549 1.94244 6.99913 1.77015 6.94939 2.04917C6.83746 2.65904 4.9914 1.21517 4.64181 2.74442C4.53955 3.18811 5.3327 3.7065 5.40317 4.36973C5.01903 4.78597 4.248 4.85306 4.248 4.85306Z" fill="black"/>
<path d="M4.05201 2.29192C3.91111 2.3382 3.76123 2.33957 3.61966 2.29586C3.4781 2.25215 3.35062 2.16516 3.25195 2.04492C3.25195 2.04492 3.47718 2.82556 4.05201 2.29192Z" fill="black"/>
<path d="M7.50629 5.28466L5.98633 4.88672C5.98633 4.88672 6.10931 5.35175 6.73387 5.59112C7.35844 5.8305 7.50629 5.28466 7.50629 5.28466Z" fill="white"/>
<path d="M3.98626 5.02919C4.06368 5.18104 4.16748 5.31455 4.29173 5.42208C4.41597 5.52961 4.55821 5.60904 4.71031 5.65583C5.12485 5.77628 5.32383 5.37224 5.20914 4.94838C5.10689 4.56721 4.76973 4.04425 4.35934 4.11133C3.94895 4.17842 3.79834 4.65259 3.98626 5.02919Z" fill="#FFBE9D"/>
<path d="M6.3779 3.84529C6.38619 3.95811 6.44699 4.04502 6.51608 4.03892C6.58517 4.03282 6.63215 3.93525 6.62386 3.8209C6.61557 3.70654 6.55477 3.62116 6.48568 3.62726C6.41659 3.63336 6.36961 3.73094 6.3779 3.84529Z" fill="#263238"/>
<path d="M7.47167 3.76717C7.47996 3.87999 7.54076 3.9669 7.60985 3.9608C7.67894 3.9547 7.72454 3.85712 7.71625 3.74277C7.70796 3.62842 7.64716 3.54304 7.57807 3.54914C7.50898 3.55523 7.46338 3.65281 7.47167 3.76717Z" fill="#263238"/>
<path d="M7.11914 3.88281L7.18132 4.83879C7.18132 4.83879 7.5171 4.8952 7.70087 4.71681C7.5782 4.38632 7.37728 4.09827 7.11914 3.88281Z" fill="#F4AF8C"/>
<path d="M6.00751 3.50308C5.99731 3.50161 5.98745 3.49799 5.97849 3.49241C5.96519 3.48247 5.95589 3.46723 5.95254 3.4499C5.94919 3.43256 5.95205 3.41446 5.96053 3.3994C6.01067 3.30827 6.0796 3.2315 6.16172 3.17533C6.24384 3.11916 6.33682 3.08518 6.4331 3.07617C6.44922 3.07617 6.46469 3.08324 6.47609 3.09582C6.48749 3.1084 6.4939 3.12546 6.4939 3.14326C6.49408 3.15199 6.49268 3.16068 6.48978 3.16881C6.48687 3.17695 6.48253 3.18435 6.47699 3.1906C6.47145 3.19685 6.46484 3.20182 6.45754 3.20521C6.45024 3.2086 6.4424 3.21034 6.43448 3.21034C6.3583 3.21847 6.28494 3.24631 6.22035 3.29162C6.15576 3.33692 6.10178 3.3984 6.06278 3.47106C6.05684 3.4812 6.04863 3.48947 6.03895 3.49507C6.02927 3.50068 6.01844 3.50344 6.00751 3.50308Z" fill="black"/>
<path d="M8.03444 3.37342C8.02444 3.37408 8.01444 3.37207 8.0053 3.36756C7.99616 3.36305 7.98814 3.35616 7.98193 3.3475C7.93811 3.27889 7.87993 3.22296 7.81233 3.18447C7.74474 3.14598 7.66971 3.12607 7.59365 3.12642C7.57752 3.12743 7.56169 3.12133 7.54964 3.10946C7.53759 3.0976 7.53031 3.08094 7.5294 3.06314C7.52848 3.04535 7.53401 3.02789 7.54476 3.01459C7.55551 3.00129 7.57061 2.99326 7.58674 2.99225C7.68276 2.99083 7.77768 3.01489 7.86353 3.06238C7.94937 3.10987 8.02362 3.17942 8.08004 3.26517C8.0895 3.27962 8.0935 3.29757 8.09118 3.31521C8.08885 3.33286 8.0804 3.34881 8.0676 3.35969C8.0577 3.36714 8.04633 3.37185 8.03444 3.37342Z" fill="black"/>
<path d="M7.6906 9.51328C6.26737 9.36081 3.82161 7.94286 4.92704 7.49918C5.62622 8.10905 6.80074 8.35605 7.35345 8.35757C7.55933 8.13954 7.62981 7.5312 7.37556 7.21254C7.95314 7.15918 8.68134 8.44905 7.6906 9.51328Z" fill="#EC2024"/>
<path d="M7.34749 8.35802C6.83346 7.96618 5.20296 7.01631 4.74559 7.02546C4.69177 7.21966 4.68274 7.42562 4.71933 7.62465C4.71933 7.62465 5.32179 8.35498 7.34749 8.35802Z" fill="white"/>
<path d="M7.3499 8.35418C7.3499 8.35418 7.27114 7.13443 7.37063 6.86914C7.45587 6.90484 7.53125 6.96436 7.58938 7.04187C7.64752 7.11938 7.68641 7.21222 7.70226 7.3113C7.70226 7.3113 7.59171 8.16512 7.3499 8.35418Z" fill="white"/>
<path d="M23.9018 27.188C24.3724 26.9155 24.8911 26.7594 25.4218 26.7306L28.8307 26.5781L29.7247 20.7843C30.1848 17.8005 32.5256 15.3809 34.9547 15.3809H36.3573C38.785 15.3809 40.3796 17.8005 39.9195 20.7843L39.3032 24.7866C39.0752 26.2671 37.9131 27.467 36.7096 27.467H35.8446C36.5562 27.467 37.1601 28.24 37.2513 29.2646L38.1784 39.7437H37.9505L37.0329 29.3225C36.9556 28.455 36.4457 27.7978 35.8446 27.7978H34.0248C33.4237 27.7978 32.9194 28.4504 32.8365 29.3225L31.9134 39.759H31.691L32.6195 29.2798C32.7093 28.2553 33.3104 27.4822 34.0248 27.4822H28.9592C29.6694 27.4822 30.2746 28.2553 30.3645 29.2798L31.2916 39.759H31.0705L30.1475 29.3225C30.0701 28.455 29.5603 27.7978 28.9592 27.7978H27.138C26.5383 27.7978 26.0326 28.4504 25.951 29.3225L25.028 39.759H24.8055L25.7327 29.2798C25.8225 28.2553 26.4236 27.4822 27.138 27.4822H23.953C23.9208 27.4823 23.8896 27.47 23.8647 27.4474C23.8399 27.4248 23.823 27.3934 23.8169 27.3585C23.8109 27.3236 23.816 27.2875 23.8315 27.2563C23.847 27.2252 23.8719 27.201 23.9018 27.188Z" fill="#A8A8A8"/>
<path d="M32.3035 7.01421C31.2368 6.92426 30.2392 8.78132 30.6081 10.149C30.977 11.5166 29.663 12.3308 30.1093 13.7015C31.0309 16.5419 34.4978 17.0054 36.1891 14.4486C37.8804 11.8917 35.255 10.3929 35.6461 9.3668C36.2264 7.83449 34.2159 5.08854 32.3035 7.01421Z" fill="black"/>
<path d="M24.8406 13.0787L25.1777 12.9719C25.2405 12.9526 25.3064 12.9499 25.3703 12.9639C25.4341 12.9779 25.4941 13.0084 25.5453 13.0528L26.0289 13.4781C26.1239 13.5617 26.1994 13.6691 26.2491 13.7913C26.2989 13.9136 26.3214 14.0472 26.3149 14.181L26.3067 14.3503C25.7539 14.5698 25.0175 14.3594 25.0175 14.3594L24.8005 14.3259C24.7558 14.3204 24.7124 14.3051 24.673 14.281C24.6337 14.2569 24.599 14.2244 24.5711 14.1854C24.5432 14.1464 24.5226 14.1017 24.5105 14.0538C24.4984 14.0059 24.4951 13.9559 24.5007 13.9066L24.5559 13.4309C24.5676 13.3481 24.6007 13.2709 24.6512 13.2084C24.7017 13.1459 24.7674 13.1009 24.8406 13.0787Z" fill="#FFBE9D"/>
<path opacity="0.2" d="M24.0805 10.1866L25.3476 10.0723C25.3476 10.0723 26.3356 12.649 24.9787 12.8518L25.1334 14.445C25.1353 14.5249 25.1584 14.6023 25.2 14.6677C25.2415 14.733 25.2996 14.7834 25.367 14.8125L25.6558 14.8903L24.4854 14.9955L24.7617 14.8674C24.8242 14.8265 24.8744 14.7663 24.9061 14.6942C24.9378 14.6221 24.9496 14.5413 24.94 14.4618L24.8543 12.8594C23.4836 12.9066 24.0805 10.1866 24.0805 10.1866Z" fill="#EC2024"/>
<path d="M24.3212 12.5007C24.3986 12.5822 24.4907 12.6447 24.5915 12.6842C24.6923 12.7236 24.7995 12.7391 24.9061 12.7296C25.0127 12.7201 25.1163 12.6858 25.2101 12.629C25.3038 12.5723 25.3856 12.4942 25.4501 12.4001C25.5883 12.1501 25.6021 11.7902 25.5635 11.435C24.9914 11.3496 24.5022 11.6591 24.0684 11.5676C24.0822 11.9275 24.1485 12.2797 24.3212 12.5007Z" fill="#EC2024"/>
<path d="M25.111 13.4183L25.1663 13.8925C25.1856 14.0541 25.0281 14.1517 24.8706 14.1974C24.8548 14.2032 24.838 14.2048 24.8216 14.202C24.8052 14.1992 24.7896 14.1922 24.7761 14.1815C24.7626 14.1708 24.7516 14.1567 24.744 14.1404C24.7364 14.124 24.7324 14.106 24.7324 14.0876V13.2826C24.7329 13.2645 24.7372 13.2468 24.7449 13.2309C24.7527 13.2149 24.7637 13.2012 24.7772 13.1909C24.7906 13.1805 24.806 13.1737 24.8223 13.1711C24.8385 13.1685 24.855 13.1701 24.8706 13.1759C24.9922 13.2308 25.0986 13.3024 25.111 13.4183Z" fill="#FFBE9D"/>
<path d="M32.0692 13.9244C31.931 13.7628 31.7402 13.6683 31.5389 13.6618C31.3376 13.6552 31.1422 13.737 30.9955 13.8894L30.9679 13.9183L30.8297 14.0617L30.6791 14.2141C30.5782 14.3163 30.4732 14.4154 30.3668 14.5099C30.1554 14.7035 29.9371 14.885 29.7174 15.0527C29.3499 15.3424 28.9419 15.5638 28.5097 15.7083C28.3607 15.6316 28.2174 15.5418 28.0813 15.44C27.8523 15.2686 27.6314 15.0844 27.4195 14.888C27.1998 14.6883 26.9814 14.4764 26.7659 14.2599C26.5503 14.0434 26.332 13.8177 26.1206 13.6027L26.1123 13.5936C26.0456 13.5256 25.959 13.4863 25.8683 13.4827C25.7775 13.4791 25.6886 13.5115 25.6176 13.5739C25.5467 13.6364 25.4983 13.7249 25.4813 13.8233C25.4643 13.9217 25.4798 14.0236 25.525 14.1104C25.6853 14.4154 25.8539 14.6944 26.0363 14.9749C26.2187 15.2555 26.4108 15.5238 26.618 15.7876C26.832 16.0591 27.0628 16.3139 27.3089 16.5499C27.586 16.8305 27.906 17.0545 28.2541 17.2116C28.3337 17.2455 28.4193 17.2585 28.5042 17.2498H28.5567C28.9218 17.2099 29.28 17.1134 29.6207 16.9631C29.9395 16.8253 30.2462 16.6554 30.5368 16.4554C30.8187 16.2647 31.0888 16.0533 31.3451 15.8227C31.4709 15.7083 31.5938 15.5909 31.7154 15.4689C31.7762 15.4079 31.8357 15.3485 31.8951 15.2829C31.9545 15.2174 32.007 15.1594 32.0788 15.0756C32.2104 14.9184 32.2826 14.7118 32.2808 14.4979C32.279 14.284 32.2033 14.0789 32.0692 13.9244Z" fill="#FFBE9D"/>
<path d="M25.8117 24.9313C27.7006 22.8653 32.0228 21.0525 32.0228 21.0525L34.6399 20.5859C34.6399 20.5859 35.8835 22.4156 35.4482 24.5501C35.1429 26.0672 31.1053 26.5734 28.2961 26.5322C29.8921 29.1241 31.097 35.2427 31.097 35.2427C30.8206 35.5949 30.5885 35.9029 30.3522 35.9105C29.3034 33.7759 26.4832 30.2234 25.4621 26.4392C25.3922 26.1764 25.3878 25.8976 25.4494 25.6323C25.5109 25.367 25.636 25.1248 25.8117 24.9313Z" fill="#FFBE9D"/>
<path opacity="0.2" d="M29.9755 30.7443C29.9603 30.6924 29.9438 30.6421 29.9286 30.5918L28.7402 33.1838C29.0981 33.7616 29.438 34.3029 29.7337 34.7969C29.8553 33.8348 30.0211 31.9488 29.9755 30.7443Z" fill="black"/>
<path d="M31.0402 34.7828C31.0402 34.7828 31.3995 34.5358 31.7643 35.1807C32.1291 35.8257 32.954 37.7727 32.954 37.7727L32.7979 37.9175C32.7979 37.9175 31.8306 36.1885 31.6206 35.9355C31.9895 36.8747 32.5339 38.16 31.2738 39.3248C30.9974 39.5764 30.9546 37.6614 30.663 36.742C30.3714 35.8226 30.2637 35.5024 30.2637 35.5024L31.0402 34.7828Z" fill="#EC2024"/>
<path d="M30.4049 34.7466L30.9576 34.8655C31.3556 35.8246 31.5808 37.2181 31.3722 37.9652C31.3155 38.165 31.0848 38.2031 31.0392 38.0216C30.7816 37.0588 30.4582 36.119 30.0719 35.2101C30.049 35.1545 30.0404 35.0929 30.0472 35.0322C30.0539 34.9715 30.0757 34.914 30.1101 34.8661C30.1445 34.8182 30.1903 34.7817 30.2423 34.7606C30.2943 34.7395 30.3506 34.7347 30.4049 34.7466Z" fill="#FFBE9D"/>
<path d="M30.5387 15.6705C30.5961 16.3749 30.6963 17.0743 30.8386 17.7639C31.0237 18.7763 31.2351 19.7689 31.6138 21.4155L36.2621 20.5846C35.9567 19.1559 35.8683 17.4818 36.2248 14.0803C36.2477 13.9018 36.2345 13.7199 36.186 13.5477C36.1376 13.3755 36.0552 13.2173 35.9447 13.0845C35.8343 12.9517 35.6985 12.8475 35.5472 12.7795C35.3958 12.7115 35.2327 12.6814 35.0696 12.6913C34.8817 12.7035 34.6841 12.7218 34.4823 12.7477C33.7714 12.818 33.0658 12.9438 32.371 13.1243C32.1457 13.1883 31.9122 13.263 31.6897 13.3378C30.8883 13.6183 30.4323 14.7618 30.5387 15.6705Z" fill="#EC2024"/>
<path d="M33.9494 10.1504C33.8762 10.9326 33.8513 12.3459 34.3639 12.7667C34.3639 12.7667 33.3967 13.3842 32.475 14.9821C31.8159 13.7075 32.2346 13.1845 32.2346 13.1845C32.9752 12.846 32.9255 12.1828 32.7472 11.6171L33.9494 10.1504Z" fill="#FFBE9D"/>
<path d="M32.3093 13.3599C32.2911 13.3595 32.2738 13.3513 32.261 13.3371C32.2542 13.33 32.2489 13.3215 32.2453 13.3121C32.2418 13.3026 32.24 13.2924 32.2403 13.2822C32.2401 13.2722 32.2419 13.2623 32.2455 13.2531C32.2491 13.2439 32.2543 13.2356 32.261 13.2288C32.2739 13.2149 32.2913 13.207 32.3093 13.207C32.3274 13.207 32.3448 13.2149 32.3577 13.2288C32.3643 13.2356 32.3696 13.2439 32.3732 13.2531C32.3768 13.2623 32.3785 13.2722 32.3784 13.2822C32.3786 13.2924 32.3769 13.3026 32.3733 13.3121C32.3698 13.3215 32.3644 13.33 32.3577 13.3371C32.3449 13.3513 32.3275 13.3595 32.3093 13.3599Z" fill="white"/>
<path d="M32.7316 13.6355C32.7226 13.6361 32.7136 13.6347 32.7051 13.6314C32.6966 13.6282 32.6887 13.623 32.682 13.6164C32.6753 13.6097 32.6699 13.6016 32.6661 13.5926C32.6623 13.5836 32.6601 13.5738 32.6598 13.5638C32.659 13.5538 32.6601 13.5438 32.663 13.5343C32.6659 13.5248 32.6706 13.5161 32.6767 13.5086C32.6828 13.5012 32.6902 13.4952 32.6984 13.4911C32.7067 13.4869 32.7156 13.4847 32.7247 13.4845C32.7338 13.4841 32.7429 13.4857 32.7514 13.4892C32.7599 13.4926 32.7677 13.4979 32.7744 13.5047C32.7811 13.5115 32.7865 13.5197 32.7903 13.5288C32.7941 13.5379 32.7962 13.5477 32.7966 13.5577C32.7971 13.5677 32.7959 13.5778 32.7929 13.5873C32.79 13.5968 32.7853 13.6055 32.7793 13.613C32.7733 13.6205 32.766 13.6266 32.7578 13.631C32.7496 13.6354 32.7407 13.638 32.7316 13.6385C32.6985 13.6385 32.7316 13.637 32.7316 13.6355ZM32.4221 13.5943C32.4053 13.5865 32.3919 13.5719 32.3847 13.5534C32.3774 13.5349 32.377 13.5141 32.3834 13.4952C32.3866 13.4858 32.3915 13.4771 32.3978 13.4698C32.4041 13.4624 32.4116 13.4565 32.42 13.4524C32.4283 13.4483 32.4373 13.446 32.4465 13.4458C32.4556 13.4456 32.4647 13.4473 32.4732 13.451C32.4901 13.4588 32.5035 13.4735 32.5107 13.4919C32.5179 13.5104 32.5184 13.5313 32.5119 13.5501C32.5067 13.5644 32.4978 13.5767 32.4862 13.5854C32.4746 13.5941 32.461 13.5988 32.447 13.5989C32.4385 13.5989 32.4301 13.5973 32.4221 13.5943ZM32.9417 13.5318C32.9396 13.522 32.9394 13.5118 32.9409 13.5019C32.9425 13.492 32.9458 13.4825 32.9506 13.474C32.9555 13.4655 32.9619 13.4581 32.9694 13.4524C32.9768 13.4466 32.9853 13.4425 32.9942 13.4403C33.0121 13.4362 33.0308 13.4399 33.0463 13.4508C33.0617 13.4616 33.0728 13.4786 33.0771 13.4983C33.0791 13.5081 33.0794 13.5182 33.0778 13.5282C33.0763 13.5381 33.073 13.5476 33.0681 13.5561C33.0632 13.5646 33.0569 13.5719 33.0494 13.5777C33.0419 13.5835 33.0335 13.5876 33.0246 13.5897H33.0094C32.9938 13.5899 32.9787 13.5843 32.9664 13.5738C32.9541 13.5632 32.9454 13.5485 32.9417 13.5318ZM33.218 13.4525C33.215 13.443 33.2137 13.4329 33.2142 13.4229C33.2147 13.4128 33.217 13.4029 33.221 13.3939C33.225 13.3848 33.2305 13.3767 33.2374 13.37C33.2442 13.3633 33.2522 13.3582 33.2609 13.3549C33.2781 13.3486 33.2969 13.35 33.3132 13.3589C33.3295 13.3677 33.3419 13.3833 33.3479 13.4022C33.3541 13.4212 33.3533 13.4422 33.3455 13.4605C33.3377 13.4788 33.3237 13.4929 33.3065 13.4998H33.283C33.2688 13.5006 33.2548 13.4964 33.2429 13.4879C33.231 13.4795 33.2218 13.4671 33.2166 13.4525H33.218ZM33.4833 13.3412C33.4758 13.3228 33.4753 13.3019 33.4818 13.283C33.4882 13.2642 33.5012 13.2489 33.5179 13.2406C33.526 13.2363 33.5349 13.2338 33.5439 13.2333C33.5529 13.2327 33.562 13.2342 33.5705 13.2377C33.579 13.2411 33.5868 13.2463 33.5934 13.2531C33.6 13.2599 33.6054 13.2681 33.6091 13.2772C33.613 13.2862 33.6153 13.2959 33.6157 13.3059C33.6162 13.3159 33.6148 13.3258 33.6117 13.3352C33.6086 13.3446 33.6039 13.3532 33.5977 13.3605C33.5916 13.3678 33.5842 13.3737 33.5759 13.3778C33.5663 13.38 33.5565 13.38 33.5469 13.3778C33.5341 13.3787 33.5213 13.3757 33.5099 13.3693C33.4985 13.3629 33.4888 13.3532 33.4819 13.3412H33.4833ZM33.7403 13.2055C33.7357 13.1969 33.7327 13.1873 33.7316 13.1773C33.7304 13.1673 33.731 13.1572 33.7335 13.1475C33.7359 13.1379 33.7401 13.1288 33.7458 13.121C33.7515 13.1131 33.7586 13.1066 33.7666 13.1019C33.7744 13.0968 33.7831 13.0935 33.7922 13.0922C33.8012 13.0909 33.8104 13.0916 33.8192 13.0943C33.8279 13.097 33.8361 13.1016 33.8432 13.1079C33.8503 13.1142 33.8562 13.122 33.8606 13.1308C33.8652 13.1395 33.8682 13.1491 33.8693 13.1591C33.8705 13.169 33.8699 13.1791 33.8674 13.1888C33.865 13.1985 33.8608 13.2075 33.8551 13.2154C33.8494 13.2232 33.8423 13.2297 33.8343 13.2345C33.8241 13.2408 33.8128 13.2445 33.8011 13.2452C33.7885 13.2453 33.7761 13.2417 33.7651 13.2347C33.7542 13.2278 33.7451 13.2177 33.739 13.2055H33.7403ZM33.9863 13.0531C33.9764 13.0361 33.9731 13.0155 33.977 12.9957C33.9808 12.976 33.9917 12.9588 34.007 12.9479C34.0148 12.9423 34.0235 12.9385 34.0326 12.9367C34.0417 12.9349 34.051 12.9352 34.0601 12.9375C34.0691 12.9397 34.0776 12.944 34.0851 12.95C34.0926 12.9559 34.099 12.9635 34.1037 12.9723C34.1086 12.9808 34.1118 12.9902 34.1133 13.0001C34.1148 13.01 34.1145 13.0201 34.1125 13.0299C34.1104 13.0397 34.1067 13.0489 34.1014 13.0571C34.0961 13.0652 34.0894 13.0722 34.0816 13.0775C34.0708 13.086 34.0577 13.0903 34.0443 13.0897C34.032 13.0891 34.0201 13.085 34.0096 13.0778C33.9992 13.0706 33.9907 13.0605 33.9849 13.0485L33.9863 13.0531Z" fill="white"/>
<path d="M34.2767 12.9046C34.268 12.906 34.2592 12.906 34.2505 12.9046C34.2421 12.8994 34.2347 12.8923 34.2288 12.884C34.2229 12.8756 34.2185 12.866 34.2159 12.8558C34.2145 12.8457 34.2145 12.8354 34.2159 12.8253C34.2146 12.8157 34.2146 12.8059 34.2159 12.7963C34.2202 12.7876 34.2253 12.7794 34.2311 12.7719C34.2443 12.7579 34.2619 12.75 34.2802 12.75C34.2985 12.75 34.3161 12.7579 34.3292 12.7719C34.3417 12.7863 34.3487 12.8054 34.3486 12.8253C34.35 12.8354 34.35 12.8457 34.3486 12.8558C34.3448 12.8648 34.3397 12.8731 34.3334 12.8802C34.3266 12.8866 34.3192 12.8922 34.3113 12.897C34.3003 12.902 34.2886 12.9046 34.2767 12.9046Z" fill="white"/>
<path opacity="0.2" d="M33.4589 10.748L32.75 11.6171C32.7929 11.7489 32.8252 11.8846 32.8467 12.0227C33.1328 11.9251 33.5031 11.4997 33.5072 11.1551C33.5138 11.0173 33.4974 10.8793 33.4589 10.748Z" fill="black"/>
<path d="M34.8018 8.9864C34.5627 10.2061 34.4854 10.7261 33.8345 11.2948C32.859 12.1516 31.5615 11.6454 31.4662 10.3937C31.3805 9.26541 31.784 7.46019 32.9378 7.0897C33.1834 6.99941 33.4465 6.98345 33.6997 7.04349C33.9528 7.10352 34.1867 7.23734 34.3771 7.43103C34.5674 7.62471 34.7072 7.87116 34.7819 8.14472C34.8566 8.41827 34.8635 8.70892 34.8018 8.9864Z" fill="#FFBE9D"/>
<path d="M32.3691 7.26083C32.8016 8.14362 33.9762 7.80819 34.0853 8.41044C34.1945 9.01269 34.5399 10.0281 34.8964 9.11789C35.2529 8.20766 34.5911 7.12818 34.0674 6.98334C33.5437 6.83849 32.7325 6.84764 32.3691 7.26083Z" fill="black"/>
<path d="M33.136 9.18699C33.1194 9.29066 33.0586 9.36842 32.9978 9.36233C32.937 9.35623 32.9024 9.26627 32.9176 9.16412C32.9328 9.06196 32.9964 8.98116 33.0558 8.98878C33.1152 8.9964 33.1512 9.08483 33.136 9.18699Z" fill="#EC2024"/>
<path d="M31.9665 9.0208C31.9513 9.12448 31.8891 9.20376 31.8283 9.19614C31.7675 9.18852 31.7316 9.10009 31.7482 8.99793C31.7648 8.89578 31.8256 8.8165 31.8864 8.8226C31.9472 8.82869 31.9831 8.91865 31.9665 9.0208Z" fill="#EC2024"/>
<path d="M31.9151 8.83043L31.7051 8.73438C31.7051 8.73438 31.7894 8.94021 31.9151 8.83043Z" fill="#EC2024"/>
<path d="M32.2911 9.2832C32.173 9.51078 32.0285 9.72041 31.8613 9.9068C31.9037 9.94961 31.9543 9.98132 32.0093 9.99953C32.0644 10.0177 32.1224 10.022 32.1791 10.012L32.2911 9.2832Z" fill="#FFBE9D"/>
<path d="M32.448 10.314C32.3962 10.3151 32.3444 10.311 32.2932 10.3018C32.2897 10.3013 32.2862 10.3 32.2832 10.2979C32.2801 10.2958 32.2775 10.2929 32.2755 10.2896C32.2736 10.2863 32.2723 10.2825 32.2717 10.2785C32.2712 10.2746 32.2715 10.2706 32.2725 10.2668C32.2742 10.2587 32.2785 10.2516 32.2846 10.2468C32.2907 10.242 32.2982 10.2399 32.3057 10.2408C32.4223 10.2626 32.5418 10.2552 32.6554 10.219C32.7691 10.1828 32.8739 10.1189 32.962 10.032C32.9645 10.0293 32.9674 10.0271 32.9706 10.0257C32.9738 10.0242 32.9772 10.0234 32.9807 10.0234C32.9842 10.0234 32.9876 10.0242 32.9908 10.0257C32.994 10.0271 32.9969 10.0293 32.9993 10.032C33.0018 10.0347 33.0037 10.0379 33.0051 10.0414C33.0064 10.0449 33.0071 10.0487 33.0071 10.0525C33.0071 10.0564 33.0064 10.0602 33.0051 10.0637C33.0037 10.0672 33.0018 10.0704 32.9993 10.0731C32.8488 10.2257 32.6524 10.3115 32.448 10.314Z" fill="#EC2024"/>
<path d="M35.032 10.0391C34.889 10.2519 34.6753 10.3934 34.4378 10.4325C34.1324 10.4752 34.0426 10.1352 34.1794 9.82263C34.3038 9.54056 34.6105 9.17921 34.891 9.28136C35.1715 9.38352 35.2158 9.76926 35.032 10.0391Z" fill="#FFBE9D"/>
<path d="M33.3555 8.79788C33.3485 8.79621 33.342 8.79289 33.3362 8.78815C33.3305 8.78342 33.3258 8.77737 33.3224 8.77044C33.2912 8.70466 33.2458 8.64847 33.19 8.60695C33.1343 8.56542 33.0701 8.53987 33.0032 8.53259C32.9961 8.53242 32.9891 8.53063 32.9827 8.52733C32.9762 8.52403 32.9705 8.51929 32.9658 8.51341C32.9612 8.50753 32.9576 8.50064 32.9555 8.49318C32.9534 8.48572 32.9527 8.47785 32.9534 8.47008C32.9551 8.45378 32.9623 8.43878 32.9736 8.42805C32.9849 8.41732 32.9994 8.41165 33.0142 8.41214C33.099 8.41976 33.1807 8.45086 33.2517 8.50256C33.3227 8.55427 33.3808 8.6249 33.4205 8.70793C33.4238 8.71503 33.4259 8.7228 33.4265 8.73079C33.4272 8.73877 33.4264 8.74682 33.4242 8.75447C33.422 8.76211 33.4185 8.76921 33.4138 8.77535C33.4091 8.78149 33.4034 8.78656 33.397 8.79026C33.3843 8.79791 33.3697 8.8006 33.3555 8.79788Z" fill="black"/>
<path d="M31.6028 8.60501C31.596 8.60637 31.5891 8.60612 31.5824 8.60428C31.5757 8.60244 31.5695 8.59905 31.5641 8.59434C31.5543 8.58276 31.5488 8.5675 31.5488 8.55165C31.5488 8.5358 31.5543 8.52054 31.5641 8.50896C31.6181 8.43031 31.6879 8.36653 31.7679 8.32262C31.848 8.27871 31.9362 8.25586 32.0256 8.25586C32.0326 8.25639 32.0393 8.25852 32.0455 8.26211C32.0516 8.2657 32.057 8.27067 32.0613 8.2767C32.0656 8.28274 32.0687 8.2897 32.0704 8.29714C32.0721 8.30458 32.0724 8.31233 32.0712 8.3199C32.0692 8.33606 32.0619 8.35086 32.0507 8.36152C32.0395 8.37219 32.0252 8.37799 32.0104 8.37783C31.9397 8.37866 31.87 8.39753 31.807 8.43297C31.744 8.46842 31.6892 8.51947 31.647 8.58214C31.6416 8.58935 31.6349 8.59515 31.6272 8.5991C31.6196 8.60306 31.6112 8.60508 31.6028 8.60501Z" fill="black"/>
<path d="M33.0772 8.99687L32.8672 8.90234C32.8672 8.90234 32.9501 9.10817 33.0772 8.99687Z" fill="#EC2024"/>
<path d="M27.8855 23.7283C29.6528 22.1945 33.6461 21.0525 33.6461 21.0525L36.2632 20.5859C36.2632 20.5859 37.5068 22.4156 37.0716 24.5501C36.7676 26.0672 32.9165 26.5215 30.106 26.4788C30.866 30.7998 28.6648 36.7018 28.6648 36.7018C28.2627 36.8405 27.9214 36.7613 27.7473 36.5829C28.3636 34.2364 27.7238 29.4169 27.2678 25.3826C27.2338 25.0716 27.2727 24.7561 27.3809 24.4664C27.489 24.1768 27.6628 23.9226 27.8855 23.7283Z" fill="#FFBE9D"/>
<path d="M28.9658 36.1094C28.9658 36.1094 29.3803 36.1734 29.2891 36.9266C29.1979 37.6798 28.695 39.7549 28.695 39.7549H28.4918C28.4918 39.7549 28.7516 37.7393 28.7406 37.4008C28.4766 38.3827 28.1464 39.7549 26.5021 39.7549C26.1483 39.7549 27.2261 38.2531 27.537 37.3413C27.8479 36.4296 27.9516 36.1094 27.9516 36.1094H28.9658Z" fill="#EC2024"/>
<path d="M28.5359 35.6789L28.8496 36.1073C28.5954 37.1243 27.9583 38.3517 27.36 38.774C27.1997 38.8868 27.0008 38.7526 27.0712 38.5804C27.4274 37.6835 27.7221 36.7585 27.9528 35.8131C27.9695 35.7478 28.002 35.6889 28.0469 35.6426C28.0918 35.5964 28.1474 35.5646 28.2075 35.5508C28.2676 35.5369 28.33 35.5416 28.3879 35.5642C28.4459 35.5867 28.497 35.6264 28.5359 35.6789Z" fill="#FFBE9D"/>
<path d="M36.198 20.2621C36.5642 20.8933 37.6586 22.7016 37.1017 24.8499C36.5684 26.9143 30.4692 26.4843 30.4692 26.4843C31.0841 25.3637 29.3472 23.8055 26.8613 23.9732C28.0124 22.7657 31.5387 21.0885 31.5387 21.0885C31.5387 21.0885 34.9434 19.8001 36.198 20.2621Z" fill="#EC2024"/>
<path d="M30.7272 17.8161L31.0147 17.592C31.0679 17.551 31.1292 17.5244 31.1936 17.5143C31.2579 17.5042 31.3235 17.511 31.385 17.534L31.9681 17.7597C32.0832 17.8032 32.187 17.8769 32.2708 17.9743C32.3545 18.0718 32.4156 18.1901 32.4489 18.3192L32.4918 18.4809C32.0386 18.8879 31.2772 18.9596 31.2772 18.9596L31.063 19.0069C31.0187 19.019 30.9726 19.0212 30.9275 19.0132C30.8825 19.0053 30.8393 18.9874 30.8006 18.9607C30.7619 18.9339 30.7285 18.8988 30.7024 18.8575C30.6762 18.8162 30.6579 18.7695 30.6485 18.7202L30.5587 18.2522C30.5455 18.1693 30.5544 18.0839 30.5843 18.0065C30.6142 17.9291 30.6639 17.863 30.7272 17.8161Z" fill="#FFBE9D"/>
<path d="M36.6872 16.4624C36.6444 15.9912 36.5836 15.5277 36.5117 15.0673C36.4399 14.6068 36.3611 14.1525 36.2589 13.6951C36.2147 13.4793 36.0952 13.2915 35.9262 13.1726C35.7572 13.0536 35.5524 13.0132 35.3565 13.06C35.1606 13.1069 34.9894 13.2373 34.8802 13.4227C34.771 13.6082 34.7326 13.8338 34.7734 14.0503V14.0625C34.8494 14.4818 34.9323 14.9255 35.0001 15.3585C35.0678 15.7915 35.1382 16.2291 35.1894 16.6606C35.2405 17.092 35.2861 17.522 35.3068 17.9352C35.3151 18.141 35.3151 18.3423 35.3068 18.5252C35.3068 18.5893 35.2999 18.6533 35.293 18.7113C35.1743 18.7279 35.0543 18.7304 34.9351 18.7189C34.6213 18.6879 34.3106 18.6267 34.0066 18.5359C33.686 18.446 33.3613 18.3347 33.0393 18.2142C32.7173 18.0938 32.3871 17.9611 32.0721 17.83H32.061C31.9749 17.7942 31.8798 17.7942 31.7937 17.8301C31.7076 17.8659 31.6363 17.9352 31.5931 18.0249C31.5499 18.1146 31.5378 18.2186 31.5591 18.3174C31.5803 18.4162 31.6335 18.5031 31.7086 18.5618C32.01 18.7925 32.3218 19.0063 32.6427 19.2022C32.967 19.4004 33.3009 19.5786 33.6431 19.7358C34.0044 19.9042 34.3804 20.0314 34.7651 20.1155C34.986 20.1612 35.2108 20.1796 35.4353 20.1704C35.7291 20.1606 36.0152 20.0648 36.2644 19.8929C36.3649 19.8219 36.4446 19.7202 36.4938 19.6001L36.5021 19.5803C36.6156 19.2946 36.6883 18.9911 36.7176 18.6808C36.7449 18.4247 36.7583 18.1671 36.7577 17.9093C36.7584 17.4259 36.7349 16.9429 36.6872 16.4624Z" fill="#FFBE9D"/>
<path d="M20.0449 36.8371C20.5095 36.0279 20.0449 33.7904 20.4048 30.687C20.7646 27.5836 20.6141 21.3809 20.6141 21.3809H21.886C21.886 21.3809 21.729 27.5876 22.0954 30.687C22.4617 33.7863 21.9907 36.0157 22.4552 36.8371C22.9197 37.6585 23.1251 40.0012 23.1251 40.0012H19.375C19.375 40.0012 19.5817 37.6585 20.0449 36.8371Z" fill="#908E8E"/>
<path d="M8.86719 19.0176V20.6825C8.86719 21.425 9.7308 21.9694 10.6276 21.7955C11.8818 21.5416 13.1664 21.5282 14.4247 21.7559C17.3679 22.3246 17.4647 22.5076 21.078 21.7955C24.6914 21.0835 26.8414 22.6982 28.9238 22.1188C29.7929 21.8779 30.7505 21.8886 31.5727 21.9831C32.638 22.1066 33.5956 21.451 33.5956 20.5865V19.0176H8.86719Z" fill="#A8A8A8"/>
<path d="M8.86719 19.017C8.86719 19.4897 14.4026 19.8724 21.2314 19.8724C28.0602 19.8724 33.5956 19.4897 33.5956 19.017C33.5956 18.5444 28.0602 18.1602 21.2314 18.1602C14.4026 18.1602 8.86719 18.5429 8.86719 19.017Z" fill="#D3D3D3"/>
<path d="M21.6817 9.93481C21.6796 9.9301 21.6791 9.92469 21.6804 9.91963C21.6817 9.91456 21.6846 9.91019 21.6886 9.90736C22.0189 9.68476 22.5647 9.47588 22.7291 9.50942C22.8935 9.54296 22.6614 10.069 22.4417 10.2001C22.222 10.3312 21.8185 10.1879 21.6817 9.93481Z" fill="#EC2024"/>
<path d="M21.6655 9.79468C21.8095 9.71112 21.9587 9.63878 22.1118 9.57817C22.1144 9.57705 22.1168 9.57532 22.1187 9.57311C22.1206 9.57091 22.1221 9.56826 22.123 9.56537C22.1239 9.56248 22.1243 9.5594 22.124 9.55635C22.1237 9.5533 22.1229 9.55034 22.1215 9.54768C22.044 9.4023 21.9412 9.27533 21.8189 9.17414C21.6904 9.104 21.5992 9.50347 21.6379 9.78401C21.6389 9.78686 21.6405 9.78943 21.6425 9.79156C21.6445 9.79368 21.6469 9.79531 21.6495 9.79632C21.6521 9.79733 21.6549 9.79771 21.6577 9.79743C21.6604 9.79715 21.6631 9.79621 21.6655 9.79468Z" fill="#EC2024"/>
<path d="M22.2801 9.31706C22.3099 9.32878 22.3411 9.33547 22.3727 9.33689C22.3767 9.33728 22.3808 9.33617 22.3842 9.33372C22.3875 9.33128 22.3901 9.32764 22.3914 9.32341C22.3926 9.31918 22.3926 9.31459 22.3912 9.3104C22.3898 9.3062 22.3872 9.30264 22.3838 9.30029C22.3579 9.28052 22.3295 9.26511 22.2995 9.25455C22.2695 9.24371 22.2384 9.23706 22.2069 9.23473C22.2027 9.23385 22.1984 9.23462 22.1947 9.23691C22.191 9.23919 22.1882 9.24285 22.1867 9.24724C22.1852 9.25162 22.1852 9.25644 22.1866 9.26085C22.188 9.26526 22.1908 9.26897 22.1945 9.27132C22.2207 9.29137 22.2496 9.30681 22.2801 9.31706Z" fill="#EC2024"/>
<path opacity="0.5" d="M22.2624 9.37982C22.2256 9.36714 22.1907 9.34865 22.1588 9.32493C22.1564 9.32276 22.1536 9.32129 22.1506 9.32066C22.1476 9.32003 22.1445 9.32026 22.1415 9.32133C22.1386 9.3224 22.136 9.32427 22.134 9.32677C22.1319 9.32927 22.1304 9.33231 22.1297 9.33561C22.1297 9.35238 22.1228 9.36915 22.1201 9.38287C22.1188 9.38786 22.1188 9.39313 22.1201 9.39812C22.1463 9.43623 22.1726 9.4774 22.2002 9.52009C22.2022 9.52397 22.2054 9.52699 22.2091 9.52865C22.2129 9.53031 22.2171 9.53052 22.2209 9.52924C22.2698 9.50993 22.3158 9.49316 22.3591 9.47893C22.3637 9.47668 22.3675 9.47296 22.3702 9.46825C22.3702 9.45758 22.3798 9.44538 22.384 9.43166C22.3856 9.4287 22.3864 9.42529 22.3863 9.42185C22.3862 9.4184 22.3853 9.41505 22.3835 9.41218C22.3818 9.40932 22.3794 9.40705 22.3765 9.40564C22.3737 9.40423 22.3705 9.40373 22.3674 9.40422C22.3316 9.40104 22.2963 9.39284 22.2624 9.37982Z" fill="#EC2024"/>
<path opacity="0.5" d="M22.0517 9.2982C22.0535 9.30103 22.0559 9.30334 22.0586 9.30494C22.0614 9.30654 22.0645 9.30737 22.0676 9.30737C22.0707 9.30737 22.0738 9.30654 22.0766 9.30494C22.0793 9.30334 22.0817 9.30103 22.0835 9.2982C22.0894 9.27291 22.0987 9.24875 22.1111 9.22654C22.1332 9.16555 22.2341 9.17165 22.3198 9.20367C22.4055 9.23569 22.4897 9.29667 22.4745 9.35614C22.4722 9.379 22.4676 9.40151 22.4607 9.42322C22.4597 9.42675 22.4595 9.43051 22.4602 9.43414C22.4609 9.43776 22.4625 9.44112 22.4647 9.44389C22.4669 9.44666 22.4698 9.44874 22.4729 9.44993C22.4761 9.45112 22.4795 9.45137 22.4828 9.45067C22.5385 9.43511 22.5954 9.42592 22.6528 9.42322C22.6555 9.42331 22.6583 9.42269 22.6608 9.42142C22.6633 9.42015 22.6655 9.41827 22.6672 9.41591C22.669 9.41355 22.6702 9.41078 22.6708 9.40782C22.6714 9.40486 22.6714 9.40178 22.6708 9.39883C22.6665 9.37864 22.6579 9.35984 22.6459 9.34394L22.4897 9.13963C22.4569 9.09589 22.4136 9.06314 22.3648 9.04509C22.3159 9.02704 22.2635 9.0244 22.2134 9.03748L21.9785 9.09847C21.9662 9.10094 21.9545 9.1063 21.9443 9.11419C21.934 9.12209 21.9254 9.13232 21.9191 9.14421C21.9159 9.1479 21.9141 9.15281 21.9141 9.15793C21.9141 9.16304 21.9159 9.16796 21.9191 9.17165C21.9684 9.20684 22.013 9.24943 22.0517 9.2982Z" fill="#EC2024"/>
<path d="M21.678 16.9328C21.6693 16.9328 21.6609 16.9292 21.6545 16.9227C21.6481 16.9162 21.6442 16.9073 21.6435 16.8977C21.4058 14.3454 21.7236 11.2351 22.0345 10.0611C22.0356 10.0561 22.0376 10.0515 22.0404 10.0475C22.0432 10.0435 22.0468 10.0401 22.0508 10.0377C22.0548 10.0353 22.0592 10.0338 22.0638 10.0333C22.0684 10.0329 22.073 10.0335 22.0774 10.0351C22.0859 10.0383 22.0931 10.0449 22.0975 10.0537C22.1019 10.0624 22.1031 10.0727 22.1008 10.0824C21.7913 11.2518 21.4749 14.3515 21.7126 16.8901C21.7133 16.9004 21.7105 16.9106 21.7045 16.9186C21.6986 16.9265 21.6901 16.9316 21.6808 16.9328H21.678Z" fill="#EC2024"/>
<path d="M21.3097 18.5402C21.2745 18.5301 21.2435 18.5067 21.2221 18.4742C21.2007 18.4417 21.1901 18.402 21.1923 18.3618C20.9159 18.1408 20.5014 17.5827 20.7929 16.2898C21.0983 14.9527 21.0002 14.2711 20.7598 13.6567C20.728 13.5761 20.714 13.4884 20.7188 13.4007C20.7237 13.3129 20.7473 13.2277 20.7877 13.152C20.8282 13.0763 20.8843 13.0123 20.9515 12.9651C21.0187 12.9179 21.095 12.889 21.1743 12.8806C21.4665 12.8471 21.761 12.8471 22.0531 12.8806C22.1324 12.889 22.2088 12.9179 22.276 12.9651C22.3432 13.0123 22.3993 13.0763 22.4397 13.152C22.4801 13.2277 22.5038 13.3129 22.5086 13.4007C22.5135 13.4884 22.4994 13.5761 22.4677 13.6567C22.2272 14.2666 22.1291 14.9527 22.4345 16.2898C22.7302 17.5827 22.3184 18.1408 22.0338 18.3618C22.0338 18.4579 21.9813 18.5326 21.9205 18.5402H21.3097ZM21.6082 12.9309C21.4637 12.931 21.3193 12.9396 21.1757 12.9569C21.1077 12.9647 21.0423 12.9902 20.9849 13.0313C20.9275 13.0724 20.8797 13.1279 20.8454 13.1932C20.8107 13.2582 20.7906 13.3314 20.7867 13.4067C20.7829 13.4821 20.7954 13.5573 20.8233 13.6262C21.0693 14.2544 21.1702 14.9511 20.8606 16.3081C20.5705 17.5797 20.9781 18.1088 21.2462 18.31L21.2614 18.3222V18.3466C21.2614 18.4152 21.289 18.4655 21.3139 18.4686H21.9053C21.9274 18.4686 21.955 18.4152 21.955 18.3481V18.3283L21.9702 18.3146C22.2383 18.1133 22.6459 17.5843 22.3557 16.3127C22.0462 14.9557 22.1471 14.2589 22.3931 13.6308C22.421 13.5619 22.4335 13.4866 22.4297 13.4113C22.4258 13.336 22.4057 13.2627 22.3709 13.1978C22.3365 13.1322 22.2885 13.0766 22.2309 13.0356C22.1732 12.9945 22.1076 12.9691 22.0393 12.9614C21.8962 12.9426 21.7523 12.9324 21.6082 12.9309Z" fill="#EC2024"/>
<path d="M21.7793 11.7473C21.8571 11.4913 22.02 11.2774 22.2352 11.1486C22.4503 11.0199 22.7016 10.9859 22.9386 11.0536C22.8944 12.1025 21.7461 12.1468 21.7461 12.1468C21.7613 11.9714 21.7793 11.7473 21.7793 11.7473Z" fill="#EC2024"/>
<path d="M19.0139 11.499V10.4318C19.0139 10.3913 18.9993 10.3525 18.9734 10.324C18.9475 10.2954 18.9123 10.2793 18.8757 10.2793H18.446C18.4105 10.2813 18.3771 10.2982 18.3527 10.3266C18.3283 10.3549 18.3147 10.3926 18.3147 10.4318V11.499C18.3144 11.6641 18.2846 11.8274 18.227 11.9797C18.1694 12.1319 18.0851 12.2702 17.9789 12.3864C17.7652 12.6222 17.6449 12.9418 17.6445 13.2753V18.2457C17.6445 18.3266 17.6736 18.4042 17.7255 18.4614C17.7773 18.5186 17.8476 18.5507 17.9209 18.5507H19.4035C19.4768 18.5507 19.5471 18.5186 19.599 18.4614C19.6508 18.4042 19.6799 18.3266 19.6799 18.2457V13.2753C19.68 13.1101 19.6505 12.9466 19.5931 12.794C19.5357 12.6415 19.4516 12.5029 19.3455 12.3864C19.24 12.2698 19.1565 12.1315 19.0996 11.9792C19.0426 11.8269 19.0135 11.6638 19.0139 11.499Z" fill="#263238"/>
<path d="M18.9432 10.3748H18.3794C18.356 10.3748 18.3335 10.3646 18.3169 10.3463C18.3003 10.328 18.291 10.3031 18.291 10.2773C18.291 10.2514 18.3003 10.2266 18.3169 10.2083C18.3335 10.19 18.356 10.1797 18.3794 10.1797H18.9432C18.9664 10.1801 18.9886 10.1905 19.0049 10.2088C19.0211 10.2271 19.0303 10.2516 19.0303 10.2773C19.0303 10.3029 19.0211 10.3275 19.0049 10.3457C18.9886 10.364 18.9664 10.3744 18.9432 10.3748Z" fill="#263238"/>
<path d="M19.5542 14.625H18.2305V17.0005H19.5542V14.625Z" fill="white"/>
<path d="M19.5542 14.3027H18.2305V14.6244H19.5542V14.3027Z" fill="#EC2024"/>
<path d="M19.2407 15.8141C19.2407 15.8913 19.2199 15.9668 19.1811 16.031C19.1422 16.0952 19.0869 16.1452 19.0223 16.1748C18.9577 16.2043 18.8865 16.212 18.8179 16.197C18.7493 16.1819 18.6863 16.1447 18.6368 16.0901C18.5873 16.0356 18.5536 15.966 18.54 15.8903C18.5264 15.8146 18.5334 15.7361 18.5601 15.6648C18.5869 15.5935 18.6322 15.5325 18.6904 15.4896C18.7486 15.4467 18.817 15.4238 18.8869 15.4238C18.9808 15.4238 19.0707 15.465 19.1371 15.5382C19.2034 15.6113 19.2407 15.7106 19.2407 15.8141Z" fill="#EC2024"/>
</svg>
