<svg width="240" height="240" viewBox="0 0 240 240" fill="none" xmlns="http://www.w3.org/2000/svg">
<path d="M167.583 90.9633V105.883C167.583 107.045 167.118 108.159 166.29 108.981C165.462 109.803 164.339 110.265 163.168 110.266H76.8296C76.2499 110.265 75.6759 110.152 75.1405 109.931C74.6051 109.711 74.1186 109.388 73.709 108.981C73.2993 108.574 72.9745 108.091 72.753 107.56C72.5314 107.028 72.4176 106.459 72.418 105.883V90.9633C72.4178 90.3885 72.5318 89.8194 72.7534 89.2884C72.9751 88.7573 73.3001 88.2749 73.7098 87.8685C74.1195 87.4622 74.6059 87.1399 75.1412 86.9202C75.6765 86.7005 76.2502 86.5875 76.8296 86.5879H163.168C163.747 86.5875 164.321 86.7004 164.857 86.9201C165.392 87.1398 165.879 87.462 166.289 87.8683C166.699 88.2746 167.024 88.757 167.246 89.288C167.468 89.8191 167.583 90.3883 167.583 90.9633Z" fill="#FF9300"/>
<path d="M170 120.504C170 123.118 168.338 125.493 165.638 127.218C162.939 128.942 159.224 130 155.11 130H84.8945C76.6674 130 70 125.741 70 120.505C70 119.788 70.4555 119.139 71.1962 118.664C71.9368 118.189 72.9438 117.902 74.0669 117.902H165.936C168.185 117.901 170 119.07 170 120.504Z" fill="#EC2024"/>
<path d="M170.001 78.739C170.001 79.5194 169.544 80.214 168.813 80.7369C167.959 81.2904 166.957 81.5763 165.937 81.5576H74.0747C71.8311 81.5576 70.0078 80.2944 70.0078 78.7417C70.0078 75.8936 72.5447 70.2135 78.8972 65.2281C82.0126 62.7876 86.0606 60.5162 91.1859 58.832C92.0437 58.5504 92.9317 58.2862 93.8498 58.0395C94.5959 57.8384 95.3618 57.6502 96.1475 57.475C100.364 56.5431 105.182 56 110.654 56H129.363C159.856 55.9946 170.001 73.0469 170.001 78.739Z" fill="#EC2024"/>
<path d="M167.586 98.5062V109.618C167.586 111.513 166.19 113.05 164.477 113.05H75.5428C73.8182 113.05 72.418 111.513 72.418 109.618V98.5062C72.418 96.6209 73.8182 95.0843 75.5428 95.0843H101.966C108.941 95.0773 115.861 96.3182 122.392 98.7476L139.584 105.452L147.466 96.92C149.037 95.7151 150.971 95.0687 152.956 95.0843H164.469C166.19 95.0843 167.586 96.6209 167.586 98.5062Z" fill="#EC2024"/>
<path d="M69.8316 162.889C68.5331 162.889 67.4233 163.013 66.4857 163.245C63.3951 164.005 62.1875 165.946 62.1875 168.487V171.473C62.1875 171.646 62.1194 171.812 61.9982 171.934C61.877 172.056 61.7127 172.124 61.5413 172.124C61.3699 172.124 61.2055 172.056 61.0843 171.934C60.9631 171.812 60.895 171.646 60.895 171.473V165.472C60.895 157.87 61.8973 153.392 62.8123 150.882C63.3169 149.504 62.2992 148.045 60.8405 148.045H47.5647C47.2277 148.045 46.894 148.112 46.5827 148.242C46.2714 148.373 45.9886 148.563 45.7504 148.804C45.5123 149.044 45.3234 149.329 45.1947 149.643C45.0659 149.957 44.9998 150.293 45 150.633V179.41C44.9991 180.035 45.22 180.64 45.6228 181.115C46.0257 181.59 46.5838 181.905 47.1967 182.002C49.8208 182.416 54.613 182.971 61.3635 182.971C61.4631 182.971 61.5627 182.971 61.6642 182.971C67.9177 182.945 72.0095 182.084 74.5445 180.3C74.5821 180.273 74.6261 180.242 74.6652 180.212C75.302 179.751 75.8643 179.194 76.3321 178.56C77.5807 176.859 78.0863 174.646 78.0863 171.879C78.0833 164.866 75.8224 162.889 69.8316 162.889Z" fill="#EC2024"/>
<path d="M111.703 148.045H99.617C99.098 148.045 98.6004 148.253 98.2335 148.623C97.8665 148.993 97.6602 149.494 97.6598 150.017V171.438C97.6602 171.586 97.6104 171.729 97.5186 171.845C97.4269 171.961 97.2987 172.041 97.1553 172.074C97.1086 172.083 97.0612 172.088 97.0136 172.089C96.8422 172.089 96.678 172.02 96.5568 171.898C96.4357 171.776 96.3675 171.61 96.3673 171.438V150.199C96.3672 149.628 96.1419 149.08 95.7409 148.676C95.3399 148.272 94.796 148.045 94.2289 148.045H82.8253C82.5163 148.045 82.2104 148.106 81.9249 148.225C81.6394 148.344 81.38 148.519 81.1615 148.739C80.943 148.959 80.7697 149.22 80.6515 149.508C80.5333 149.796 80.4726 150.104 80.4727 150.415V168.581C80.4727 180.764 84.1663 182.97 96.9767 182.97C103.467 182.97 108.613 182.37 111.361 181.966C111.971 181.875 112.529 181.566 112.932 181.096C113.335 180.626 113.557 180.025 113.557 179.404V149.913C113.557 149.418 113.361 148.943 113.014 148.592C112.666 148.242 112.195 148.045 111.703 148.045Z" fill="#EC2024"/>
<path d="M194.975 178.688C194.969 178.054 194.961 177.422 194.957 176.789C194.952 176.403 194.946 175.998 194.766 175.656C194.503 175.154 193.918 174.895 193.356 174.865C192.795 174.835 192.241 174.99 191.694 175.127C189.581 175.659 187.409 175.924 185.231 175.915C185.031 175.915 184.794 175.89 184.693 175.715C184.69 175.71 184.687 175.704 184.685 175.697C184.598 175.518 184.723 175.285 184.9 175.191C184.905 175.187 184.91 175.185 184.915 175.183C184.947 175.166 185.025 175.128 185.141 175.069C186.441 174.406 192.587 171.606 194.515 167.629C194.515 167.628 194.515 167.627 194.515 167.626C194.606 167.441 194.686 167.252 194.757 167.063C194.821 166.889 194.869 166.71 194.9 166.526C195.073 165.513 195.086 163.708 194.452 162.894C193.786 162.042 192.317 161.963 191.25 161.829C186.659 161.254 181.983 161.4 177.413 162.142C177.114 162.189 176.878 162.236 176.688 162.286C176.661 162.294 176.634 162.302 176.608 162.308C176.502 162.337 176.398 162.372 176.297 162.413C176.264 162.427 176.23 162.442 176.197 162.455C176.193 162.456 176.189 162.458 176.185 162.461C176.148 162.478 176.113 162.497 176.078 162.515C176.041 162.533 176.006 162.553 175.971 162.574C175.942 162.592 175.914 162.609 175.886 162.629C175.88 162.634 175.873 162.638 175.867 162.642C175.851 162.653 175.835 162.665 175.82 162.678C175.725 162.747 175.639 162.828 175.565 162.919C175.55 162.936 175.536 162.954 175.523 162.973C175.508 162.991 175.495 163.008 175.485 163.026C175.474 163.044 175.461 163.064 175.447 163.082C175.435 163.099 175.425 163.117 175.416 163.135C175.411 163.144 175.405 163.154 175.401 163.163C175.399 163.163 175.398 163.165 175.397 163.166C175.396 163.167 175.396 163.169 175.396 163.17C175.394 163.175 175.391 163.179 175.388 163.183C175.382 163.193 175.378 163.204 175.372 163.216C175.339 163.281 175.311 163.349 175.287 163.418L175.274 163.459C175.26 163.5 175.248 163.541 175.239 163.583C175.232 163.603 175.227 163.625 175.223 163.647C175.189 163.798 175.167 163.952 175.157 164.108C175.157 164.114 175.157 164.12 175.157 164.127C175.151 164.22 175.147 164.313 175.142 164.406C175.139 164.45 175.138 164.494 175.136 164.539C175.13 164.678 175.127 164.815 175.124 164.953C175.124 165.045 175.121 165.136 175.12 165.229C175.12 165.301 175.12 165.376 175.12 165.451C175.12 165.728 175.12 166.003 175.117 166.28C175.117 166.444 175.114 166.61 175.111 166.772C175.109 166.867 175.109 166.962 175.111 167.06C175.111 167.075 175.111 167.091 175.111 167.108C175.109 167.124 175.109 167.141 175.111 167.157C175.111 167.178 175.111 167.201 175.111 167.223C175.111 167.257 175.114 167.291 175.117 167.326C175.117 167.349 175.117 167.371 175.12 167.394C175.123 167.417 175.123 167.432 175.124 167.451C175.126 167.464 175.127 167.478 175.127 167.491C175.127 167.509 175.13 167.524 175.132 167.539C175.133 167.554 175.136 167.577 175.138 167.592C175.138 167.599 175.138 167.607 175.141 167.616C175.145 167.66 175.151 167.703 175.159 167.747C175.159 167.75 175.159 167.755 175.159 167.759C175.167 167.807 175.176 167.854 175.185 167.899C175.198 167.969 175.215 168.038 175.235 168.105C175.244 168.135 175.253 168.164 175.263 168.193C175.266 168.206 175.27 168.218 175.275 168.231C175.294 168.286 175.316 168.341 175.342 168.394C175.346 168.404 175.351 168.413 175.355 168.424C175.364 168.441 175.372 168.458 175.381 168.474C175.404 168.517 175.429 168.558 175.456 168.598C175.471 168.622 175.488 168.645 175.506 168.668C175.535 168.707 175.567 168.744 175.601 168.779C175.624 168.803 175.648 168.827 175.672 168.849C175.697 168.871 175.723 168.893 175.75 168.912C175.777 168.934 175.806 168.954 175.835 168.972L175.903 169.013C175.91 169.017 175.918 169.021 175.926 169.024C175.938 169.03 175.95 169.036 175.963 169.042C175.977 169.048 175.993 169.055 176.007 169.063L176.019 169.068C176.05 169.08 176.082 169.092 176.114 169.102C176.119 169.105 176.125 169.107 176.13 169.108L176.164 169.118C176.174 169.121 176.186 169.124 176.198 169.127C176.213 169.132 176.228 169.135 176.244 169.138L176.262 169.142C176.262 169.142 176.265 169.142 176.267 169.142C176.282 169.145 176.297 169.147 176.312 169.15C176.362 169.159 176.411 169.165 176.462 169.169C176.467 169.17 176.472 169.17 176.477 169.169C176.49 169.17 176.502 169.17 176.515 169.169C176.933 169.192 177.382 169.075 177.793 168.963C178.329 168.816 178.869 168.688 179.413 168.576C179.469 168.564 179.526 168.552 179.584 168.541C179.679 168.521 179.774 168.503 179.869 168.487C180.183 168.426 180.499 168.373 180.814 168.324C180.959 168.301 181.104 168.28 181.25 168.26C181.397 168.24 181.542 168.222 181.688 168.205C181.834 168.188 181.979 168.17 182.126 168.155C182.273 168.139 182.419 168.126 182.566 168.114C182.712 168.102 182.858 168.09 183.005 168.079C183.151 168.068 183.299 168.059 183.446 168.05C183.544 168.044 183.643 168.039 183.743 168.038C183.785 168.035 183.826 168.033 183.869 168.032C183.985 168.027 184.099 168.023 184.216 168.019C184.4 168.015 184.584 168.012 184.768 168.01C184.798 168.01 184.832 168.01 184.863 168.013C184.906 168.015 184.949 168.019 184.991 168.026L185.046 168.035C185.063 168.038 185.079 168.041 185.096 168.045C185.16 168.06 185.221 168.084 185.277 168.117C185.292 168.126 185.307 168.136 185.321 168.147C185.334 168.157 185.347 168.168 185.358 168.181C185.369 168.193 185.38 168.204 185.389 168.216C185.417 168.256 185.436 168.301 185.445 168.35C185.499 168.683 184.918 168.882 184.219 169.227C180.835 170.899 178.685 172.48 177.328 173.852C177.325 173.855 177.32 173.858 177.317 173.861C177.014 174.166 176.729 174.488 176.463 174.825C175.629 175.886 175.584 176.775 175.46 177.428V177.432C175.458 177.452 175.455 177.472 175.45 177.492C175.327 178.219 175.45 179.889 175.688 180.589C176.232 182.193 178.42 182.626 180.092 182.71C182.557 182.835 184.857 182.62 187.246 182.514C188.186 182.473 189.125 182.264 190.065 182.173L190.374 182.141C190.628 182.114 190.884 182.082 191.139 182.047L191.521 181.992C191.646 181.972 191.775 181.954 191.901 181.932C192.105 181.898 192.307 181.861 192.51 181.822C192.625 181.799 192.739 181.776 192.856 181.752C193.02 181.717 193.188 181.679 193.351 181.632C193.375 181.624 193.399 181.618 193.426 181.61C193.474 181.595 193.522 181.578 193.569 181.562C193.689 181.52 193.806 181.469 193.918 181.41C193.977 181.38 194.034 181.346 194.089 181.308C194.173 181.254 194.253 181.191 194.326 181.121C194.763 180.705 194.912 180.099 194.957 179.476C194.972 179.266 194.978 179.054 194.978 178.846C194.977 178.798 194.975 178.743 194.975 178.688Z" fill="#EC2024"/>
<path d="M131.986 156.343V156.313C131.986 155.718 131.961 155.236 131.37 155.236L131.258 155.242C130.803 155.26 130.859 156.606 130.859 156.897L130.709 173.147C130.709 173.521 130.697 173.871 130.861 174.152C131.289 174.883 131.973 174.598 131.986 173.751C131.987 173.745 131.987 173.739 131.986 173.733V173.702C131.986 168.201 134.212 167.006 138.753 167.006C143.441 167.006 145.132 168.261 145.132 173.612V175.377C145.132 176.709 144.954 177.831 144.555 178.768C143.214 181.932 139.374 182.999 131.453 182.999C130.983 182.999 130.531 182.996 130.09 182.989V182.999C128.112 182.999 125.606 182.886 124.171 182.586C118.793 181.644 117.009 178.821 116.953 171.455C116.953 171.384 116.953 171.309 116.953 171.236V158.943C116.953 152.986 118.022 149.915 121.092 148.4C121.134 148.379 121.176 148.357 121.22 148.338C122.165 147.89 123.296 147.585 124.637 147.384C125.965 147.143 128.321 147.043 130.09 147.043V147.055C130.531 147.048 130.984 147.043 131.453 147.043C141.72 147.043 145.133 148.838 145.133 154.667V156.432C145.133 157.624 145.048 158.613 144.865 159.43C144.23 162.279 142.397 163.038 138.754 163.038C134.211 163.04 131.986 161.844 131.986 156.343Z" fill="#EC2024"/>
<path d="M175.664 146H170.521C169.473 146 168.621 147.176 168.621 148.623V158.187C168.621 159.633 169.473 160.81 170.521 160.81H170.627C171.017 160.81 171.468 160.583 171.94 160.21C172.949 159.414 174.053 157.952 174.862 156.641C176.572 153.87 177.557 150.948 177.564 148.623V148.596C177.554 147.164 176.702 146 175.664 146Z" fill="#FF9300"/>
<path d="M162.402 160.926H150.953C149.708 160.926 148.699 161.986 148.699 163.296V180.189C148.699 181.263 149.53 182.133 150.551 182.133H162.649C163.724 182.133 164.597 181.215 164.597 180.084V163.239C164.597 161.962 163.616 160.926 162.402 160.926Z" fill="#EC2024"/>
<path d="M164.255 153.23V155.647C164.255 155.835 164.181 156.015 164.049 156.148C163.917 156.281 163.738 156.356 163.551 156.356H149.789C149.697 156.356 149.605 156.337 149.52 156.302C149.435 156.266 149.357 156.214 149.292 156.148C149.226 156.082 149.175 156.004 149.139 155.918C149.104 155.832 149.086 155.74 149.086 155.647V153.23C149.086 153.137 149.104 153.045 149.139 152.959C149.175 152.873 149.227 152.794 149.292 152.729C149.357 152.663 149.435 152.611 149.52 152.575C149.605 152.54 149.697 152.521 149.789 152.521H163.551C163.644 152.521 163.735 152.54 163.82 152.575C163.906 152.611 163.983 152.663 164.049 152.729C164.114 152.795 164.166 152.873 164.201 152.959C164.237 153.045 164.255 153.137 164.255 153.23Z" fill="#FF9300"/>
<path d="M164.639 158.012C164.639 158.435 164.376 158.82 163.944 159.099C163.512 159.378 162.921 159.549 162.266 159.549H151.073C149.762 159.549 148.699 158.859 148.699 158.011C148.699 157.895 148.772 157.79 148.89 157.713C149.028 157.63 149.187 157.587 149.348 157.59H163.991C164.349 157.591 164.639 157.78 164.639 158.012Z" fill="#EC2024"/>
<path d="M164.639 151.253C164.639 151.379 164.566 151.492 164.451 151.577C164.315 151.666 164.155 151.712 163.993 151.709H149.348C148.99 151.709 148.699 151.505 148.699 151.255C148.699 150.793 149.104 149.874 150.116 149.067C150.613 148.672 151.258 148.304 152.075 148.032C152.212 147.986 152.354 147.943 152.5 147.903C152.618 147.871 152.741 147.84 152.867 147.812C153.627 147.647 154.402 147.567 155.179 147.573H158.161C163.022 147.569 164.639 150.33 164.639 151.253Z" fill="#EC2024"/>
<path d="M164.255 154.451V156.25C164.255 156.557 164.032 156.806 163.759 156.806H149.584C149.309 156.806 149.086 156.557 149.086 156.25V154.451C149.086 154.145 149.309 153.897 149.584 153.897H153.795C154.906 153.895 156.009 154.096 157.05 154.49L159.791 155.574L161.048 154.194C161.299 153.999 161.607 153.894 161.923 153.897H163.758C164.032 153.897 164.255 154.145 164.255 154.451Z" fill="#EC2024"/>
</svg>
