<svg width="24" height="24" viewBox="0 0 24 24" fill="none" xmlns="http://www.w3.org/2000/svg">
<path d="M12.0167 16.7655H17.7225C17.9447 16.7779 18.1664 16.7332 18.3664 16.6357C18.5665 16.5382 18.7382 16.391 18.8652 16.2083C18.9922 16.0256 19.0703 15.8133 19.0921 15.5919C19.1138 15.3704 19.0784 15.147 18.9894 14.9431C18.6877 14.0315 17.4854 12.9381 17.4854 11.8623C17.4854 9.47437 17.4854 8.84597 16.309 7.44171C15.9284 6.98971 15.4564 6.62337 14.9241 6.36674L14.268 6.04835C14.1579 5.9819 14.063 5.89316 13.9892 5.78782C13.9155 5.68249 13.8646 5.56288 13.8399 5.43671C13.7743 5.01142 13.5494 4.62698 13.2108 4.36139C12.8723 4.09579 12.4453 3.96891 12.0167 4.00648C11.5957 3.9812 11.1805 4.11374 10.852 4.3782C10.5236 4.64267 10.3055 5.02007 10.2404 5.43671C10.2109 5.56724 10.153 5.68969 10.0709 5.79538C9.98882 5.90107 9.88449 5.98743 9.76533 6.04835L9.10928 6.36674C8.57727 6.62347 8.10557 6.98981 7.72514 7.44171C6.54961 8.84597 6.54961 9.47437 6.54961 11.8623C6.54961 12.9381 5.40174 13.9217 5.10011 14.8878C4.91829 15.4718 4.81775 16.7655 6.34015 16.7655H12.0167Z" stroke="black" stroke-width="1.5" stroke-linecap="round" stroke-linejoin="round"/>
<path d="M14.7504 16.7656C14.7576 17.1266 14.6918 17.4854 14.5569 17.8203C14.4221 18.1552 14.2209 18.4595 13.9656 18.7148C13.7103 18.9701 13.4061 19.1712 13.0711 19.3061C12.7362 19.4409 12.3774 19.5068 12.0164 19.4996C11.6554 19.5072 11.2965 19.4417 10.9613 19.307C10.6262 19.1724 10.3218 18.9712 10.0665 18.7158C9.81115 18.4604 9.61013 18.1559 9.47554 17.8208C9.34095 17.4856 9.27557 17.1267 9.28333 16.7656" stroke="black" stroke-width="1.5" stroke-linecap="round" stroke-linejoin="round"/>
<circle cx="16" cy="7" r="2.25" fill="#EC2024" stroke="white" stroke-width="0.5"/>
</svg>
