<svg width="311" height="262" viewBox="0 0 311 262" fill="none" xmlns="http://www.w3.org/2000/svg">
<path d="M14.5361 56.1917C13.9949 58.855 15.1779 61.3807 17.6972 62.9475C17.973 63.1086 18.2042 63.2458 18.46 63.3734C18.602 63.4503 18.7953 63.5495 19.0027 63.6429C19.0607 63.6764 19.1284 63.7093 19.199 63.7429C19.4845 63.8654 19.7292 63.9617 19.9857 64.0611L20.2021 64.1441C20.5465 64.2719 20.7815 64.3564 21.0373 64.4335C21.1206 64.4544 21.2039 64.4754 21.2872 64.4964C21.4181 64.5294 21.5468 64.5839 21.6896 64.6199C21.7342 64.6311 21.9514 64.6858 22.1715 64.7413C22.5773 64.8704 22.9907 64.9745 23.4092 65.0531L25.785 65.5062C26.2522 65.586 26.697 65.6538 27.1538 65.712C27.2579 65.7382 27.4045 65.7467 27.557 65.7567L27.7236 65.7986C28.0495 65.8365 28.231 65.8569 28.411 65.8833C28.7755 65.9309 29.0872 65.962 29.4086 65.9924L29.5418 66.0039C29.8059 66.023 30.0001 66.0435 30.2054 66.0699L31.7395 66.1846C31.8807 66.2027 32.0227 66.2132 32.1651 66.216C32.1294 66.207 32.2335 66.2332 32.3458 66.2268L33.508 66.2983C33.5844 66.3043 33.6612 66.3057 33.7379 66.3025L34.3338 66.3357C34.7229 66.3484 35.0518 66.3618 35.3829 66.3662L36.0161 66.3645C36.525 66.3663 36.9491 66.3657 37.3666 66.354C41.0649 66.2617 44.7514 65.8998 48.3967 65.2712C47.5359 66.1761 46.7586 67.0136 46.0543 67.7999C43.0157 71.1834 41.3635 73.4846 40.844 75.0443C40.0323 77.4751 40.1685 79.9994 41.2191 81.9704C42.1711 83.7554 43.8232 85.0342 46.0038 85.672C46.1213 85.718 46.2425 85.7538 46.366 85.779C48.889 86.4146 52.0738 86.2689 55.8639 85.3277C56.2599 85.2253 56.6306 85.1353 57.0013 85.0455L57.1926 85.002C61.439 83.9578 65.3944 82.9382 69.4927 81.4648L69.3086 81.6681C66.5264 84.7748 64.826 86.9028 63.8421 88.573C63.7914 88.6487 63.7302 88.7534 63.6705 88.8647C63.6109 88.9761 63.5385 89.0874 63.4758 89.2106C59.6647 95.7363 59.0614 100.618 61.7102 103.668C62.103 104.12 62.5235 104.548 62.9695 104.949L63.104 105.068C63.4607 105.379 63.8411 105.662 64.2419 105.914L64.3586 105.991L65.192 106.45C65.7042 106.703 66.2416 106.902 66.7953 107.044C70.6005 108.002 74.2964 105.903 77.091 103.965L77.4932 103.687C78.7036 102.826 79.8768 101.912 81.1164 100.947C81.8248 100.396 82.5414 99.837 83.2677 99.2774C82.8617 100.3 82.5141 101.344 82.2266 102.406C81.4407 105.526 80.2936 111.335 81.5505 115.226L81.6075 115.388C81.7463 115.804 81.9213 116.206 82.1303 116.591L83.2865 118.105C83.3816 118.193 83.4797 118.28 83.5882 118.365C83.7854 118.533 83.9918 118.691 84.2066 118.836L84.3736 119.141L85.0192 119.303C85.934 119.768 86.9328 120.044 87.9562 120.116C91.5281 120.355 95.598 118.442 100.403 114.277C100.105 116.563 100.054 118.313 100.237 119.582C100.267 119.763 100.287 119.911 100.311 120.043C100.649 121.926 100.962 123.926 102.162 125.48C103.74 127.517 106.573 128.531 109.083 127.773C110.493 127.348 111.704 126.474 112.869 125.605L112.96 125.533C114.811 124.091 116.528 122.484 118.089 120.733L118.524 120.261C120.09 118.558 121.505 116.723 122.754 114.776L123.397 113.652C123.402 113.634 123.792 113.217 123.827 113.204C124.103 112.971 124.425 112.799 124.773 112.7C127.746 111.989 134.429 113.104 138.237 113.737L140.09 114.043C140.185 114.067 140.307 114.098 140.436 114.102C142.067 114.356 143.737 114.132 145.243 113.459C146.75 112.785 148.028 111.69 148.925 110.306L149.906 108.812C150.69 107.614 151.303 106.312 151.728 104.945L151.951 104.183C152.53 102.298 152.55 100.286 152.009 98.3897C151.469 96.493 150.391 94.7927 148.905 93.4938L148.48 93.1592C144.383 90.582 129.762 71.4945 126.359 66.0492C126.038 65.5387 125.672 64.8966 125.13 63.9069L124.887 63.4508C124.781 63.244 124.694 63.0863 124.605 62.9151L124.301 62.3236C124.239 62.2068 124.189 62.1027 124.137 61.9978C123.708 61.1853 123.348 60.4183 122.959 59.6029L122.473 58.5926C122.376 58.3976 122.307 58.2347 122.241 58.0919L122.129 57.8583C122.02 57.6284 121.954 57.4982 121.895 57.3569L121.5 56.4865C121.359 56.1919 121.262 55.9746 121.162 55.7693L120.839 55.0559C120.802 54.977 120.768 54.8989 120.734 54.8178C120.701 54.7367 120.116 53.4297 120.064 53.3092L119.784 52.6731C119.738 52.5668 119.687 52.4433 119.633 52.319L119.387 51.7515C119.281 51.5194 119.199 51.3282 119.12 51.1407C117.278 46.8849 115.491 42.4345 113.946 38.3071L113.124 36.1724C113.069 35.9976 112.984 35.7611 112.901 35.5253C112.818 35.2895 112.753 35.1184 112.72 34.9868L112.582 34.6045C112.497 34.365 112.432 34.1813 112.361 33.9991C112.02 33.0158 111.67 31.9828 111.343 30.981C106.885 17.4681 96.4653 13.829 77.5344 19.197C72.5678 20.6543 67.6865 22.3869 62.9133 24.3867L61.8806 24.8186C51.7804 29.0048 40.7639 34.48 32.4155 39.4614L30.2446 40.782C29.8722 41.0042 29.5267 41.2331 29.1811 41.462C29.1066 41.5065 28.9614 41.5931 28.8087 41.6842L25.9107 43.5927C25.3752 43.9602 24.894 44.3003 24.4359 44.6368L24.1551 44.8346C23.5339 45.2911 22.9894 45.6943 22.4858 46.0983L21.9896 46.4979C21.905 46.5575 21.8235 46.6213 21.7453 46.6891L20.9236 47.3764C20.709 47.5625 20.5175 47.7322 20.3283 47.9058C20.2365 47.9777 20.1501 48.0563 20.0698 48.1408C19.7985 48.4264 19.5235 48.7015 19.2508 48.9804C18.4292 49.7795 17.655 50.6259 16.9322 51.5152C16.5275 52.0225 16.1521 52.5524 15.8078 53.1025L14.9668 54.7329C14.7787 55.2049 14.6345 55.6932 14.5361 56.1917ZM138.916 109.624C133.789 108.772 128.534 107.893 124.747 108.469C123.059 108.743 121.519 109.597 120.393 110.883L120.141 111.167C119.86 111.49 119.612 111.84 119.4 112.212C118.331 113.959 117.1 115.602 115.725 117.12L115.403 117.468C113.768 119.323 111.958 121.017 109.997 122.524L109.697 122.749C109.038 123.215 108.328 123.725 107.504 123.817C107.032 123.884 106.551 123.787 106.142 123.543C105.733 123.299 105.419 122.923 105.254 122.476L105.239 122.435C104.518 120.602 104.231 118.627 104.401 116.665C104.603 114.39 104.953 112.131 105.45 109.902C105.529 109.542 105.521 109.169 105.428 108.813C105.334 108.457 105.156 108.128 104.91 107.854C104.664 107.579 104.356 107.367 104.012 107.235C103.668 107.103 103.297 107.054 102.931 107.093L102.625 107.124C102.036 107.187 101.472 107.393 100.981 107.724C100.608 107.979 100.261 108.271 99.9454 108.594C93.1984 115.483 90.4705 116.063 88.4104 115.965L88.333 115.945C87.9832 115.929 87.6378 115.861 87.3087 115.741L86.5935 115.377C86.4741 115.301 86.3599 115.218 86.2516 115.127C86.1919 115.077 86.137 115.022 86.0874 114.962L86.0339 114.898C85.8445 114.645 85.702 114.36 85.6133 114.056L85.5681 113.921C84.5979 110.89 85.9056 105.159 86.3322 103.465C86.6959 102.181 87.1411 100.921 87.6653 99.6932L87.7571 99.4667C87.8885 99.1459 88.0245 98.8199 88.1693 98.4835C88.5165 97.6578 88.9047 96.8203 89.2958 95.9708L89.7049 95.088C89.7826 94.9053 89.8609 94.745 89.9348 94.5898L90.4841 93.4642C90.6357 93.153 90.6864 92.8023 90.6293 92.4608C90.5722 92.1193 90.41 91.8039 90.1654 91.5586C89.9208 91.3132 89.6058 91.1499 89.2642 91.0914C88.9226 91.0329 88.5712 91.0821 88.259 91.2321L87.1213 91.7797C87.0237 91.8278 86.9619 91.8597 86.8919 91.8989C86.3133 92.2113 85.8091 92.4919 85.3102 92.7897C82.9032 94.2436 80.6871 95.9699 78.5446 97.6421C77.4317 98.5056 76.3933 99.3121 75.3706 100.056L75.0876 100.25C72.7241 101.933 70.0424 103.548 67.817 102.988C67.5289 102.915 67.2496 102.81 66.9841 102.677L66.9179 102.638C66.7869 102.572 66.6596 102.499 66.5365 102.419C66.3297 102.289 66.1312 102.146 65.9419 101.991L65.878 101.931C65.5238 101.626 65.1925 101.295 64.8869 100.942C63.6049 99.4621 64.4375 95.9306 67.1708 91.2474C67.2312 91.133 67.2529 91.0974 67.2737 91.0648L67.3655 90.9014C68.5306 88.9515 70.6981 86.464 72.4413 84.5048C73.405 83.4299 74.4126 82.3313 75.4128 81.2371C76.7237 79.801 78.0257 78.4006 79.1713 77.0808L79.5996 76.2849L79.7844 75.551C79.8688 75.2138 79.8543 74.8594 79.7425 74.5302C79.6307 74.2009 79.4264 73.9106 79.154 73.6941C78.8816 73.4776 78.5527 73.3439 78.2064 73.309C77.8601 73.2741 77.5111 73.3394 77.2012 73.4973L75.5041 74.3685C75.3984 74.424 75.3254 74.4625 75.2547 74.4921L74.7625 74.7378C74.7312 74.7489 74.5451 74.8347 74.3612 74.9243L74.2219 74.9998C68.0583 77.8899 62.623 79.3456 56.1733 80.9218L54.8253 81.249C51.7259 82.0102 49.2175 82.1588 47.39 81.7016L47.2829 81.6747C46.1234 81.3541 45.3407 80.7936 44.9193 80.0049C44.4103 79.0488 44.3758 77.7288 44.822 76.3845C44.9363 76.0436 45.5836 74.6172 49.1752 70.621C50.7485 68.8592 52.7196 66.812 55.198 64.3586L55.4022 64.1636C55.5303 64.0316 55.6347 63.9315 55.7353 63.8336L56.1563 63.4183L57.4221 62.2994C57.6998 62.0523 57.8873 61.7199 57.9552 61.3546C58.0231 60.9893 57.9676 60.6117 57.7973 60.2812C57.627 59.9507 57.3516 59.6861 57.0144 59.5288C56.6772 59.3716 56.2974 59.3307 55.9346 59.4126L54.2762 59.7911C53.9562 59.8685 53.7135 59.9274 53.4739 59.9745C53.153 60.0548 52.9238 60.1108 52.6975 60.155C47.0401 61.3999 41.85 62.0705 37.2471 62.156C36.8773 62.1671 36.5201 62.1656 36.1622 62.1671L35.3371 62.1647L34.4673 62.1383L33.7359 62.1026L33.4748 62.0968C33.3915 62.0759 33.1645 62.0724 32.9585 62.0616L32.4764 62.0286C32.402 62.0099 32.3149 62.0164 32.2234 62.0154L30.5814 61.8894C30.4133 61.866 30.1366 61.8342 29.8591 61.818L29.7966 61.8022C29.4886 61.7689 29.2252 61.7468 28.9552 61.7135C28.764 61.6812 28.5081 61.6546 28.2522 61.6281L28.0238 61.5927L27.7166 61.5563C27.2538 61.4967 26.8722 61.4416 26.4966 61.3754L25.8055 61.255L24.8147 61.0686L24.6273 61.0214C24.4726 60.9825 24.3446 60.9502 24.2219 60.9351L23.4097 60.7305C23.365 60.7193 23.2877 60.6998 23.2163 60.6818C23.0437 60.6383 22.9485 60.6144 22.8563 60.5911L22.6599 60.5417L22.4703 60.4781L22.1728 60.4031L21.8151 60.2783L21.5764 60.1834C21.3109 60.0817 21.1086 60.0055 20.9205 59.9234L20.8543 59.8846C20.6417 59.7868 20.5272 59.7263 20.4179 59.6704C20.2082 59.5607 20.0484 59.4667 19.8938 59.3772C19.0054 58.8216 18.5644 58.186 18.6019 57.4971C18.6459 57.0403 18.7761 56.596 18.9856 56.1876C19.8791 54.2608 21.4893 52.6916 23.0452 51.1749L23.0981 51.1282C23.5436 50.7412 23.9884 50.3571 24.4414 49.9783L25.1103 49.4453C25.6005 49.0569 26.1033 48.6812 26.6322 48.2898L26.8966 48.1068C27.3778 47.7541 27.8247 47.4369 28.2909 47.1183L31.3766 45.0802C31.7758 44.8268 32.0722 44.6424 32.3723 44.4557L34.5969 43.0981C42.7889 38.21 53.5835 32.8495 63.5258 28.7373L64.5518 28.3069C69.1651 26.363 73.8827 24.6758 78.6831 23.2529C95.3749 18.5342 103.658 21.1484 107.317 32.2828C107.646 33.3136 108.013 34.3541 108.386 35.4467C108.468 35.6632 108.523 35.8223 108.57 35.9733L108.705 36.3548C108.76 36.514 108.83 36.7022 108.904 36.9104C108.978 37.1187 109.061 37.3515 109.131 37.565L109.966 39.8164C111.546 44.0063 113.357 48.5229 115.229 52.8338C115.324 53.0599 115.431 53.2861 115.523 53.4988L116.04 54.7002C116.144 54.9286 116.206 55.0581 116.26 55.1979L116.697 56.1739C116.776 56.3643 116.874 56.5786 116.975 56.7936L117.282 57.4713C117.406 57.7428 117.517 57.9921 117.638 58.2405C117.687 58.3603 117.778 58.5664 117.872 58.7702L118.018 59.0819C118.11 59.282 118.193 59.442 118.272 59.6198C118.306 59.6979 118.358 59.8058 118.412 59.9174C118.466 60.029 118.558 60.2417 118.659 60.4441L119.144 61.4574C119.541 62.2936 119.94 63.1082 120.329 63.8634C120.387 63.9854 120.474 64.1655 120.565 64.3336L120.884 64.9512C120.975 65.1164 121.04 65.2466 121.095 65.3678L121.381 65.9139C121.987 67.0144 122.395 67.7303 122.759 68.3085C126.055 73.5625 140.909 93.2332 146.067 96.6591L146.119 96.7038C146.99 97.4689 147.62 98.4692 147.935 99.5841C148.25 100.699 148.235 101.881 147.893 102.987L147.663 103.76C147.357 104.742 146.915 105.676 146.35 106.536L145.37 108.027C144.911 108.736 144.255 109.296 143.483 109.64C142.71 109.984 141.855 110.096 141.019 109.964L138.916 109.624Z" fill="#FE9300" fill-opacity="0.7"/>
<path d="M299.069 56.1917C299.611 58.855 298.428 61.3807 295.908 62.9475C295.632 63.1086 295.401 63.2458 295.146 63.3734C295.004 63.4503 294.81 63.5495 294.603 63.6429C294.545 63.6764 294.477 63.7093 294.406 63.7429C294.121 63.8654 293.876 63.9618 293.62 64.0611L293.403 64.1441C293.059 64.2719 292.824 64.3564 292.568 64.4335C292.485 64.4544 292.402 64.4754 292.318 64.4964C292.187 64.5294 292.059 64.5839 291.916 64.6199C291.871 64.6311 291.654 64.6858 291.434 64.7413C291.028 64.8704 290.615 64.9745 290.196 65.0531L287.82 65.5062C287.353 65.586 286.908 65.6538 286.452 65.712C286.348 65.7382 286.201 65.7467 286.048 65.7567L285.882 65.7986C285.556 65.8365 285.374 65.8569 285.194 65.8833C284.83 65.9309 284.518 65.962 284.197 65.9924L284.064 66.0039C283.8 66.023 283.605 66.0435 283.4 66.0699L281.866 66.1846C281.725 66.2027 281.583 66.2132 281.44 66.216C281.476 66.207 281.372 66.2332 281.26 66.2268L280.098 66.2983C280.021 66.3043 279.944 66.3057 279.868 66.3025L279.272 66.3357C278.883 66.3484 278.554 66.3618 278.223 66.3662L277.589 66.3645C277.08 66.3663 276.656 66.3657 276.239 66.354C272.541 66.2617 268.854 65.8998 265.209 65.2712C266.07 66.1761 266.847 67.0136 267.551 67.7999C270.59 71.1834 272.242 73.4846 272.761 75.0443C273.573 77.4751 273.437 79.9994 272.386 81.9704C271.434 83.7554 269.782 85.0342 267.602 85.672C267.484 85.718 267.363 85.7538 267.239 85.779C264.717 86.4146 261.532 86.2689 257.742 85.3277C257.346 85.2253 256.975 85.1354 256.604 85.0455L256.413 85.002C252.166 83.9578 248.211 82.9382 244.113 81.4648L244.297 81.6681C247.079 84.7748 248.779 86.9028 249.763 88.573C249.814 88.6487 249.875 88.7534 249.935 88.8647C249.995 88.9761 250.067 89.0874 250.13 89.2107C253.941 95.7363 254.544 100.618 251.895 103.668C251.503 104.12 251.082 104.548 250.636 104.949L250.501 105.068C250.145 105.379 249.764 105.662 249.364 105.914L249.247 105.991L248.413 106.45C247.901 106.703 247.364 106.902 246.81 107.044C243.005 108.002 239.309 105.903 236.514 103.965L236.112 103.687C234.902 102.826 233.729 101.912 232.489 100.947C231.781 100.396 231.064 99.837 230.338 99.2774C230.744 100.3 231.091 101.344 231.379 102.406C232.165 105.526 233.312 111.335 232.055 115.226L231.998 115.388C231.859 115.804 231.684 116.206 231.475 116.591L230.319 118.105C230.224 118.193 230.126 118.28 230.017 118.365C229.82 118.533 229.614 118.691 229.399 118.836L229.232 119.141L228.586 119.303C227.671 119.768 226.673 120.044 225.649 120.116C222.077 120.355 218.007 118.442 213.203 114.277C213.5 116.563 213.552 118.313 213.368 119.582C213.338 119.763 213.318 119.911 213.295 120.043C212.956 121.926 212.643 123.926 211.443 125.48C209.865 127.517 207.033 128.531 204.523 127.773C203.112 127.348 201.902 126.474 200.737 125.605L200.646 125.533C198.794 124.091 197.077 122.484 195.516 120.733L195.081 120.261C193.516 118.558 192.1 116.723 190.852 114.776L190.208 113.652C190.204 113.634 189.814 113.217 189.779 113.204C189.503 112.971 189.18 112.799 188.832 112.7C185.86 111.989 179.177 113.104 175.369 113.738L173.516 114.043C173.42 114.067 173.299 114.098 173.17 114.102C171.538 114.356 169.869 114.132 168.362 113.459C166.856 112.785 165.577 111.69 164.68 110.306L163.7 108.812C162.916 107.614 162.303 106.312 161.878 104.945L161.654 104.183C161.076 102.298 161.055 100.286 161.596 98.3897C162.137 96.493 163.215 94.7927 164.701 93.4938L165.126 93.1592C169.222 90.582 183.844 71.4945 187.246 66.0492C187.567 65.5387 187.934 64.8966 188.475 63.9069L188.718 63.4508C188.824 63.244 188.911 63.0863 189.001 62.9151L189.304 62.3236C189.367 62.2068 189.416 62.1027 189.469 61.9978C189.897 61.1853 190.257 60.4183 190.647 59.6029L191.133 58.5926C191.229 58.3976 191.299 58.2347 191.364 58.0919L191.476 57.8583C191.586 57.6284 191.651 57.4982 191.711 57.3569L192.105 56.4865C192.246 56.1919 192.343 55.9746 192.443 55.7693L192.767 55.0559C192.804 54.977 192.838 54.8989 192.871 54.8178C192.905 54.7368 193.49 53.4297 193.542 53.3092L193.821 52.6731C193.867 52.5668 193.918 52.4433 193.972 52.3191L194.219 51.7515C194.325 51.5194 194.406 51.3282 194.486 51.1407C196.327 46.8849 198.114 42.4345 199.659 38.3071L200.482 36.1724C200.536 35.9976 200.622 35.7611 200.705 35.5253C200.788 35.2895 200.852 35.1184 200.886 34.9868L201.024 34.6045C201.109 34.365 201.173 34.1813 201.244 33.9991C201.585 33.0158 201.936 31.9828 202.262 30.981C206.721 17.4681 217.14 13.829 236.071 19.197C241.038 20.6543 245.919 22.3869 250.692 24.3867L251.725 24.8186C261.825 29.0048 272.842 34.48 281.19 39.4614L283.361 40.782C283.733 41.0042 284.079 41.2331 284.424 41.462C284.499 41.5065 284.644 41.5931 284.797 41.6842L287.695 43.5927C288.23 43.9602 288.711 44.3003 289.17 44.6368L289.45 44.8346C290.072 45.2912 290.616 45.6943 291.12 46.0983L291.616 46.4979C291.7 46.5575 291.782 46.6213 291.86 46.6891L292.682 47.3764C292.896 47.5625 293.088 47.7323 293.277 47.9058C293.369 47.9777 293.455 48.0563 293.536 48.1408C293.807 48.4264 294.082 48.7016 294.355 48.9804C295.176 49.7795 295.95 50.6259 296.673 51.5152C297.078 52.0225 297.453 52.5525 297.798 53.1025L298.639 54.7329C298.827 55.2049 298.971 55.6932 299.069 56.1917ZM174.69 109.624C179.816 108.772 185.071 107.893 188.858 108.469C190.546 108.744 192.086 109.597 193.212 110.883L193.464 111.167C193.745 111.49 193.994 111.84 194.205 112.212C195.275 113.959 196.505 115.602 197.881 117.12L198.203 117.468C199.838 119.323 201.648 121.017 203.609 122.524L203.909 122.749C204.567 123.215 205.278 123.725 206.102 123.817C206.573 123.884 207.054 123.787 207.463 123.543C207.873 123.299 208.186 122.923 208.352 122.476L208.367 122.435C209.088 120.602 209.374 118.627 209.204 116.665C209.002 114.391 208.652 112.131 208.155 109.902C208.076 109.542 208.084 109.169 208.178 108.813C208.272 108.457 208.449 108.128 208.695 107.854C208.941 107.579 209.249 107.367 209.593 107.235C209.938 107.103 210.308 107.054 210.675 107.093L210.98 107.124C211.569 107.187 212.134 107.393 212.625 107.724C212.998 107.979 213.345 108.271 213.66 108.594C220.407 115.483 223.135 116.063 225.195 115.965L225.272 115.945C225.622 115.929 225.968 115.861 226.297 115.741L227.012 115.377C227.131 115.301 227.246 115.218 227.354 115.127C227.414 115.077 227.468 115.022 227.518 114.962L227.572 114.898C227.761 114.645 227.903 114.36 227.992 114.056L228.037 113.921C229.008 110.89 227.7 105.159 227.273 103.465C226.91 102.181 226.464 100.921 225.94 99.6932L225.848 99.4667C225.717 99.1459 225.581 98.8199 225.436 98.4835C225.089 97.6578 224.701 96.8203 224.31 95.9708L223.901 95.088C223.823 94.9053 223.745 94.745 223.671 94.5898L223.121 93.4642C222.97 93.153 222.919 92.8023 222.976 92.4608C223.033 92.1193 223.195 91.804 223.44 91.5586C223.685 91.3132 224 91.1499 224.341 91.0914C224.683 91.0329 225.034 91.0821 225.346 91.2321L226.484 91.7797C226.582 91.8278 226.644 91.8597 226.714 91.8989C227.292 92.2113 227.796 92.492 228.295 92.7897C230.702 94.2436 232.918 95.9699 235.061 97.6421C236.174 98.5056 237.212 99.3121 238.235 100.056L238.518 100.25C240.881 101.933 243.563 103.548 245.788 102.988C246.077 102.915 246.356 102.81 246.621 102.677L246.688 102.638C246.819 102.572 246.946 102.499 247.069 102.419C247.276 102.289 247.474 102.146 247.664 101.991L247.727 101.931C248.082 101.626 248.413 101.295 248.719 100.942C250.001 99.4621 249.168 95.9306 246.435 91.2474C246.374 91.1331 246.353 91.0974 246.332 91.0648L246.24 90.9015C245.075 88.9515 242.907 86.464 241.164 84.5048C240.2 83.4299 239.193 82.3313 238.193 81.2372C236.882 79.801 235.58 78.4006 234.434 77.0808L234.006 76.285L233.821 75.551C233.737 75.2138 233.751 74.8594 233.863 74.5302C233.975 74.2009 234.179 73.9107 234.451 73.6941C234.724 73.4776 235.053 73.3439 235.399 73.309C235.745 73.2741 236.094 73.3395 236.404 73.4973L238.101 74.3685C238.207 74.424 238.28 74.4625 238.351 74.4921L238.843 74.7378C238.874 74.7489 239.06 74.8347 239.244 74.9243L239.384 74.9998C245.547 77.8899 250.983 79.3456 257.432 80.9218L258.78 81.249C261.88 82.0103 264.388 82.1588 266.215 81.7017L266.323 81.6747C267.482 81.3541 268.265 80.7936 268.686 80.0049C269.195 79.0488 269.23 77.7288 268.783 76.3845C268.669 76.0436 268.022 74.6172 264.43 70.621C262.857 68.8592 260.886 66.812 258.407 64.3587L258.203 64.1636C258.075 64.0316 257.971 63.9315 257.87 63.8336L257.449 63.4183L256.183 62.2994C255.906 62.0523 255.718 61.7199 255.65 61.3546C255.582 60.9893 255.638 60.6117 255.808 60.2812C255.978 59.9507 256.254 59.6861 256.591 59.5288C256.928 59.3716 257.308 59.3307 257.671 59.4126L259.329 59.7911C259.649 59.8685 259.892 59.9274 260.132 59.9745C260.452 60.0548 260.682 60.1109 260.908 60.155C266.565 61.3999 271.755 62.0705 276.358 62.156C276.728 62.1671 277.085 62.1657 277.443 62.1671L278.268 62.1647L279.138 62.1383L279.87 62.1026L280.131 62.0968C280.214 62.0759 280.441 62.0724 280.647 62.0616L281.129 62.0286C281.203 62.0099 281.291 62.0164 281.382 62.0154L283.024 61.8894C283.192 61.866 283.469 61.8342 283.746 61.818L283.809 61.8023C284.117 61.7689 284.38 61.7468 284.65 61.7135C284.841 61.6812 285.097 61.6546 285.353 61.6281L285.582 61.5927L285.889 61.5563C286.352 61.4967 286.733 61.4416 287.109 61.3754L287.8 61.2551L288.791 61.0687L288.978 61.0214C289.133 60.9825 289.261 60.9502 289.384 60.9351L290.196 60.7305C290.24 60.7193 290.318 60.6998 290.389 60.6818C290.562 60.6383 290.657 60.6144 290.749 60.5911L290.946 60.5417L291.135 60.4781L291.433 60.4031L291.79 60.2783L292.029 60.1834C292.295 60.0817 292.497 60.0055 292.685 59.9234L292.751 59.8846C292.964 59.7868 293.078 59.7263 293.188 59.6704C293.397 59.5607 293.557 59.4667 293.712 59.3772C294.6 58.8216 295.041 58.186 295.004 57.4971C294.96 57.0403 294.829 56.596 294.62 56.1876C293.726 54.2608 292.116 52.6916 290.56 51.1749L290.507 51.1282C290.062 50.7412 289.617 50.3571 289.164 49.9783L288.495 49.4453C288.005 49.0569 287.502 48.6812 286.973 48.2899L286.709 48.1068C286.228 47.7541 285.781 47.4369 285.315 47.1183L282.229 45.0802C281.83 44.8268 281.533 44.6424 281.233 44.4557L279.009 43.0981C270.817 38.21 260.022 32.8495 250.08 28.7373L249.054 28.3069C244.44 26.363 239.723 24.6758 234.922 23.2529C218.231 18.5343 209.948 21.1484 206.289 32.2828C205.96 33.3136 205.592 34.3541 205.219 35.4467C205.137 35.6632 205.083 35.8223 205.035 35.9733L204.9 36.3548C204.846 36.514 204.776 36.7022 204.702 36.9105C204.628 37.1187 204.544 37.3515 204.474 37.565L203.64 39.8164C202.06 44.0063 200.249 48.5229 198.377 52.8338C198.282 53.0599 198.174 53.2861 198.082 53.4988L197.565 54.7002C197.461 54.9286 197.399 55.0581 197.346 55.1979L196.908 56.1739C196.83 56.3643 196.732 56.5786 196.631 56.7936L196.324 57.4713C196.199 57.7429 196.088 57.9921 195.967 58.2406C195.918 58.3603 195.828 58.5664 195.734 58.7702L195.587 59.0819C195.495 59.282 195.412 59.442 195.334 59.6198C195.3 59.6979 195.248 59.8058 195.194 59.9174C195.139 60.029 195.047 60.2417 194.947 60.4441L194.461 61.4574C194.065 62.2936 193.666 63.1083 193.277 63.8634C193.219 63.9854 193.131 64.1655 193.041 64.3336L192.722 64.9512C192.631 65.1164 192.565 65.2466 192.51 65.3678L192.224 65.914C191.619 67.0144 191.21 67.7303 190.847 68.3085C187.551 73.5625 172.697 93.2332 167.539 96.6591L167.487 96.7038C166.616 97.469 165.985 98.4692 165.67 99.5841C165.355 100.699 165.37 101.881 165.713 102.987L165.942 103.76C166.249 104.742 166.691 105.676 167.255 106.536L168.235 108.027C168.695 108.736 169.35 109.296 170.123 109.64C170.895 109.984 171.751 110.096 172.586 109.964L174.69 109.624Z" fill="#FE9300" fill-opacity="0.7"/>
<path d="M125.154 169.877C123.084 169.222 121.474 168.713 120.36 168.364C119.821 168.2 119.408 168.076 119.11 167.983C118.825 167.899 118.68 167.864 118.676 167.872C118.676 167.881 118.812 167.939 119.092 168.036C119.386 168.138 119.794 168.28 120.329 168.465C121.435 168.833 123.04 169.368 125.097 170.054C129.263 171.408 135.268 173.355 142.68 175.762C148.755 177.7 155.772 179.939 163.492 182.404C155.794 179.869 148.803 177.568 142.746 175.572C135.329 173.169 129.325 171.227 125.158 169.877H125.154Z" fill="#F5F5F5"/>
<path d="M208.412 163.943C210.346 162.965 211.851 162.208 212.89 161.681C213.39 161.42 213.772 161.221 214.048 161.08C214.307 160.942 214.438 160.867 214.434 160.858C214.434 160.849 214.289 160.907 214.022 161.031C213.741 161.164 213.351 161.349 212.842 161.588C211.794 162.097 210.276 162.832 208.329 163.779C204.408 165.717 198.767 168.514 191.794 171.965C186.136 174.797 179.61 178.071 172.43 181.669C179.645 178.138 186.202 174.925 191.886 172.142C198.855 168.686 204.495 165.89 208.416 163.947L208.412 163.943Z" fill="#F5F5F5"/>
<path d="M189.583 79.4713L191.969 80.3784L189.898 80.9714C189.205 81.1705 188.657 81.7015 188.434 82.3918L187.684 84.706L186.762 82.3874C186.534 81.8121 186.074 81.3608 185.495 81.1484L183.398 80.3784L185.67 79.4359C186.219 79.2102 186.653 78.7633 186.863 78.2013L187.684 76.0508L188.271 78.0509C188.464 78.7058 188.947 79.2323 189.583 79.4713Z" fill="#E0E0E0"/>
<path d="M134.482 209.308L135.697 209.768L134.64 210.069C134.289 210.171 134.008 210.441 133.894 210.79L133.512 211.967L133.043 210.786C132.925 210.494 132.692 210.264 132.398 210.158L131.328 209.768L132.486 209.29C132.767 209.175 132.986 208.945 133.096 208.662L133.512 207.564L133.811 208.582C133.907 208.914 134.157 209.184 134.477 209.303L134.482 209.308Z" fill="#E0E0E0"/>
<path d="M118.357 113.466L119.572 113.926L118.515 114.227C118.164 114.329 117.883 114.599 117.769 114.948L117.387 116.126L116.918 114.944C116.8 114.652 116.567 114.422 116.273 114.316L115.203 113.926L116.361 113.448C116.642 113.333 116.861 113.103 116.971 112.82L117.387 111.723L117.686 112.74C117.782 113.072 118.032 113.342 118.352 113.462L118.357 113.466Z" fill="#E0E0E0"/>
<path d="M30.8996 113.466L32.1145 113.926L31.0575 114.227C30.7066 114.329 30.4259 114.599 30.3119 114.948L29.9303 116.126L29.461 114.944C29.3426 114.652 29.1101 114.422 28.8163 114.316L27.7461 113.926L28.904 113.448C29.1847 113.333 29.404 113.103 29.5136 112.82L29.9303 111.723L30.2285 112.74C30.325 113.072 30.575 113.342 30.8952 113.462L30.8996 113.466Z" fill="#E0E0E0"/>
<path d="M305.067 175.031L306.843 175.703L305.299 176.146C304.786 176.292 304.374 176.69 304.207 177.203L303.65 178.925L302.961 177.199C302.79 176.77 302.448 176.433 302.018 176.279L300.457 175.708L302.15 175.009C302.558 174.84 302.882 174.509 303.04 174.088L303.65 172.486L304.089 173.973C304.233 174.46 304.593 174.854 305.067 175.031Z" fill="#E0E0E0"/>
<path d="M128.711 141.122L130.488 141.795L128.944 142.238C128.43 142.384 128.018 142.782 127.852 143.295L127.295 145.016L126.606 143.291C126.435 142.862 126.093 142.525 125.663 142.37L124.102 141.8L125.795 141.1C126.202 140.932 126.527 140.6 126.685 140.18L127.295 138.578L127.733 140.065C127.878 140.552 128.238 140.945 128.711 141.122Z" fill="#E0E0E0"/>
<path d="M42.4612 103.759L44.2375 104.432L42.6937 104.874C42.1805 105.02 41.7682 105.419 41.6016 105.932L41.0445 107.653L40.3559 105.927C40.1849 105.498 39.8428 105.162 39.413 105.007L37.8516 104.436L39.5445 103.737C39.9524 103.569 40.277 103.237 40.4349 102.817L41.0445 101.215L41.4831 102.702C41.6279 103.188 41.9875 103.582 42.4612 103.759Z" fill="#E0E0E0"/>
<path d="M183.321 129.296L185.097 129.969L183.553 130.411C183.04 130.557 182.628 130.956 182.461 131.469L181.904 133.19L181.215 131.465C181.044 131.035 180.702 130.699 180.272 130.544L178.711 129.973L180.404 129.274C180.812 129.106 181.136 128.774 181.294 128.354L181.904 126.752L182.343 128.239C182.487 128.725 182.847 129.119 183.321 129.296Z" fill="#E0E0E0"/>
<path d="M192.297 189.736L194.073 190.408L192.53 190.851C192.016 190.997 191.604 191.395 191.437 191.908L190.88 193.63L190.192 191.904C190.021 191.475 189.679 191.138 189.249 190.984L187.688 190.413L189.38 189.714C189.788 189.545 190.113 189.214 190.271 188.793L190.88 187.191L191.319 188.678C191.464 189.165 191.823 189.559 192.297 189.736Z" fill="#E0E0E0"/>
<path d="M225.044 107.219L225.943 107.56L225.162 107.781C224.903 107.856 224.693 108.055 224.61 108.316L224.329 109.188L223.982 108.316C223.895 108.099 223.724 107.931 223.504 107.852L222.715 107.564L223.57 107.21C223.776 107.126 223.939 106.958 224.022 106.745L224.329 105.936L224.553 106.688C224.627 106.936 224.807 107.13 225.048 107.223L225.044 107.219Z" fill="#E0E0E0"/>
<path d="M154.526 93.948L155.197 94.2002L154.614 94.3684C154.421 94.4259 154.267 94.5719 154.201 94.7666L153.991 95.4171L153.732 94.7666C153.666 94.6029 153.539 94.479 153.377 94.4215L152.789 94.2046L153.425 93.9391C153.579 93.8772 153.701 93.7489 153.758 93.594L153.986 92.9922L154.153 93.5542C154.206 93.7356 154.342 93.886 154.522 93.9524L154.526 93.948Z" fill="#E0E0E0"/>
<path d="M21.0532 191.143L21.7243 191.396L21.141 191.564C20.948 191.621 20.7945 191.767 20.7287 191.962L20.5182 192.612L20.2594 191.962C20.1936 191.803 20.0664 191.674 19.9041 191.617L19.3164 191.4L19.9524 191.134C20.1059 191.073 20.2287 190.944 20.2857 190.789L20.5138 190.188L20.6804 190.749C20.7331 190.931 20.869 191.081 21.0489 191.148L21.0532 191.143Z" fill="#E0E0E0"/>
<path d="M212.701 100.932L214.017 101.432L212.872 101.759C212.491 101.87 212.188 102.162 212.065 102.543L211.653 103.817L211.144 102.538C211.017 102.22 210.763 101.972 210.447 101.857L209.289 101.432L210.543 100.914C210.846 100.79 211.087 100.543 211.201 100.233L211.653 99.0469L211.978 100.149C212.083 100.512 212.35 100.799 212.701 100.932Z" fill="#E0E0E0"/>
<path d="M298.815 99.7464L300.13 100.246L298.986 100.574C298.604 100.684 298.301 100.977 298.179 101.357L297.766 102.631L297.258 101.353C297.13 101.034 296.876 100.786 296.56 100.671L295.402 100.246L296.657 99.7287C296.959 99.6048 297.201 99.357 297.315 99.0472L297.766 97.8613L298.091 98.9631C298.196 99.326 298.464 99.6136 298.815 99.7464Z" fill="#E0E0E0"/>
<path d="M310.998 249.271C310.998 249.333 245.388 249.386 164.476 249.386C83.5641 249.386 17.9414 249.333 17.9414 249.271C17.9414 249.209 83.5334 249.156 164.476 249.156C245.419 249.156 310.998 249.209 310.998 249.271Z" fill="#263238"/>
<path d="M254.96 67.6152L258.258 124.808H255.727L252.078 67.8719L254.96 67.6152Z" fill="#EC2024"/>
<path d="M253.583 125.066C253.583 125.066 253.732 125.106 254.013 125.186C254.298 125.252 254.728 125.363 255.307 125.381C255.886 125.407 256.601 125.336 257.443 125.173C258.28 125.018 259.254 124.797 260.381 124.717L260.333 124.77C259.728 114.464 258.447 92.7243 256.969 67.6081L256.96 67.4355L257.083 67.5417C254.745 67.7452 252.443 67.9444 250.263 68.1346L250.368 68.0152C251.289 84.069 252.105 98.3174 252.688 108.557C252.973 113.681 253.202 117.796 253.359 120.646C253.434 122.066 253.491 123.164 253.535 123.916C253.552 124.288 253.566 124.571 253.574 124.766C253.583 124.956 253.583 125.058 253.583 125.058C253.583 125.058 253.57 124.965 253.557 124.779C253.544 124.584 253.526 124.305 253.5 123.938C253.452 123.19 253.381 122.097 253.294 120.69C253.118 117.849 252.868 113.739 252.557 108.623C251.947 98.3661 251.101 84.1 250.145 68.024V67.9134L250.25 67.9045C252.43 67.7143 254.732 67.5151 257.07 67.3116L257.188 67.3027L257.197 67.4222L257.206 67.5948C258.627 92.7154 259.859 114.46 260.443 124.766V124.819H260.395C259.276 124.889 258.307 125.102 257.465 125.252C256.623 125.407 255.895 125.469 255.311 125.438C254.728 125.407 254.298 125.288 254.013 125.212C253.728 125.12 253.592 125.066 253.592 125.066H253.583Z" fill="#EC2024"/>
<path d="M263.758 126.604H216.148C216.148 127.342 218.1 160.596 218.1 160.596L221.517 163.304C221.517 163.304 226.157 249.268 227.131 249.268H284.328C285.306 249.268 289.942 163.304 289.942 163.304L293.359 160.596C293.359 160.596 295.311 127.342 295.311 126.604H263.745H263.758Z" fill="#EC2024"/>
<path opacity="0.3" d="M216.567 134.193L216.312 129.746H295.155L294.905 134.193H216.567Z" fill="black"/>
<path d="M298.213 124.393H213.047V129.747H298.213V124.393Z" fill="#E0E0E0"/>
<path d="M218.582 124.392C219.113 124.392 226.7 118.613 226.7 118.613H239.88L241.679 116.799H260.38V125.463L218.582 124.392Z" fill="#E0E0E0"/>
<path d="M292.462 124.392C291.932 124.392 284.344 118.613 284.344 118.613H271.164L269.366 116.799H250.664V125.463L292.462 124.392Z" fill="#E0E0E0"/>
<path d="M297.314 124.392C297.314 124.454 278.45 124.507 255.183 124.507C231.915 124.507 213.047 124.454 213.047 124.392C213.047 124.33 231.906 124.277 255.183 124.277C278.459 124.277 297.314 124.33 297.314 124.392Z" fill="#263238"/>
<path d="M284.444 118.449C284.444 118.511 271.589 118.564 255.738 118.564C239.887 118.564 227.027 118.511 227.027 118.449C227.027 118.387 239.878 118.334 255.738 118.334C271.597 118.334 284.444 118.387 284.444 118.449Z" fill="#263238"/>
<path d="M216.153 129.596C216.092 129.596 216.039 128.499 216.039 127.145C216.039 125.791 216.092 124.693 216.153 124.693C216.214 124.693 216.267 125.791 216.267 127.145C216.267 128.499 216.214 129.596 216.153 129.596Z" fill="#263238"/>
<path d="M220.95 129.596C220.889 129.596 220.836 128.499 220.836 127.145C220.836 125.791 220.889 124.693 220.95 124.693C221.011 124.693 221.064 125.791 221.064 127.145C221.064 128.499 221.011 129.596 220.95 129.596Z" fill="#263238"/>
<path d="M225.747 129.596C225.685 129.596 225.633 128.499 225.633 127.145C225.633 125.791 225.685 124.693 225.747 124.693C225.808 124.693 225.861 125.791 225.861 127.145C225.861 128.499 225.808 129.596 225.747 129.596Z" fill="#263238"/>
<path d="M230.544 129.596C230.482 129.596 230.43 128.499 230.43 127.145C230.43 125.791 230.482 124.693 230.544 124.693C230.605 124.693 230.658 125.791 230.658 127.145C230.658 128.499 230.605 129.596 230.544 129.596Z" fill="#263238"/>
<path d="M235.345 129.596C235.283 129.596 235.23 128.499 235.23 127.145C235.23 125.791 235.283 124.693 235.345 124.693C235.406 124.693 235.459 125.791 235.459 127.145C235.459 128.499 235.406 129.596 235.345 129.596Z" fill="#263238"/>
<path d="M240.141 129.596C240.08 129.596 240.027 128.499 240.027 127.145C240.027 125.791 240.08 124.693 240.141 124.693C240.203 124.693 240.255 125.791 240.255 127.145C240.255 128.499 240.203 129.596 240.141 129.596Z" fill="#263238"/>
<path d="M244.942 129.596C244.881 129.596 244.828 128.499 244.828 127.145C244.828 125.791 244.881 124.693 244.942 124.693C245.004 124.693 245.056 125.791 245.056 127.145C245.056 128.499 245.004 129.596 244.942 129.596Z" fill="#263238"/>
<path d="M249.739 129.596C249.678 129.596 249.625 128.499 249.625 127.145C249.625 125.791 249.678 124.693 249.739 124.693C249.8 124.693 249.853 125.791 249.853 127.145C249.853 128.499 249.8 129.596 249.739 129.596Z" fill="#263238"/>
<path d="M254.536 129.596C254.474 129.596 254.422 128.499 254.422 127.145C254.422 125.791 254.474 124.693 254.536 124.693C254.597 124.693 254.65 125.791 254.65 127.145C254.65 128.499 254.597 129.596 254.536 129.596Z" fill="#263238"/>
<path d="M259.337 129.596C259.275 129.596 259.223 128.499 259.223 127.145C259.223 125.791 259.275 124.693 259.337 124.693C259.398 124.693 259.451 125.791 259.451 127.145C259.451 128.499 259.398 129.596 259.337 129.596Z" fill="#263238"/>
<path d="M264.134 129.596C264.072 129.596 264.02 128.499 264.02 127.145C264.02 125.791 264.072 124.693 264.134 124.693C264.195 124.693 264.248 125.791 264.248 127.145C264.248 128.499 264.195 129.596 264.134 129.596Z" fill="#263238"/>
<path d="M268.93 129.596C268.869 129.596 268.816 128.499 268.816 127.145C268.816 125.791 268.869 124.693 268.93 124.693C268.992 124.693 269.044 125.791 269.044 127.145C269.044 128.499 268.992 129.596 268.93 129.596Z" fill="#263238"/>
<path d="M273.731 129.596C273.67 129.596 273.617 128.499 273.617 127.145C273.617 125.791 273.67 124.693 273.731 124.693C273.793 124.693 273.845 125.791 273.845 127.145C273.845 128.499 273.793 129.596 273.731 129.596Z" fill="#263238"/>
<path d="M278.528 129.596C278.467 129.596 278.414 128.499 278.414 127.145C278.414 125.791 278.467 124.693 278.528 124.693C278.59 124.693 278.642 125.791 278.642 127.145C278.642 128.499 278.59 129.596 278.528 129.596Z" fill="#263238"/>
<path d="M283.329 129.596C283.267 129.596 283.215 128.499 283.215 127.145C283.215 125.791 283.267 124.693 283.329 124.693C283.39 124.693 283.443 125.791 283.443 127.145C283.443 128.499 283.39 129.596 283.329 129.596Z" fill="#263238"/>
<path d="M288.126 129.596C288.064 129.596 288.012 128.499 288.012 127.145C288.012 125.791 288.064 124.693 288.126 124.693C288.187 124.693 288.24 125.791 288.24 127.145C288.24 128.499 288.187 129.596 288.126 129.596Z" fill="#263238"/>
<path d="M292.923 129.596C292.861 129.596 292.809 128.499 292.809 127.145C292.809 125.791 292.861 124.693 292.923 124.693C292.984 124.693 293.037 125.791 293.037 127.145C293.037 128.499 292.984 129.596 292.923 129.596Z" fill="#263238"/>
<path d="M297.727 129.596C297.666 129.596 297.613 128.499 297.613 127.145C297.613 125.791 297.666 124.693 297.727 124.693C297.789 124.693 297.841 125.791 297.841 127.145C297.841 128.499 297.789 129.596 297.727 129.596Z" fill="#263238"/>
<path opacity="0.3" d="M218.105 160.598H293.373L290.32 163.673H221.522L218.105 160.598Z" fill="black"/>
<path opacity="0.3" d="M223.188 193.041H288.288L286.858 217.055H224.617L223.188 193.041Z" fill="#FFA120"/>
<path d="M221.627 132.412C221.048 131.39 219.855 130.788 218.697 130.642C217.688 130.513 217.627 130.536 216.465 130.651C217.21 129.766 217.329 128.5 216.381 127.027C215.754 126.053 214.46 125.531 212.929 125.668C211.785 125.77 210.605 126.248 209.754 127.027C209.079 127.646 208.486 128.412 208.276 129.31C207.855 131.098 208.364 131.978 208.912 132.713C208.109 133.257 202.377 138.209 201.574 138.757L206.272 144.355C207.482 143.257 212.627 138.54 213.842 137.447C215.048 138.47 215.715 138.983 217.289 139.023C218.864 139.063 220.5 138.151 221.438 136.877C222.377 135.598 222.636 134.199 221.627 132.412Z" fill="#F5F5F5"/>
<path d="M221.627 132.411C221.627 132.411 221.824 132.685 222.057 133.274C222.166 133.57 222.28 133.951 222.307 134.411C222.342 134.871 222.267 135.416 222.03 135.969C221.561 137.057 220.522 138.234 218.943 138.818C218.162 139.115 217.237 139.195 216.311 139.009C215.846 138.92 215.386 138.721 214.969 138.451C214.552 138.181 214.166 137.854 213.772 137.522H213.899C211.662 139.566 209.105 141.912 206.342 144.443L206.254 144.522L206.175 144.429C204.684 142.655 203.105 140.77 201.478 138.832L201.395 138.73L201.504 138.65C201.741 138.482 201.995 138.274 202.25 138.066C204.548 136.19 206.693 134.292 208.846 132.61L208.82 132.778C208.544 132.411 208.294 132.008 208.158 131.561C208.013 131.119 207.987 130.65 208.017 130.203C208.057 129.756 208.131 129.322 208.28 128.898C208.43 128.482 208.658 128.101 208.916 127.765C209.438 127.092 210.079 126.535 210.802 126.172C211.522 125.809 212.289 125.601 213.044 125.552C213.798 125.504 214.544 125.61 215.193 125.906C215.851 126.19 216.364 126.725 216.653 127.309C216.965 127.88 217.153 128.508 217.131 129.114C217.114 129.721 216.864 130.278 216.517 130.681L216.46 130.566C218.28 130.292 219.789 130.703 220.605 131.274C221.022 131.557 221.28 131.849 221.43 132.057C221.583 132.265 221.631 132.393 221.631 132.393C221.605 132.42 221.395 131.876 220.566 131.336C219.754 130.796 218.28 130.411 216.473 130.703L216.294 130.734L216.412 130.592C216.741 130.203 216.965 129.681 216.978 129.11C216.995 128.539 216.811 127.942 216.504 127.393C216.215 126.827 215.745 126.344 215.118 126.075C214.5 125.796 213.785 125.698 213.057 125.747C211.601 125.84 210.074 126.561 209.088 127.893C208.838 128.216 208.627 128.579 208.487 128.968C208.351 129.358 208.276 129.787 208.241 130.212C208.215 130.637 208.241 131.075 208.373 131.482C208.5 131.893 208.728 132.269 209 132.628L209.07 132.721L208.973 132.796C206.859 134.46 204.697 136.371 202.399 138.248C202.145 138.456 201.895 138.659 201.64 138.841L201.666 138.664C203.294 140.606 204.873 142.491 206.359 144.266L206.193 144.252C208.96 141.735 211.53 139.398 213.772 137.358L213.833 137.301L213.899 137.358C214.666 138.022 215.443 138.655 216.346 138.818C217.241 139.004 218.127 138.934 218.886 138.655C220.425 138.102 221.456 136.964 221.925 135.911C222.412 134.832 222.197 133.854 222 133.278C221.899 132.982 221.798 132.765 221.728 132.619C221.658 132.473 221.623 132.398 221.627 132.393V132.411Z" fill="#263238"/>
<path d="M205.947 139.149C207.794 137.246 206.206 135.454 204.811 135.945C201.89 137.569 198.982 134.83 196.048 140.822C194.294 139.286 191.386 139.331 189.68 140.924C188.416 140.308 186.82 140.468 185.706 141.322C184.588 142.176 184.004 143.68 184.245 145.074C184.031 144.809 183.719 144.641 183.386 144.596C181.25 144.318 178.899 144.247 177.386 145.738C176.592 146.521 176.14 147.654 175.188 148.234C174.329 148.756 173.254 148.712 172.298 149.021C170.504 149.605 169.355 151.367 168.609 153.11C167.653 155.345 167.109 157.809 167.434 160.221C167.759 162.633 169.031 164.973 171.088 166.243C172.052 166.836 173.206 167.226 173.868 168.15C174.745 169.372 174.022 171.159 175.859 172.12C176.684 172.549 178.254 172.562 179.153 172.531C179.552 172.518 179.943 172.677 180.202 172.983C180.982 173.912 181.938 174.474 183.684 174.297C185.048 174.16 186.57 171.788 186.57 171.788C186.57 171.788 188.013 172.872 190.715 172.191C192.46 171.748 194.044 170.46 194.373 168.677C197.109 169.359 200.175 167.088 200.351 164.252C200.395 163.566 200.298 162.854 200.548 162.217C200.824 161.513 201.473 161.04 202 160.5C203.202 159.27 203.859 157.513 203.759 155.783C203.702 154.769 203.399 153.734 203.662 152.756C203.881 151.955 204.452 151.309 204.873 150.597C205.298 149.884 205.574 148.964 205.171 148.242C206.688 146.096 209.162 145.68 209.162 141.618C208.228 140.503 205.952 139.149 205.952 139.149H205.947Z" fill="#FE9300"/>
<g opacity="0.3">
<path d="M186.691 159.232C187.876 160.466 189.516 161.303 191.218 161.307C192.919 161.311 194.648 160.409 195.45 158.891C196.248 157.373 195.95 155.289 194.63 154.205C195.946 154.205 197.209 153.24 197.573 151.966C197.937 150.691 197.376 149.2 196.257 148.492" fill="black"/>
</g>
<path d="M186.051 158.585C187.235 159.82 188.875 160.656 190.577 160.66C192.279 160.665 194.007 159.762 194.81 158.244C195.608 156.727 195.31 154.642 193.989 153.558C195.305 153.558 196.568 152.594 196.932 151.319C197.296 150.04 196.735 148.554 195.617 147.846" fill="#FE9300"/>
<path d="M195.618 147.85C195.618 147.85 195.666 147.868 195.754 147.921C195.842 147.97 195.96 148.058 196.105 148.191C196.386 148.448 196.763 148.903 196.978 149.594C197.188 150.266 197.223 151.222 196.701 152.089C196.206 152.934 195.201 153.665 193.991 153.682L194.061 153.479C195 154.235 195.508 155.603 195.333 156.943C195.236 157.771 194.868 158.536 194.35 159.121C193.833 159.705 193.193 160.125 192.539 160.391C191.881 160.656 191.206 160.771 190.579 160.767C189.951 160.753 189.372 160.643 188.868 160.475C187.855 160.138 187.144 159.621 186.693 159.244C186.469 159.05 186.307 158.89 186.197 158.775C186.092 158.66 186.039 158.598 186.048 158.59C186.061 158.576 186.289 158.811 186.75 159.169C187.21 159.519 187.925 160.001 188.916 160.311C189.894 160.621 191.188 160.722 192.451 160.183C193.079 159.921 193.684 159.519 194.171 158.961C194.657 158.404 194.995 157.691 195.087 156.912C195.25 155.643 194.771 154.359 193.907 153.651L193.662 153.452H193.978C195.092 153.439 196.048 152.771 196.526 151.983C197.026 151.182 197.013 150.284 196.828 149.629C196.64 148.961 196.293 148.509 196.035 148.24C195.771 147.97 195.592 147.863 195.605 147.846L195.618 147.85Z" fill="#263238"/>
<g opacity="0.3">
<path d="M174.13 158.451C173.472 159.823 173.744 161.588 174.784 162.69C175.823 163.792 177.556 164.159 178.946 163.571C178.156 164.894 178.608 166.819 179.902 167.646C181.196 168.474 183.113 168.062 183.963 166.775" fill="black"/>
</g>
<path d="M174.345 157.854C173.687 159.225 173.959 160.991 174.998 162.093C176.038 163.194 177.77 163.562 179.161 162.973C178.371 164.296 178.823 166.221 180.117 167.049C181.411 167.876 183.595 167.518 184.446 166.234" fill="#FF9A6C"/>
<path d="M184.444 166.231C184.444 166.231 184.417 166.293 184.347 166.395C184.317 166.448 184.268 166.51 184.207 166.576C184.145 166.647 184.075 166.722 183.983 166.797C183.632 167.111 183.001 167.461 182.154 167.558C181.733 167.607 181.26 167.585 180.773 167.448C180.286 167.315 179.799 167.018 179.426 166.58C178.689 165.717 178.365 164.284 178.979 163.067C179.005 163.014 179.036 162.961 179.062 162.908L179.211 163.08C178.001 163.585 176.667 163.377 175.724 162.801C175.242 162.518 174.86 162.129 174.584 161.722C174.308 161.31 174.137 160.872 174.04 160.465C173.847 159.642 173.939 158.947 174.071 158.509C174.132 158.284 174.202 158.12 174.26 158.009C174.317 157.899 174.347 157.845 174.356 157.85C174.378 157.859 174.264 158.089 174.163 158.531C174.062 158.969 174.001 159.642 174.207 160.425C174.404 161.195 174.917 162.085 175.843 162.611C176.742 163.142 178.005 163.328 179.128 162.859L179.435 162.731L179.277 163.032C179.255 163.076 179.229 163.124 179.202 163.178C178.637 164.284 178.926 165.629 179.606 166.434C179.948 166.846 180.387 167.12 180.843 167.253C181.295 167.395 181.746 167.421 182.154 167.386C182.97 167.315 183.584 167.005 183.944 166.722C184.308 166.439 184.444 166.209 184.461 166.226L184.444 166.231Z" fill="#263238"/>
<path d="M199.855 141.462C199.855 141.462 200.105 141.254 200.605 141.254C201.084 141.245 201.82 141.489 202.233 142.17C202.627 142.86 202.483 143.63 202.241 144.051C202 144.489 201.706 144.63 201.698 144.613C201.667 144.582 201.908 144.396 202.088 143.976C202.272 143.573 202.364 142.887 202.027 142.294C201.676 141.71 201.035 141.458 200.597 141.427C200.145 141.387 199.869 141.506 199.855 141.467V141.462Z" fill="#263238"/>
<g opacity="0.3">
<path d="M208.802 142.11C207.886 142.27 207.495 143.336 207.136 144.203C206.776 145.071 205.925 146.009 205.083 145.615C205.429 146.845 204.855 148.274 203.758 148.916C203.894 150.257 203.219 151.646 202.083 152.359C203.245 153.691 202.908 156.049 201.421 156.996C201.789 159.182 199.991 161.479 197.802 161.625C198.653 162.594 198.675 164.195 197.846 165.187C197.022 166.178 195.451 166.435 194.359 165.757C194.605 166.784 193.377 167.82 192.421 167.395C192.193 168.859 191.122 170.16 189.741 170.66C188.359 171.16 186.715 170.846 185.609 169.864C185.653 171.072 184.649 172.227 183.456 172.337C182.263 172.448 181.065 171.497 180.894 170.298C179.846 171.209 178.346 171.554 177.013 171.196C175.679 170.837 174.548 169.784 174.087 168.47L174.074 168.519C174.622 169.709 174.197 171.249 175.855 172.116C177.052 172.74 179.82 172.488 179.82 172.488C180.679 173.7 181.644 174.497 183.679 174.298C185.044 174.161 186.565 171.789 186.565 171.789C186.565 171.789 188.008 172.873 190.71 172.191C192.456 171.749 194.039 170.461 194.368 168.678C197.105 169.359 200.171 167.089 200.346 164.253C200.39 163.567 200.293 162.855 200.543 162.217C200.82 161.514 201.469 161.04 201.995 160.501C203.197 159.27 203.855 157.514 203.754 155.784C203.697 154.77 203.394 153.735 203.658 152.757C203.877 151.956 204.447 151.31 204.868 150.597C205.293 149.885 205.57 148.965 205.166 148.243C206.622 146.186 208.947 145.708 209.14 142.102C209.03 142.093 208.921 142.093 208.802 142.11Z" fill="black"/>
</g>
<path d="M143.498 127.361C142.454 127.543 141.577 128.379 141.099 129.33C140.678 130.158 140.678 130.215 140.415 131.251C139.901 130.335 138.866 129.844 137.331 130.202C136.318 130.441 135.476 131.388 135.116 132.746C134.849 133.764 134.888 134.923 135.283 135.897C135.594 136.667 136.059 137.41 136.752 137.871C138.13 138.786 139.029 138.618 139.818 138.375C140.033 139.233 142.437 145.685 142.647 146.543L148.822 144.242C148.274 142.862 145.884 136.986 145.336 135.609C146.572 134.892 147.208 134.477 147.73 133.136C148.252 131.795 147.989 130.109 147.204 128.905C146.419 127.706 145.318 127.047 143.494 127.361H143.498Z" fill="#F5F5F5"/>
<path d="M143.499 127.362C143.499 127.362 143.789 127.274 144.359 127.256C144.644 127.256 144.999 127.274 145.399 127.389C145.798 127.504 146.236 127.734 146.631 128.11C147.407 128.849 148.078 130.106 148.083 131.645C148.092 132.411 147.872 133.23 147.429 133.969C147.21 134.34 146.903 134.677 146.543 134.951C146.184 135.225 145.789 135.455 145.39 135.694L145.434 135.57C146.473 138.124 147.657 141.049 148.938 144.199L148.982 144.31L148.868 144.35C146.912 145.08 144.833 145.858 142.692 146.655L142.57 146.699L142.535 146.571C142.464 146.319 142.368 146.031 142.271 145.752C141.399 143.199 140.46 140.77 139.706 138.402L139.85 138.486C139.456 138.61 139.035 138.699 138.613 138.677C138.192 138.663 137.789 138.54 137.42 138.376C137.052 138.203 136.71 138.004 136.399 137.743C136.092 137.482 135.842 137.172 135.635 136.845C135.228 136.19 134.956 135.464 134.872 134.73C134.789 134 134.85 133.274 135.043 132.61C135.236 131.946 135.556 131.336 136.013 130.871C136.456 130.393 137.07 130.119 137.653 130.052C138.232 129.96 138.824 129.995 139.328 130.203C139.837 130.406 140.227 130.791 140.464 131.221L140.337 131.238C140.67 129.588 141.486 128.42 142.219 127.897C142.587 127.628 142.912 127.495 143.135 127.433C143.359 127.366 143.482 127.366 143.482 127.366C143.495 127.397 142.973 127.411 142.258 127.959C141.552 128.49 140.776 129.637 140.464 131.274L140.429 131.451L140.337 131.287C140.109 130.884 139.741 130.53 139.263 130.345C138.789 130.154 138.232 130.128 137.67 130.221C137.105 130.291 136.556 130.548 136.135 131.004C135.71 131.446 135.407 132.03 135.223 132.672C134.855 133.946 134.991 135.477 135.806 136.734C136.004 137.048 136.241 137.34 136.526 137.579C136.811 137.814 137.153 138.013 137.495 138.172C137.846 138.327 138.219 138.438 138.605 138.451C138.991 138.469 139.377 138.389 139.763 138.265L139.872 138.23L139.912 138.349C140.662 140.677 141.609 143.128 142.477 145.677C142.574 145.96 142.67 146.239 142.745 146.513L142.587 146.429C144.727 145.633 146.806 144.858 148.763 144.133L148.697 144.288C147.429 141.133 146.254 138.203 145.223 135.646L145.192 135.566L145.267 135.522C146.065 135.066 146.837 134.601 147.254 133.876C147.688 133.168 147.903 132.384 147.899 131.645C147.907 130.154 147.271 128.92 146.526 128.194C145.767 127.442 144.877 127.327 144.333 127.318C143.771 127.318 143.477 127.384 143.473 127.366L143.499 127.362Z" fill="#263238"/>
<path d="M165.673 161.987C167.094 159.85 166.124 156.514 163.787 155.487C163.221 155.239 162.589 155.102 162.129 154.686C161.62 154.23 161.423 153.531 161.129 152.907C160.462 151.491 159.181 150.389 157.694 149.938C156.822 149.677 155.857 149.615 155.111 149.084C154.501 148.65 154.133 147.96 153.664 147.376C153.194 146.792 152.506 146.27 151.769 146.394C150.427 144.425 150.839 142.172 147.414 140.92C146.186 141.376 144.339 142.916 144.339 142.916C143.304 140.743 141.304 141.553 141.282 142.902C141.751 145.916 138.541 147.562 142.686 151.938C140.848 152.969 139.988 155.483 140.804 157.438C139.896 158.332 139.537 159.753 139.914 160.974C140.287 162.195 141.379 163.164 142.629 163.39C142.339 163.496 142.102 163.709 141.962 163.983C141.067 165.731 140.488 167.151 141.273 168.912L141.287 168.939C142.142 170.842 144.107 171.974 146.164 171.758L165.887 169.651C165.887 169.651 167.247 168.749 167.506 166.218C167.673 164.585 167.076 162.824 165.673 161.992V161.987Z" fill="#EC2024"/>
<g opacity="0.3">
<path d="M155.331 165.656C156.739 165.019 157.95 163.869 158.485 162.408C159.016 160.948 158.787 159.182 157.757 158.028C156.722 156.873 154.875 156.488 153.551 157.284C153.954 156.151 153.533 154.775 152.568 154.067C151.603 153.359 150.173 153.381 149.23 154.12" fill="black"/>
</g>
<path d="M154.585 166.006C155.993 165.369 157.204 164.218 157.739 162.758C158.269 161.298 158.041 159.532 157.011 158.377C155.976 157.222 154.129 156.837 152.805 157.634C153.208 156.501 152.787 155.125 151.822 154.417C150.857 153.709 149.427 153.731 148.484 154.47" fill="#EC2024"/>
<path d="M148.484 154.476C148.484 154.476 148.515 154.44 148.585 154.378C148.655 154.321 148.765 154.241 148.919 154.162C149.226 153.998 149.721 153.812 150.375 153.838C151.011 153.865 151.831 154.131 152.401 154.847C152.962 155.538 153.269 156.626 152.91 157.679L152.743 157.542C153.673 156.967 154.989 156.954 156.072 157.52C156.743 157.861 157.274 158.414 157.607 159.038C157.941 159.666 158.098 160.348 158.12 160.994C158.173 162.303 157.647 163.427 157.05 164.18C156.449 164.945 155.796 165.397 155.335 165.666C155.103 165.799 154.914 165.888 154.787 165.945C154.655 165.998 154.585 166.025 154.585 166.016C154.576 165.998 154.844 165.874 155.291 165.587C155.73 165.299 156.357 164.835 156.919 164.078C157.48 163.334 157.962 162.255 157.901 161.007C157.875 160.392 157.721 159.746 157.405 159.157C157.09 158.569 156.594 158.06 155.967 157.741C154.949 157.21 153.721 157.224 152.862 157.741L152.59 157.905L152.695 157.604C153.028 156.648 152.761 155.622 152.248 154.971C151.73 154.299 150.971 154.029 150.366 153.985C149.748 153.936 149.261 154.095 148.954 154.232C148.647 154.374 148.498 154.493 148.489 154.48L148.484 154.476Z" fill="#263238"/>
<path d="M144.413 148.859C144.391 148.868 144.308 148.58 144.462 148.146C144.602 147.73 145.036 147.168 145.742 147.027C146.453 146.903 147.058 147.266 147.339 147.606C147.633 147.956 147.663 148.248 147.637 148.252C147.598 148.27 147.514 148.009 147.216 147.726C146.931 147.447 146.387 147.16 145.786 147.266C145.19 147.385 144.782 147.85 144.615 148.217C144.44 148.589 144.453 148.863 144.413 148.863V148.859Z" fill="#263238"/>
<g opacity="0.3">
<path d="M165.67 161.988C167.091 159.85 166.122 156.514 163.784 155.487C163.218 155.24 162.587 155.102 162.126 154.686C161.617 154.231 161.42 153.531 161.126 152.908C160.459 151.492 159.179 150.39 157.692 149.938C156.819 149.677 155.854 149.615 155.109 149.084C154.499 148.651 154.131 147.96 153.661 147.376C153.192 146.792 152.503 146.27 151.766 146.394C150.481 144.509 150.797 142.367 147.81 141.084C147.766 141.172 147.736 141.27 147.714 141.376C147.565 142.212 148.345 142.876 148.964 143.451C149.582 144.027 150.113 145.049 149.521 145.651C150.666 145.73 151.696 146.668 151.898 147.81C153.069 148.106 154.034 149.12 154.284 150.314C155.766 149.73 157.652 150.748 157.99 152.319C159.946 152.677 161.332 154.934 160.775 156.859C161.854 156.43 163.214 156.908 163.797 157.921C164.376 158.934 164.109 160.364 163.201 161.089C164.144 161.196 164.639 162.572 163.986 163.262C165.152 163.912 165.92 165.231 165.916 166.576C165.916 167.922 165.135 169.231 163.968 169.877L165.885 169.647C165.885 169.647 167.245 168.745 167.503 166.213C167.67 164.581 167.073 162.82 165.67 161.988Z" fill="black"/>
</g>
<path d="M231.972 164.067C232.161 161.978 231.161 159.823 229.451 158.633C227.74 157.443 225.385 157.266 223.516 158.186C223.63 154.655 220.6 151.323 217.104 151.137C213.608 150.951 210.244 153.947 209.994 157.469C209.152 156.518 207.622 156.279 206.534 156.934C205.446 157.584 204.924 159.058 205.354 160.257C203.854 159.27 201.823 159.168 200.231 160C198.639 160.832 197.551 162.562 197.486 164.368L197.402 174.32C208.03 174.811 218.736 173.523 228.946 170.523C230.521 170.058 232.205 169.47 233.126 168.098C234.047 166.726 233.587 164.377 231.977 164.071L231.972 164.067Z" fill="#FE9300"/>
<path opacity="0.3" d="M231.973 164.067C232.078 162.894 231.811 161.7 231.249 160.664C231.24 161.823 230.692 162.987 229.754 163.669C230.714 164.722 230.727 166.518 229.78 167.585C228.833 168.651 227.065 168.837 225.92 167.992C225.955 169.421 225.078 170.828 223.789 171.417C222.499 172.005 220.872 171.735 219.837 170.762C220.214 171.47 219.53 172.368 218.749 172.505C217.964 172.642 217.192 172.266 216.495 171.89C215.793 171.51 215.052 171.103 214.258 171.165C213.464 171.227 212.679 171.992 212.916 172.758C210.227 171.691 207.017 172.103 204.675 173.811C204.977 171.235 204.653 168.527 203.394 166.266C202.271 164.248 200.337 162.642 198.113 162.138C197.745 162.823 197.512 163.589 197.482 164.372L197.398 174.324C208.026 174.815 218.732 173.527 228.942 170.527C230.416 170.094 231.973 169.545 232.92 168.355C233.135 168.018 233.324 167.664 233.477 167.297C233.841 165.961 233.298 164.324 231.969 164.071L231.973 164.067Z" fill="black"/>
<path d="M200.838 173.997C203.062 171.625 203.461 167.713 201.764 164.93C200.067 162.151 196.422 160.753 193.321 161.691C193.255 157.965 190.891 154.381 187.51 152.885C184.128 151.385 179.913 152.049 177.15 154.518C175.119 152.102 171.72 150.947 168.654 151.633C165.589 152.319 162.992 154.819 162.167 157.877C159.154 156.532 155.575 156.54 152.567 157.903C149.558 159.266 147.176 161.961 146.172 165.129L161.11 175.068C161.189 175.639 184.641 175.364 191.356 174.948C198.119 174.528 200.838 174.001 200.838 174.001V173.997Z" fill="#EC2024"/>
<path d="M193.174 161.962C193.174 161.962 193.165 161.926 193.16 161.855C193.156 161.771 193.147 161.67 193.138 161.537C193.134 161.395 193.121 161.223 193.09 161.019C193.064 160.816 193.042 160.577 192.981 160.316C192.779 159.271 192.318 157.736 191.16 156.156C190.581 155.373 189.831 154.594 188.893 153.926C187.954 153.258 186.81 152.736 185.529 152.461C184.248 152.191 182.836 152.165 181.419 152.461C180.002 152.749 178.586 153.386 177.362 154.359L177.279 154.426L177.204 154.346C175.63 152.643 173.2 151.527 170.643 151.527C169.638 151.541 168.638 151.704 167.731 152.076C166.823 152.448 165.989 152.966 165.248 153.563C163.779 154.78 162.638 156.315 162.046 157.966L162.007 158.081L161.897 158.032C160.713 157.488 159.494 157.147 158.31 157.014C157.125 156.891 155.976 156.961 154.928 157.2C152.818 157.661 151.174 158.714 149.972 159.714C148.761 160.718 147.976 161.709 147.498 162.413C147.257 162.767 147.086 163.046 146.976 163.24C146.924 163.329 146.884 163.4 146.849 163.457C146.818 163.506 146.805 163.528 146.801 163.528C146.801 163.528 146.972 163.094 147.437 162.369C147.902 161.647 148.674 160.639 149.884 159.608C151.086 158.585 152.744 157.501 154.884 157.019C155.946 156.767 157.117 156.687 158.327 156.811C159.538 156.939 160.779 157.284 161.985 157.833L161.836 157.899C162.441 156.2 163.599 154.629 165.099 153.386C165.853 152.771 166.709 152.24 167.643 151.859C168.577 151.474 169.608 151.306 170.643 151.293C173.266 151.293 175.761 152.439 177.375 154.191L177.217 154.178C178.476 153.182 179.924 152.532 181.375 152.249C182.823 151.948 184.266 151.983 185.568 152.266C186.875 152.554 188.042 153.094 188.994 153.784C189.945 154.475 190.704 155.271 191.279 156.072C192.437 157.683 192.88 159.249 193.055 160.302C193.226 161.373 193.169 161.962 193.169 161.962H193.174Z" fill="#263238"/>
<path opacity="0.3" d="M187.13 165.944C186.209 165.002 184.704 164.688 183.489 165.188C183.323 162.732 181.283 160.541 178.862 160.218C176.446 159.9 173.91 161.488 173.125 163.816C172.244 162.546 170.779 161.705 169.244 161.59C167.709 161.475 166.139 162.095 165.086 163.223L187.827 169.626C188.34 168.405 188.051 166.887 187.13 165.944Z" fill="black"/>
<path d="M164.367 163.903C165.42 162.774 166.994 162.155 168.525 162.27C170.06 162.38 171.525 163.226 172.407 164.496C173.192 162.168 175.727 160.579 178.143 160.898C180.56 161.217 182.604 163.411 182.771 165.867C183.986 165.367 185.49 165.677 186.411 166.624C187.332 167.566 187.622 169.089 187.108 170.306" fill="#EC2024"/>
<path d="M187.109 170.306C187.109 170.306 187.175 170.115 187.249 169.757C187.319 169.398 187.372 168.845 187.197 168.182C187.03 167.531 186.613 166.748 185.811 166.243C185.03 165.743 183.876 165.527 182.806 165.96L182.675 166.013L182.666 165.872C182.587 164.734 182.065 163.522 181.14 162.584C180.232 161.646 178.903 160.951 177.469 160.982C176.311 160.995 175.205 161.42 174.337 162.071C173.464 162.721 172.833 163.606 172.508 164.531L172.438 164.734L172.315 164.562C171.547 163.456 170.42 162.774 169.359 162.5C168.289 162.221 167.289 162.349 166.53 162.597C165.762 162.845 165.227 163.208 164.881 163.473C164.539 163.743 164.376 163.92 164.363 163.907C164.363 163.907 164.394 163.858 164.473 163.77C164.547 163.681 164.67 163.562 164.837 163.42C165.17 163.133 165.71 162.748 166.486 162.473C167.258 162.203 168.284 162.049 169.398 162.323C170.499 162.588 171.675 163.283 172.486 164.434L172.293 164.46C172.626 163.487 173.284 162.562 174.188 161.88C175.091 161.203 176.24 160.752 177.455 160.743C178.964 160.712 180.35 161.442 181.293 162.42C182.249 163.403 182.789 164.668 182.859 165.858L182.719 165.77C183.868 165.319 185.074 165.562 185.89 166.102C186.727 166.646 187.148 167.474 187.302 168.155C187.464 168.845 187.39 169.412 187.302 169.775C187.254 169.956 187.21 170.093 187.166 170.182C187.126 170.27 187.104 170.314 187.1 170.314L187.109 170.306Z" fill="#263238"/>
<path opacity="0.3" d="M199.974 169.116C199.119 170.372 197.698 171.28 196.189 171.288C194.68 171.293 193.158 170.271 192.79 168.797C192.544 170.877 190.641 172.527 188.584 172.811C186.527 173.094 184.426 172.187 182.913 170.749C182.571 172.881 180.694 174.665 178.562 174.882C176.43 175.103 174.237 173.735 173.474 171.718C172.505 173.027 170.746 173.687 169.163 173.337C167.58 172.988 166.259 171.642 165.922 170.041C164.838 171.08 163.009 170.903 161.773 170.054C160.536 169.204 159.751 167.846 159.009 166.536L157.566 170.448C157.873 171.47 158.211 172.523 158.707 173.461L161.115 175.063C161.194 175.634 184.645 175.359 191.36 174.943C196.321 174.634 199.106 174.266 200.237 174.094C200.562 173.948 200.878 173.784 201.18 173.598C202.794 171.585 203.242 168.695 202.391 166.262C202.014 165.74 201.588 165.239 201.163 164.779C201.163 166.301 200.834 167.859 199.979 169.116H199.974Z" fill="black"/>
<path d="M164.23 175.231C164.287 173.819 164.181 173.346 163.326 172.447C162.471 171.549 161.094 171.195 159.914 171.567C160.537 169.412 159.756 166.912 158.019 165.505C156.282 164.097 153.695 163.872 151.743 164.951C151.646 162.947 150.524 161.018 148.835 159.956C147.146 158.894 144.936 158.734 143.111 159.535C141.822 155.292 137.032 152.473 132.734 153.429C128.436 154.389 125.269 158.978 125.874 163.376C124.445 163.018 122.844 163.456 121.782 164.491C120.725 165.527 120.243 167.129 120.554 168.584C120.554 168.584 126.581 172.518 142.357 173.748C158.138 174.978 164.23 175.231 164.23 175.231Z" fill="#FE9300"/>
<g opacity="0.3">
<path d="M130.349 163.531C129.56 165.589 130.481 168.164 132.389 169.244C134.297 170.324 136.955 169.766 138.279 168.009C138.648 169.638 140.235 170.899 141.889 170.872C143.547 170.846 145.095 169.54 145.415 167.903L130.349 163.531Z" fill="black"/>
</g>
<path d="M130.759 162.205C129.97 164.263 130.891 166.838 132.799 167.918C134.707 168.997 137.365 168.44 138.689 166.683C139.058 168.312 140.645 169.573 142.299 169.546C143.957 169.52 145.505 168.214 145.825 166.577" fill="#FE9300"/>
<path d="M145.825 166.578C145.825 166.578 145.825 166.649 145.799 166.778C145.777 166.906 145.724 167.092 145.632 167.326C145.448 167.786 145.053 168.437 144.308 168.963C143.939 169.225 143.483 169.45 142.957 169.57C142.43 169.68 141.83 169.685 141.246 169.503C140.084 169.167 138.917 168.158 138.575 166.716L138.786 166.76C138.47 167.18 138.058 167.556 137.584 167.848C136.189 168.707 134.488 168.786 133.189 168.233C131.873 167.671 131.08 166.539 130.724 165.556C130.356 164.552 130.382 163.658 130.483 163.083C130.54 162.791 130.602 162.569 130.663 162.428C130.72 162.282 130.751 162.211 130.759 162.211C130.786 162.22 130.659 162.521 130.58 163.096C130.505 163.667 130.509 164.53 130.887 165.494C131.251 166.441 132.027 167.512 133.277 168.03C134.509 168.543 136.137 168.459 137.461 167.645C137.909 167.366 138.299 167.012 138.602 166.618L138.755 166.419L138.812 166.667C139.123 168.008 140.216 168.977 141.312 169.309C141.865 169.486 142.426 169.49 142.926 169.393C143.426 169.286 143.865 169.083 144.229 168.84C144.957 168.348 145.356 167.733 145.562 167.295C145.768 166.853 145.812 166.578 145.834 166.587L145.825 166.578Z" fill="#263238"/>
<path opacity="0.3" d="M218.746 163.373C218.469 161.2 216.132 159.54 214.013 160.01C211.895 160.479 210.461 162.974 211.11 165.063C209.978 164.541 208.57 164.682 207.562 165.421C206.553 166.16 205.987 167.466 206.132 168.718L221.535 163.235C220.68 162.731 219.255 162.518 218.746 163.373Z" fill="black"/>
<path d="M206.327 169.243C206.182 167.995 206.748 166.69 207.757 165.947C208.766 165.208 210.174 165.066 211.305 165.588C210.656 163.5 212.09 161.004 214.209 160.535C216.327 160.066 218.665 161.725 218.941 163.898C219.45 163.044 220.682 162.725 221.538 163.23" fill="#FE9300"/>
<path d="M221.537 163.235C221.528 163.261 221.291 163.084 220.796 163.044C220.55 163.031 220.239 163.058 219.914 163.19C219.59 163.319 219.243 163.562 219.015 163.943L218.897 164.142L218.866 163.912C218.739 162.894 217.997 161.673 216.695 161.013C216.059 160.682 215.278 160.505 214.497 160.611C213.717 160.717 212.949 161.128 212.383 161.757C211.883 162.283 211.559 162.943 211.383 163.602C211.221 164.27 211.234 164.952 211.414 165.558L211.484 165.797L211.261 165.695C210.291 165.253 209.221 165.323 208.423 165.677C207.607 166.031 207.072 166.66 206.774 167.235C206.467 167.815 206.383 168.341 206.353 168.695C206.326 169.054 206.353 169.248 206.331 169.248C206.326 169.248 206.313 169.2 206.3 169.107C206.287 169.014 206.274 168.872 206.278 168.691C206.287 168.328 206.353 167.784 206.651 167.173C206.945 166.571 207.493 165.894 208.348 165.505C209.186 165.12 210.313 165.022 211.357 165.491L211.204 165.629C211.006 164.987 210.989 164.257 211.16 163.549C211.344 162.85 211.686 162.155 212.212 161.597C212.813 160.929 213.633 160.487 214.471 160.381C215.309 160.27 216.129 160.465 216.796 160.819C218.155 161.522 218.914 162.819 219.024 163.894L218.879 163.863C219.138 163.447 219.524 163.199 219.87 163.075C220.221 162.947 220.55 162.934 220.804 162.96C221.063 162.991 221.247 163.067 221.37 163.124C221.489 163.19 221.546 163.23 221.541 163.235H221.537Z" fill="#263238"/>
<path d="M129.785 175.23L119.035 172.566L132.509 248.76H140.54C137.268 228.737 129.952 176.367 129.79 175.23H129.785Z" fill="#455A64"/>
<path d="M157.499 175.868L144.547 174.559C144.696 175.227 148.613 223.357 150.674 248.766H162.455L157.503 175.873L157.499 175.868Z" fill="#455A64"/>
<path d="M183.241 174.77H170.754V248.76H183.241V174.77Z" fill="#455A64"/>
<path d="M209.241 174.553L197.776 175.902L192.004 248.76H202.916L209.241 174.553Z" fill="#455A64"/>
<path d="M234.056 172.572L224.626 175.431L223.574 176.241L212.543 248.762H219.096L234.056 172.572Z" fill="#455A64"/>
<path d="M235.487 176.555H116.404C114.066 176.387 112.711 175.024 112.711 173.338C112.711 171.652 114.066 170.289 115.733 170.289H234.816C236.487 170.289 237.838 171.656 237.838 173.338C237.838 175.024 236.483 176.387 235.483 176.555H235.487Z" fill="#455A64"/>
<path d="M234.632 176.555C234.632 176.616 208.825 176.67 176.996 176.67C145.167 176.67 119.355 176.616 119.355 176.555C119.355 176.493 145.158 176.439 176.996 176.439C208.833 176.439 234.632 176.493 234.632 176.555Z" fill="#263238"/>
<path d="M71.6011 107.066L71.509 96.5739C71.4914 94.6402 70.7458 92.7817 69.4213 91.3834L52.645 74.834L47.9344 80.1174L63.6537 95.3261L63.2634 162.794C65.816 163.378 68.6186 165.024 71.3028 164.343L71.6055 107.066H71.6011Z" fill="#EC2024"/>
<path d="M105.805 153.111L95.638 242.863C95.2652 246.142 92.5284 248.625 89.2565 248.651L40.7697 249.045L28.8881 153.868L105.805 153.111Z" fill="#E0E0E0"/>
<path d="M101.508 153.151L92.4026 240.482C92.1482 242.925 90.1175 244.783 87.6833 244.801L48.0824 245.12C45.6438 245.137 43.5781 243.301 43.293 240.854L33.1789 153.824L101.508 153.146V153.151Z" fill="#EC2024"/>
<path opacity="0.2" d="M101.508 153.151L92.4026 240.482C92.1482 242.925 90.1175 244.783 87.6833 244.801L48.0824 245.12C45.6438 245.137 43.5781 243.301 43.293 240.854L33.1789 153.824L101.508 153.146V153.151Z" fill="#FE9300"/>
<path d="M28.8889 153.712C28.8889 154.748 46.7485 159.478 67.095 159.297C87.4415 159.115 105.683 154.199 105.805 153.11C106.086 150.619 87.3625 150.044 67.0161 150.221C46.6696 150.402 28.8845 151.203 28.8889 153.708V153.712Z" fill="#EC2024"/>
<path d="M49.1235 76.4437C47.834 77.9128 47.3033 79.5634 47.9349 80.1253C48.5665 80.6873 50.1191 79.9483 51.4086 78.4792C52.698 77.0101 53.2287 75.3596 52.5972 74.7976C51.9656 74.2357 50.413 74.9746 49.1235 76.4437Z" fill="#EC2024"/>
<path opacity="0.3" d="M49.1235 76.4437C47.834 77.9128 47.3033 79.5634 47.9349 80.1253C48.5665 80.6873 50.1191 79.9483 51.4086 78.4792C52.698 77.0101 53.2287 75.3596 52.5972 74.7976C51.9656 74.2357 50.413 74.9746 49.1235 76.4437Z" fill="black"/>
<path d="M48.9418 80.3732C48.9506 80.3953 49.2883 80.3245 49.7927 80.0856C50.297 79.8466 50.9505 79.4085 51.5251 78.7713C52.0997 78.1341 52.4725 77.435 52.6655 76.9084C52.8584 76.3819 52.8979 76.0323 52.8716 76.0279C52.8058 75.9969 52.4988 77.3819 51.3628 78.6209C50.2444 79.8732 48.9067 80.3068 48.9418 80.3732Z" fill="#263238"/>
<path d="M66.1168 94.5988C66.0992 94.5413 65.5466 94.6563 64.8887 94.8599C64.2264 95.0634 63.7045 95.2758 63.722 95.3333C63.7396 95.3909 64.2922 95.2758 64.9501 95.0723C65.6124 94.8687 66.1343 94.6563 66.1168 94.5988Z" fill="#263238"/>
<path d="M66.3045 95.8303C66.3176 95.7683 65.765 95.6046 65.072 95.4586C64.379 95.3126 63.8088 95.2418 63.7957 95.3037C63.7825 95.3657 64.3352 95.5294 65.0281 95.6754C65.7211 95.8214 66.2913 95.8922 66.3045 95.8303Z" fill="#263238"/>
<path d="M28.0717 150.195H108.558C110.157 150.195 111.453 151.503 111.453 153.116V154.762C111.453 156.375 110.157 157.682 108.558 157.682H28.0717C26.4729 157.682 25.1769 156.375 25.1769 154.762V153.116C25.1769 151.503 26.4729 150.195 28.0717 150.195Z" fill="#E0E0E0"/>
<path d="M25.4183 155.013C25.4183 155.013 25.5587 155.017 25.835 155.022C26.1157 155.022 26.528 155.026 27.0718 155.031C28.164 155.031 29.778 155.039 31.8613 155.048C36.0499 155.057 42.1376 155.066 49.7648 155.079C65.0455 155.093 86.4884 155.106 111.159 155.124H111.225L111.252 155.07C111.453 154.646 111.651 154.194 111.681 153.699C111.725 153.212 111.69 152.703 111.554 152.221C111.287 151.252 110.769 150.353 110.098 149.579L110.129 149.65C109.896 146.145 109.181 142.636 108.173 139.167C107.659 137.432 107.037 135.716 106.344 134.021C105.633 132.33 104.831 130.667 103.923 129.047C100.817 123.485 96.4928 118.737 91.4183 115.405C88.8876 113.732 86.1946 112.405 83.449 111.347C82.756 111.108 82.063 110.869 81.3744 110.63C81.0323 110.502 80.6814 110.409 80.3306 110.316C79.9797 110.219 79.6288 110.126 79.2823 110.033C77.8963 109.613 76.4797 109.391 75.0893 109.095C74.392 108.962 73.6858 108.891 72.9928 108.79C72.6464 108.741 72.2955 108.697 71.949 108.648L71.4314 108.577L70.9051 108.551C70.5543 108.533 70.2078 108.515 69.8569 108.502C69.5104 108.502 69.1639 108.502 68.8218 108.502C68.1332 108.502 67.449 108.502 66.7648 108.502C66.4227 108.52 66.0806 108.537 65.7385 108.551L65.2297 108.577L64.7253 108.644C64.0543 108.736 63.3876 108.825 62.7253 108.918C62.3964 108.967 62.063 109.002 61.7341 109.059C61.4095 109.126 61.085 109.192 60.7604 109.259C60.1113 109.391 59.4665 109.52 58.8262 109.652C58.1902 109.803 57.5674 109.989 56.9402 110.152C56.3174 110.329 55.6902 110.471 55.0937 110.697C54.4885 110.905 53.892 111.113 53.2955 111.321L52.8481 111.476L52.4139 111.661C52.1244 111.785 51.8394 111.905 51.5499 112.029C49.2429 112.971 47.1245 114.179 45.1552 115.467C44.6727 115.803 44.1946 116.139 43.7166 116.471C43.2385 116.799 42.8087 117.188 42.3569 117.538C41.4446 118.228 40.6464 119.025 39.8262 119.764C39.4315 120.149 39.0587 120.556 38.6815 120.941C38.4929 121.135 38.3043 121.33 38.1201 121.525C37.9446 121.728 37.7692 121.932 37.5982 122.135C37.2517 122.542 36.9096 122.945 36.5718 123.343C36.2561 123.759 35.9446 124.175 35.6332 124.582C35.3131 124.985 35.028 125.405 34.7517 125.826C34.471 126.246 34.1859 126.649 33.9227 127.069C33.4183 127.914 32.8964 128.729 32.4622 129.565C31.5411 131.211 30.8131 132.861 30.1552 134.432C28.8876 137.601 28.0455 140.534 27.5017 143.11C26.949 145.681 26.6683 147.889 26.5675 149.65L26.5762 149.628C25.2692 151.141 24.971 152.699 25.0631 153.641C25.0762 153.761 25.085 153.871 25.0938 153.977L25.1552 154.261C25.1859 154.438 25.2341 154.579 25.278 154.69C25.3613 154.911 25.4008 155.017 25.4008 155.017C25.4008 155.017 25.3657 154.902 25.2912 154.681C25.2473 154.57 25.2078 154.433 25.1771 154.256C25.1596 154.168 25.1376 154.075 25.1201 153.973C25.1113 153.871 25.1025 153.756 25.0938 153.641C25.0631 153.168 25.1069 152.557 25.3394 151.867C25.5675 151.181 25.9754 150.407 26.6201 149.676L26.6289 149.668V149.654C26.7429 147.902 27.0324 145.698 27.5938 143.132C28.1464 140.565 28.9929 137.64 30.2692 134.481C30.9271 132.915 31.6596 131.273 32.5806 129.631C33.0104 128.795 33.5368 127.99 34.0411 127.144C34.3043 126.728 34.5938 126.326 34.8701 125.91C35.1508 125.494 35.4359 125.074 35.7517 124.675C36.0631 124.268 36.3745 123.857 36.6903 123.441C37.028 123.042 37.3701 122.644 37.7122 122.237C37.8832 122.038 38.0587 121.834 38.2341 121.631C38.4183 121.436 38.6069 121.246 38.7955 121.051C39.1727 120.666 39.5455 120.264 39.9359 119.879C40.756 119.144 41.5499 118.352 42.4578 117.666C42.9052 117.317 43.335 116.936 43.8131 116.609C44.2867 116.277 44.7648 115.945 45.2429 115.608C47.2078 114.334 49.313 113.13 51.6113 112.197C51.8964 112.077 52.1815 111.953 52.4709 111.834L52.9008 111.653L53.3437 111.498C53.9358 111.294 54.5323 111.086 55.1332 110.878C55.7297 110.652 56.3525 110.511 56.9753 110.338C57.5981 110.175 58.2165 109.989 58.8525 109.843C59.4929 109.714 60.1332 109.586 60.7779 109.453C61.1025 109.387 61.4227 109.325 61.7472 109.259C62.0718 109.201 62.4051 109.166 62.7341 109.117C63.392 109.029 64.0586 108.936 64.7253 108.847L65.2253 108.781L65.7297 108.754C66.0674 108.736 66.4051 108.723 66.7429 108.705C67.4227 108.705 68.1113 108.705 68.7955 108.705C69.1376 108.705 69.4841 108.705 69.8306 108.705L70.8613 108.759L71.3788 108.785L71.8964 108.856C72.2428 108.905 72.5893 108.949 72.9358 108.998C73.6288 109.099 74.3306 109.17 75.0235 109.303C76.4051 109.599 77.8174 109.816 79.199 110.237C79.5455 110.329 79.892 110.427 80.2428 110.52C80.5937 110.613 80.9402 110.706 81.2823 110.834L83.3481 111.551C86.0762 112.604 88.7516 113.927 91.2691 115.586C96.313 118.896 100.611 123.618 103.699 129.153C104.602 130.764 105.401 132.419 106.111 134.1C106.8 135.791 107.423 137.494 107.931 139.225C108.936 142.681 109.651 146.185 109.883 149.654V149.694L109.914 149.725C110.559 150.464 111.067 151.349 111.322 152.274C111.453 152.739 111.484 153.216 111.445 153.672C111.418 154.137 111.234 154.562 111.045 154.964L111.138 154.911C86.4884 154.929 65.063 154.947 49.7955 154.955C42.1595 154.969 36.0631 154.978 31.8745 154.986C29.7824 154.995 28.1639 155 27.0675 155.004C26.5236 155.004 26.1069 155.009 25.8218 155.013C25.5411 155.013 25.3964 155.022 25.3964 155.022L25.4183 155.013Z" fill="#263238"/>
<path d="M28.3578 157.669C28.3578 157.731 46.0156 157.78 67.7919 157.78C89.5682 157.78 107.23 157.731 107.23 157.669C107.23 157.607 89.577 157.559 67.7919 157.559C46.0069 157.559 28.3578 157.607 28.3578 157.669Z" fill="#263238"/>
<path d="M60.4045 112.817C60.4045 112.817 60.5975 112.794 60.9352 112.715C61.2729 112.631 61.7641 112.52 62.3694 112.401C63.5843 112.153 65.2773 111.896 67.1676 111.817C69.0536 111.741 70.7641 111.861 71.9966 112.007C72.6106 112.082 73.1106 112.148 73.4527 112.206C73.7948 112.259 73.9878 112.281 73.9922 112.263C73.9922 112.25 73.808 112.197 73.4703 112.117C73.1325 112.038 72.6369 111.94 72.0185 111.848C70.7861 111.657 69.0624 111.516 67.1589 111.591C65.2554 111.671 63.5492 111.954 62.3387 112.241C61.7334 112.383 61.2466 112.52 60.9133 112.626C60.5799 112.733 60.4001 112.799 60.4045 112.812V112.817Z" fill="#263238"/>
<g opacity="0.2">
<path d="M34.7151 167.036C37.8949 169.222 43.4431 169.952 47.987 170.373C52.5264 170.793 57.1799 170.824 61.5835 171.669C65.987 172.514 70.2808 174.377 71.7983 177.236C72.6141 178.776 72.5571 180.448 73.0703 182.041C74.0922 185.218 77.5264 188.015 82.022 189.329C86.5176 190.643 93.3817 190.449 97.6273 188.812L101.035 157.664L33.6493 157.779L34.7151 167.027V167.036Z" fill="black"/>
</g>
<path d="M91.3136 218.328C91.3136 218.328 85.0591 185.308 84.4883 182.092L89.5964 179.115L93.8387 180.755L100.079 223.497L92.552 226.147L91.3185 218.328H91.3136Z" fill="#FFBF9D"/>
<path d="M102.199 177.909C102.199 177.909 102.857 200.626 103.186 205.341C103.515 210.055 105.16 222.798 105.16 222.798L110.988 221.983L109.092 178.26L104.657 177.074L102.199 177.904V177.909Z" fill="#FFBF9D"/>
<path d="M78.2295 205.858L67.9648 180.295C69.1016 178.855 70.5237 177.674 72.1394 176.82C73.2713 176.537 74.4371 176.381 75.6028 176.352L91.0046 218.649L85.3015 221.528L78.2295 205.863V205.858Z" fill="#FFBF9D"/>
<path d="M76.7188 175.478L83.0362 211.724L87.7767 218.683L91.095 218.029C91.095 218.029 85.4064 179.905 83.2393 174.854L76.7188 175.483V175.478Z" fill="#FE9300"/>
<path d="M93.8164 171.584L97.3863 223.344L104.855 222.236L102.243 174.248L99.4034 170.988L93.8164 171.584Z" fill="#FE9300"/>
<path opacity="0.3" d="M94.8403 186.421C94.8451 186.509 98.4005 186.353 98.9132 187.016C99.426 187.68 101.554 204.102 101.554 204.102H98.0328L97.4088 187.148L94.6758 187.026L94.8354 186.416L94.8403 186.421Z" fill="black"/>
<path d="M94.9708 216.793L89.9062 189.6C91.2994 188.419 92.9247 187.541 94.6758 187.024C95.8415 186.98 97.0121 187.058 98.1634 187.253L104.911 231.815L98.7777 233.557L94.9757 216.789L94.9708 216.793Z" fill="#FE9300"/>
<path d="M109.895 169.061L107.578 224.404C107.578 224.404 113.775 226.273 113.615 225.707C113.455 225.14 117.465 169.896 117.465 169.896L112.86 168.109L109.89 169.066L109.895 169.061Z" fill="#FE9300"/>
<path d="M126.008 184.535L114.055 219.361L121.436 221.884L132.267 188.864L131.89 186.224L126.008 184.535Z" fill="#FE9300"/>
<path d="M118.267 173.52C118.098 174.008 112.414 223.509 112.414 223.509L120.071 218.4L125.034 175.878L122.538 173.379L118.267 173.52Z" fill="#FFBF9D"/>
<path d="M133.96 183.057C133.698 183.34 121.586 212.431 121.586 212.431L129.069 216.74L140.814 185.448L133.964 183.062L133.96 183.057Z" fill="#FFBF9D"/>
<path d="M117.164 182.515C117.164 182.515 121.165 183.871 121.581 184.53C121.997 185.189 117.885 204.095 117.885 204.095H113.348L117.164 182.51V182.515Z" fill="#FE9300"/>
<path d="M107.896 211.846L112.221 184.604C113.928 183.97 115.747 183.696 117.561 183.814C118.679 184.17 119.757 184.643 120.773 185.229L112.289 229.454L105.918 228.932L107.892 211.846H107.896Z" fill="#FFBF9D"/>
<path d="M80.941 253.218C80.941 252.515 70.6328 196.85 70.6328 196.85H77.5549L84.09 204.102H123.731L131.495 196.27H140.42L130.682 253.218H80.9361H80.941Z" fill="#EC2024"/>
<path d="M75.4727 223.046C75.4727 223.046 135.798 222.235 135.798 223.046C135.798 223.856 132.813 240.8 132.813 240.8H78.7281L75.4727 223.046Z" fill="#FE9300"/>
<path d="M159.785 239.419C159.785 239.419 160.083 247.423 162.206 250.596C163.711 252.844 163.754 256.154 184.246 259.455C204.732 262.756 231.939 260.672 239.342 257.893C246.746 255.114 249.846 249.556 250.36 247.295C250.877 245.038 251.75 239.826 251.75 239.826L162.724 236.697L159.785 239.419Z" fill="#FE9300"/>
<g opacity="0.3">
<path d="M249.829 235.997L159.785 239.191C159.825 240.709 159.965 242.214 160.184 243.709L162.373 244.55C162.79 244.709 163.175 244.939 163.496 245.254C165.447 247.174 165.925 250.59 168.364 251.896C171.364 253.506 174.991 250.82 178.355 251.303C182.557 251.904 185.219 257.223 189.456 257.073C192.991 256.944 195.513 252.962 199.048 252.851C202.364 252.745 204.886 256.064 208.167 256.564C213.206 257.334 217.535 251.289 222.531 252.307C224.851 252.781 226.649 254.71 228.939 255.307C232.241 256.166 235.557 254.073 238.132 251.812C240.702 249.55 243.259 246.895 246.623 246.307L250.592 246.187L251.956 238.581L249.829 235.992V235.997Z" fill="black"/>
</g>
<path d="M159.46 230.367C157.521 230.496 155.499 230.81 153.933 231.978C152.368 233.142 151.442 235.385 152.311 237.137C153.179 238.89 155.354 239.478 157.293 239.633C159.227 239.788 161.319 239.748 162.907 240.877C165.376 242.633 165.701 246.589 168.368 248.018C171.368 249.629 174.995 246.943 178.359 247.426C182.56 248.027 185.223 253.346 189.46 253.196C192.995 253.067 195.517 249.085 199.052 248.974C202.367 248.868 204.889 252.187 208.17 252.687C213.21 253.457 217.538 247.412 222.534 248.43C224.854 248.903 226.653 250.833 228.942 251.43C232.245 252.289 235.56 250.196 238.135 247.934C240.705 245.673 243.262 243.018 246.626 242.43C248.477 242.107 250.376 242.461 252.253 242.368C254.131 242.279 256.188 241.571 257.017 239.872C257.916 238.036 256.977 235.721 255.411 234.42C253.845 233.124 251.802 232.602 249.832 232.115" fill="#455A64"/>
<path opacity="0.3" d="M158.727 230.424C158.727 230.424 162.591 248.208 204.871 246.89C247.156 245.575 248.077 238.531 249.893 233.725C251.709 228.92 158.727 230.424 158.727 230.424Z" fill="black"/>
<path d="M160.868 220.308C160.868 220.308 155.337 228.038 162.052 234.29C168.767 240.543 175.311 244.539 206.644 244.711C237.978 244.884 244.004 239.676 248.135 236.025C252.267 232.379 252.666 226.122 250.364 223.547C248.061 220.971 159.122 219.352 159.293 219.524C159.465 219.697 160.864 220.308 160.864 220.308H160.868Z" fill="#AE7461"/>
<path opacity="0.3" d="M159.231 223.809C159.231 223.809 206.81 240.402 214.275 248.898C214.275 248.898 243.551 228.942 251.196 224.906L248.81 220.309L160.319 221.207C159.849 221.995 159.481 222.862 159.227 223.809H159.231Z" fill="black"/>
<path d="M158.015 208.751C157.081 208.923 148.129 213.091 148.129 213.091V218.127C148.129 218.127 197.541 229.07 214.243 244.704C214.243 244.704 240.067 223.163 260.73 218.127V213.959L248.848 208.746H158.015V208.751Z" fill="#FFBA6E"/>
<path d="M148.262 214.119C148.262 214.119 148.372 214.137 148.578 214.177C148.793 214.221 149.1 214.287 149.499 214.376C150.315 214.557 151.508 214.818 153.043 215.159C153.429 215.248 153.837 215.327 154.258 215.438C154.679 215.553 155.122 215.668 155.587 215.796C156.512 216.044 157.521 216.314 158.6 216.606C159.139 216.756 159.701 216.894 160.275 217.066C160.846 217.243 161.438 217.425 162.043 217.61C163.258 217.987 164.538 218.38 165.885 218.796C171.231 220.584 177.543 222.889 184.411 225.792C191.28 228.695 198.723 232.147 206.376 236.094C209.161 237.523 211.876 238.983 214.433 240.421L214.31 240.43C220.411 235.979 226.394 232.147 231.889 228.854C237.389 225.567 242.438 222.881 246.736 220.819C247.271 220.557 247.793 220.305 248.306 220.057C248.823 219.823 249.323 219.597 249.81 219.38C250.788 218.942 251.701 218.522 252.565 218.146C254.31 217.442 255.793 216.81 257.025 216.345C258.258 215.902 259.218 215.562 259.872 215.327C260.192 215.217 260.437 215.128 260.609 215.071C260.775 215.013 260.863 214.991 260.863 214.991C260.863 214.991 260.78 215.031 260.617 215.093C260.446 215.159 260.201 215.252 259.885 215.371C259.231 215.615 258.28 215.969 257.052 216.425C255.823 216.898 254.345 217.544 252.609 218.256C251.749 218.633 250.837 219.062 249.863 219.504C249.376 219.726 248.876 219.956 248.363 220.19C247.854 220.438 247.332 220.695 246.797 220.956C242.512 223.035 237.477 225.73 231.99 229.031C226.508 232.332 220.53 236.169 214.442 240.62L214.381 240.665L214.315 240.629C211.762 239.196 209.047 237.735 206.267 236.306C198.622 232.363 191.183 228.907 184.324 225.996C177.464 223.084 171.166 220.761 165.828 218.956C164.486 218.535 163.205 218.133 161.995 217.752C161.389 217.562 160.802 217.376 160.231 217.199C159.661 217.022 159.1 216.88 158.56 216.73C157.481 216.433 156.477 216.155 155.556 215.902C155.096 215.774 154.653 215.655 154.231 215.535C153.81 215.425 153.403 215.34 153.017 215.248C151.486 214.889 150.297 214.615 149.486 214.424C149.087 214.327 148.784 214.256 148.569 214.203C148.363 214.155 148.258 214.119 148.258 214.119H148.262Z" fill="#263238"/>
<path d="M207.915 202.927C198.744 203.679 181.538 213.388 196.077 227.256C210.617 241.124 230.292 229.822 232.292 220.278C233.867 212.755 224.985 201.533 207.911 202.932L207.915 202.927Z" fill="#EC2024"/>
<g opacity="0.3">
<path d="M207.915 202.927C198.744 203.679 181.538 213.388 196.077 227.256C210.617 241.124 230.292 229.822 232.292 220.278C233.867 212.755 224.985 201.533 207.911 202.932L207.915 202.927Z" fill="black"/>
</g>
<path d="M207.915 201.312C198.744 202.064 181.538 211.773 196.077 225.641C210.617 239.508 230.292 228.207 232.292 218.662C233.867 211.14 224.985 199.918 207.911 201.316L207.915 201.312Z" fill="#EC2024"/>
<g opacity="0.3">
<path d="M196.745 211.887C195.75 210.834 197.93 206.179 205.631 204.241C213.333 202.303 219.109 205.042 218.517 205.953C217.925 206.865 216.886 211.431 209.482 212.688C202.565 213.861 197.93 213.144 196.745 211.887Z" fill="black"/>
</g>
<g opacity="0.3">
<path d="M223.559 209.834C224.673 209.356 231.41 214.742 228.002 219.99C224.594 225.238 220.151 228.433 217.042 227.406C213.932 226.379 212.893 220.645 215.265 216.653C217.634 212.657 222.226 210.405 223.559 209.834Z" fill="black"/>
</g>
<g opacity="0.3">
<path d="M194.525 215.537C195.227 214.533 203.986 214.254 208.152 216.652C212.319 219.051 213.876 226.909 212.692 228.387C211.464 229.918 202.376 227.52 198.819 224.781C195.262 222.042 193.486 217.019 194.525 215.537Z" fill="black"/>
</g>
<path d="M199.562 208.422C198.272 209.324 202.079 212.572 202.671 211.771C203.263 210.97 200.597 207.692 199.562 208.422Z" fill="#EC2024"/>
<path d="M203.656 206.18C202.919 206.374 204.748 212.481 206.524 211.897C208.3 211.313 204.936 205.835 203.656 206.18Z" fill="#EC2024"/>
<path d="M208.598 205.154C207.857 205.384 208.748 209.185 210.226 209.052C211.708 208.919 209.335 204.928 208.598 205.154Z" fill="#EC2024"/>
<path d="M213.96 204.695C212.188 204.695 212.46 209.983 213.96 210.107C215.46 210.227 216.403 204.7 213.96 204.695Z" fill="#EC2024"/>
<path d="M203.905 217.122C203.642 216.463 196.647 217.149 197.239 218.521C197.831 219.892 204.471 218.543 203.905 217.122Z" fill="#EC2024"/>
<path d="M209.357 221.883C210.2 222.003 210.011 227.339 208.042 226.667C206.072 225.994 208.515 221.764 209.357 221.883Z" fill="#EC2024"/>
<path d="M207.029 219.467C207.853 219.958 203.38 225.321 201.025 224.179C198.669 223.038 206.2 218.976 207.029 219.467Z" fill="#EC2024"/>
<path d="M219.214 215.995C219.459 214.743 227.065 216.039 226.538 217.247C226.012 218.455 218.889 217.654 219.214 215.995Z" fill="#EC2024"/>
<path d="M220.51 213.878C220.958 214.648 225.817 213.812 225.252 212.759C224.686 211.706 220.067 213.108 220.51 213.878Z" fill="#EC2024"/>
<path d="M217.41 218.039C217.072 218.446 222.462 221.84 222.866 220.849C223.269 219.858 218.261 217.017 217.41 218.039Z" fill="#EC2024"/>
<path d="M215.461 219.522C214.268 220.088 215.922 224.624 217.29 224.318C218.663 224.013 217.167 218.712 215.461 219.522Z" fill="#EC2024"/>
<path d="M176.991 198.352C167.86 199.378 151.057 208.87 166.14 220.972C181.224 233.075 200.43 222.039 202.044 213.26C203.316 206.343 193.991 196.44 176.991 198.352Z" fill="#EC2024"/>
<g opacity="0.3">
<path d="M176.991 198.352C167.86 199.378 151.057 208.87 166.14 220.972C181.224 233.075 200.43 222.039 202.044 213.26C203.316 206.343 193.991 196.44 176.991 198.352Z" fill="black"/>
</g>
<path d="M176.933 196.879C167.801 197.906 150.998 207.397 166.082 219.5C181.165 231.602 200.371 220.566 201.985 211.787C203.257 204.871 193.933 194.968 176.933 196.879Z" fill="#EC2024"/>
<g opacity="0.3">
<path d="M166.195 206.936C165.16 206.015 167.151 201.688 174.77 199.635C182.388 197.577 188.27 199.86 187.713 200.714C187.156 201.568 186.305 205.768 178.954 207.188C172.09 208.516 167.428 208.033 166.195 206.936Z" fill="black"/>
</g>
<g opacity="0.3">
<path d="M192.902 204.063C193.994 203.585 200.941 208.245 197.748 213.156C194.556 218.068 190.244 221.148 187.095 220.329C183.946 219.511 182.678 214.32 184.889 210.59C187.099 206.86 191.595 204.634 192.902 204.063Z" fill="black"/>
</g>
<g opacity="0.3">
<path d="M164.119 210.347C164.782 209.405 173.523 208.825 177.782 210.856C182.04 212.887 183.913 219.994 182.79 221.383C181.628 222.826 172.448 220.976 168.786 218.613C165.124 216.25 163.146 211.737 164.124 210.347H164.119Z" fill="black"/>
</g>
<path d="M168.865 203.67C167.615 204.542 171.549 207.36 172.106 206.608C172.668 205.856 169.869 202.966 168.865 203.67Z" fill="#EC2024"/>
<path d="M172.865 201.476C172.137 201.684 174.207 207.18 175.961 206.582C177.716 205.985 174.132 201.117 172.865 201.476Z" fill="#EC2024"/>
<path d="M177.763 200.357C177.031 200.592 178.075 204.026 179.548 203.849C181.022 203.672 178.496 200.118 177.763 200.357Z" fill="#EC2024"/>
<path d="M183.106 199.739C181.334 199.806 181.821 204.616 183.321 204.673C184.821 204.726 185.549 199.651 183.106 199.739Z" fill="#EC2024"/>
<path d="M173.558 211.44C173.268 210.847 166.308 211.737 166.952 212.962C167.601 214.188 174.18 212.715 173.558 211.44Z" fill="#EC2024"/>
<path d="M179.197 215.583C180.043 215.663 180.069 220.53 178.074 219.995C176.083 219.455 178.35 215.508 179.197 215.583Z" fill="#EC2024"/>
<path d="M176.774 213.462C177.621 213.878 173.362 218.936 170.963 217.98C168.564 217.029 175.928 213.046 176.774 213.462Z" fill="#EC2024"/>
<path d="M188.808 209.842C189.005 208.691 196.654 209.59 196.176 210.709C195.702 211.829 188.549 211.364 188.808 209.842Z" fill="#EC2024"/>
<path d="M190.023 207.867C190.501 208.553 195.321 207.606 194.716 206.668C194.11 205.73 189.549 207.181 190.023 207.867Z" fill="#EC2024"/>
<path d="M187.084 211.777C186.759 212.162 192.286 215.056 192.645 214.136C193.009 213.22 187.891 210.817 187.084 211.777Z" fill="#EC2024"/>
<path d="M185.202 213.198C184.031 213.76 185.864 217.835 187.224 217.503C188.583 217.171 186.877 212.397 185.202 213.198Z" fill="#EC2024"/>
<path d="M229.535 198.271C221.934 198.895 207.666 206.944 219.723 218.44C231.78 229.936 248.092 220.569 249.75 212.653C251.057 206.418 243.688 197.108 229.535 198.271Z" fill="#EC2024"/>
<g opacity="0.3">
<path d="M229.535 198.271C221.934 198.895 207.666 206.944 219.723 218.44C231.78 229.936 248.092 220.569 249.75 212.653C251.057 206.418 243.688 197.108 229.535 198.271Z" fill="black"/>
</g>
<path d="M229.535 196.931C221.934 197.555 207.666 205.604 219.723 217.101C231.78 228.597 248.092 219.229 249.75 211.313C251.057 205.078 243.688 195.768 229.535 196.931Z" fill="#EC2024"/>
<g opacity="0.3">
<path d="M220.273 205.702C219.448 204.83 221.255 200.972 227.641 199.361C234.027 197.75 238.817 200.025 238.325 200.781C237.834 201.538 236.975 205.321 230.834 206.366C225.102 207.339 221.255 206.746 220.273 205.702Z" fill="black"/>
</g>
<g opacity="0.3">
<path d="M242.501 203.997C243.427 203.603 249.01 208.064 246.185 212.418C243.361 216.772 239.677 219.418 237.098 218.568C234.519 217.719 233.659 212.962 235.624 209.652C237.589 206.338 241.396 204.47 242.501 203.997Z" fill="black"/>
</g>
<g opacity="0.3">
<path d="M218.431 208.728C219.015 207.896 226.278 207.666 229.729 209.653C233.181 211.64 234.475 218.158 233.493 219.384C232.475 220.654 224.936 218.667 221.988 216.397C219.041 214.127 217.567 209.963 218.427 208.733L218.431 208.728Z" fill="black"/>
</g>
<path d="M222.605 202.825C221.539 203.572 224.693 206.267 225.184 205.604C225.675 204.94 223.465 202.223 222.605 202.825Z" fill="#EC2024"/>
<path d="M226.002 200.966C225.392 201.13 226.905 206.188 228.379 205.705C229.853 205.223 227.063 200.679 226.002 200.966Z" fill="#EC2024"/>
<path d="M230.1 200.117C229.486 200.308 230.222 203.458 231.45 203.348C232.679 203.237 230.714 199.927 230.1 200.117Z" fill="#EC2024"/>
<path d="M234.549 199.738C233.08 199.738 233.308 204.123 234.549 204.225C235.791 204.327 236.576 199.743 234.549 199.738Z" fill="#EC2024"/>
<path d="M226.212 210.043C225.993 209.498 220.195 210.065 220.686 211.202C221.177 212.339 226.681 211.224 226.212 210.043Z" fill="#EC2024"/>
<path d="M230.728 213.988C231.426 214.086 231.268 218.511 229.636 217.953C228.005 217.396 230.027 213.887 230.728 213.988Z" fill="#EC2024"/>
<path d="M228.799 211.989C229.484 212.396 225.773 216.843 223.821 215.896C221.87 214.949 228.115 211.582 228.799 211.989Z" fill="#EC2024"/>
<path d="M238.903 209.104C239.105 208.069 245.412 209.14 244.978 210.14C244.544 211.14 238.636 210.476 238.903 209.104Z" fill="#EC2024"/>
<path d="M239.974 207.353C240.343 207.99 244.373 207.295 243.904 206.424C243.435 205.552 239.606 206.716 239.974 207.353Z" fill="#EC2024"/>
<path d="M237.403 210.801C237.123 211.138 241.592 213.956 241.925 213.133C242.259 212.31 238.105 209.956 237.403 210.801Z" fill="#EC2024"/>
<path d="M235.79 212.03C234.799 212.499 236.172 216.26 237.308 216.008C238.444 215.756 237.207 211.362 235.79 212.03Z" fill="#EC2024"/>
<path opacity="0.3" d="M158.727 210.317C158.727 210.317 158.683 222.769 208.564 221.831C258.446 220.897 249.507 208.68 249.507 208.68L158.727 210.317Z" fill="black"/>
<path d="M247.541 212.662C250.651 211.148 252.26 207.595 251.339 204.241C249.001 195.718 240.44 180.518 209.098 179.576C161.971 178.16 158.361 205.878 158.361 205.878C158.361 205.878 157.159 209.52 160.366 211.949C163.576 214.378 180.216 221.051 210.3 220.246C229.795 219.719 241.624 215.542 247.537 212.666L247.541 212.662Z" fill="#FE9300"/>
<g opacity="0.3">
<path d="M202.927 195.365C202.261 195.471 201.691 195.932 201.401 196.582C201.169 196.945 201.252 197.445 201.59 197.697C201.651 197.741 201.717 197.777 201.787 197.803C202.164 197.949 202.673 197.591 202.84 197.082C203.103 196.551 203.134 195.923 202.923 195.365H202.927Z" fill="black"/>
</g>
<g opacity="0.3">
<path d="M195.826 204.521C195.405 205.052 195.291 205.783 195.515 206.46C195.585 206.889 195.98 207.199 196.401 207.154C196.475 207.145 196.55 207.128 196.615 207.097C196.993 206.946 197.124 206.336 196.909 205.849C196.751 205.278 196.352 204.791 195.826 204.526V204.521Z" fill="black"/>
</g>
<g opacity="0.3">
<path d="M233.681 195.504C233.015 195.61 232.444 196.07 232.155 196.721C231.923 197.084 232.006 197.584 232.344 197.836C232.405 197.88 232.471 197.916 232.541 197.942C232.918 198.088 233.427 197.73 233.594 197.221C233.857 196.69 233.887 196.061 233.677 195.504H233.681Z" fill="black"/>
</g>
<g opacity="0.3">
<path d="M215.57 187.213C215.211 187.788 215.171 188.523 215.465 189.173C215.579 189.594 216.009 189.859 216.417 189.766C216.491 189.748 216.561 189.722 216.627 189.686C216.987 189.496 217.053 188.877 216.79 188.412C216.57 187.859 216.127 187.421 215.57 187.213Z" fill="black"/>
</g>
<g opacity="0.3">
<path d="M175.604 194.564C175.534 195.241 175.819 195.918 176.372 196.369C176.657 196.692 177.157 196.741 177.486 196.476C177.543 196.427 177.595 196.374 177.639 196.307C177.881 195.976 177.666 195.392 177.223 195.095C176.784 194.697 176.192 194.502 175.604 194.564Z" fill="black"/>
</g>
<g opacity="0.3">
<path d="M222.983 192.818C222.913 193.495 223.198 194.172 223.751 194.623C224.036 194.946 224.536 194.995 224.865 194.73C224.922 194.681 224.974 194.628 225.018 194.561C225.259 194.23 225.045 193.645 224.602 193.349C224.163 192.951 223.571 192.756 222.983 192.818Z" fill="black"/>
</g>
<g opacity="0.3">
<path d="M224.991 204.039C224.921 204.716 225.206 205.393 225.758 205.844C226.044 206.167 226.544 206.216 226.873 205.95C226.93 205.902 226.982 205.848 227.026 205.782C227.267 205.45 227.052 204.866 226.609 204.57C226.171 204.171 225.579 203.977 224.991 204.039Z" fill="black"/>
</g>
<g opacity="0.3">
<path d="M190.456 197.667C189.781 197.684 189.153 198.06 188.785 198.671C188.504 198.998 188.522 199.507 188.829 199.799C188.881 199.852 188.947 199.897 189.013 199.928C189.368 200.122 189.917 199.835 190.149 199.352C190.482 198.861 190.596 198.242 190.456 197.662V197.667Z" fill="black"/>
</g>
<g opacity="0.3">
<path d="M179.983 202.608C179.308 202.626 178.681 203.002 178.312 203.612C178.032 203.94 178.049 204.449 178.356 204.741C178.409 204.794 178.475 204.838 178.54 204.869C178.896 205.064 179.444 204.776 179.676 204.294C180.01 203.803 180.124 203.183 179.983 202.604V202.608Z" fill="black"/>
</g>
<g opacity="0.3">
<path d="M200.978 185.701C200.623 186.281 200.592 187.015 200.891 187.661C201.009 188.077 201.439 188.338 201.851 188.246C201.926 188.228 201.996 188.201 202.057 188.161C202.417 187.967 202.474 187.347 202.207 186.887C201.983 186.338 201.531 185.905 200.978 185.701Z" fill="black"/>
</g>
<g opacity="0.3">
<path d="M190.193 188.164C190.048 188.828 190.263 189.536 190.759 190.045C191.009 190.399 191.5 190.5 191.855 190.275C191.921 190.235 191.978 190.182 192.022 190.124C192.294 189.823 192.149 189.217 191.741 188.872C191.351 188.43 190.781 188.173 190.188 188.164H190.193Z" fill="black"/>
</g>
<g opacity="0.3">
<path d="M214.88 199.586C214.736 200.25 214.95 200.958 215.446 201.467C215.696 201.821 216.187 201.922 216.543 201.697C216.608 201.657 216.665 201.604 216.709 201.546C216.981 201.245 216.836 200.639 216.429 200.294C216.038 199.851 215.468 199.595 214.876 199.586H214.88Z" fill="black"/>
</g>
<path d="M214.34 245.832C214.279 245.832 214.2 244.641 214.165 243.172C214.13 241.699 214.152 240.508 214.218 240.504C214.279 240.504 214.358 241.694 214.393 243.163C214.428 244.632 214.406 245.827 214.34 245.832Z" fill="#263238"/>
</svg>
