<svg width="40" height="27" viewBox="0 0 40 27" fill="none" xmlns="http://www.w3.org/2000/svg">
<path d="M39.9919 8.49513L39.9558 8.3394C39.9381 8.28563 39.9175 8.23288 39.894 8.18138C39.8517 8.09088 39.8042 8.00291 39.7516 7.91791C39.7343 7.88918 39.7169 7.86045 39.6999 7.82942C39.6948 7.82065 39.6892 7.81221 39.6831 7.80414C39.671 7.78546 39.6583 7.76708 39.6439 7.74668L39.5887 7.67255C39.5823 7.66364 39.5771 7.65675 39.5722 7.651L39.5384 7.60675C39.5041 7.56193 39.4668 7.51625 39.4229 7.4631L39.4033 7.44069C39.3718 7.40247 39.3383 7.3634 39.3008 7.32088L39.0954 7.09792C39.0875 7.08781 39.0789 7.07821 39.0697 7.06919C39.0452 7.04276 39.0209 7.01747 38.994 6.9896L38.8381 6.83187C38.2362 6.23311 37.4183 5.5358 36.6506 4.96691L36.572 4.90801C36.2097 4.63742 35.8325 4.38707 35.4422 4.15813C33.9508 3.30222 32.9873 3.38726 32.323 4.43423C32.2739 4.5121 32.2219 4.59197 32.1723 4.66811C32.1622 4.68161 32.1529 4.69684 32.1402 4.71437L32.1206 4.7431C32.1139 4.75344 32.1073 4.76407 32.0917 4.78476C32.0761 4.80544 32.0674 4.82125 32.059 4.83475L31.9435 5.00139C31.7237 5.31744 31.4774 5.65446 31.2302 5.97596C31.2192 5.99033 31.2082 6.00469 31.1943 6.02193L31.1614 6.06474C31.1539 6.07365 31.147 6.08284 31.1409 6.09089L31.1034 6.13858C31.0964 6.14777 31.0167 6.24948 31.0144 6.25178C31.0121 6.25408 31.0052 6.26385 31.0005 6.2696L30.9578 6.32304C30.9448 6.33884 30.9321 6.35522 30.9139 6.37734L30.8616 6.44256L30.831 6.47962L30.8166 6.49715C30.8079 6.50807 30.7984 6.51985 30.786 6.5345L30.7233 6.60949C30.673 6.67011 30.6245 6.72729 30.572 6.78676C30.5656 6.79481 30.559 6.80256 30.5512 6.81089L30.5127 6.85428C30.5015 6.86635 30.4908 6.87841 30.4772 6.89364L30.4483 6.92726C30.381 6.99937 30.336 7.04563 30.2979 7.08212C29.8935 7.46971 28.2441 8.7721 27.843 8.90254L27.7996 8.92179C27.6458 8.99995 27.518 9.12072 27.4316 9.26953C27.3452 9.41834 27.3039 9.58883 27.3127 9.76046L27.3156 9.8297C27.3221 9.95426 27.3463 10.0773 27.3872 10.1952L27.4386 10.3426C27.485 10.4791 27.5703 10.5994 27.6841 10.6887C27.7978 10.778 27.9352 10.8325 28.0795 10.8456C28.0905 10.8456 28.1012 10.8474 28.1084 10.8479L28.2721 10.8614C28.6089 10.8902 29.1998 10.937 29.4369 11.0606C29.4643 11.0763 29.488 11.0976 29.5065 11.1232C29.5065 11.1249 29.5308 11.1686 29.5319 11.1703L29.5625 11.2789C29.6268 11.47 29.7074 11.6552 29.8034 11.8326L29.8303 11.8817C29.9254 12.063 30.0367 12.2354 30.163 12.3968L30.1693 12.4046C30.2496 12.5032 30.3337 12.6026 30.4443 12.6686C30.543 12.7242 30.656 12.7495 30.7691 12.7412C30.8822 12.7329 30.9903 12.6915 31.0797 12.6221C31.2148 12.5164 31.2842 12.354 31.3529 12.2021C31.3578 12.1911 31.3627 12.1794 31.3691 12.1647C31.4118 12.0613 31.4447 11.9122 31.4684 11.7125C31.7861 12.167 32.0914 12.4155 32.3998 12.471C32.4882 12.4868 32.5788 12.4848 32.6664 12.4652H32.7242L32.745 12.4431C32.7664 12.4356 32.7873 12.4269 32.8077 12.417C32.8186 12.412 32.829 12.4068 32.8388 12.4014L32.9691 12.2983C32.9952 12.2702 33.0187 12.2398 33.0393 12.2075L33.0477 12.1949C33.2363 11.8929 33.2643 11.3775 33.2643 11.097C33.2628 11.0009 33.2556 10.905 33.2429 10.8097C33.2926 10.8715 33.3414 10.9338 33.3896 10.9956C33.4742 11.1036 33.5542 11.2056 33.6386 11.3045L33.6674 11.3364C33.8633 11.5596 34.1319 11.8156 34.4761 11.8156C34.5261 11.8156 34.576 11.8102 34.6249 11.7995L34.7054 11.7785L34.717 11.7748C34.7567 11.762 34.7953 11.7461 34.8325 11.7274L34.8464 11.7202C34.8929 11.6959 34.9379 11.6686 34.981 11.6386C35.2698 11.4375 35.3241 11.0117 35.1401 10.379C35.1375 10.3673 35.1338 10.3546 35.1309 10.3457C35.128 10.3368 35.1251 10.3247 35.1228 10.317C35.074 10.1547 34.9761 9.93859 34.8051 9.6168C34.8016 9.60962 34.7979 9.60272 34.7941 9.59583C35.1101 9.80614 35.424 9.97652 35.7622 10.1552L35.7775 10.163L35.8679 10.211C36.1694 10.3701 36.4366 10.4509 36.6642 10.4506C36.6752 10.4515 36.6863 10.4515 36.6974 10.4506C36.8958 10.4428 37.0636 10.3701 37.1823 10.2394C37.3137 10.0958 37.3793 9.88486 37.3622 9.6622C37.3516 9.51854 37.2603 9.28869 37.0752 8.93874C37.0321 8.85714 36.9842 8.7698 36.9307 8.67499C37.2264 8.80585 37.5314 8.91494 37.8431 9.00137C37.8783 9.01143 37.9144 9.02034 37.9586 9.03011L38.0135 9.04361C38.0424 9.05022 38.0698 9.05625 38.1033 9.06343L38.1545 9.07349L38.1741 9.0778L38.274 9.09648C38.2836 9.09877 38.2928 9.09964 38.2899 9.09964C38.3026 9.10222 38.3165 9.10481 38.3266 9.10596L38.4592 9.12894C38.4771 9.13095 38.4941 9.13325 38.5169 9.13756H38.5285C38.5573 9.14187 38.5833 9.14589 38.6151 9.14992C38.631 9.14992 38.6469 9.15365 38.6752 9.15739H38.6902C38.7035 9.15968 38.7162 9.16141 38.7254 9.16227C38.7659 9.16687 38.8046 9.17089 38.8459 9.17405C38.8459 9.17405 39.057 9.18727 39.0573 9.18641C39.0945 9.18842 39.1318 9.18842 39.1691 9.18641C39.1887 9.18641 39.2086 9.18641 39.2124 9.18641C39.2254 9.18641 39.2375 9.1864 39.2493 9.18439C39.2567 9.18483 39.2642 9.18483 39.2716 9.18439C39.2944 9.18439 39.3169 9.18152 39.349 9.17779L39.3689 9.17549C39.3929 9.17261 39.4169 9.16945 39.4426 9.16514L39.4613 9.16112C39.481 9.15767 39.4995 9.15336 39.513 9.14992C39.5376 9.14446 39.561 9.13785 39.587 9.13009C39.8342 9.05137 39.9884 8.86289 39.9997 8.62643C40.0011 8.58252 39.9985 8.53857 39.9919 8.49513ZM28.115 10.4805C28.0413 10.4738 27.9711 10.4461 27.9129 10.4005C27.8547 10.355 27.811 10.2936 27.7872 10.2239L27.7361 10.0771C27.7066 9.99236 27.689 9.90399 27.6838 9.81447L27.6812 9.74408C27.6758 9.64332 27.6997 9.54314 27.7502 9.45561C27.8007 9.36808 27.8755 9.29694 27.9657 9.25076L27.9712 9.24818C28.4821 9.06832 30.1633 7.7234 30.5552 7.34817C30.5982 7.3068 30.6482 7.25537 30.7233 7.17578L30.7591 7.13613C30.7672 7.12665 30.7756 7.11717 30.788 7.1051L30.8284 7.05971C30.8397 7.04735 30.8509 7.03414 30.8573 7.02523C30.9064 6.96949 30.9578 6.91031 31.0092 6.84681L31.0719 6.77153C31.0849 6.75659 31.0979 6.7405 31.1042 6.73217C31.1106 6.72384 31.1178 6.71608 31.1224 6.71005C31.1328 6.69798 31.1435 6.68505 31.1554 6.67011L31.1747 6.64684C31.1868 6.63161 31.199 6.6161 31.2056 6.60719C31.2212 6.5888 31.2362 6.56984 31.2524 6.54973L31.2931 6.49887C31.3061 6.48278 31.3191 6.46669 31.3298 6.45233L31.3876 6.37935C31.3951 6.36872 31.4032 6.35895 31.4164 6.342L31.486 6.25149C31.499 6.2354 31.512 6.21845 31.5253 6.20121C31.7754 5.87569 32.0258 5.53378 32.2491 5.21199L32.3681 5.0396C32.3788 5.02294 32.3892 5.00714 32.4013 4.98904C32.4134 4.97094 32.4221 4.95858 32.4302 4.94623L32.4498 4.9175C32.4576 4.90572 32.4657 4.89365 32.4787 4.87699C32.5339 4.79338 32.587 4.71149 32.637 4.63219C33.1857 3.76882 33.9456 3.72457 35.2597 4.47848C35.6374 4.70044 36.0026 4.94302 36.3534 5.2051L36.4311 5.26256C37.1858 5.82167 37.9887 6.50605 38.5779 7.09246L38.7379 7.25451L38.8089 7.32835L39.0272 7.56653C39.0602 7.60331 39.0911 7.63951 39.1243 7.67973L39.1431 7.70099C39.1794 7.74524 39.2141 7.78719 39.2473 7.83086L39.2927 7.89033C39.3229 7.93171 39.3526 7.97365 39.3819 8.01618L39.3854 8.02106C39.4853 8.18224 39.5875 8.34917 39.6231 8.53104C39.6321 8.57006 39.6335 8.61043 39.6274 8.64999C39.6161 8.70918 39.565 8.75342 39.4778 8.78129C39.4628 8.7856 39.4472 8.7902 39.427 8.79508C39.4166 8.79767 39.4056 8.80025 39.3854 8.8037L39.379 8.80571C39.3611 8.80859 39.3423 8.81088 39.3175 8.81376L39.2953 8.81663L39.2626 8.81979C39.2574 8.81979 39.2522 8.81979 39.2337 8.81979H39.2164C39.2132 8.81979 39.2098 8.81979 39.1985 8.81979H39.1662C39.1604 8.81946 39.1546 8.81946 39.1488 8.81979H39.072C39.061 8.81979 39.0498 8.81979 39.0356 8.81807C39.0284 8.81807 39.022 8.81807 39.0186 8.81807C39.0151 8.81807 38.9319 8.81232 38.9319 8.81261L38.8707 8.8083C38.8372 8.80572 38.804 8.80227 38.7633 8.79738C38.7586 8.79738 38.7537 8.79738 38.7367 8.79394L38.7165 8.79192C38.6942 8.78876 38.672 8.78589 38.655 8.78417C38.6313 8.78129 38.6079 8.77785 38.5816 8.77382H38.5761C38.5521 8.76923 38.5282 8.76606 38.5132 8.76434L38.3711 8.73992C38.3636 8.7382 38.356 8.73676 38.3494 8.7359L38.3078 8.72814C38.2893 8.72469 38.2708 8.72124 38.2633 8.72038L38.2411 8.71521L38.1781 8.70257C38.1516 8.69682 38.1241 8.69108 38.1036 8.68619L38.0337 8.66895C38.0034 8.66119 37.9731 8.65373 37.9419 8.64482C37.5531 8.53966 37.1271 8.37245 36.6737 8.1469C36.6552 8.13828 36.637 8.1288 36.6116 8.11501C36.5923 8.10582 36.5729 8.09576 36.5472 8.08255L36.4146 8.01732C36.3856 8.00251 36.3524 7.99775 36.3204 8.00379C36.2883 8.00984 36.2592 8.02635 36.2376 8.05072C36.216 8.07508 36.2032 8.1059 36.2012 8.13831C36.1993 8.17072 36.2082 8.20286 36.2266 8.22965L36.3101 8.35118L36.3367 8.39514C36.3433 8.40549 36.3497 8.4164 36.3577 8.43019L36.371 8.45088C36.529 8.71119 36.6523 8.9261 36.7485 9.10854C36.9674 9.52285 36.992 9.65702 36.9943 9.68834C37.0035 9.8116 36.9726 9.92222 36.9076 9.99232C36.8551 10.0498 36.7765 10.0805 36.6714 10.0831H36.6616C36.4964 10.0831 36.2861 10.0167 36.0403 9.88659C36.0039 9.86705 35.9684 9.84838 35.9335 9.82913C35.42 9.55761 34.9899 9.31972 34.5287 8.94391L34.52 8.93673C34.5065 8.92524 34.4911 8.91403 34.4911 8.91259L34.4542 8.88128C34.449 8.87726 34.4438 8.87237 34.436 8.86548L34.3106 8.75572C34.2877 8.73565 34.2595 8.72258 34.2293 8.71807C34.1992 8.71356 34.1683 8.71781 34.1405 8.73031C34.1127 8.74281 34.0891 8.76302 34.0726 8.78852C34.056 8.81403 34.0472 8.84374 34.0472 8.87409V8.94018L34.0663 9.0166C34.1362 9.15279 34.2153 9.29875 34.2974 9.44757C34.3589 9.5625 34.421 9.67541 34.4796 9.78689C34.5865 9.98974 34.7164 10.2466 34.7736 10.4356L34.7779 10.4514C34.78 10.4572 34.7816 10.463 34.7828 10.469C34.9148 10.9232 34.9099 11.2395 34.7693 11.3369C34.7358 11.3604 34.7007 11.3813 34.6641 11.3996L34.6572 11.4033C34.6379 11.4125 34.6181 11.4203 34.5977 11.4269C34.5856 11.431 34.5732 11.4344 34.5607 11.4372L34.5541 11.4392C34.5288 11.4448 34.5029 11.4477 34.477 11.4479C34.2771 11.4479 34.0842 11.2539 33.9207 11.0631L33.9008 11.041C33.8301 10.9568 33.759 10.866 33.683 10.7692C33.5374 10.5754 33.3803 10.3903 33.2126 10.215C33.1768 10.1794 33.1401 10.1446 33.097 10.1061C33.0921 10.1012 33.0875 10.0972 33.0803 10.0912L32.9954 10.0205C32.9721 10.0012 32.9433 9.98959 32.9131 9.98729C32.8829 9.98498 32.8527 9.99209 32.8267 10.0076C32.8007 10.0232 32.7802 10.0463 32.768 10.074C32.7559 10.1016 32.7527 10.1323 32.7588 10.1618L32.7814 10.2696C32.7845 10.2842 32.7877 10.2983 32.7903 10.3167L32.8062 10.3997C32.8212 10.4799 32.8351 10.5592 32.8481 10.6362C32.853 10.6678 32.8576 10.6982 32.8619 10.7281L32.8651 10.7491C32.8832 10.8632 32.894 10.9784 32.8975 11.0939C32.8975 11.2456 32.8859 11.7584 32.7386 11.994L32.732 12.0044C32.7179 12.0283 32.6993 12.0493 32.6774 12.0664L32.6713 12.071C32.6659 12.0751 32.6599 12.0786 32.6537 12.0814C32.6426 12.0867 32.6313 12.0913 32.6196 12.0952L32.5509 12.1107C32.5205 12.1138 32.4899 12.1124 32.4599 12.1064H32.453C32.2745 12.0707 32.0567 11.9627 31.6316 11.2378C31.6116 11.2038 31.5884 11.1718 31.5623 11.1422C31.5279 11.1034 31.4843 11.0738 31.4355 11.056L31.4104 11.0468C31.3802 11.0358 31.3478 11.032 31.3159 11.0359C31.2839 11.0397 31.2534 11.051 31.2267 11.0689C31.2 11.0867 31.178 11.1106 31.1624 11.1386C31.1467 11.1666 31.138 11.1978 31.1369 11.2298C31.1313 11.4288 31.1127 11.6273 31.0811 11.8239C31.0537 11.9934 30.9872 12.1542 30.8868 12.2937L30.8847 12.2969C30.8612 12.3311 30.8265 12.3563 30.7865 12.3683C30.7465 12.3802 30.7036 12.3781 30.6649 12.3624C30.5971 12.3371 30.5477 12.2785 30.5018 12.2253L30.4813 12.2C30.3469 12.0315 30.2293 11.8504 30.1301 11.6593L30.1101 11.6231C30.0258 11.4654 29.9565 11.3003 29.9031 11.1298C29.8931 11.0939 29.8796 11.059 29.8626 11.0258L29.847 10.9971C29.779 10.8644 29.6667 10.7593 29.5293 10.7C29.2203 10.571 28.7556 10.533 28.3025 10.4963L28.115 10.4805Z" fill="#EC2024"/>
<path d="M0.000785742 8.62752C0.0120495 8.86398 0.166276 9.05246 0.4135 9.13118C0.439493 9.13894 0.462887 9.14555 0.487436 9.15101C0.50101 9.15446 0.519494 9.15876 0.539134 9.16221L0.557906 9.16623C0.583611 9.17054 0.607582 9.1737 0.631554 9.17658L0.651482 9.17888C0.68354 9.18261 0.706068 9.18462 0.728884 9.18548C0.736386 9.18593 0.743909 9.18593 0.751411 9.18548C0.763253 9.18548 0.775094 9.1875 0.788091 9.1875C0.791845 9.1875 0.811773 9.1875 0.831413 9.1875C0.868642 9.18951 0.905954 9.18951 0.943183 9.1875L1.15459 9.17514C1.19589 9.17198 1.2346 9.16796 1.27503 9.16336C1.28427 9.16336 1.29727 9.16078 1.31026 9.15848H1.32528C1.35416 9.15474 1.36947 9.15244 1.38565 9.15101C1.41741 9.14699 1.44341 9.14296 1.47229 9.13865H1.48384C1.50666 9.13434 1.5237 9.13204 1.5416 9.13003L1.67446 9.10705C1.68428 9.10705 1.69814 9.10331 1.71114 9.10073C1.70796 9.10073 1.7172 9.10073 1.72673 9.09757L1.82666 9.07889L1.8463 9.07458L1.89771 9.06453C1.93121 9.05734 1.95923 9.05131 1.98724 9.0447L2.04212 9.0312C2.08544 9.02028 2.12125 9.01137 2.15764 9.00247C2.46882 8.91533 2.77318 8.80567 3.06827 8.67435C3.01426 8.76917 2.96632 8.85651 2.92386 8.93811C2.73873 9.28863 2.64747 9.51848 2.63678 9.66156C2.62003 9.88423 2.68559 10.0945 2.81671 10.2388C2.93571 10.3695 3.10322 10.4422 3.30192 10.45C3.31288 10.4509 3.32389 10.4509 3.33485 10.45C3.56243 10.45 3.82987 10.3695 4.13139 10.2103C4.16258 10.1934 4.19204 10.1779 4.2215 10.1624L4.2371 10.1546C4.57501 9.97589 4.88895 9.80551 5.20491 9.59519L5.19394 9.61617C5.02411 9.93796 4.9265 10.154 4.87624 10.3164C4.87393 10.3235 4.87075 10.3339 4.86815 10.3451C4.86556 10.3563 4.86151 10.3666 4.85891 10.3784C4.67494 11.0105 4.72808 11.4366 5.01834 11.638C5.06143 11.668 5.10638 11.6952 5.15292 11.7196L5.1665 11.7268C5.20377 11.7454 5.24238 11.7613 5.28202 11.7742L5.29358 11.7779L5.37416 11.7989C5.42311 11.8095 5.47307 11.8149 5.52318 11.815C5.86629 11.815 6.13518 11.559 6.33186 11.3357L6.36074 11.3039C6.44507 11.205 6.52508 11.1027 6.6097 10.995C6.65793 10.9332 6.70674 10.8709 6.75642 10.8091C6.74384 10.9044 6.73671 11.0003 6.73504 11.0964C6.73504 11.3768 6.76392 11.8923 6.95194 12.1942L6.96003 12.2069C6.98059 12.2392 7.00408 12.2696 7.03021 12.2977L7.16075 12.4008C7.17057 12.4063 7.18097 12.4114 7.19166 12.4163C7.21203 12.4262 7.23295 12.435 7.25433 12.4425L7.27512 12.4646H7.33289C7.42047 12.4842 7.51111 12.4861 7.59946 12.4703C7.90791 12.4149 8.21203 12.1664 8.53088 11.7118C8.55457 11.9115 8.58865 12.0606 8.63024 12.1641C8.63659 12.1787 8.6415 12.1905 8.64641 12.2014C8.71515 12.3534 8.78446 12.5157 8.91963 12.6215C9.00908 12.6908 9.11716 12.7322 9.23024 12.7405C9.34331 12.7487 9.45632 12.7235 9.55502 12.668C9.66534 12.6019 9.74939 12.5025 9.82968 12.404L9.83603 12.3962C9.96227 12.2348 10.0736 12.0624 10.1687 11.8811L10.1956 11.8319C10.2917 11.6546 10.3723 11.4694 10.4365 11.2783L10.4671 11.1697C10.4671 11.1679 10.4911 11.1243 10.4925 11.1226C10.5111 11.0971 10.5348 11.0757 10.5621 11.0599C10.7992 10.9364 11.3901 10.8875 11.7269 10.8608L11.8906 10.8473C11.8993 10.8473 11.91 10.8473 11.9213 10.845C12.065 10.8318 12.2019 10.7776 12.3153 10.6888C12.4288 10.6 12.514 10.4804 12.5607 10.3445L12.6121 10.1971C12.653 10.0792 12.6772 9.9562 12.684 9.83165L12.6866 9.76241C12.6954 9.59079 12.6542 9.42029 12.5678 9.27148C12.4814 9.12267 12.3535 9.0019 12.1997 8.92374L12.1564 8.90449C11.7537 8.77405 10.1058 7.47166 9.70144 7.08407C9.66332 7.04758 9.61827 7.00133 9.55097 6.92921L9.52209 6.89559C9.50852 6.88037 9.49783 6.8683 9.48657 6.85623L9.44815 6.81285C9.44036 6.80452 9.43371 6.79676 9.42736 6.78871C9.3748 6.72924 9.32656 6.67206 9.27631 6.61144L9.21335 6.53645C9.20093 6.5218 9.1914 6.51002 9.18274 6.4991L9.16829 6.48157L9.13768 6.44451L9.08569 6.37929L9.04151 6.32499L8.99876 6.27155C8.99414 6.2658 8.98952 6.26006 8.9849 6.25373C8.98028 6.24741 8.90287 6.14973 8.89594 6.14053L8.8584 6.09284C8.85233 6.08479 8.8454 6.0756 8.83818 6.06669L8.80526 6.02388C8.79139 6.00664 8.78042 5.99228 8.76944 5.97791C8.52222 5.65641 8.27557 5.31939 8.05608 5.00335L7.94055 4.8367C7.93189 4.8232 7.91975 4.8051 7.90763 4.78671C7.89549 4.76832 7.88625 4.75539 7.87874 4.74505L7.8591 4.71632C7.84669 4.69793 7.83715 4.68356 7.82733 4.67006C7.77737 4.59392 7.72538 4.51405 7.67629 4.43619C7.01201 3.38922 6.04882 3.30417 4.5571 4.16008C4.16682 4.38903 3.78962 4.63938 3.42727 4.90997L3.34871 4.96887C2.58104 5.53775 1.76341 6.23506 1.16124 6.83382L1.00528 6.99156C0.978707 7.02029 0.954158 7.04471 0.929609 7.07114C0.920434 7.08017 0.911848 7.08976 0.903905 7.09987L0.698558 7.32283C0.661301 7.36535 0.62751 7.40443 0.59603 7.44264L0.576391 7.46505C0.533357 7.51705 0.4961 7.56274 0.460865 7.60871L0.427074 7.65295C0.422164 7.6587 0.417254 7.6656 0.410612 7.6745L0.355448 7.75007C0.341296 7.77046 0.328589 7.78885 0.316459 7.80753C0.310145 7.81552 0.304448 7.82397 0.299418 7.83281C0.282378 7.86154 0.26505 7.892 0.247721 7.9213C0.195157 8.0063 0.147615 8.09427 0.105336 8.18477C0.0819122 8.23627 0.0613748 8.28903 0.0438189 8.34279L0.00685079 8.49507C0.000743252 8.53894 -0.001287 8.58328 0.000785742 8.62752ZM11.6977 10.4951C11.2446 10.5318 10.7799 10.5698 10.4711 10.6988C10.3338 10.7581 10.2214 10.8631 10.1534 10.9958L10.1378 11.0246C10.1209 11.0578 10.1074 11.0926 10.0977 11.1286C10.0441 11.2991 9.97471 11.4642 9.89033 11.6219L9.87069 11.6581C9.77153 11.8497 9.65412 12.0313 9.52007 12.2006L9.49928 12.2258C9.45335 12.279 9.40425 12.3376 9.33609 12.3629C9.2975 12.3787 9.25464 12.3808 9.21468 12.3688C9.17472 12.3569 9.14009 12.3317 9.1166 12.2974L9.11429 12.2942C9.01386 12.1547 8.94733 11.9939 8.91992 11.8245C8.88849 11.6278 8.86987 11.4293 8.86417 11.2303C8.86335 11.1982 8.85482 11.1668 8.83929 11.1386C8.82376 11.1105 8.80168 11.0865 8.77491 11.0686C8.74813 11.0506 8.71744 11.0394 8.68539 11.0357C8.65333 11.032 8.62086 11.0359 8.59067 11.0473L8.56554 11.0565C8.51674 11.0743 8.47317 11.1039 8.43875 11.1427C8.41261 11.1723 8.3894 11.2043 8.36944 11.2383C7.9443 11.9641 7.72654 12.0716 7.54834 12.1069H7.54141C7.51138 12.1129 7.48061 12.1143 7.45015 12.1112L7.38141 12.0957C7.36978 12.0918 7.35839 12.0872 7.34733 12.0819C7.34113 12.079 7.33523 12.0756 7.32971 12.0716L7.32364 12.067C7.30177 12.0498 7.28327 12.0287 7.26906 12.0049L7.26242 11.9946C7.11512 11.759 7.10357 11.2475 7.10357 11.0944C7.10708 10.9789 7.11789 10.8638 7.13592 10.7496L7.13909 10.7286C7.14343 10.6999 7.14805 10.6683 7.15296 10.6367C7.1648 10.5597 7.17982 10.4804 7.19483 10.4002L7.21072 10.3172C7.21361 10.3 7.21649 10.2847 7.21967 10.2701L7.2422 10.1624C7.24837 10.1328 7.24516 10.1021 7.23301 10.0745C7.22085 10.0469 7.20036 10.0237 7.17438 10.0081C7.14839 9.99261 7.11819 9.9855 7.08796 9.9878C7.05773 9.99011 7.02897 10.0017 7.00566 10.021L6.92075 10.0917C6.91353 10.0977 6.90891 10.1017 6.904 10.1066C6.86154 10.1451 6.82457 10.1799 6.78847 10.2155C6.62073 10.3908 6.46363 10.5759 6.318 10.7697C6.24204 10.8666 6.17099 10.9573 6.10023 11.0415L6.0803 11.0637C5.91684 11.2544 5.72391 11.4484 5.52434 11.4484C5.4983 11.4482 5.47236 11.4453 5.44694 11.4397L5.44029 11.4377C5.4278 11.4349 5.41546 11.4315 5.40333 11.4274C5.38299 11.4209 5.36311 11.413 5.34383 11.4038L5.3369 11.4001C5.30034 11.3819 5.2652 11.3609 5.23177 11.3375C5.09141 11.2401 5.08736 10.9237 5.2182 10.4695C5.21945 10.4635 5.22109 10.4577 5.22311 10.452L5.22744 10.4362C5.2852 10.2465 5.41459 9.99025 5.52145 9.78741C5.57921 9.67593 5.64217 9.56158 5.70369 9.44809C5.78485 9.29869 5.86398 9.15273 5.93474 9.01712L5.9538 8.94069V8.87461C5.95381 8.84426 5.94501 8.81454 5.92847 8.78904C5.91192 8.76353 5.88833 8.74332 5.86052 8.73083C5.83272 8.71833 5.80187 8.71408 5.7717 8.71859C5.74152 8.72309 5.7133 8.73617 5.69041 8.75624L5.56535 8.86599C5.55755 8.87289 5.55206 8.87777 5.54687 8.88179L5.51019 8.91311C5.50759 8.91455 5.49401 8.92575 5.4813 8.93725L5.47091 8.94644C5.00881 9.32225 4.57963 9.56014 4.06612 9.83165C4.03117 9.84975 3.99565 9.86843 3.95926 9.88912C3.71261 10.0193 3.50351 10.0854 3.33802 10.0856H3.3282C3.22307 10.0831 3.14481 10.0526 3.09195 9.99485C3.02841 9.92474 2.99722 9.81413 3.00531 9.69087C3.00762 9.65955 3.03217 9.52538 3.25138 9.11107C3.34726 8.92863 3.47059 8.71372 3.62857 8.45341L3.64185 8.43272C3.64994 8.41893 3.65658 8.40801 3.66294 8.39767L3.68951 8.35371L3.77297 8.23218C3.79141 8.20539 3.80034 8.17325 3.79836 8.14084C3.79637 8.10843 3.78358 8.07761 3.762 8.05324C3.74043 8.02888 3.71131 8.01237 3.67924 8.00632C3.64718 8.00027 3.614 8.00504 3.58496 8.01985L3.45268 8.08708C3.42698 8.1003 3.40763 8.11036 3.38828 8.11955C3.36286 8.13334 3.34466 8.14282 3.32618 8.15144C2.87274 8.37698 2.44674 8.5442 2.058 8.64936C2.02681 8.65826 1.99648 8.66573 1.96616 8.67349L1.89627 8.69073C1.87576 8.69561 1.84832 8.70136 1.82175 8.70711L1.75879 8.71975L1.73655 8.72492C1.72904 8.72492 1.71056 8.72923 1.69208 8.73268L1.65049 8.74044C1.64384 8.74044 1.63634 8.74273 1.62883 8.74446L1.48673 8.76888C1.47171 8.7706 1.44774 8.77376 1.42377 8.77836H1.41828C1.39229 8.78238 1.36861 8.78583 1.34492 8.7887C1.32788 8.79043 1.30564 8.7933 1.28341 8.79646L1.26319 8.79847C1.24615 8.80106 1.24124 8.80135 1.23662 8.80192C1.19618 8.80681 1.16268 8.81025 1.12918 8.81284L1.06795 8.81715L0.981307 8.82261C0.977841 8.82261 0.971487 8.82261 0.964266 8.82261C0.950115 8.82261 0.938851 8.82261 0.927876 8.82433H0.851052C0.84528 8.824 0.839495 8.824 0.833723 8.82433H0.801376C0.795507 8.82463 0.789627 8.82463 0.783758 8.82433H0.766141C0.749101 8.82433 0.743902 8.82433 0.738992 8.82433L0.706068 8.82117L0.683829 8.8183C0.658991 8.81542 0.640218 8.81313 0.622312 8.81025L0.615958 8.80824C0.59603 8.80479 0.584766 8.80221 0.574369 8.79962C0.554441 8.79474 0.538556 8.79014 0.523538 8.78583C0.436894 8.7571 0.385196 8.71372 0.373932 8.65453C0.367771 8.61495 0.36934 8.57457 0.378553 8.53558C0.412922 8.35371 0.516028 8.18678 0.615958 8.0256L0.619424 8.02071C0.648498 7.97819 0.678245 7.93624 0.708667 7.89487L0.75401 7.8354C0.787224 7.79201 0.822171 7.7492 0.858561 7.70553L0.877045 7.68427C0.910259 7.64405 0.94145 7.60784 0.974086 7.57107L1.19098 7.32771C1.21987 7.29898 1.24037 7.276 1.26174 7.25387L1.42175 7.09183C2.01121 6.50542 2.81383 5.82104 3.5685 5.26193L3.64619 5.20446C3.99707 4.94245 4.3622 4.69988 4.73992 4.47785C6.05431 3.72394 6.81389 3.76818 7.36263 4.63156C7.4126 4.71086 7.46603 4.79274 7.5209 4.87635C7.53275 4.89302 7.54083 4.90508 7.54979 4.91686L7.56943 4.94559C7.57722 4.95795 7.58704 4.97433 7.59831 4.9884C7.60957 5.00248 7.62112 5.02231 7.63152 5.03897L7.75051 5.21136C7.97405 5.53315 8.22416 5.87505 8.47457 6.20058C8.48756 6.21782 8.50056 6.23477 8.51384 6.25086L8.58316 6.34137C8.59673 6.35832 8.60511 6.36809 8.61204 6.37872L8.6698 6.45169C8.68078 6.46606 8.69349 6.48215 8.70648 6.49824L8.74721 6.54909C8.76367 6.56921 8.7784 6.58817 8.79399 6.60656C8.80064 6.61546 8.81277 6.63098 8.82518 6.64621L8.84425 6.66948C8.85609 6.68442 8.86677 6.69821 8.87717 6.70941C8.88179 6.71545 8.88844 6.72349 8.89537 6.73154C8.9023 6.73958 8.91472 6.75596 8.92771 6.7709L8.99067 6.84618C9.04208 6.90852 9.0932 6.96886 9.14259 7.0246C9.14981 7.0335 9.16107 7.04672 9.17147 7.05908L9.21191 7.10447C9.22317 7.11654 9.23154 7.12602 9.24079 7.1355L9.27689 7.17515C9.35169 7.2556 9.40166 7.30703 9.44469 7.34754C9.8369 7.72277 11.5178 9.06769 12.0287 9.24754L12.0342 9.25013C12.1244 9.2963 12.1993 9.36743 12.2498 9.45495C12.3003 9.54247 12.3243 9.64266 12.319 9.74345L12.3161 9.81384C12.3109 9.90336 12.2933 9.99173 12.2638 10.0764L12.2127 10.2233C12.1888 10.293 12.1452 10.3543 12.087 10.3999C12.0288 10.4454 11.9586 10.4732 11.8849 10.4798L11.6977 10.4951Z" fill="#EC2024"/>
<path d="M25.2552 1.62246C25.2488 1.51257 25.2203 1.40508 25.1712 1.30642C25.1187 1.20239 25.0497 1.1075 24.9667 1.02542C24.3094 0.364601 22.5002 0 19.8723 0C18.1201 0 16.7636 0.149404 15.8408 0.444762C15.3934 0.588419 14.8126 0.848725 14.5862 1.28142C14.5582 1.33485 14.5358 1.39097 14.5192 1.44892C14.4987 1.52295 14.4883 1.5994 14.4883 1.67619C14.4883 2.23559 14.8637 2.6384 15.6337 2.90704C16.4958 3.20671 17.8824 3.35238 19.8723 3.35238C21.663 3.35238 23.0317 3.20269 23.9377 2.90762C24.2441 2.80964 24.6684 2.63438 24.9505 2.35684C25.1527 2.15572 25.257 1.92587 25.257 1.6759C25.2573 1.65807 25.2567 1.64023 25.2552 1.62246ZM24.8752 1.67619C24.8752 2.11262 24.3013 2.39131 23.8201 2.5479C23.3843 2.68868 22.8327 2.79585 22.1802 2.86624C21.516 2.9375 20.7399 2.9737 19.8723 2.9737C17.9269 2.9737 16.5822 2.83464 15.7611 2.54876C15.3781 2.41574 14.8692 2.18042 14.8692 1.67619C14.8692 1.66671 14.8692 1.65608 14.8692 1.64746C14.8981 1.23286 15.4757 0.961639 15.9566 0.807064C16.8384 0.52521 18.1553 0.382128 19.8709 0.382128C22.8 0.382128 24.714 0.846139 24.8653 1.59258C24.8713 1.62007 24.8746 1.64807 24.8752 1.67619Z" fill="#EC2024"/>
<path d="M22.491 1.1279C22.1915 1.09515 21.8177 1.07044 21.3802 1.0532C20.953 1.03596 20.4456 1.02734 19.8723 1.02734C18.7295 1.02734 17.8454 1.06125 17.2441 1.1279C16.6356 1.196 16.2832 1.28593 16.2832 1.54508C16.2832 1.80424 16.6136 1.90164 17.1104 1.96083C17.6623 2.02863 18.5657 2.06167 19.8723 2.06167C21.042 2.06167 21.9338 2.02806 22.5233 1.96169C23.1174 1.89474 23.4611 1.80481 23.4611 1.54508C23.4611 1.28535 23.1053 1.196 22.491 1.1279ZM22.0251 1.64794C21.4674 1.68558 20.7431 1.7054 19.8723 1.7054C18.7092 1.7054 17.876 1.67955 17.325 1.62611C17.1559 1.61226 16.9877 1.58827 16.8216 1.55428C17.1808 1.47412 18.0014 1.38505 19.8723 1.38505C21.6976 1.38505 22.5204 1.47124 22.8918 1.54824C22.692 1.58876 22.4008 1.62266 22.0251 1.64794Z" fill="#EC2024"/>
<path d="M30.6059 15.2931C29.8388 15.2931 29.1838 15.3658 28.6316 15.5005C26.8863 15.9246 26.1579 16.9773 26.0972 18.3633C26.0955 18.4041 26.094 18.4458 26.0935 18.4871C26.0935 18.5104 26.0935 18.5331 26.0935 18.5564V19.6916C26.0935 20.309 26.1457 20.567 25.6631 20.6374C25.2998 20.6903 25.3919 20.6765 25.2877 20.6765C24.8215 20.6765 24.5319 20.4257 24.3516 20.0978C24.0412 19.533 24.0565 18.7391 24.0565 18.607V16.7989C24.0565 12.3679 24.6482 9.75769 25.1883 8.2944C25.4861 7.48993 24.8854 6.64062 24.0241 6.64062H16.1857C15.7838 6.64085 15.3984 6.79989 15.1143 7.08276C14.8303 7.36563 14.6707 7.74917 14.6709 8.14902V24.9241C14.6701 25.2886 14.8005 25.6414 15.0384 25.9186C15.2762 26.1958 15.606 26.3792 15.968 26.4357C17.5172 26.677 20.3464 27.0008 24.3314 27.0008C24.3892 27.0008 24.4493 27.0008 24.5079 27.0008C28.1998 26.9856 31.8902 26.4837 33.3866 25.4439C33.4097 25.4278 33.4348 25.41 33.4579 25.3922C33.8109 25.1399 34.1253 24.8382 34.3914 24.4963L34.4419 24.4294C35.179 23.4379 35.4776 22.1481 35.4776 20.5348C35.4776 16.4461 34.1424 15.2931 30.6059 15.2931Z" fill="#EC2024"/>
</svg>
