<svg width="24" height="24" viewBox="0 0 24 24" fill="none" xmlns="http://www.w3.org/2000/svg">
<path d="M21.5174 11.1365V13.9928C21.5174 14.2152 21.4243 14.4285 21.2587 14.5858C21.0931 14.7431 20.8685 14.8316 20.6343 14.8317H3.36669C3.25075 14.8316 3.13596 14.8099 3.02888 14.7677C2.92179 14.7255 2.82451 14.6637 2.74258 14.5858C2.66064 14.5079 2.59567 14.4154 2.55137 14.3137C2.50707 14.2119 2.4843 14.1029 2.48438 13.9928V11.1365C2.48434 11.0264 2.50714 10.9175 2.55147 10.8158C2.5958 10.7142 2.6608 10.6218 2.74274 10.544C2.82468 10.4662 2.92196 10.4045 3.02902 10.3624C3.13608 10.3204 3.25083 10.2988 3.36669 10.2988H20.6343C20.7502 10.2988 20.865 10.3204 20.9721 10.3624C21.0792 10.4045 21.1766 10.4662 21.2586 10.544C21.3406 10.6217 21.4056 10.7141 21.4501 10.8158C21.4945 10.9174 21.5174 11.0264 21.5174 11.1365Z" fill="#FF9300"/>
<path d="M22 17.535C22 18.3515 21.6675 19.0931 21.1277 19.6316C20.5879 20.1701 19.8448 20.5004 19.0219 20.5004H4.9789C3.33348 20.5004 2 19.1705 2 17.5354C2 17.3114 2.0911 17.1087 2.23923 16.9605C2.38737 16.8123 2.58875 16.7227 2.81339 16.7227H21.1872C21.637 16.7222 22 17.0874 22 17.535Z" fill="#EC2024"/>
<path d="M22 8.54156C22 8.71458 21.9086 8.86858 21.7624 8.98453C21.5915 9.10724 21.3911 9.17063 21.1871 9.16647H2.81344C2.36468 9.16647 2 8.88642 2 8.54215C2 7.91069 2.50742 6.65134 3.778 5.546C4.40112 5.00492 5.21078 4.5013 6.2359 4.12789C6.40747 4.06546 6.58508 4.00689 6.76873 3.95219C6.91795 3.90759 7.07114 3.86587 7.2283 3.82703C8.07175 3.62041 9.03523 3.5 10.1298 3.5H13.8718C19.9709 3.49881 22 7.27953 22 8.54156Z" fill="#EC2024"/>
<path d="M21.518 12.5809V14.7082C21.518 15.071 21.2388 15.3652 20.8963 15.3652H3.10935C2.76442 15.3652 2.48438 15.071 2.48438 14.7082V12.5809C2.48438 12.22 2.76442 11.9258 3.10935 11.9258H8.39406C9.78907 11.9245 11.1729 12.1621 12.4791 12.6271L15.9175 13.9107L17.494 12.2773C17.8083 12.0466 18.1949 11.9228 18.5921 11.9258H20.8946C21.2388 11.9258 21.518 12.22 21.518 12.5809Z" fill="#EC2024"/>
</svg>
