<svg width="24" height="24" viewBox="0 0 24 24" fill="none" xmlns="http://www.w3.org/2000/svg">
<path d="M2.81348 16.75H21.1875C21.3059 16.7503 21.4999 16.8807 21.5 17.1641C21.5 17.9622 21.2106 18.6779 20.7539 19.1904C20.2988 19.701 19.686 20 19.0215 20H4.97852C3.66134 19.9998 2.5 18.7823 2.5 17.1641C2.50007 17.0331 2.54748 16.9237 2.61328 16.8496C2.6771 16.7778 2.74671 16.75 2.81348 16.75Z" stroke="#A3A1A1"/>
<path d="M10.1289 4H13.8721C16.8048 3.99955 18.714 4.95086 19.8857 6.01953C20.4753 6.5572 20.8838 7.12865 21.1426 7.63477C21.4065 8.15109 21.5 8.5684 21.5 8.79395C21.5 8.79862 21.4991 8.80505 21.4932 8.81641C21.487 8.82815 21.4729 8.84538 21.4482 8.86719C21.366 8.92544 21.2801 8.95196 21.1982 8.9502H2.81348C2.69583 8.9502 2.60452 8.91068 2.55176 8.86816C2.50021 8.8265 2.5 8.79695 2.5 8.79395C2.50008 8.56819 2.59355 8.15176 2.85742 7.63574C3.11634 7.12949 3.52492 6.55684 4.11523 6.01758C4.61884 5.55739 5.26136 5.12017 6.06152 4.77051L6.41406 4.62598C6.49488 4.59513 6.57724 4.56518 6.66113 4.53613L6.91797 4.45215C7.05892 4.40792 7.20415 4.36592 7.35352 4.32715L7.35254 4.32617C8.15192 4.12058 9.07335 4.00003 10.1289 4Z" stroke="#A3A1A1"/>
<path d="M8.52539 11.6504C9.63601 11.6491 10.7408 11.861 11.7998 12.2793L12.251 12.4717L15.5547 14.0537L15.9238 14.2305L16.1699 13.9033L17.6592 11.9258C17.8706 11.7373 18.1116 11.6491 18.3438 11.6514H20.5547C20.5608 11.6554 20.5724 11.6647 20.5879 11.6855C20.6265 11.7377 20.665 11.8335 20.665 11.96V14.5889C20.665 14.7163 20.6267 14.8125 20.5879 14.8652C20.5721 14.8866 20.5599 14.8963 20.5537 14.9004H3.44531C3.43921 14.8966 3.42692 14.8869 3.41016 14.8643C3.3713 14.8118 3.33203 14.7162 3.33203 14.5889V11.96C3.33203 11.8339 3.37132 11.7388 3.41016 11.6865C3.42714 11.6637 3.43926 11.6541 3.44531 11.6504H8.52539Z" stroke="#A3A1A1"/>
</svg>
